<svg width="295" height="266" viewBox="0 0 295 266" fill="none" xmlns="http://www.w3.org/2000/svg">
<g clip-path="url(#clip0_0_537)">
<path d="M196.742 11.5557C196.742 11.5557 148.385 -7.44177 102.138 19.3692C55.8909 46.1802 33.6753 101.344 14.5072 145.495C-4.65482 189.646 8.28442 235.46 44.7252 257.2C81.1599 278.94 104.741 249.045 155.035 248.96C205.329 248.875 219.067 256.719 260.042 228.384C301.017 200.049 306.698 130.593 272.366 78.1291C238.034 25.6651 196.748 11.5618 196.748 11.5618L196.742 11.5557Z" fill="#75A9C8"/>
<path opacity="0.7" d="M196.742 11.5557C196.742 11.5557 148.385 -7.44177 102.138 19.3692C55.8909 46.1802 33.6753 101.344 14.5072 145.495C-4.65482 189.646 8.28442 235.46 44.7252 257.2C81.1599 278.94 104.741 249.045 155.035 248.96C205.329 248.875 219.067 256.719 260.042 228.384C301.017 200.049 306.698 130.593 272.366 78.1291C238.034 25.6651 196.748 11.5618 196.748 11.5618L196.742 11.5557Z" fill="white"/>
<path d="M0.678101 260.759H291.424" stroke="#263238" stroke-width="0.609479" stroke-miterlimit="10"/>
<path d="M256.964 231.407C258.147 231.706 260.908 231.218 260.908 231.218C260.938 231.218 260.133 229.573 260.073 229.475C259.341 228.348 257.214 226.635 255.672 227.08C254.563 227.403 254.045 228.579 254.404 229.561C254.77 230.56 255.959 231.157 256.964 231.413V231.407Z" fill="#263238"/>
<path d="M274.157 260.175C274.176 260.236 274.188 260.291 274.206 260.346L275.285 260.583C275.212 260.352 275.139 260.114 275.059 259.87C274.84 259.175 274.59 258.444 274.328 257.694C274.505 257.597 275.51 257.024 276.382 256.384C277.278 257.097 279.442 257.761 279.722 257.841C279.509 258.548 279.295 259.236 279.082 259.882C278.936 260.327 278.796 260.754 278.655 261.162L279.704 260.998C279.795 260.705 279.886 260.407 279.984 260.096C280.203 259.377 280.423 258.603 280.642 257.81C280.947 257.822 283.421 257.92 284.525 257.499C285.524 257.115 286.713 256.366 287.072 255.324C287.426 254.3 286.902 253.184 285.786 253.007C284.244 252.758 282.129 254.745 281.404 255.963C281.361 256.037 280.984 256.859 280.758 257.384C280.843 257.061 280.935 256.744 281.02 256.408C281.197 255.744 281.349 255.08 281.514 254.367C281.581 254.019 281.654 253.672 281.721 253.318C281.8 252.971 281.837 252.593 281.892 252.227C282.014 251.374 282.087 250.509 282.148 249.637C282.739 249.747 284.842 250.112 285.89 249.875C286.932 249.643 288.206 249.064 288.724 248.077C289.23 247.108 288.888 245.919 287.828 245.578C286.353 245.103 283.976 246.773 283.074 247.882C283.019 247.949 282.458 248.814 282.166 249.29C282.196 248.766 282.233 248.241 282.245 247.711C282.288 246.181 282.276 244.633 282.276 243.085C282.276 242.61 282.276 242.14 282.282 241.665C282.489 241.708 284.976 242.195 286.152 241.927C287.194 241.696 288.474 241.117 288.986 240.129C289.492 239.16 289.151 237.972 288.09 237.63C286.615 237.155 284.238 238.825 283.336 239.934C283.269 240.019 282.471 241.257 282.282 241.58C282.288 240.538 282.306 239.501 282.367 238.478C282.446 237.064 282.605 235.674 282.867 234.339C282.964 234.357 285.555 234.875 286.755 234.607C287.798 234.376 289.077 233.797 289.589 232.809C290.095 231.84 289.754 230.652 288.693 230.31C287.219 229.835 284.842 231.505 283.94 232.614C283.866 232.7 283.007 234.034 282.867 234.284C282.885 234.205 282.891 234.12 282.903 234.04C283.196 232.614 283.665 231.255 284.165 230C284.451 229.268 284.775 228.586 285.098 227.927C285.567 228.074 287.724 228.714 288.821 228.586C289.876 228.464 291.205 228.025 291.826 227.086C292.436 226.172 292.235 224.947 291.229 224.49C289.827 223.856 287.292 225.276 286.274 226.288C286.219 226.343 285.719 226.958 285.36 227.415C285.512 227.117 285.658 226.812 285.811 226.532C286.371 225.477 286.95 224.539 287.468 223.71C287.767 223.241 288.047 222.826 288.316 222.436C288.87 222.338 291.095 221.93 292.021 221.339C292.929 220.76 293.935 219.791 294.057 218.712C294.179 217.652 293.411 216.689 292.271 216.75C290.686 216.829 289.035 219.181 288.59 220.51C288.553 220.626 288.157 222.466 288.188 222.466C288.188 222.466 288.212 222.466 288.218 222.466C287.956 222.838 287.676 223.234 287.383 223.679C286.847 224.496 286.243 225.429 285.658 226.477C285.067 227.525 284.458 228.677 283.927 229.945C283.391 231.213 282.891 232.566 282.562 234.016C282.562 234.034 282.562 234.053 282.55 234.065C282.513 233.62 282.367 232.383 282.343 232.291C282.026 230.981 280.6 228.671 279.021 228.634C277.881 228.61 277.022 229.597 277.04 230.652C277.058 231.731 277.973 232.675 278.826 233.224C279.789 233.845 282.318 234.199 282.519 234.229C282.215 235.613 282.02 237.045 281.904 238.508C281.837 239.343 281.794 240.184 281.764 241.025C281.721 240.641 281.672 240.3 281.666 240.251C281.349 238.941 279.923 236.631 278.344 236.594C277.205 236.57 276.345 237.557 276.364 238.612C276.382 239.69 277.296 240.635 278.149 241.184C279.015 241.744 281.166 242.086 281.733 242.171C281.727 242.494 281.715 242.817 281.709 243.14C281.678 244.688 281.648 246.236 281.575 247.754C281.55 248.29 281.502 248.814 281.459 249.345C281.416 249.003 281.38 248.717 281.374 248.674C281.057 247.364 279.63 245.054 278.052 245.017C276.912 244.993 276.053 245.98 276.071 247.035C276.089 248.113 277.004 249.058 277.857 249.607C278.686 250.143 280.661 250.478 281.337 250.576C281.276 251.118 281.215 251.654 281.13 252.179C281.063 252.532 281.026 252.88 280.941 253.233C280.862 253.586 280.788 253.934 280.709 254.281C280.539 254.946 280.362 255.628 280.179 256.268C280.051 256.719 279.923 257.14 279.801 257.572C279.832 257.042 279.874 255.994 279.868 255.909C279.795 255.007 279.314 253.599 278.552 252.672C278.54 252.538 278.521 252.41 278.485 252.282C278.204 251.277 277.113 250.667 276.047 251.118C274.566 251.746 273.859 254.464 273.926 255.823C273.926 255.903 274.072 256.762 274.176 257.304C274.066 257 273.962 256.701 273.847 256.384C273.621 255.762 273.377 255.147 273.115 254.489C272.975 254.172 272.835 253.855 272.695 253.538C272.561 253.215 272.378 252.898 272.219 252.569C271.835 251.825 271.409 251.088 270.964 250.362C271.537 250.137 273.572 249.302 274.346 248.552C275.114 247.809 275.9 246.663 275.779 245.596C275.663 244.548 274.694 243.78 273.572 244.073C272.024 244.481 270.909 247.089 270.763 248.461C270.756 248.546 270.763 249.533 270.775 250.076C270.5 249.637 270.232 249.204 269.94 248.772C269.099 247.522 268.209 246.291 267.325 245.054C267.057 244.676 266.789 244.298 266.521 243.914C266.728 243.835 269.166 242.89 270.031 242.055C270.799 241.312 271.585 240.166 271.463 239.099C271.348 238.051 270.379 237.283 269.263 237.575C267.715 237.984 266.6 240.592 266.454 241.964C266.441 242.067 266.454 243.487 266.478 243.847C265.893 243.012 265.314 242.171 264.784 241.318C264.046 240.141 263.394 238.947 262.852 237.74C262.949 237.703 265.497 236.728 266.38 235.869C267.148 235.125 267.935 233.98 267.813 232.913C267.697 231.865 266.728 231.097 265.606 231.389C264.058 231.798 262.943 234.406 262.797 235.778C262.784 235.887 262.797 237.411 262.821 237.685C262.791 237.612 262.748 237.545 262.717 237.472C262.157 236.174 261.785 234.839 261.505 233.565C261.34 232.828 261.224 232.108 261.127 231.408C261.614 231.273 263.851 230.627 264.735 229.939C265.582 229.274 266.484 228.214 266.484 227.135C266.484 226.075 265.619 225.203 264.485 225.38C262.906 225.624 261.511 228.116 261.212 229.469C261.194 229.543 261.115 230.304 261.06 230.859C261.023 230.542 260.974 230.213 260.944 229.908C260.828 228.762 260.798 227.702 260.773 226.763C260.767 226.227 260.773 225.745 260.779 225.288C261.206 224.917 262.9 223.399 263.37 222.424C263.827 221.479 264.15 220.163 263.638 219.23C263.138 218.316 261.925 217.956 260.968 218.615C259.64 219.529 259.548 222.296 259.92 223.594C259.95 223.704 260.663 225.392 260.688 225.374C260.688 225.374 260.706 225.355 260.712 225.349C260.694 225.788 260.682 226.251 260.676 226.763C260.676 227.708 260.682 228.775 260.773 229.927C260.859 231.078 260.987 232.328 261.249 233.626C261.505 234.924 261.846 236.277 262.388 237.612C262.394 237.624 262.401 237.643 262.407 237.655C262.12 237.319 261.285 236.405 261.212 236.344C260.188 235.467 257.628 234.382 256.239 235.199C255.239 235.79 255.056 237.039 255.672 237.874C256.306 238.727 257.634 238.989 258.689 238.977C259.877 238.959 262.279 237.886 262.468 237.801C262.992 239.069 263.644 240.324 264.375 241.549C264.79 242.25 265.235 242.945 265.692 243.634C265.436 243.353 265.198 243.103 265.161 243.073C264.138 242.195 261.578 241.11 260.188 241.927C259.189 242.518 259.006 243.768 259.621 244.603C260.255 245.456 261.584 245.718 262.638 245.706C263.711 245.688 265.771 244.816 266.313 244.578C266.49 244.84 266.667 245.103 266.844 245.365C267.697 246.62 268.556 247.87 269.361 249.125C269.641 249.564 269.903 250.015 270.171 250.46C269.94 250.21 269.745 250.003 269.714 249.972C268.69 249.095 266.131 248.01 264.741 248.826C263.741 249.418 263.559 250.667 264.174 251.502C264.808 252.355 266.137 252.617 267.191 252.605C268.215 252.587 270.123 251.801 270.769 251.52C271.025 251.984 271.281 252.453 271.506 252.916C271.652 253.233 271.817 253.532 271.945 253.861C272.079 254.184 272.213 254.507 272.341 254.824C272.567 255.445 272.81 256.085 273.018 256.701C273.164 257.128 273.298 257.536 273.432 257.944C273.158 257.499 272.597 256.646 272.542 256.579C271.677 255.549 269.342 254.092 267.855 254.708C266.783 255.147 266.411 256.372 266.886 257.292C267.374 258.237 268.635 258.694 269.672 258.834C270.811 258.986 273.231 258.31 273.536 258.225C273.755 258.907 273.962 259.572 274.145 260.199L274.157 260.175Z" fill="#263238"/>
<path d="M285.012 227.64C285.012 227.64 285.335 225.793 285.341 225.678C285.396 224.306 284.677 221.679 283.19 221.241C282.117 220.924 281.032 221.673 280.764 222.716C280.49 223.782 281.093 224.94 281.751 225.696C282.526 226.586 285.012 227.64 285.012 227.64Z" fill="#263238"/>
<path d="M3.84093 244.17C4.51745 244.34 6.08991 244.06 6.08991 244.06C6.10819 244.06 5.64499 243.121 5.61451 243.06C5.19397 242.414 3.98111 241.439 3.10346 241.689C2.4696 241.872 2.17705 242.548 2.37818 243.103C2.5854 243.676 3.26802 244.017 3.84093 244.164V244.17Z" fill="#263238"/>
<path d="M13.6597 260.601C13.6719 260.638 13.6779 260.669 13.6901 260.699L14.3057 260.833C14.263 260.699 14.2204 260.565 14.1777 260.425C14.0497 260.029 13.9096 259.608 13.7572 259.181C13.8608 259.127 14.4337 258.797 14.9335 258.432C15.4454 258.84 16.6827 259.218 16.8411 259.267C16.7193 259.669 16.5974 260.065 16.4755 260.431C16.3901 260.687 16.3109 260.931 16.2317 261.162L16.829 261.071C16.8838 260.9 16.9326 260.729 16.9874 260.553C17.1154 260.144 17.2373 259.699 17.3653 259.248C17.536 259.255 18.9499 259.309 19.5838 259.072C20.1567 258.852 20.8332 258.426 21.0405 257.828C21.2416 257.243 20.9429 256.609 20.3091 256.506C19.4253 256.366 18.2186 257.499 17.8041 258.194C17.7797 258.237 17.5664 258.706 17.4323 259.005C17.4811 258.822 17.5299 258.639 17.5847 258.45C17.6822 258.072 17.7736 257.694 17.8712 257.286C17.9077 257.085 17.9504 256.89 17.9931 256.689C18.0357 256.487 18.0601 256.274 18.0906 256.067C18.1576 255.579 18.2003 255.086 18.2369 254.586C18.5721 254.647 19.7727 254.854 20.37 254.72C20.9673 254.586 21.6926 254.257 21.9912 253.69C22.2777 253.135 22.0888 252.459 21.4793 252.264C20.6382 251.99 19.2791 252.946 18.7671 253.58C18.7366 253.617 18.4197 254.111 18.249 254.385C18.2673 254.086 18.2856 253.787 18.2917 253.483C18.3161 252.605 18.31 251.721 18.31 250.838C18.31 250.569 18.31 250.295 18.31 250.027C18.4319 250.051 19.852 250.326 20.5224 250.179C21.1197 250.045 21.845 249.716 22.1436 249.149C22.4301 248.595 22.2411 247.918 21.6317 247.723C20.7906 247.449 19.4314 248.406 18.9195 249.04C18.8829 249.088 18.4258 249.795 18.3161 249.978C18.3161 249.381 18.3283 248.79 18.3648 248.205C18.4136 247.4 18.505 246.602 18.6513 245.84C18.7062 245.852 20.1872 246.145 20.8759 245.992C21.4732 245.858 22.1985 245.529 22.4971 244.962C22.7836 244.408 22.5946 243.731 21.9852 243.536C21.1441 243.262 19.7849 244.219 19.273 244.853C19.2303 244.901 18.7427 245.663 18.6635 245.809C18.6696 245.767 18.6757 245.718 18.6879 245.669C18.8524 244.853 19.1206 244.078 19.4071 243.359C19.5716 242.945 19.7545 242.549 19.9373 242.177C20.2055 242.262 21.4366 242.628 22.0644 242.555C22.6678 242.482 23.4235 242.232 23.777 241.702C24.1244 241.177 24.0086 240.476 23.4357 240.22C22.6373 239.861 21.1867 240.665 20.6077 241.244C20.5773 241.275 20.2908 241.628 20.0836 241.89C20.1689 241.72 20.2542 241.543 20.3396 241.385C20.6626 240.781 20.9917 240.245 21.2903 239.776C21.461 239.507 21.6195 239.27 21.7718 239.044C22.0888 238.989 23.3565 238.752 23.8867 238.416C24.4048 238.087 24.9777 237.533 25.0508 236.917C25.1179 236.314 24.6791 235.759 24.033 235.796C23.131 235.844 22.1863 237.185 21.9303 237.941C21.9059 238.008 21.6804 239.062 21.6987 239.056H21.717C21.5646 239.27 21.4061 239.495 21.2416 239.745C20.9368 240.214 20.5894 240.745 20.2542 241.342C19.919 241.939 19.5716 242.597 19.2669 243.323C18.9621 244.048 18.6757 244.822 18.4867 245.645C18.4867 245.657 18.4867 245.663 18.4867 245.675C18.4624 245.419 18.3831 244.712 18.3648 244.664C18.182 243.914 17.3714 242.597 16.4694 242.573C15.8172 242.561 15.3296 243.122 15.3418 243.725C15.354 244.341 15.8721 244.877 16.3597 245.194C16.9082 245.547 18.3527 245.748 18.4685 245.767C18.2978 246.559 18.182 247.376 18.115 248.211C18.0784 248.686 18.054 249.168 18.0357 249.649C18.0113 249.43 17.987 249.235 17.9809 249.21C17.798 248.461 16.9874 247.144 16.0854 247.12C15.4332 247.108 14.9457 247.668 14.9579 248.272C14.97 248.887 15.4881 249.424 15.9757 249.741C16.4694 250.057 17.6944 250.259 18.0235 250.301C18.0235 250.484 18.0113 250.673 18.0113 250.856C17.9931 251.74 17.9809 252.623 17.9382 253.489C17.926 253.794 17.8955 254.098 17.8712 254.397C17.8468 254.202 17.8285 254.037 17.8224 254.013C17.6396 253.263 16.829 251.947 15.9269 251.922C15.2748 251.91 14.7872 252.471 14.7994 253.074C14.8116 253.69 15.3296 254.226 15.8172 254.543C16.2865 254.848 17.4202 255.037 17.8041 255.098C17.7676 255.409 17.7371 255.713 17.6883 256.012C17.6518 256.213 17.6274 256.414 17.5786 256.615C17.536 256.817 17.4872 257.018 17.4445 257.213C17.347 257.591 17.2495 257.981 17.1398 258.346C17.0667 258.602 16.9935 258.846 16.9204 259.09C16.9387 258.785 16.963 258.188 16.9569 258.139C16.9143 257.627 16.64 256.817 16.2012 256.292C16.2012 256.219 16.1829 256.14 16.1646 256.067C16.0062 255.494 15.3845 255.141 14.775 255.403C13.9278 255.762 13.5256 257.316 13.5682 258.09C13.5682 258.139 13.6536 258.627 13.7084 258.938C13.6475 258.761 13.5865 258.59 13.5195 258.413C13.3915 258.06 13.2513 257.706 13.0989 257.329C13.0197 257.152 12.9405 256.969 12.8612 256.786C12.7881 256.603 12.6784 256.42 12.5931 256.231C12.3737 255.805 12.1299 255.384 11.8739 254.97C12.203 254.842 13.3671 254.36 13.8059 253.934C14.2448 253.507 14.6897 252.855 14.6226 252.245C14.5556 251.648 14.001 251.209 13.3671 251.374C12.4834 251.606 11.8434 253.099 11.7581 253.879C11.7581 253.928 11.7581 254.488 11.7642 254.799C11.6057 254.549 11.4533 254.299 11.2888 254.056C10.8073 253.343 10.3014 252.642 9.79557 251.935C9.6432 251.721 9.49083 251.502 9.33846 251.283C9.45426 251.24 10.85 250.697 11.3436 250.222C11.7825 249.795 12.2274 249.143 12.1603 248.534C12.0933 247.936 11.5387 247.498 10.9048 247.662C10.0211 247.894 9.38112 249.387 9.29579 250.167C9.2897 250.228 9.29579 251.039 9.30798 251.24C8.97277 250.764 8.64365 250.283 8.33891 249.795C7.91837 249.125 7.54659 248.442 7.23575 247.754C7.29061 247.735 8.74726 247.175 9.25313 246.687C9.69195 246.26 10.1369 245.608 10.0698 244.999C10.0028 244.402 9.44816 243.963 8.8143 244.127C7.93056 244.359 7.29061 245.852 7.21137 246.632C7.20528 246.693 7.21137 247.565 7.22356 247.723C7.20528 247.681 7.1809 247.644 7.16261 247.601C6.84569 246.858 6.63237 246.096 6.46781 245.371C6.37639 244.95 6.30934 244.542 6.25449 244.139C6.53485 244.06 7.81476 243.695 8.31453 243.298C8.79602 242.92 9.31408 242.311 9.31408 241.695C9.31408 241.092 8.8204 240.592 8.16826 240.69C7.26623 240.83 6.46781 242.25 6.29715 243.024C6.28496 243.067 6.2423 243.499 6.21183 243.816C6.18745 243.634 6.16307 243.451 6.14478 243.274C6.07774 242.622 6.05946 242.012 6.04727 241.476C6.04727 241.171 6.04727 240.891 6.04727 240.635C6.29106 240.422 7.26013 239.556 7.5283 239.002C7.79038 238.459 7.97322 237.709 7.68067 237.179C7.39422 236.661 6.69941 236.454 6.15697 236.826C5.39512 237.35 5.34637 238.928 5.55968 239.666C5.57797 239.727 5.98632 240.696 5.99851 240.684L6.0107 240.671C5.99851 240.921 5.99241 241.19 5.99241 241.482C5.99241 242.018 5.99241 242.628 6.04727 243.286C6.09603 243.944 6.16916 244.657 6.31544 245.401C6.46171 246.145 6.65675 246.913 6.96758 247.681C6.96758 247.687 6.97368 247.699 6.97977 247.705C6.81521 247.516 6.33982 246.992 6.29715 246.955C5.71205 246.455 4.2493 245.834 3.45698 246.303C2.88407 246.638 2.78046 247.351 3.13396 247.833C3.49355 248.32 4.2554 248.473 4.85878 248.461C5.5414 248.448 6.90663 247.839 7.01634 247.79C7.31498 248.515 7.68677 249.229 8.10731 249.929C8.345 250.332 8.60099 250.728 8.85697 251.124C8.71069 250.966 8.57661 250.819 8.55832 250.801C7.97322 250.301 6.51047 249.68 5.71815 250.149C5.14524 250.484 5.04163 251.197 5.39512 251.679C5.75472 252.166 6.51657 252.319 7.11995 252.306C7.72943 252.3 8.91182 251.801 9.21656 251.66C9.32017 251.813 9.41769 251.959 9.5213 252.111C10.0089 252.831 10.5026 253.544 10.9597 254.257C11.1242 254.507 11.2705 254.763 11.4229 255.019C11.2949 254.878 11.1791 254.757 11.1608 254.738C10.5757 254.238 9.11295 253.617 8.32063 254.086C7.74771 254.421 7.6441 255.134 7.9976 255.616C8.35719 256.104 9.11904 256.256 9.72243 256.244C10.3075 256.238 11.3985 255.78 11.7642 255.622C11.9105 255.89 12.0567 256.152 12.1847 256.42C12.2701 256.603 12.3615 256.774 12.4346 256.963C12.5138 257.146 12.587 257.329 12.6601 257.511C12.7881 257.865 12.9283 258.231 13.0441 258.584C13.1294 258.828 13.2026 259.059 13.2818 259.297C13.1233 259.041 12.8064 258.554 12.7698 258.517C12.2761 257.932 10.9414 257.097 10.0942 257.444C9.47864 257.694 9.26532 258.395 9.53958 258.919C9.81385 259.462 10.5391 259.724 11.1303 259.803C11.7825 259.888 13.166 259.504 13.3366 259.456C13.4646 259.846 13.5804 260.224 13.684 260.583L13.6597 260.601Z" fill="#263238"/>
<path d="M19.8583 242.018C19.8583 242.018 20.0411 240.964 20.0472 240.897C20.0777 240.116 19.6693 238.611 18.8161 238.361C18.2066 238.178 17.5849 238.611 17.4325 239.202C17.2741 239.812 17.6215 240.47 17.9994 240.903C18.4382 241.415 19.8644 242.012 19.8644 242.012L19.8583 242.018Z" fill="#263238"/>
<path d="M28.5956 63.8636C33.1166 60.8027 34.3002 54.6563 31.2392 50.1353C28.1783 45.6143 22.0319 44.4306 17.5109 47.4916C12.9899 50.5525 11.8063 56.6989 14.8672 61.2199C17.9282 65.7409 24.0746 66.9245 28.5956 63.8636Z" stroke="#263238" stroke-width="0.609479" stroke-miterlimit="10"/>
<path d="M26.5625 54.5488C26.5625 56.487 24.9962 58.0533 23.058 58.0533C21.1199 58.0533 19.5535 56.487 19.5535 54.5488C19.5535 52.6107 21.1199 51.0443 23.058 51.0443C24.9962 51.0443 26.5625 52.6107 26.5625 54.5488Z" stroke="#263238" stroke-width="0.609479" stroke-miterlimit="10"/>
<path d="M23.0516 65.5678C25.2884 65.5678 27.3423 64.8182 29.0001 63.5687C28.5247 60.7103 26.0441 58.5344 23.0516 58.5344C20.0591 58.5344 17.5846 60.7164 17.1031 63.5687C18.7609 64.8182 20.8148 65.5678 23.0516 65.5678Z" stroke="#263238" stroke-width="0.609479" stroke-miterlimit="10"/>
<path d="M23.052 90.3859C28.5117 90.3859 32.9377 85.9599 32.9377 80.5001C32.9377 75.0404 28.5117 70.6144 23.052 70.6144C17.5922 70.6144 13.1662 75.0404 13.1662 80.5001C13.1662 85.9599 17.5922 90.3859 23.052 90.3859Z" stroke="#263238" stroke-width="0.609479" stroke-miterlimit="10"/>
<path d="M26.5625 79.3785C26.5625 81.3167 24.9962 82.883 23.058 82.883C21.1199 82.883 19.5535 81.3167 19.5535 79.3785C19.5535 77.4404 21.1199 75.874 23.058 75.874C24.9962 75.874 26.5625 77.4404 26.5625 79.3785Z" stroke="#263238" stroke-width="0.609479" stroke-miterlimit="10"/>
<path d="M23.0518 90.392C25.2886 90.392 27.3426 89.6424 29.0004 88.3929C28.525 85.5345 26.0444 83.3586 23.0518 83.3586C20.0593 83.3586 17.5848 85.5406 17.1033 88.3929C18.7611 89.6424 20.8151 90.392 23.0518 90.392Z" stroke="#263238" stroke-width="0.609479" stroke-miterlimit="10"/>
<path d="M23.052 115.216C28.5117 115.216 32.9377 110.79 32.9377 105.33C32.9377 99.8703 28.5117 95.4443 23.052 95.4443C17.5922 95.4443 13.1662 99.8703 13.1662 105.33C13.1662 110.79 17.5922 115.216 23.052 115.216Z" stroke="#263238" stroke-width="0.609479" stroke-miterlimit="10"/>
<path d="M26.5625 104.203C26.5625 106.141 24.9962 107.707 23.058 107.707C21.1199 107.707 19.5535 106.141 19.5535 104.203C19.5535 102.265 21.1199 100.698 23.058 100.698C24.9962 100.698 26.5625 102.265 26.5625 104.203Z" stroke="#263238" stroke-width="0.609479" stroke-miterlimit="10"/>
<path d="M23.0518 115.216C25.2886 115.216 27.3426 114.466 29.0004 113.216C28.525 110.358 26.0444 108.182 23.0518 108.182C20.0593 108.182 17.5848 110.364 17.1033 113.216C18.7611 114.466 20.8151 115.216 23.0518 115.216Z" stroke="#263238" stroke-width="0.609479" stroke-miterlimit="10"/>
<path d="M28.5956 138.341C33.1166 135.28 34.3002 129.134 31.2392 124.613C28.1783 120.092 22.0319 118.908 17.5109 121.969C12.9899 125.03 11.8063 131.176 14.8672 135.697C17.9282 140.218 24.0746 141.402 28.5956 138.341Z" stroke="#263238" stroke-width="0.609479" stroke-miterlimit="10"/>
<path d="M26.5625 129.027C26.5625 130.965 24.9962 132.532 23.058 132.532C21.1199 132.532 19.5535 130.965 19.5535 129.027C19.5535 127.089 21.1199 125.523 23.058 125.523C24.9962 125.523 26.5625 127.089 26.5625 129.027Z" stroke="#263238" stroke-width="0.609479" stroke-miterlimit="10"/>
<path d="M23.0516 140.04C25.2884 140.04 27.3423 139.291 29.0001 138.041C28.5247 135.183 26.0441 133.007 23.0516 133.007C20.0591 133.007 17.5846 135.189 17.1031 138.041C18.7609 139.291 20.8148 140.04 23.0516 140.04Z" stroke="#263238" stroke-width="0.609479" stroke-miterlimit="10"/>
<path d="M277.011 34.9105H234.688V37.7568H277.011V34.9105Z" stroke="#263238" stroke-width="0.609479" stroke-miterlimit="10"/>
<path d="M255.636 40.6097H234.688V43.456H255.636V40.6097Z" stroke="#263238" stroke-width="0.609479" stroke-miterlimit="10"/>
<path d="M263.309 46.3082H234.688V49.1545H263.309V46.3082Z" stroke="#263238" stroke-width="0.609479" stroke-miterlimit="10"/>
<path d="M252.345 52.0068H234.688V54.8531H252.345V52.0068Z" stroke="#263238" stroke-width="0.609479" stroke-miterlimit="10"/>
<path d="M267.106 57.6995H234.688V60.5457H267.106V57.6995Z" stroke="#263238" stroke-width="0.609479" stroke-miterlimit="10"/>
<path d="M257.196 63.3979H234.688V66.2442H257.196V63.3979Z" stroke="#263238" stroke-width="0.609479" stroke-miterlimit="10"/>
<path d="M259.933 69.0964H234.688V71.9427H259.933V69.0964Z" stroke="#263238" stroke-width="0.609479" stroke-miterlimit="10"/>
<path d="M235.06 29.4984H256.355" stroke="#263238" stroke-width="0.609479" stroke-miterlimit="10"/>
<path d="M235.06 25.9148H256.355" stroke="#263238" stroke-width="0.609479" stroke-miterlimit="10"/>
<path d="M99.4138 41.9687L123.488 0.304688H129.351" stroke="#263238" stroke-width="0.609479" stroke-miterlimit="10"/>
<path d="M134.904 0.615234H149.721" stroke="#263238" stroke-width="0.609479" stroke-miterlimit="10"/>
<path d="M134.904 4.31421H149.721" stroke="#263238" stroke-width="0.609479" stroke-miterlimit="10"/>
<path d="M134.904 8.02087H149.721" stroke="#263238" stroke-width="0.609479" stroke-miterlimit="10"/>
<path d="M143.363 201.676H191.768" stroke="#263238" stroke-width="0.609479" stroke-miterlimit="10"/>
<path d="M140.706 199.611H137.464V202.854H140.706V199.611Z" fill="#75A9C8"/>
<path d="M143.363 208.753H191.768" stroke="#263238" stroke-width="0.609479" stroke-miterlimit="10"/>
<path d="M140.706 206.687H137.464V209.929H140.706V206.687Z" fill="#75A9C8"/>
<path d="M143.363 215.835H191.768" stroke="#263238" stroke-width="0.609479" stroke-miterlimit="10"/>
<path d="M140.706 213.763H137.464V217.005H140.706V213.763Z" fill="#75A9C8"/>
<path d="M143.363 222.911H191.768" stroke="#263238" stroke-width="0.609479" stroke-miterlimit="10"/>
<path d="M140.706 220.839H137.464V224.081H140.706V220.839Z" fill="#75A9C8"/>
<path d="M218.933 162.298H100.084V236.015H218.933V162.298Z" stroke="#263238" stroke-width="0.609479" stroke-miterlimit="10"/>
<path d="M218.933 162.298H100.084V168.223H218.933V162.298Z" stroke="#263238" stroke-width="0.609479" stroke-miterlimit="10"/>
<path d="M131.223 168.637V235.387" stroke="#263238" stroke-width="0.609479" stroke-miterlimit="10"/>
<path d="M147.13 194.089C152.795 194.089 157.388 189.496 157.388 183.831C157.388 178.166 152.795 173.573 147.13 173.573C141.465 173.573 136.873 178.166 136.873 183.831C136.873 189.496 141.465 194.089 147.13 194.089Z" stroke="#263238" stroke-width="0.609479" stroke-miterlimit="10"/>
<path d="M150.762 182.661C150.762 184.666 149.135 186.3 147.124 186.3C145.112 186.3 143.485 184.672 143.485 182.661C143.485 180.65 145.112 179.022 147.124 179.022C149.135 179.022 150.762 180.65 150.762 182.661Z" stroke="#263238" stroke-width="0.609479" stroke-miterlimit="10"/>
<path d="M147.13 194.089C149.452 194.089 151.579 193.309 153.298 192.011C152.804 189.049 150.232 186.788 147.13 186.788C144.028 186.788 141.456 189.049 140.962 192.011C142.681 193.309 144.814 194.089 147.13 194.089Z" stroke="#263238" stroke-width="0.609479" stroke-miterlimit="10"/>
<path d="M115.894 188.019C118.62 188.019 120.831 185.808 120.831 183.082C120.831 180.355 118.62 178.145 115.894 178.145C113.167 178.145 110.957 180.355 110.957 183.082C110.957 185.808 113.167 188.019 115.894 188.019Z" stroke="#263238" stroke-width="0.609479" stroke-miterlimit="10"/>
<path d="M117.643 182.515C117.643 183.478 116.863 184.264 115.894 184.264C114.925 184.264 114.145 183.484 114.145 182.515C114.145 181.546 114.925 180.765 115.894 180.765C116.863 180.765 117.643 181.546 117.643 182.515Z" stroke="#263238" stroke-width="0.609479" stroke-miterlimit="10"/>
<path d="M115.894 188.012C117.01 188.012 118.034 187.64 118.862 187.013C118.625 185.586 117.388 184.502 115.894 184.502C114.401 184.502 113.164 185.586 112.926 187.013C113.755 187.634 114.779 188.012 115.894 188.012Z" stroke="#263238" stroke-width="0.609479" stroke-miterlimit="10"/>
<path d="M115.894 208.679C118.62 208.679 120.831 206.469 120.831 203.743C120.831 201.016 118.62 198.806 115.894 198.806C113.167 198.806 110.957 201.016 110.957 203.743C110.957 206.469 113.167 208.679 115.894 208.679Z" stroke="#263238" stroke-width="0.609479" stroke-miterlimit="10"/>
<path d="M117.643 203.176C117.643 204.139 116.863 204.925 115.894 204.925C114.925 204.925 114.145 204.145 114.145 203.176C114.145 202.207 114.925 201.427 115.894 201.427C116.863 201.427 117.643 202.207 117.643 203.176Z" stroke="#263238" stroke-width="0.609479" stroke-miterlimit="10"/>
<path d="M115.894 208.674C117.01 208.674 118.034 208.302 118.862 207.674C118.625 206.248 117.388 205.163 115.894 205.163C114.401 205.163 113.164 206.248 112.926 207.674C113.755 208.296 114.779 208.674 115.894 208.674Z" stroke="#263238" stroke-width="0.609479" stroke-miterlimit="10"/>
<path d="M115.894 229.341C118.62 229.341 120.831 227.131 120.831 224.405C120.831 221.678 118.62 219.468 115.894 219.468C113.167 219.468 110.957 221.678 110.957 224.405C110.957 227.131 113.167 229.341 115.894 229.341Z" stroke="#263238" stroke-width="0.609479" stroke-miterlimit="10"/>
<path d="M117.643 223.843C117.643 224.806 116.863 225.593 115.894 225.593C114.925 225.593 114.145 224.813 114.145 223.843C114.145 222.874 114.925 222.094 115.894 222.094C116.863 222.094 117.643 222.874 117.643 223.843Z" stroke="#263238" stroke-width="0.609479" stroke-miterlimit="10"/>
<path d="M115.894 229.335C117.01 229.335 118.034 228.963 118.862 228.335C118.625 226.909 117.388 225.824 115.894 225.824C114.401 225.824 113.164 226.909 112.926 228.335C113.755 228.957 114.779 229.335 115.894 229.335Z" stroke="#263238" stroke-width="0.609479" stroke-miterlimit="10"/>
<path d="M162.909 177.987H188.879" stroke="#263238" stroke-width="0.609479" stroke-miterlimit="10"/>
<path d="M162.909 183.959H188.879" stroke="#263238" stroke-width="0.609479" stroke-miterlimit="10"/>
<path d="M162.909 189.932H188.879" stroke="#263238" stroke-width="0.609479" stroke-miterlimit="10"/>
<path d="M220.908 21.1487H139.231V141.551H220.908V21.1487Z" stroke="#263238" stroke-width="0.609479" stroke-miterlimit="10"/>
<path d="M178 85.1197C192.447 85.1197 204.159 73.408 204.159 58.9609C204.159 44.5137 192.447 32.802 178 32.802C163.553 32.802 151.841 44.5137 151.841 58.9609C151.841 73.408 163.553 85.1197 178 85.1197Z" fill="white" stroke="#263238" stroke-width="0.609479" stroke-miterlimit="10"/>
<path d="M150.908 93.5549H206.024" stroke="#263238" stroke-width="0.609479" stroke-miterlimit="10"/>
<path d="M150.908 99.1558H206.024" stroke="#263238" stroke-width="0.609479" stroke-miterlimit="10"/>
<path d="M157.619 108.597H206.024" stroke="#263238" stroke-width="0.609479" stroke-miterlimit="10"/>
<path d="M154.962 106.524H151.719V109.767H154.962V106.524Z" fill="#75A9C8"/>
<path d="M157.619 115.673H206.024" stroke="#263238" stroke-width="0.609479" stroke-miterlimit="10"/>
<path d="M154.962 113.6H151.719V116.843H154.962V113.6Z" fill="#75A9C8"/>
<path d="M157.619 122.75H206.024" stroke="#263238" stroke-width="0.609479" stroke-miterlimit="10"/>
<path d="M154.962 120.683H151.719V123.925H154.962V120.683Z" fill="#75A9C8"/>
<path d="M157.619 129.825H206.024" stroke="#263238" stroke-width="0.609479" stroke-miterlimit="10"/>
<path d="M154.962 127.759H151.719V131.001H154.962V127.759Z" fill="#75A9C8"/>
<path d="M172.215 41.6092C172.215 41.6092 175.635 35.746 183.204 35.9898C190.774 36.2336 192.609 44.5347 192.365 46.9787C192.121 49.4227 191.268 51.0074 191.268 51.0074L187.971 48.1977C187.971 48.1977 191.292 51.2756 193.127 56.1575C194.961 61.0394 194.077 67.3658 191.755 68.8347C189.433 70.3035 187.849 69.6879 187.849 69.6879L188.092 66.3906C188.092 66.3906 185.892 70.2974 182.229 71.0288C178.566 71.7602 168.065 72.2477 166.48 70.4193C164.896 68.5909 164.524 66.5125 164.524 66.5125L164.28 69.6879C164.28 69.6879 160.983 67.2439 160.861 64.4403C160.739 61.6306 162.446 57.7239 163.305 55.6516C164.158 53.5733 164.768 52.4762 165.011 49.3008C165.255 46.1255 164.89 44.4189 167.09 42.3406C169.29 40.2623 172.215 41.6092 172.215 41.6092Z" fill="#263238" stroke="#263238" stroke-width="0.609479" stroke-linecap="round" stroke-linejoin="round"/>
<path d="M167.114 74.9045C165.085 75.7761 161.812 76.5501 159.587 77.5436C164.311 82.2244 170.814 85.1194 177.994 85.1194C185.173 85.1194 191.591 82.261 196.315 77.6289C195.742 77.3303 194.913 77.0011 193.639 76.6476C189.726 75.5628 184.174 72.3813 183.522 71.2964C182.869 70.2115 182.223 66.3962 182.223 66.3962L173.185 65.1772C173.185 65.1772 173.63 69.9068 173.63 70.7784C173.63 71.6499 170.15 73.6063 167.108 74.9106L167.114 74.9045Z" fill="white" stroke="#263238" stroke-width="0.609479" stroke-linecap="round" stroke-linejoin="round"/>
<path d="M170.868 54.6699C170.868 54.6699 171.6 49.1724 173.312 46.2469C175.019 43.3153 178.682 44.1686 180.151 45.1498C181.614 46.125 183.936 51.3787 185.277 54.7979C186.617 58.2171 187.233 60.1674 187.233 60.1674C187.233 60.1674 185.106 64.6105 182.229 66.3963C179.157 68.2979 175.817 68.2247 173.191 65.1773C171.722 63.4708 170.99 61.6363 170.99 61.6363C170.99 61.6363 167.937 60.6611 167.206 58.0952C166.474 55.5293 167.084 54.1884 168.303 53.8227C169.522 53.457 170.868 54.676 170.868 54.676V54.6699Z" fill="white" stroke="#263238" stroke-width="0.609479" stroke-linecap="round" stroke-linejoin="round"/>
<path d="M180.395 52.8412C180.395 52.8412 180.273 54.6757 181.248 56.0166C182.223 57.3574 181.37 58.8263 179.664 58.4606" stroke="#263238" stroke-width="0.609479" stroke-linecap="round" stroke-linejoin="round"/>
<path d="M181.248 60.655C181.248 60.655 177.097 62.6115 175.141 58.6986" stroke="#263238" stroke-width="0.609479" stroke-linecap="round" stroke-linejoin="round"/>
<path d="M175.878 54.7917C175.878 55.3341 176.098 55.7669 176.366 55.7669C176.634 55.7669 176.854 55.328 176.854 54.7917C176.854 54.2554 176.634 53.8165 176.366 53.8165C176.098 53.8165 175.878 54.2554 175.878 54.7917Z" fill="#263238"/>
<path d="M181.864 54.7917C181.864 55.3341 182.083 55.7669 182.351 55.7669C182.62 55.7669 182.839 55.328 182.839 54.7917C182.839 54.2554 182.62 53.8165 182.351 53.8165C182.083 53.8165 181.864 54.2554 181.864 54.7917Z" fill="#263238"/>
<path d="M177.341 50.519C177.341 50.519 176.001 49.5438 174.532 50.8846" stroke="#263238" stroke-width="0.609479" stroke-linecap="round" stroke-linejoin="round"/>
<path d="M180.882 50.7626C180.882 50.7626 181.857 49.6656 183.204 50.275" stroke="#263238" stroke-width="0.609479" stroke-linecap="round" stroke-linejoin="round"/>
<path d="M187.861 74.2343L178.39 83.2119L169.211 73.9357C168.522 74.277 167.809 74.6061 167.12 74.9047C165.091 75.7763 161.818 76.5503 159.593 77.5438C164.317 82.2246 170.82 85.1196 178 85.1196C185.179 85.1196 191.597 82.2612 196.321 77.6291C195.748 77.3305 194.919 77.0014 193.645 76.6479C191.853 76.1481 189.714 75.2095 187.861 74.2343Z" fill="#75A9C8" stroke="#263238" stroke-width="0.609479" stroke-miterlimit="10"/>
<path d="M126.834 21.1487H45.1576V141.551H126.834V21.1487Z" stroke="#263238" stroke-width="0.609479" stroke-miterlimit="10"/>
<path d="M56.8354 93.5549H111.957" stroke="#263238" stroke-width="0.609479" stroke-miterlimit="10"/>
<path d="M56.8354 99.1558H111.957" stroke="#263238" stroke-width="0.609479" stroke-miterlimit="10"/>
<path d="M63.5519 108.597H111.957" stroke="#263238" stroke-width="0.609479" stroke-miterlimit="10"/>
<path d="M60.8942 106.524H57.6518V109.767H60.8942V106.524Z" fill="#75A9C8"/>
<path d="M63.5519 115.673H111.957" stroke="#263238" stroke-width="0.609479" stroke-miterlimit="10"/>
<path d="M60.8942 113.6H57.6518V116.843H60.8942V113.6Z" fill="#75A9C8"/>
<path d="M63.5519 122.749H111.957" stroke="#263238" stroke-width="0.609479" stroke-miterlimit="10"/>
<path d="M60.8942 120.683H57.6518V123.925H60.8942V120.683Z" fill="#75A9C8"/>
<path d="M63.5519 129.825H111.957" stroke="#263238" stroke-width="0.609479" stroke-miterlimit="10"/>
<path d="M60.8942 127.759H57.6518V131.001H60.8942V127.759Z" fill="#75A9C8"/>
<path d="M83.9264 85.1197C98.3736 85.1197 110.085 73.408 110.085 58.9609C110.085 44.5137 98.3736 32.802 83.9264 32.802C69.4793 32.802 57.7676 44.5137 57.7676 58.9609C57.7676 73.408 69.4793 85.1197 83.9264 85.1197Z" fill="white" stroke="#263238" stroke-width="0.609479" stroke-miterlimit="10"/>
<path d="M70.3104 70.4435L63.789 75.6606C68.5856 81.4385 75.8262 85.1197 83.9262 85.1197C92.0262 85.1197 98.9316 81.5969 103.728 76.0446L93.812 69.578L70.3104 70.4435Z" fill="#263238" stroke="#263238" stroke-width="0.609479" stroke-linecap="round" stroke-linejoin="round"/>
<path d="M78.5021 63.0502C78.5021 63.0502 72.7486 63.7938 71.1518 66.1403C69.5549 68.4807 68.3847 70.7175 69.5549 72.1071C70.7251 73.4906 74.0285 76.477 75.9484 77.7509C77.8682 79.0247 80.8547 83.4007 80.8547 83.4007C80.8547 83.4007 81.2691 80.201 81.2691 77.8545C81.2691 75.508 79.2457 72.9543 78.819 70.8272C78.3924 68.694 81.9091 65.287 84.3592 66.3536C86.8093 67.4202 88.7292 70.6139 88.6194 72.1071C88.5097 73.6003 89.0461 75.4105 89.5763 77.9642C90.1066 80.5179 90.5332 82.712 90.5332 82.712C90.5332 82.712 94.1535 79.0308 95.3237 75.0935C96.4939 71.1502 95.9637 67.1033 91.5937 64.4398C87.2237 61.7764 78.4899 63.0563 78.4899 63.0563L78.5021 63.0502Z" fill="#75A9C8" stroke="#263238" stroke-width="0.609479" stroke-linecap="round" stroke-linejoin="round"/>
<path d="M93.4891 65.8971C92.9589 65.379 92.3433 64.8854 91.6058 64.4343C87.2359 61.7709 78.502 63.0508 78.502 63.0508C78.502 63.0508 72.7485 63.7944 71.1517 66.1409C70.9628 66.4151 70.786 66.6833 70.6154 66.9515C70.4264 68.0973 70.6032 69.4808 71.5783 71.035C73.9675 74.8382 78.9165 76.6544 81.263 77.7149C81.1837 75.4111 79.2395 72.9122 78.819 70.8217C78.3923 68.6885 81.909 65.2815 84.3591 66.3481C86.8092 67.4147 88.7291 70.6084 88.6194 72.1016C88.5097 73.5948 89.046 75.405 89.5763 77.9587C89.6067 78.105 89.6372 78.2634 89.6677 78.4158C89.8505 78.239 90.0334 78.0562 90.2162 77.849C92.9832 74.7589 93.8365 71.3519 93.8365 68.3716C93.8365 67.4939 93.7024 66.6589 93.483 65.891L93.4891 65.8971Z" fill="white" stroke="#263238" stroke-width="0.609479" stroke-linecap="round" stroke-linejoin="round"/>
<path d="M77.5454 58.8999C77.5454 58.8999 78.1854 66.5672 78.3987 68.7003C78.612 70.8335 79.7822 76.264 83.4025 77.3306C87.0228 78.3971 89.156 74.2405 88.6196 71.1504C88.0833 68.0604 87.1264 65.1836 87.1264 64.1231C87.1264 63.0626 87.0228 62.7396 87.0228 62.7396L77.5454 58.906V58.8999Z" fill="white" stroke="#263238" stroke-width="0.609479" stroke-linecap="round" stroke-linejoin="round"/>
<path d="M87.0228 62.7335L77.5454 58.8999C77.5454 58.8999 78.033 64.7326 78.2951 67.6398L87.1264 63.9159C87.1142 63.02 87.0228 62.7396 87.0228 62.7396V62.7335Z" fill="#263238" stroke="#263238" stroke-width="0.609479" stroke-linecap="round" stroke-linejoin="round"/>
<path d="M89.2656 44.5411C89.2656 44.5411 90.966 53.9027 90.966 55.6032C90.966 57.3036 89.4058 62.2709 88.6988 63.4045C87.9918 64.5381 84.4446 65.2512 83.0245 64.6783C81.6044 64.1115 77.6367 60.4241 76.7834 58.8639C75.9302 57.3036 75.6498 55.8835 75.6498 55.8835C75.6498 55.8835 73.6629 56.7368 72.1026 54.4634C70.5424 52.1901 71.3956 50.063 72.9559 49.9228L74.376 50.3494C74.376 50.3494 71.8223 45.949 72.6755 43.9682C73.5288 41.9813 83.7376 41.2743 85.8708 41.2743C88.004 41.2743 89.2778 44.535 89.2778 44.535L89.2656 44.5411Z" fill="white" stroke="#263238" stroke-width="0.609479" stroke-linecap="round" stroke-linejoin="round"/>
<path d="M81.5125 46.8453L79.2513 47.8448C78.9222 47.9911 78.7881 48.3873 78.9587 48.7042L79.0441 48.8566C79.2086 49.1491 79.5743 49.2588 79.873 49.1064L82.0549 47.9545C82.3596 47.79 82.4754 47.4121 82.3048 47.1073C82.1463 46.8331 81.8111 46.7173 81.5186 46.8453H81.5125Z" fill="#263238" stroke="#263238" stroke-width="0.609479" stroke-linecap="round" stroke-linejoin="round"/>
<path d="M85.7182 46.3515L85.706 46.3881C85.6329 46.6624 85.8035 46.9427 86.0778 47.0098L87.8209 47.4059C88.1317 47.4791 88.4304 47.2414 88.4304 46.9184C88.4304 46.6868 88.2719 46.4856 88.0525 46.4308L86.3155 45.998C86.0534 45.931 85.7852 46.0895 85.7121 46.3515H85.7182Z" fill="#263238" stroke="#263238" stroke-width="0.609479" stroke-linecap="round" stroke-linejoin="round"/>
<path d="M90.3743 58.7297C90.3743 58.7297 90.1001 55.4934 89.4479 55.0302C88.8019 54.567 83.9931 54.9387 83.9931 54.9387C83.9931 54.9387 79.0929 53.5491 79.0015 54.6645C78.9344 55.4812 79.1477 59.8085 79.355 61.8319C80.7263 63.1423 82.25 64.3796 83.024 64.6843C84.4441 65.2511 87.9913 64.5441 88.6983 63.4105C89.1249 62.7279 89.8563 60.6617 90.3743 58.7541C90.3743 58.7419 90.3743 58.7358 90.3743 58.7358V58.7297ZM89.2651 59.2843C88.7105 61.131 87.5098 62.2403 86.9552 61.966C86.4005 61.6918 85.9373 59.9304 85.4741 59.7475C85.0109 59.5647 84.6391 60.485 84.0845 61.32C83.5299 62.155 82.0489 62.4292 81.4028 61.8746C80.7568 61.32 80.0132 56.2369 80.0132 55.5909C80.0132 54.9448 86.7601 55.9627 86.7601 55.9627C86.7601 55.9627 88.424 55.7798 88.8872 55.8712C89.3504 55.9627 89.8136 57.4437 89.259 59.2904L89.2651 59.2843Z" fill="#808080" stroke="#545454" stroke-width="0.609479" stroke-linecap="round" stroke-linejoin="round"/>
<path d="M81.1283 56.0486C81.1283 56.0486 83.81 57.8953 86.6746 57.2493" stroke="#263238" stroke-width="0.609479" stroke-linecap="round" stroke-linejoin="round"/>
<path d="M85.1995 48.2833C85.1995 48.2833 86.4916 53.921 86.5891 54.3842C86.6805 54.8474 85.6627 56.3285 84.5534 55.4935C83.4442 54.6585 83.2614 53.8296 83.2614 53.8296" fill="white"/>
<path d="M85.1995 48.2833C85.1995 48.2833 86.4916 53.921 86.5891 54.3842C86.6805 54.8474 85.6627 56.3285 84.5534 55.4935C83.4442 54.6585 83.2614 53.8296 83.2614 53.8296" stroke="#263238" stroke-width="0.609479" stroke-linecap="round" stroke-linejoin="round"/>
<path d="M82.3103 51.0262C82.4566 51.5138 82.4017 51.9648 82.1823 52.0319C81.9629 52.0989 81.6642 51.7576 81.5119 51.27C81.3656 50.7824 81.4204 50.3314 81.6399 50.2644C81.8593 50.1973 82.1579 50.5387 82.3103 51.0262Z" fill="#263238"/>
<path d="M87.7842 50.2706C87.8452 50.7765 87.705 51.2092 87.4795 51.2397C87.254 51.264 87.0163 50.874 86.9614 50.3681C86.9005 49.8622 87.0407 49.4295 87.2662 49.399C87.4917 49.3747 87.7294 49.7647 87.7842 50.2706Z" fill="#263238"/>
<path d="M72.1022 38.4399C72.1022 38.4399 68.4149 42.1273 69.835 45.2478C71.255 48.3683 74.8022 54.1828 74.8022 54.1828H75.5092L75.369 51.7692C75.369 51.7692 77.6363 50.916 77.2158 48.9291C76.7891 46.9422 75.7957 45.6683 75.7957 45.6683C75.7957 45.6683 78.2092 47.5151 81.0433 47.0884C83.8774 46.6618 85.1573 43.2609 86.1507 44.3945C87.1442 45.5282 88.7044 46.2413 91.6848 44.681C94.6652 43.1207 96.5667 37.8365 93.2999 35.7094C90.0392 33.5824 87.004 35.4596 85.2974 35.8862C83.597 36.3128 82.3171 33.4727 78.4896 34.6124C74.662 35.746 72.1083 38.4399 72.1083 38.4399H72.1022Z" fill="#263238" stroke="#263238" stroke-width="0.609479" stroke-linecap="round" stroke-linejoin="round"/>
<path d="M109.367 122.72C114.218 121.936 117.516 117.368 116.732 112.516C115.948 107.665 111.379 104.367 106.528 105.151C101.676 105.935 98.3789 110.504 99.1629 115.355C99.9469 120.207 104.515 123.504 109.367 122.72Z" stroke="#263238" stroke-width="1.21896" stroke-miterlimit="10"/>
<path d="M112.927 121.774L122.532 134.586" stroke="#263238" stroke-width="1.82844" stroke-miterlimit="10"/>
<path d="M97.3605 107.275C97.3605 107.275 97.9578 109.073 97.8603 110.864C97.7628 112.662 97.9578 115.253 98.4576 115.649C98.9574 116.045 100.353 117.045 99.9508 117.843C99.5486 118.641 98.6526 119.038 98.6526 119.038C98.6526 119.038 98.1528 121.628 97.1594 123.523C96.1599 125.419 95.465 126.717 94.2644 126.815C93.0698 126.912 92.3689 126.613 92.3689 126.613L91.0707 127.912L81.1971 125.815L81.4958 121.427C81.4958 121.427 78.5032 116.344 78.5032 111.157C78.5032 105.97 83.7874 102.978 86.8775 102.783C89.9675 102.582 95.7515 103.88 97.3483 107.269L97.3605 107.275Z" fill="white" stroke="#263238" stroke-width="0.609479" stroke-miterlimit="10"/>
<path d="M99.95 104.781C99.95 104.781 100.151 106.08 99.1516 107.573C98.1521 109.066 95.4643 109.566 95.4643 109.566C95.4643 109.566 95.3668 111.76 94.7634 112.656C94.1661 113.552 92.7704 114.253 92.7704 114.253C92.7704 114.253 90.7774 114.454 91.3747 116.648C91.972 118.842 92.4717 119.141 91.4722 120.939C90.4726 122.737 84.5912 125.126 82.5982 123.73C80.6052 122.334 79.1059 121.634 77.9113 117.446C76.7167 113.259 75.516 107.372 78.9108 103.386C82.2995 99.3936 89.979 100.393 89.979 100.393C89.979 100.393 87.986 98.4977 90.7774 98.5952C93.5688 98.6927 95.4643 100.692 95.4643 100.692C95.4643 100.692 95.7629 98.6988 97.2622 99.1986C98.7555 99.6983 99.755 103.684 99.9561 104.781H99.95Z" fill="#263238" stroke="#263238" stroke-width="0.609479" stroke-miterlimit="10"/>
<path d="M93.5691 115.752C93.5691 115.752 91.8747 112.558 90.5765 113.759C89.2783 114.953 90.5765 121.341 92.7707 120.14" fill="white"/>
<path d="M93.5691 115.752C93.5691 115.752 91.8747 112.558 90.5765 113.759C89.2783 114.953 90.5765 121.341 92.7707 120.14" stroke="#263238" stroke-width="0.609479" stroke-miterlimit="10"/>
<path d="M92.7707 114.253H100.846" stroke="#263238" stroke-width="0.609479" stroke-miterlimit="10"/>
<path d="M97.5121 112.26C98.0058 112.053 98.5726 111.992 99.1699 112.144C100.06 112.37 100.773 113.107 100.98 114.009C101.224 115.082 100.791 116.075 100.023 116.648" stroke="#263238" stroke-width="0.609479" stroke-miterlimit="10"/>
<path d="M93.3255 130.831C93.3255 130.831 93.3255 128.6 90.4 126.93C87.4745 125.26 81.6235 123.029 78.9783 123.31C76.3332 123.59 74.7973 127.351 74.7973 127.351C74.7973 127.351 85.2438 128.326 87.7548 128.88C90.2659 129.435 93.3255 130.831 93.3255 130.831Z" fill="white" stroke="#263238" stroke-width="0.609479" stroke-miterlimit="10"/>
<path d="M49.5888 145.318C49.5888 145.318 46.2428 149.219 41.7875 154.79C37.3322 160.36 33.7058 166.071 33.7058 166.071C33.7058 166.071 29.5248 169.692 28.9701 171.227C28.4155 172.757 27.0198 177.219 26.4652 178.468C25.9106 179.724 28.4155 178.048 28.8361 177.072C29.2566 176.097 29.6711 175.402 29.6711 175.402L33.2914 173.732C33.2914 173.732 32.176 176.518 33.2914 176.938C34.4067 177.359 34.5469 175.408 35.7963 173.873C37.0518 172.343 38.1672 171.227 38.3013 169.417C38.4415 167.607 38.3013 165.657 38.3013 165.657L56.1286 154.095L49.5827 145.318H49.5888Z" fill="white" stroke="#263238" stroke-width="0.609479" stroke-miterlimit="10"/>
<path d="M29.6711 175.408L31.3228 172.928C31.3228 172.928 32.4747 172.623 33.5535 171.928C34.6323 171.233 35.1686 170.465 35.1686 170.465" stroke="#263238" stroke-width="0.609479" stroke-miterlimit="10"/>
<path d="M110.128 139.857L114.644 130.361C114.644 130.361 115.424 126.704 115.735 126.156C116.046 125.614 117.917 122.651 118.612 122.578C119.313 122.499 120.014 122.81 120.093 123.432C120.172 124.053 119.861 124.523 119.861 124.523C119.861 124.523 120.873 124.992 121.653 126.004C122.433 127.015 122.433 127.795 122.586 128.417C122.738 129.039 123.287 129.118 122.665 130.441C122.043 131.763 121.032 132.153 120.483 132.543C119.935 132.933 118.618 133.555 118.618 133.555C118.618 133.555 118.539 142.508 117.448 146.007C116.357 149.511 115.583 150.675 115.583 150.675C115.583 150.675 113.718 144.294 112.627 143.051C111.536 141.807 110.134 139.857 110.134 139.857H110.128Z" fill="white" stroke="#263238" stroke-width="0.609479" stroke-miterlimit="10"/>
<path d="M55.7142 165.797C55.7142 165.797 49.7779 181.113 48.754 184.684C47.73 188.256 45.3287 195.503 44.3048 204.706C43.7014 210.112 44.3596 215.957 44.3596 215.957C44.3596 215.957 42.324 219.864 40.1115 225.806C37.9052 231.748 30.4147 261.223 30.4147 261.223C30.4147 261.223 31.7739 263.258 34.8335 262.753L37.893 262.241C37.893 262.241 38.9109 262.411 40.0994 262.07C41.2878 261.729 44.0061 261.899 44.1768 260.711C44.3474 259.522 43.5003 259.181 42.4763 257.993C41.4585 256.804 39.9287 253.068 39.9287 253.068C39.9287 253.068 48.4188 238.185 51.4783 232.748C54.5379 227.311 58.7982 217.139 58.9688 215.609C59.1395 214.08 67.6234 191.62 67.6234 191.62H69.4945L82.9031 214.061C82.9031 214.061 82.3911 223.063 83.9209 228.329C85.4507 233.595 89.0162 253.47 89.0162 253.47L88.6749 257.036C88.6749 257.036 89.3514 258.736 89.3514 259.242V261.113C89.3514 261.113 89.8633 262.302 93.2581 262.302C94.7879 262.302 99.8832 261.79 100.73 261.625C101.578 261.461 108.032 261.284 108.203 260.437C108.373 259.589 108.544 258.907 107.526 258.566C106.508 258.224 99.2006 254.829 99.2006 254.829V251.77C99.2006 251.77 97.8414 250.752 97.5001 249.734C97.1588 248.716 97.8414 221.369 97.5001 216.615C97.1588 211.861 97.6708 211.861 96.3116 207.613C94.9525 203.365 89.5586 173.598 89.5586 173.598L86.8099 168.862L57.9327 162.92L55.7081 165.797H55.7142Z" fill="#263238" stroke="#263238" stroke-width="0.609479" stroke-miterlimit="10"/>
<path d="M108.513 140.163C108.513 140.163 109.068 138.352 111.439 139.187C113.81 140.022 117.43 146.849 116.595 150.469C115.76 154.089 113.529 155.345 111.579 155.204C109.629 155.064 107.258 152.7 107.818 152.419C108.373 152.139 108.513 140.163 108.513 140.163Z" fill="white" stroke="#263238" stroke-width="0.609479" stroke-miterlimit="10"/>
<path d="M56.9695 138.493C56.9695 138.493 55.9944 138.493 54.5987 138.353C53.203 138.212 51.2526 140.583 50.1434 141.973C49.0341 143.362 47.6384 144.204 48.6136 147.129C49.5887 150.055 52.2339 153.815 56.1345 154.095C60.0352 154.376 62.2659 152.285 62.2659 152.285L56.9756 138.493H56.9695Z" fill="white" stroke="#263238" stroke-width="0.609479" stroke-miterlimit="10"/>
<path d="M74.8032 127.351C74.8032 127.351 72.5725 127.071 67.8368 129.722C63.1012 132.367 52.935 140.589 52.2341 141.978C51.5393 143.374 53.4897 149.64 55.9946 150.755C58.4996 151.87 60.7303 151.035 60.7303 151.035L55.7143 165.803C55.7143 165.803 61.2849 165.523 70.616 167.199C79.9472 168.869 89.5587 173.604 89.5587 173.604C89.5587 173.604 90.2535 173.464 90.3936 171.654C90.5338 169.844 91.0884 168.728 91.509 167.893C91.9295 167.058 97.2198 149.091 97.2198 149.091C97.2198 149.091 107.666 153.686 110.452 153.686C113.237 153.686 114.212 148.67 113.097 144.91C111.981 141.149 109.617 140.034 109.617 140.034C109.617 140.034 106.411 139.059 103.766 136.828C101.12 134.598 93.3191 130.837 93.3191 130.837C93.3191 130.837 82.1779 126.101 74.791 127.357L74.8032 127.351Z" fill="#75A9C8" stroke="#263238" stroke-width="0.609479" stroke-miterlimit="10"/>
<path d="M93.1845 146.154L97.2253 149.079L91.9351 147.824" stroke="#263238" stroke-width="0.609479" stroke-miterlimit="10"/>
<path d="M65.441 136.298L66.1663 134.037" stroke="#263238" stroke-width="0.609479" stroke-miterlimit="10"/>
<path d="M60.7302 151.03L64.7406 138.486" stroke="#263238" stroke-width="0.609479" stroke-miterlimit="10"/>
</g>
<defs>
<clipPath id="clip0_0_537">
<rect width="294.165" height="265.117" fill="white" transform="translate(0.678162)"/>
</clipPath>
</defs>
</svg>
