<?xml version="1.0" encoding="iso-8859-1"?>
<!-- Uploaded to: SVG Repo, www.svgrepo.com, Generator: SVG Repo Mixer Tools -->
<svg fill="#000000" height="800px" width="800px" version="1.1" id="Layer_1" xmlns="http://www.w3.org/2000/svg" xmlns:xlink="http://www.w3.org/1999/xlink" 
	 viewBox="0 0 512 512" xml:space="preserve">
<g>
	<g>
		<g>
			<path d="M511.765,73.235c-0.064-0.533-0.107-1.045-0.256-1.557c-0.085-0.299-0.171-0.576-0.277-0.853
				c-0.149-0.405-0.405-0.747-0.597-1.131c-0.235-0.427-0.405-0.875-0.683-1.259c-0.213-0.299-0.469-0.555-0.725-0.832
				c-0.32-0.363-0.661-0.661-1.024-0.96c-0.277-0.235-0.512-0.533-0.811-0.747c-0.363-0.256-0.768-0.384-1.173-0.576
				c-0.448-0.235-0.896-0.448-1.387-0.619c-0.277-0.107-0.512-0.277-0.811-0.363l-245.333-64c-1.749-0.448-3.627-0.448-5.376,0
				l-245.333,64c-0.299,0.085-0.512,0.256-0.811,0.363c-0.491,0.171-0.939,0.384-1.387,0.619c-0.384,0.213-0.811,0.341-1.173,0.576
				c-0.32,0.213-0.533,0.512-0.811,0.747c-0.363,0.32-0.704,0.619-1.024,0.96c-0.256,0.277-0.512,0.533-0.725,0.832
				c-0.277,0.384-0.448,0.832-0.683,1.259c-0.213,0.384-0.448,0.725-0.597,1.131c-0.107,0.277-0.192,0.555-0.277,0.853
				c-0.149,0.512-0.192,1.024-0.256,1.557C0.171,73.725,0,74.173,0,74.664v426.667c0,5.888,4.779,10.667,10.667,10.667h490.667
				c5.888,0,10.667-4.779,10.667-10.667V74.664C512,74.173,511.829,73.725,511.765,73.235z M490.667,362.664H373.333
				c-5.888,0-10.667,4.779-10.667,10.667v21.333c0,5.888,4.779,10.667,10.667,10.667h117.333v21.333h-160
				c-5.888,0-10.667,4.779-10.667,10.667v53.333h-85.333v-53.333c0-5.888-4.779-10.667-10.667-10.667h-42.667
				c-5.888,0-10.667,4.779-10.667,10.667v53.333h-21.333v-53.333c0-5.888-4.779-10.667-10.667-10.667H53.333
				c-5.888,0-10.667,4.779-10.667,10.667v53.333H21.333V341.331h469.333V362.664z M490.667,277.331H21.333v-21.333h469.333V277.331z
				 M490.667,191.997H21.333v-21.333h469.333V191.997z M490.667,106.664H21.333V85.331h469.333V106.664z"/>
			<path d="M53.333,405.331h64c5.888,0,10.667-4.779,10.667-10.667v-21.333c0-5.888-4.779-10.667-10.667-10.667h-64
				c-5.888,0-10.667,4.779-10.667,10.667v21.333C42.667,400.552,47.445,405.331,53.333,405.331z"/>
		</g>
	</g>
</g>
</svg>