<svg width="52" height="52" viewBox="0 0 52 52" fill="none" xmlns="http://www.w3.org/2000/svg">
<path d="M25.8231 51.0533C18.9664 51.0533 12.1128 51.0533 5.25615 51.0533C2.99321 51.0533 1.08485 49.592 0.511406 47.4308C-0.206939 44.7208 1.53803 41.9245 4.26342 41.4312C4.67963 41.3572 5.11438 41.3356 5.53984 41.3356C14.8691 41.3295 24.2014 41.3326 33.5306 41.3264C33.7618 41.3264 33.8882 41.3727 34.0053 41.5977C34.9333 43.3828 36.6753 44.0641 38.5035 43.9223C40.156 43.7928 41.3645 42.9388 42.1784 41.5052C42.2185 41.4312 42.3172 41.3387 42.3881 41.3418C44.0191 41.3634 45.6623 41.2678 47.2747 41.4621C49.2879 41.7025 50.885 43.5061 51.1964 45.5687C51.5879 48.1615 49.7073 50.6587 47.1114 50.9886C46.7753 51.0318 46.4362 51.0533 46.097 51.0533C39.339 51.0564 32.5841 51.0533 25.8261 51.0533H25.8231Z" fill="white"/>
<path d="M28.6469 2.88065C28.4927 2.60009 28.3232 2.33497 28.1967 2.04825C27.7651 1.0586 28.5205 0.0257954 29.5965 0.133701C30.0897 0.18303 30.4011 0.494406 30.6416 0.895199C31.1102 1.67212 31.585 2.44595 32.0382 3.23212C33.9312 6.49396 35.821 9.75888 37.7109 13.0207C37.7942 13.1625 37.8589 13.3136 37.9452 13.4523C38.3491 14.106 37.9606 14.812 37.5537 15.1079C36.9926 15.5118 36.3421 15.4717 35.8704 14.9476C35.6021 14.6516 35.4049 14.294 35.1552 13.9364C35.0596 13.9888 34.9516 14.0381 34.853 14.0967C26.6521 18.9185 18.4575 23.7435 10.2536 28.5561C7.28769 30.298 3.48319 29.5519 1.56863 26.8389C-0.780634 23.5123 0.366293 19.3779 3.6158 17.4726C6.49226 15.7862 9.3749 14.106 12.2544 12.4257C17.3414 9.45368 22.4315 6.47855 27.5216 3.5096C27.8885 3.29687 28.2615 3.09646 28.653 2.87756L28.6469 2.88065ZM34.3936 12.4935C34.0113 11.8646 33.6506 11.2911 33.3084 10.7085C32.1369 8.71065 30.9684 6.70669 29.803 4.70581C29.6735 4.48383 29.6026 4.32044 29.2696 4.51775C26.6676 6.06851 24.0532 7.59768 21.4388 9.12377C15.7907 12.4164 10.1363 15.6999 4.49133 18.9956C2.65077 20.0716 1.81218 21.9214 2.17906 24.0117C2.49353 25.8153 4.0813 27.4246 5.88795 27.7452C7.19824 27.9765 8.38521 27.6373 9.52285 26.9714C17.3691 22.39 25.2247 17.8241 33.0772 13.255C33.5088 13.0022 33.9435 12.7556 34.3967 12.4966L34.3936 12.4935Z" fill="white"/>
<path d="M38.118 19.4121C38.7623 20.707 39.3635 21.9186 39.9616 23.1333C40.2206 23.6636 40.4765 24.1939 40.72 24.7334C41.5987 26.6634 40.4118 28.4269 38.8363 28.8122C37.6956 29.0897 36.6967 28.7938 35.926 27.912C35.1707 27.0457 34.9209 26.016 35.4018 24.9523C36.151 23.3029 36.9865 21.6905 37.785 20.0657C37.8806 19.8746 37.9792 19.6834 38.118 19.4183V19.4121Z" fill="white"/>
<path d="M38.1371 32.8291C38.7507 34.0376 39.358 35.2 39.9284 36.3777C40.2953 37.133 40.6837 37.8914 40.9242 38.6899C41.2726 39.8461 40.7269 41.0453 39.6756 41.7174C38.6366 42.3834 37.3633 42.3464 36.4168 41.625C35.2206 40.7155 34.8444 39.3775 35.4919 38.0148C36.3058 36.3068 37.1814 34.6327 38.0323 32.9432C38.0446 32.9154 38.0724 32.8969 38.1371 32.8291Z" fill="white"/>
<path d="M32.3255 11.7016C31.9432 11.9328 31.6349 12.1271 31.3204 12.309C24.8985 16.0302 18.4765 19.7545 12.0546 23.4726C10.7597 24.2218 9.46795 24.9802 8.15149 25.6954C7.08477 26.275 5.7683 26.0901 4.90197 25.3131C3.97398 24.4807 3.61639 23.192 4.01719 22.0976C4.29466 21.3391 4.84649 20.8335 5.53092 20.4389C7.4424 19.3321 9.34465 18.2129 11.2592 17.1092C14.5426 15.2132 17.8322 13.3202 21.1249 11.4364C21.3314 11.3193 21.5965 11.2453 21.8308 11.2546C24.6518 11.3625 27.4728 11.492 30.2938 11.6153C30.9351 11.643 31.5763 11.6708 32.3255 11.7047V11.7016Z" fill="white"/>
</svg>
