<svg width="61" height="60" viewBox="0 0 61 60" fill="none" xmlns="http://www.w3.org/2000/svg">
<path d="M16.4539 38.4828L15.8434 19.9538L21.1493 8.4634L16.4508 38.4797L16.4539 38.4828ZM33.2687 19.8243L34.2707 11.4447L18.6243 40.1908L33.2687 19.8213V19.8243ZM46.2421 29.9243L40.4522 28.9069L21.3034 43.2399L46.2421 29.9243ZM39.4995 23.6966L34.7917 25.4909L24.7411 35.5416L39.4995 23.6966ZM27.8857 0.592442L21.1525 27.8926L27.8857 4.66203V0.589355V0.592442ZM11.891 23.6966L10.7473 27.1219L11.1573 39.6728L11.8941 23.6966H11.891ZM6.22749 36.4203L5.0405 34.1419L6.7208 44.8647L6.22749 36.4203ZM22.7032 45.4011L51.7176 38.4828L43.8898 36.969L22.7032 45.4011ZM54.8036 45.3579L47.0714 44.6273C47.0714 44.6273 31.6779 46.4247 31.4806 46.622L54.8036 45.3579ZM51.7176 49.816H20.9828L60.3346 54.644L51.7144 49.816H51.7176ZM28.6812 53.0963L56.5055 59.879L48.2769 56.2749L28.6812 53.0933V53.0963ZM29.7632 59.1606L37.1687 59.8821L23.2118 54.1168L29.7632 59.1637V59.1606ZM17.0119 55.3562C16.4107 55.5165 14.9617 56.6449 14.9617 56.6449C14.9617 57.5051 16.8238 58.5749 17.277 58.5749C17.7302 58.5749 19.5924 56.4075 19.5924 56.0005C19.5924 55.5936 17.6193 55.1959 17.0151 55.3562H17.0119ZM22.1082 28.4167C21.877 28.0838 20.0272 28.8792 19.6233 29.3571C19.2194 29.8318 18.6705 31.5861 18.6705 31.5861C19.1607 32.2921 21.3003 32.1102 21.6703 31.8512C22.0434 31.5922 22.3363 28.7528 22.1051 28.4198L22.1082 28.4167ZM13.1304 50.8211C13.4079 51.5949 15.532 51.0153 15.7293 50.8211C15.9266 50.6268 15.7479 48.9188 15.3039 48.4718C14.8599 48.0279 12.9546 50.3216 13.1334 50.8211H13.1304ZM35.2696 56.6726C35.2481 56.2811 33.4105 56.5493 33.2872 56.8546C33.093 57.3263 34.3169 57.9459 34.4895 57.9367C34.6622 57.9274 35.2912 57.0642 35.2696 56.6726ZM38.6363 42.8237C38.6147 42.4322 36.7772 42.7004 36.6538 43.0056C36.4596 43.4773 37.6835 44.097 37.8562 44.0877C38.0288 44.0785 38.6579 43.2153 38.6363 42.8237ZM31.5638 32.4432C31.0736 32.1626 29.3255 34.0741 29.5475 34.4225C29.8928 34.9651 32.0077 34.2991 32.1896 34.1327C32.3715 33.9662 32.054 32.7237 31.5638 32.4432ZM19.7528 50.6977C18.609 50.6977 18.316 51.7675 19.466 52.3687C20.6159 52.9699 20.7979 50.6977 19.7528 50.6977ZM8.46584 41.35C9.48324 41.8649 9.64659 39.9226 8.7186 39.9226C7.70428 39.9226 7.44536 40.8382 8.46584 41.35ZM13.4881 28.5925C14.6381 29.1937 14.8199 26.9215 13.7747 26.9215C12.6309 26.9215 12.3381 27.9913 13.4881 28.5925ZM18.4393 44.0816C17.9368 43.5821 16.7314 44.4515 16.3614 44.0816C15.9915 43.7116 16.2936 42.0314 15.5074 42.0314C14.342 42.0314 14.2156 45.4443 14.8106 46.0393C15.4056 46.6343 18.9388 44.5841 18.4363 44.0816H18.4393ZM13.2537 39.7653C13.2537 40.3388 15.1375 40.3141 15.6863 39.7653C16.235 39.2166 15.2083 37.9525 14.3019 37.9525C13.5867 37.9525 13.2537 39.1919 13.2537 39.7653ZM26.002 45.6169C25.5766 45.9992 26.8591 47.3835 27.633 47.4236C28.4068 47.4637 28.6596 45.8543 28.0522 45.1822C27.5713 44.6519 26.4275 45.2346 26.002 45.62V45.6169ZM11.148 51.6966C10.7318 50.5343 11.78 49.0977 13.4941 48.4441C12.8097 47.5376 11.9219 46.807 10.8891 46.3106C10.4081 47.328 9.44615 48.0587 8.29002 48.2221C8.34243 48.4256 8.31782 48.6444 8.19758 48.8263C7.96019 49.184 7.45151 49.2672 7.05997 49.0113C6.73008 48.7924 6.60357 48.4071 6.71147 48.0741C5.83897 47.775 5.12999 47.1399 4.74153 46.3137C2.33985 47.4667 0.671875 49.8962 0.671875 52.7387C0.671875 56.685 3.86895 59.8821 7.81522 59.8821C9.23957 59.8821 10.5592 59.4535 11.6722 58.7352C11.0617 58.2697 10.8027 57.4866 10.9815 56.722C10.7749 56.4198 10.7811 55.9574 11.04 55.5628C11.2651 55.2236 11.6074 55.0417 11.9281 55.0356C11.9466 54.9462 11.9743 54.8598 12.0267 54.7797C12.2641 54.422 12.7727 54.3388 13.1643 54.5947C13.2969 54.681 13.3832 54.7982 13.4511 54.9246C13.5127 54.9801 13.5682 55.0356 13.6114 55.1034C13.7717 55.1527 13.9382 55.1897 14.0862 55.2853C14.2033 55.3624 14.2742 55.4764 14.3666 55.5751C14.7428 54.7057 14.9586 53.7499 14.9586 52.7418C13.2444 53.2906 11.5612 52.8497 11.1511 51.7028L11.148 51.6966Z" fill="white"/>
</svg>
