<svg width="49" height="58" viewBox="0 0 49 58" fill="none" xmlns="http://www.w3.org/2000/svg">
<path d="M1.98246 18.3905C2.55899 20.0153 4.35021 20.8693 5.97496 20.2927L30.9721 11.4321L31.0153 11.5585C31.2712 12.28 32.0666 12.6592 32.788 12.4033C33.5094 12.1474 33.8886 11.352 33.6328 10.6305L30.2045 0.959095C29.9455 0.225336 29.1377 -0.160045 28.404 0.0989291C27.6918 0.351737 27.3188 1.13174 27.5716 1.84392L27.6239 1.98882L2.62684 10.8494C1.00209 11.426 0.14804 13.2172 0.724565 14.842L1.98246 18.3905ZM3.08004 12.132L28.0771 3.27136L30.5159 10.1527L5.51868 19.0133C4.59994 19.3401 3.58561 18.8561 3.26189 17.9373L2.00407 14.3887C1.67726 13.47 2.1613 12.4557 3.08004 12.132ZM2.49113 14.2161C2.2599 13.5656 2.60211 12.8503 3.25263 12.6191L10.6365 10.0016H29.3936L5.34601 18.5262C5.21036 18.5724 5.07167 18.5971 4.92985 18.5971C4.39957 18.5971 3.92476 18.261 3.74903 17.7647L2.49113 14.2161ZM30.2168 18.4799C30.2168 16.5253 33.753 11.5493 33.753 11.5493C33.753 11.5493 37.2893 16.5284 37.2893 18.4799C37.2893 20.4315 35.7046 22.0162 33.753 22.0162C31.8015 22.0162 30.2168 20.4315 30.2168 18.4799Z" fill="white"/>
<path d="M43.3008 34.1756C43.3008 35.9607 43.0727 36.7345 42.5208 37.644C43.4395 32.1161 40.5415 28.8173 38.6485 27.2049C38.8766 28.8851 38.7472 31.5119 37.8747 33.2353C37.0484 28.3918 34.434 27.4854 36.5613 22.9719C31.6346 24.6891 29.4672 26.8318 29.4672 33.4726C28.2926 30.5808 25.931 28.9868 25.2281 28.7525C26.2054 33.6761 24.1737 32.6618 23.5787 36.5618C23.1841 35.2022 23.1594 34.0122 23.4708 32.2271C16.7806 38.5196 17.5729 45.9127 25.1418 52.2513C24.3648 50.4879 23.4338 47.1828 25.2188 44.0474C25.4531 45.8571 26.2609 47.2723 27.0902 48.0985C26.4151 44.6178 27.6513 41.6334 28.53 40.8195C29.3593 42.2408 29.7509 43.0084 30.1671 45.0155C32.2019 41.5748 30.8176 38.3592 33.7958 36.0377C34.1442 39.8977 36.0217 40.2584 35.3959 45.2991C36.7956 43.8994 37.3228 42.1082 37.7236 40.1412C39.0986 43.4216 39.3607 45.7832 37.8007 47.9937C39.6351 47.2877 40.0112 46.2641 40.6802 45.4471C41.3061 48.1232 41.0039 50.457 40.0944 51.903C46.9788 47.7871 47.651 38.2143 43.2977 34.1848L43.3008 34.1756ZM48.9335 55.7013H16.2904V57.8224H48.9335V55.7013Z" fill="white"/>
</svg>
