<svg width="40" height="56" viewBox="0 0 40 56" fill="none" xmlns="http://www.w3.org/2000/svg">
<path d="M25.1082 45.4046C25.9406 44.0296 26.7884 42.8056 27.4544 41.4923C28.3114 39.8059 28.8787 38.0084 28.6721 36.0723C28.5334 34.7466 28.1542 33.4795 27.5468 32.2956C26.8069 30.8497 25.956 29.4592 25.253 27.9948C24.6858 26.8109 24.2727 25.553 23.7609 24.252C22.3581 26.071 22.244 28.189 22.4136 30.4766C21.575 29.7305 21.0971 28.8796 20.7118 28.001C20.0027 26.3762 19.5371 24.6713 19.4909 22.8862C19.4508 21.3539 19.4107 19.8124 19.5032 18.2833C19.5957 16.7356 19.8547 15.2002 20.0397 13.6618C19.7992 13.856 19.4939 14.0688 19.2257 14.3216C16.8857 16.5259 15.0113 19.0725 13.6547 21.986C12.8193 23.7803 12.1841 25.6548 12.0269 27.6433C11.9097 29.1016 11.7463 30.5753 11.8295 32.0274C11.996 34.873 12.588 37.657 13.664 40.3084C14.3484 42.0009 15.15 43.6473 15.9115 45.3461C15.2949 45.121 14.6105 44.9021 13.9476 44.6246C11.3271 43.5394 8.97472 42.0441 7.02933 39.9692C5.09936 37.9159 3.7613 35.5328 3.38209 32.7087C3.21253 31.457 3.10156 30.1776 3.17555 28.9197C3.34512 25.9415 4.02952 23.0681 5.21956 20.3181C6.28629 17.8578 7.61815 15.5425 9.2984 13.4676C10.7443 11.6794 12.3044 9.96217 13.9631 8.36825C16.7933 5.6521 19.9749 3.36759 23.3508 1.36363C23.6838 1.16631 24.0322 0.996746 24.3806 0.824097C24.4176 0.805599 24.4792 0.839518 24.4268 0.830269C24.3652 2.02032 24.211 3.18879 24.2696 4.34492C24.3436 5.86485 24.7782 7.32003 25.3887 8.7228C26.7051 11.7534 28.6259 14.4202 30.4017 17.1765C32.048 19.7323 33.5464 22.3559 34.4466 25.291C35.1033 27.4337 35.3222 29.6257 35.1527 31.83C34.9369 34.651 34.0119 37.2809 32.4489 39.6455C31.1447 41.6218 29.4676 43.2527 27.3835 44.4088C26.6867 44.7942 25.919 45.0531 25.1143 45.3984L25.1082 45.4046Z" fill="white"/>
<path d="M9.51679 51.5859V47.4423H13.833V51.5766H18.0599V47.4361H22.3761V51.5859H26.603V47.4454H30.9376V51.5951H35.0381V47.4823C37.1839 46.9798 39.2927 48.7001 39.3697 50.5685C39.4406 52.3381 39.3852 54.1108 39.3852 55.9113H1.02003C1.0077 55.788 0.983 55.6524 0.983 55.5167C0.983 54.077 0.949092 52.6341 0.989172 51.1943C1.0385 49.4678 1.96344 48.102 3.64369 47.5502C4.17089 47.3775 4.7628 47.4115 5.39482 47.3436V51.5859H9.5137H9.51679Z" fill="white"/>
</svg>
