<svg width="39" height="61" viewBox="0 0 39 61" fill="none" xmlns="http://www.w3.org/2000/svg">
<path d="M26.2344 37.635C24.7268 38.4798 23.2532 39.2413 21.8504 40.1107C20.315 41.0603 18.641 41.5011 16.8929 41.7817C15.894 41.942 14.9044 42.1547 13.85 42.3551C14.1244 42.4014 14.3648 42.4815 14.6022 42.4754C16.4828 42.423 18.3635 42.3705 20.2442 42.275C20.6542 42.2534 21.058 42.0623 21.4558 41.9173C23.6046 41.1281 25.7443 40.3203 27.8962 39.5434C28.3001 39.3985 28.7409 39.3029 29.1695 39.2875C30.267 39.2505 31.3708 39.2536 32.4684 39.2783C32.6873 39.2844 32.9616 39.4016 33.1127 39.5619C34.0715 40.5886 35.0088 41.6337 35.9368 42.6912C36.0293 42.796 36.0663 43.0365 36.0169 43.1691C35.7888 43.7733 35.5205 44.3684 35.2585 44.9603C35.1166 45.2778 35.1228 45.58 35.2061 45.9222C35.5144 47.2078 36.0447 48.3639 36.9449 49.3474C37.2933 49.7266 37.5492 50.1922 37.9006 50.5652C38.2182 50.9013 38.2244 51.2466 38.1504 51.6566C37.9068 52.9977 37.6756 54.3419 37.4505 55.6861C37.4012 55.9852 37.2902 56.1547 36.9726 56.2719C34.9995 57.0026 33.0264 57.7302 31.0841 58.5287C29.9526 58.9942 28.7903 59.2254 27.5879 59.3611C25.695 59.5738 23.8051 59.8266 21.9121 60.0548C21.1506 60.1473 20.386 60.2305 19.6214 60.2922C19.4919 60.3014 19.2884 60.1997 19.2237 60.0856C18.9801 59.6786 18.7828 59.2408 18.5547 58.8216C18.4591 58.6427 18.4869 58.5657 18.6749 58.4578C21.3294 56.9533 24.1966 55.9914 27.107 55.1343C27.5602 55.0017 28.0042 54.8352 28.4481 54.6132C28.0597 54.641 27.6712 54.6595 27.2858 54.7026C25.9971 54.8445 24.7053 54.9801 23.4197 55.1527C23.0066 55.2082 22.5934 55.3408 22.205 55.495C20.4816 56.1733 18.7705 56.8823 17.0471 57.5544C16.748 57.6716 16.3996 57.7394 16.0821 57.724C12.8418 57.5452 9.60154 57.3448 6.3582 57.1475C5.868 57.1167 5.38088 57.0766 4.89068 57.0612C4.65329 57.055 4.54847 56.9903 4.51147 56.7282C4.26175 54.9308 3.99666 53.1396 3.7161 51.3452C3.68219 51.1202 3.58041 50.8859 3.44476 50.7009C2.42119 49.2827 1.38836 47.8737 0.337046 46.474C0.1274 46.1935 0.161319 46.0486 0.420293 45.8328C1.75833 44.7044 3.09023 43.5729 4.39435 42.4075C4.71499 42.1208 4.98321 41.7262 5.16202 41.3316C5.62448 40.3203 6.02524 39.2844 6.44453 38.2578C6.57402 37.9372 6.76831 37.7213 7.11669 37.5888C11.6672 35.8654 16.2147 34.1296 20.7591 32.3908C20.9965 32.3014 21.1598 32.2952 21.3541 32.5018C22.8863 34.1173 24.434 35.7174 25.9724 37.3267C26.0588 37.4192 26.1389 37.5179 26.2406 37.6319L26.2344 37.635Z" fill="white"/>
<path d="M3.92258 39.9537C4.13839 39.4542 4.34498 38.9455 4.56079 38.4152L4.88144 37.6229C5.19899 36.846 5.74771 36.3064 6.51538 36.0166C8.03839 35.4401 9.55834 34.8574 11.0814 34.2778C11.0783 34.2223 11.0721 34.1699 11.069 34.1175C10.9796 32.5698 11.1523 31.0006 11.2787 29.4467C11.4483 27.3287 12.1234 25.3309 13.0144 23.4225C14.4573 20.321 16.4551 17.6079 18.9462 15.2617C19.2329 14.9935 19.5566 14.7623 19.8125 14.5588C19.6152 16.1959 19.3408 17.833 19.2421 19.4793C19.1435 21.1071 19.1866 22.7473 19.2298 24.3813C19.2791 26.2805 19.7755 28.0963 20.5308 29.829C20.6541 30.1096 20.7867 30.387 20.9347 30.6614C21.5266 30.6398 21.9799 30.8649 22.2789 31.09C22.2573 29.1785 22.5687 27.4027 23.7772 25.8365C24.3229 27.2239 24.7638 28.5619 25.3681 29.8229C26.1142 31.3829 27.0206 32.8627 27.8098 34.4042C28.3309 35.4247 28.6854 36.5069 28.8858 37.626C28.9598 37.6198 29.0338 37.6075 29.1078 37.6044C30.1283 37.5674 31.2382 37.5643 32.5053 37.5951C33.1835 37.6106 33.8865 37.925 34.3428 38.4152C34.4815 38.5632 34.6264 38.7205 34.7682 38.8746C35.3849 37.2992 35.7733 35.6436 35.9059 33.9171C36.0878 31.5678 35.8535 29.234 35.1536 26.9525C34.1948 23.8264 32.5978 21.0331 30.8467 18.3108C28.9568 15.3758 26.9096 12.5363 25.5068 9.3084C24.8563 7.81314 24.3938 6.26238 24.3168 4.64379C24.2551 3.41058 24.4185 2.16812 24.4833 0.900992C24.5387 0.910242 24.4709 0.876341 24.434 0.894839C24.0671 1.07982 23.694 1.25863 23.3395 1.46828C19.7447 3.60481 16.3564 6.03424 13.3412 8.9292C11.5747 10.6249 9.91288 12.4562 8.37137 14.3615C6.58321 16.572 5.16199 19.0353 4.02743 21.659C2.76031 24.5879 2.02961 27.6493 1.84771 30.8187C1.77064 32.1567 1.89087 33.5194 2.06968 34.8543C2.32249 36.7288 2.96993 38.4245 3.92258 39.9629V39.9537Z" fill="white"/>
<path d="M7.6864 39.6791C7.3781 40.4406 7.06057 41.2268 6.70911 42.0006L12.3017 40.9339C11.9718 39.8795 11.7067 38.8097 11.5063 37.7275C10.3132 38.1807 9.12001 38.6401 7.9238 39.0933L7.6864 39.6822V39.6791Z" fill="white"/>
<path d="M25.2084 48.3645C26.0655 47.9976 26.8824 47.7232 27.6254 47.3101C29.8483 46.0769 31.6303 44.3411 33.0207 42.2385C33.0577 42.1861 33.0886 42.1275 33.1225 42.0751C32.771 41.6867 32.4319 41.3167 32.102 40.9591C31.0352 40.9375 30.0919 40.9436 29.2225 40.9745C29.1084 40.9776 28.985 40.993 28.8617 41.0207C28.6367 42.1214 28.2235 43.1788 27.7087 44.1993C26.9996 45.599 26.0963 46.9031 25.2115 48.3676L25.2084 48.3645Z" fill="white"/>
<path d="M6.22583 42.8549C8.24521 44.9174 10.6531 46.4312 13.323 47.538C14.029 47.8309 14.7597 48.0652 15.4163 48.3057C14.7658 46.8536 14.0906 45.4385 13.474 44.0049L6.2813 42.784C6.26589 42.8056 6.24433 42.8302 6.22892 42.8549H6.22583Z" fill="white"/>
</svg>
