<svg width="53" height="60" viewBox="0 0 53 60" fill="none" xmlns="http://www.w3.org/2000/svg">
<path d="M38.2569 15.618C36.4811 12.7601 32.4824 11.1631 26.1437 11.1631H26.1345H26.1252C19.7865 11.1631 15.7878 12.7601 14.012 15.618C12.5136 18.0259 12.7696 21.3771 12.7696 24.9503C12.7696 29.5594 15.532 32.8151 17.613 32.8151C19.0867 32.8151 19.8944 32.1029 20.2489 32.18C20.6343 32.2663 20.7269 32.7689 20.7269 33.4903H20.7453V36.9834C20.7453 37.2485 21.103 37.6277 21.5439 37.6277C21.9847 37.6277 22.3423 37.2454 22.3423 36.9834V35.6546H23.0453V36.9834C23.0453 37.2485 23.4029 37.6277 23.8438 37.6277C24.2847 37.6277 24.6422 37.2454 24.6422 36.9834V35.6546H25.3453V36.9834C25.3453 37.2454 25.6967 37.6185 26.1345 37.6246H26.1406C26.5814 37.6246 26.9392 37.2454 26.9392 36.9803V35.6515H27.642V36.9803C27.642 37.2454 27.9998 37.6246 28.4406 37.6246C28.8815 37.6246 29.2391 37.2423 29.2391 36.9803V35.6515H29.9419V36.9803C29.9419 37.2454 30.2997 37.6246 30.7406 37.6246C31.1814 37.6246 31.539 37.2423 31.539 36.9803V33.4872C31.539 32.7658 31.6314 32.2633 32.0168 32.1769C32.3714 32.0999 33.1792 32.812 34.6529 32.812C36.7339 32.812 39.4963 29.5564 39.4963 24.9473C39.4963 21.374 39.7521 18.0228 38.2538 15.6149L38.2569 15.618ZM26.6462 29.1987C27.2659 29.1987 29.2915 31.6497 29.2915 32.4082C29.2915 33.1666 26.6462 33.6321 26.6462 32.4082V29.1987ZM18.6365 30.2007C16.5986 29.7999 15.3346 26.7878 15.6738 23.7449C15.9358 21.3833 17.6592 21.7193 20.7576 22.2804C24.1828 22.9001 25.6134 22.4654 24.6731 26.8988C24.3278 28.5236 19.6386 30.398 18.6397 30.2007H18.6365ZM25.6227 29.1987V32.4082C25.6227 33.6321 22.9774 33.1666 22.9774 32.4082C22.9774 31.6497 25.003 29.1987 25.6227 29.1987ZM33.6324 30.2007C32.6335 30.398 27.9443 28.5236 27.599 26.8988C26.6586 22.4654 28.0891 22.9001 31.5143 22.2804C34.6097 21.7193 36.3332 21.3833 36.5983 23.7449C36.9374 26.7909 35.6733 29.803 33.6354 30.2007H33.6324ZM33.0281 39.8598C33.1083 41.4384 30.4137 42.6685 26.1437 42.6685C21.8737 42.6685 19.1791 41.4384 19.2593 39.8598L19.4597 33.1635L20.0024 32.8336L20.4957 40.3192L20.7423 40.5073V39.1785C20.7423 38.9133 21.0998 38.5341 21.5407 38.5341C21.9816 38.5341 22.3393 38.9164 22.3393 39.1785V40.5073H23.0422V39.1785C23.0422 38.9133 23.3998 38.5341 23.8406 38.5341C24.2815 38.5341 24.6392 38.9164 24.6392 39.1785V40.5073H25.3421V39.1785C25.3421 38.9133 25.6997 38.5341 26.1406 38.5341C26.5814 38.5341 26.9392 38.9164 26.9392 39.1785V40.5073H27.642V39.1785C27.642 38.9133 27.9998 38.5341 28.4406 38.5341C28.8815 38.5341 29.2391 38.9164 29.2391 39.1785V40.5073H29.9419V39.1785C29.9419 38.9133 30.2997 38.5341 30.7406 38.5341C31.1814 38.5341 31.539 38.9164 31.539 39.1785V40.5073L31.7856 40.3192L32.2789 32.8336L32.8216 33.1635L33.022 39.8598H33.0281ZM40.6801 24.9534C40.6801 24.6698 40.6801 24.3923 40.6863 24.1148H52.1059L34.1873 39.1785L34.0301 33.9343C34.2367 33.9589 34.4278 33.9959 34.6591 33.9959C37.5016 33.9959 40.6801 30.1298 40.6801 24.9534ZM11.5888 24.9534C11.5888 26.7662 11.9834 28.4126 12.6154 29.7968H0.166077L21.4298 0.989075H41.084L31.2522 10.417C29.72 10.1426 28.0243 9.98842 26.1252 9.98842H24.9475V10.0285C18.9819 10.2227 14.9524 11.8814 13.0132 14.9983C11.5241 17.3908 11.5518 20.409 11.5826 23.603C11.5857 24.0501 11.5918 24.5002 11.5918 24.9534H11.5888ZM26.1437 43.8493C27.1149 43.8493 28.015 43.7814 28.8505 43.6643L22.9281 48.6434L27.8826 49.8827L10.2815 59.9242L17.7209 43.4516L19.8112 46.9539L22.9466 43.5903C23.5694 43.6982 24.2322 43.7784 24.9444 43.8184V43.8523H26.1406L26.1437 43.8493Z" fill="white"/>
</svg>
