<svg width="54" height="49" viewBox="0 0 54 49" fill="none" xmlns="http://www.w3.org/2000/svg">
<path d="M23.8219 18.4358L15.6674 2.84186C19.1328 1.15853 23.0234 0.212036 27.1362 0.212036C31.249 0.212036 35.1398 1.15853 38.6051 2.84186L30.4504 18.4358C29.4269 18.0135 28.3108 17.7761 27.1362 17.7761C25.9616 17.7761 24.8455 18.0135 23.8219 18.4358ZM18.5099 27.6417L0.933655 28.3786C1.52251 36.6411 5.92196 43.8461 12.3932 48.2394L21.8242 33.3761C20.0514 32.0042 18.8213 29.9694 18.5099 27.6448V27.6417ZM32.4452 33.3761L41.8762 48.2394C48.3474 43.8461 52.7469 36.638 53.3357 28.3786L35.7595 27.6417C35.4481 29.9694 34.2211 32.0042 32.4452 33.3761ZM27.1332 20.3165C23.7264 20.3165 20.961 23.0789 20.961 26.4887C20.961 29.8985 23.7234 32.6609 27.1332 32.6609C30.543 32.6609 33.3022 29.8985 33.3022 26.4887C33.3022 23.0789 30.5399 20.3165 27.1332 20.3165Z" fill="white"/>
</svg>
