<svg width="384" height="336" viewBox="0 0 384 336" fill="none" xmlns="http://www.w3.org/2000/svg">
<g clip-path="url(#clip0_207_4533)">
<path d="M226.679 332.497C226.679 332.497 187.806 340.376 152.437 332.497C130.804 327.68 85.2417 316.257 74.4918 290.365C63.7419 264.474 115.511 242.384 90.0674 216.118C79.1012 204.795 26.4335 189.844 29.3956 116.346C32.3576 42.8477 109.52 -1.95511 216.753 0.0666296C323.985 2.08837 385.872 99.5396 344.395 147.554C302.918 195.568 285.071 195.71 303.875 234.813C322.679 273.917 296.57 321.307 226.679 332.497Z" fill="#75A9C8"/>
<path opacity="0.7" d="M226.679 332.497C226.679 332.497 187.806 340.376 152.437 332.497C130.804 327.68 85.2417 316.257 74.4918 290.365C63.7419 264.474 115.511 242.384 90.0674 216.118C79.1012 204.795 26.4335 189.844 29.3956 116.346C32.3576 42.8477 109.52 -1.95511 216.753 0.0666296C323.985 2.08837 385.872 99.5396 344.395 147.554C302.918 195.568 285.071 195.71 303.875 234.813C322.679 273.917 296.57 321.307 226.679 332.497Z" fill="white"/>
<mask id="mask0_207_4533" style="mask-type:luminance" maskUnits="userSpaceOnUse" x="238" y="96" width="146" height="31">
<path d="M264.12 121.612C264.12 121.612 275.453 108.625 291.985 108.625C291.985 108.625 292.534 98.5326 303.817 96.3527C315.099 94.1729 317.287 104.248 317.287 104.248C317.287 104.248 325.608 99.8305 336.823 104.248C348.039 108.666 345.743 121.579 345.743 121.579C345.743 121.579 378.042 120.522 383.584 126.438H238.436C238.436 126.438 241.364 119.199 264.12 121.612Z" fill="white"/>
</mask>
<g mask="url(#mask0_207_4533)">
<path opacity="0.5" d="M264.12 121.612C264.12 121.612 275.453 108.625 291.985 108.625C291.985 108.625 292.534 98.5326 303.817 96.3527C315.099 94.1729 317.287 104.248 317.287 104.248C317.287 104.248 325.608 99.8305 336.823 104.248C348.039 108.666 345.743 121.579 345.743 121.579C345.743 121.579 378.042 120.522 383.584 126.438H238.436C238.436 126.438 241.364 119.199 264.12 121.612Z" stroke="#263238" stroke-linecap="round" stroke-linejoin="round"/>
</g>
<path d="M264.12 121.612C264.12 121.612 275.453 108.625 291.985 108.625C291.985 108.625 292.534 98.5326 303.817 96.3527C315.099 94.1729 317.287 104.248 317.287 104.248C317.287 104.248 325.608 99.8305 336.823 104.248C348.039 108.666 345.743 121.579 345.743 121.579C345.743 121.579 378.042 120.522 383.584 126.438H238.436C238.436 126.438 241.364 119.199 264.12 121.612Z" stroke="#263238" stroke-linecap="round" stroke-linejoin="round"/>
<mask id="mask1_207_4533" style="mask-type:luminance" maskUnits="userSpaceOnUse" x="13" y="17" width="146" height="32">
<path d="M39.2889 43.538C39.2889 43.538 50.6212 30.5506 67.1454 30.5506C67.1454 30.5506 67.6945 20.4585 78.9769 18.287C90.2593 16.1155 92.4558 26.1743 92.4558 26.1743C92.4558 26.1743 100.776 21.7564 111.984 26.1743C123.191 30.5922 120.911 43.5047 120.911 43.5047C120.911 43.5047 153.203 42.4481 158.744 48.3718H13.5957C13.5957 48.3718 16.5245 41.1252 39.2889 43.538Z" fill="white"/>
</mask>
<g mask="url(#mask1_207_4533)">
<path opacity="0.5" d="M39.2889 43.538C39.2889 43.538 50.6212 30.5506 67.1454 30.5506C67.1454 30.5506 67.6945 20.4585 78.9769 18.287C90.2593 16.1155 92.4558 26.1743 92.4558 26.1743C92.4558 26.1743 100.776 21.7564 111.984 26.1743C123.191 30.5922 120.911 43.5047 120.911 43.5047C120.911 43.5047 153.203 42.4481 158.744 48.3718H13.5957C13.5957 48.3718 16.5245 41.1252 39.2889 43.538Z" stroke="#263238" stroke-linecap="round" stroke-linejoin="round"/>
</g>
<path d="M39.2889 43.538C39.2889 43.538 50.6212 30.5506 67.1454 30.5506C67.1454 30.5506 67.6945 20.4585 78.9769 18.287C90.2593 16.1155 92.4558 26.1743 92.4558 26.1743C92.4558 26.1743 100.776 21.7564 111.984 26.1743C123.191 30.5922 120.911 43.5047 120.911 43.5047C120.911 43.5047 153.203 42.4481 158.744 48.3718H13.5957C13.5957 48.3718 16.5245 41.1252 39.2889 43.538Z" stroke="#263238" stroke-linecap="round" stroke-linejoin="round"/>
<mask id="mask2_207_4533" style="mask-type:luminance" maskUnits="userSpaceOnUse" x="204" y="189" width="117" height="26">
<path d="M299.681 210.302C299.681 210.302 290.637 199.944 277.457 199.944C277.457 199.944 277.016 191.899 268.022 190.16C259.028 188.421 257.272 196.458 257.272 196.458C257.272 196.458 250.616 192.93 241.697 196.458C232.777 199.986 234.574 210.277 234.574 210.277C234.574 210.277 208.781 209.445 204.396 214.163H320.141C320.141 214.163 317.828 208.381 299.681 210.302Z" fill="white"/>
</mask>
<g mask="url(#mask2_207_4533)">
<path opacity="0.5" d="M299.681 210.302C299.681 210.302 290.637 199.944 277.457 199.944C277.457 199.944 277.016 191.899 268.022 190.16C259.028 188.421 257.272 196.458 257.272 196.458C257.272 196.458 250.616 192.93 241.697 196.458C232.777 199.986 234.574 210.277 234.574 210.277C234.574 210.277 208.781 209.445 204.396 214.163H320.141C320.141 214.163 317.828 208.381 299.681 210.302Z" stroke="#263238" stroke-linecap="round" stroke-linejoin="round"/>
</g>
<path d="M299.681 210.302C299.681 210.302 290.637 199.944 277.457 199.944C277.457 199.944 277.016 191.899 268.022 190.16C259.028 188.421 257.272 196.458 257.272 196.458C257.272 196.458 250.616 192.93 241.697 196.458C232.777 199.986 234.574 210.277 234.574 210.277C234.574 210.277 208.781 209.445 204.396 214.163H320.141C320.141 214.163 317.828 208.381 299.681 210.302Z" stroke="#263238" stroke-linecap="round" stroke-linejoin="round"/>
<mask id="mask3_207_4533" style="mask-type:luminance" maskUnits="userSpaceOnUse" x="0" y="163" width="117" height="25">
<path d="M95.7171 183.845C95.7171 183.845 86.6729 173.487 73.4935 173.487C73.4935 173.487 73.0525 165.433 64.0582 163.703C55.064 161.972 53.3084 169.992 53.3084 169.992C53.3084 169.992 46.6521 166.473 37.7327 169.992C28.8133 173.512 30.5939 183.82 30.5939 183.82C30.5939 183.82 4.80083 182.988 0.416016 187.697H116.202C116.202 187.697 113.864 181.923 95.7171 183.845Z" fill="white"/>
</mask>
<g mask="url(#mask3_207_4533)">
<path opacity="0.5" d="M95.7171 183.845C95.7171 183.845 86.6729 173.487 73.4935 173.487C73.4935 173.487 73.0525 165.433 64.0582 163.703C55.064 161.972 53.3084 169.992 53.3084 169.992C53.3084 169.992 46.6521 166.473 37.7327 169.992C28.8133 173.512 30.5939 183.82 30.5939 183.82C30.5939 183.82 4.80083 182.988 0.416016 187.697H116.202C116.202 187.697 113.864 181.923 95.7171 183.845Z" stroke="#263238" stroke-linecap="round" stroke-linejoin="round"/>
</g>
<path d="M95.7171 183.845C95.7171 183.845 86.6729 173.487 73.4935 173.487C73.4935 173.487 73.0525 165.433 64.0582 163.703C55.064 161.972 53.3084 169.992 53.3084 169.992C53.3084 169.992 46.6521 166.473 37.7327 169.992C28.8133 173.512 30.5939 183.82 30.5939 183.82C30.5939 183.82 4.80083 182.988 0.416016 187.697H116.202C116.202 187.697 113.864 181.923 95.7171 183.845Z" stroke="#263238" stroke-linecap="round" stroke-linejoin="round"/>
<mask id="mask4_207_4533" style="mask-type:luminance" maskUnits="userSpaceOnUse" x="112" y="129" width="69" height="16">
<path d="M124.322 142.038C124.322 142.038 129.697 135.881 137.526 135.881C137.826 132.877 140.139 130.473 143.126 130.057C148.476 129.025 149.516 133.792 149.516 133.792C152.47 132.511 155.815 132.511 158.768 133.792C164.068 135.881 162.995 142.004 162.995 142.004C162.995 142.004 178.296 141.497 180.917 144.309H112.133C112.133 144.309 113.547 140.889 124.322 142.038Z" fill="white"/>
</mask>
<g mask="url(#mask4_207_4533)">
<path opacity="0.5" d="M124.322 142.038C124.322 142.038 129.697 135.881 137.526 135.881C137.826 132.877 140.139 130.473 143.126 130.057C148.476 129.025 149.516 133.792 149.516 133.792C152.47 132.511 155.815 132.511 158.768 133.792C164.068 135.881 162.995 142.004 162.995 142.004C162.995 142.004 178.296 141.497 180.917 144.309H112.133C112.133 144.309 113.547 140.889 124.322 142.038Z" stroke="#263238" stroke-linecap="round" stroke-linejoin="round"/>
</g>
<path d="M124.322 142.038C124.322 142.038 129.697 135.881 137.526 135.881C137.826 132.877 140.139 130.473 143.126 130.057C148.476 129.025 149.516 133.792 149.516 133.792C152.47 132.511 155.815 132.511 158.768 133.792C164.068 135.881 162.995 142.004 162.995 142.004C162.995 142.004 178.296 141.497 180.917 144.309H112.133C112.133 144.309 113.547 140.889 124.322 142.038Z" stroke="#263238" stroke-linecap="round" stroke-linejoin="round"/>
<path d="M192.007 28.4793C162.237 31.4828 128.964 38.172 128.964 38.172L124.529 37.0238C145.68 28.7039 192.007 16.4819 192.007 16.4819C192.007 16.4819 238.335 28.7122 259.485 37.0238L255.05 38.172C255.05 38.172 221.777 31.4828 192.007 28.4793Z" fill="#75A9C8"/>
<mask id="mask5_207_4533" style="mask-type:luminance" maskUnits="userSpaceOnUse" x="124" y="16" width="136" height="23">
<path d="M192.007 28.4793C162.237 31.4828 128.964 38.172 128.964 38.172L124.529 37.0238C145.68 28.7039 192.007 16.4819 192.007 16.4819C192.007 16.4819 238.335 28.7122 259.485 37.0238L255.05 38.172C255.05 38.172 221.777 31.4828 192.007 28.4793Z" fill="white"/>
</mask>
<g mask="url(#mask5_207_4533)">
<path opacity="0.2" d="M258.279 37.3398L255.051 38.1718C255.051 38.1718 221.77 31.5158 192.008 28.4791C162.238 31.4742 128.965 38.1718 128.965 38.1718L125.736 37.3398C151.238 29.1114 192.008 19.1108 192.008 19.1108C192.008 19.1108 232.777 29.1114 258.279 37.3398Z" fill="black"/>
</g>
<path d="M192.007 28.4793C162.237 31.4828 128.964 38.172 128.964 38.172L124.529 37.0238C145.68 28.7039 192.007 16.4819 192.007 16.4819C192.007 16.4819 238.335 28.7122 259.485 37.0238L255.05 38.172C255.05 38.172 221.777 31.4828 192.007 28.4793Z" stroke="#263238" stroke-linecap="round" stroke-linejoin="round"/>
<path d="M246.814 33.8291C249.785 34.7859 252.564 35.7427 255.052 36.6662" stroke="#263238" stroke-linecap="round" stroke-linejoin="round"/>
<path d="M198.174 20.5752C208.275 23.0213 228.801 28.1463 244.768 33.1716" stroke="#263238" stroke-linecap="round" stroke-linejoin="round"/>
<path d="M147.203 30.9834C162.629 26.4989 184.645 20.2756 192.008 19.1108" stroke="#263238" stroke-linecap="round" stroke-linejoin="round"/>
<path d="M135.904 34.2947L143.551 32.0483" stroke="#263238" stroke-linecap="round" stroke-linejoin="round"/>
<path d="M131.178 35.7008L132.742 35.2349" stroke="#263238" stroke-linecap="round" stroke-linejoin="round"/>
<path d="M217.385 56.0513C217.385 56.0513 295.072 68.3315 372.268 84.522C370.837 86.0695 368.84 86.9764 366.726 87.018C362.916 87.2426 294.34 81.7099 227.219 78.5899L217.385 56.0513Z" fill="#75A9C8"/>
<mask id="mask6_207_4533" style="mask-type:luminance" maskUnits="userSpaceOnUse" x="217" y="56" width="156" height="32">
<path d="M217.385 56.0513C217.385 56.0513 295.072 68.3315 372.268 84.522C370.837 86.0695 368.84 86.9764 366.726 87.018C362.916 87.2426 294.34 81.7099 227.219 78.5899L217.385 56.0513Z" fill="white"/>
</mask>
<g mask="url(#mask6_207_4533)">
<path opacity="0.2" d="M221.662 65.8437L227.212 78.5565C294.373 81.6682 362.916 87.2093 366.727 86.9763C367.592 86.9264 368.449 86.7517 369.273 86.4688C368.666 85.72 367.825 85.1958 366.885 84.9795C355.237 82.2506 298.425 69.4379 222.378 60.5605L221.662 65.8437Z" fill="black"/>
</g>
<path d="M217.385 56.0513C217.385 56.0513 295.072 68.3315 372.268 84.522C370.837 86.0695 368.84 86.9764 366.726 87.018C362.916 87.2426 294.34 81.7099 227.219 78.5899L217.385 56.0513Z" stroke="#263238" stroke-linecap="round" stroke-linejoin="round"/>
<path d="M238.877 79.106C238.877 79.106 243.145 75.8279 244.41 74.9876C245.675 74.1473 245.101 84.6886 242.796 85.479C240.491 86.2694 238.877 79.106 238.877 79.106Z" fill="#75A9C8" stroke="#263238" stroke-linecap="round" stroke-linejoin="round"/>
<path d="M288.033 81.8933C288.033 81.8933 291.029 78.7151 291.836 78.8066C292.643 78.8981 291.27 87.2846 289.939 87.476C288.607 87.6673 288.033 81.8933 288.033 81.8933Z" fill="#75A9C8" stroke="#263238" stroke-linecap="round" stroke-linejoin="round"/>
<path d="M166.631 56.0513C166.631 56.0513 88.9441 68.3315 11.748 84.522C13.1791 86.0695 15.176 86.9764 17.2894 87.018C21.1001 87.2426 89.6763 81.7099 156.796 78.5899L166.631 56.0513Z" fill="#75A9C8"/>
<mask id="mask7_207_4533" style="mask-type:luminance" maskUnits="userSpaceOnUse" x="11" y="56" width="156" height="32">
<path d="M166.631 56.0513C166.631 56.0513 88.9441 68.3315 11.748 84.522C13.1791 86.0695 15.176 86.9764 17.2894 87.018C21.1001 87.2426 89.6763 81.7099 156.796 78.5899L166.631 56.0513Z" fill="white"/>
</mask>
<g mask="url(#mask7_207_4533)">
<path opacity="0.2" d="M162.354 65.8437L156.804 78.5565C89.6673 81.6682 21.0994 87.2093 17.2804 86.9763C16.4151 86.9264 15.5581 86.7517 14.7344 86.4688C15.3418 85.72 16.1821 85.1958 17.1223 84.9795C28.7708 82.2506 85.582 69.4379 161.63 60.5605L162.354 65.8437Z" fill="black"/>
</g>
<path d="M166.631 56.0513C166.631 56.0513 88.9441 68.3315 11.748 84.522C13.1791 86.0695 15.176 86.9764 17.2894 87.018C21.1001 87.2426 89.6763 81.7099 156.796 78.5899L166.631 56.0513Z" stroke="#263238" stroke-linecap="round" stroke-linejoin="round"/>
<path d="M145.139 79.106C145.139 79.106 140.871 75.8279 139.606 74.9876C138.341 74.1473 138.915 84.6886 141.22 85.479C143.525 86.2694 145.139 79.106 145.139 79.106Z" fill="#75A9C8" stroke="#263238" stroke-linecap="round" stroke-linejoin="round"/>
<path d="M95.9825 81.8933C95.9825 81.8933 92.9872 78.7151 92.1801 78.8066C91.3731 78.8981 92.7459 87.2846 94.0772 87.476C95.4084 87.6673 95.9825 81.8933 95.9825 81.8933Z" fill="#75A9C8" stroke="#263238" stroke-linecap="round" stroke-linejoin="round"/>
<path d="M232.469 65.4944L225.68 64.729" stroke="#263238" stroke-linecap="round" stroke-linejoin="round"/>
<path d="M241.53 66.6261L235.855 65.9355" stroke="#263238" stroke-linecap="round" stroke-linejoin="round"/>
<path d="M348.63 82.6251C314.517 77.0591 279.571 72.0671 245.508 67.0835" stroke="#263238" stroke-linecap="round" stroke-linejoin="round"/>
<path d="M356.617 83.8735L352.59 83.2661" stroke="#263238" stroke-linecap="round" stroke-linejoin="round"/>
<path d="M364.156 86.777C364.498 86.2861 364.847 85.8035 365.196 85.3127L360.986 84.6055" stroke="#263238" stroke-linecap="round" stroke-linejoin="round"/>
<path d="M274.16 95.4486C281.391 92.6542 284.987 84.5274 282.193 77.2969C279.398 70.0664 271.271 66.4702 264.04 69.2645C256.809 72.0589 253.213 80.1857 256.007 87.4162C258.802 94.6468 266.929 98.2429 274.16 95.4486Z" fill="#75A9C8" stroke="#263238" stroke-linecap="round" stroke-linejoin="round"/>
<path d="M265.976 71.352C271.326 69.1556 277.45 71.7098 279.647 77.0678C281.843 82.4175 279.289 88.541 273.931 90.7375C268.581 92.9339 262.457 90.3797 260.26 85.0217C258.064 79.6636 260.618 73.5485 265.976 71.352Z" fill="#263238"/>
<g opacity="0.5">
<path d="M269.469 80.304C269.469 80.304 270.384 76.8512 273.554 76.7847" stroke="white" stroke-linecap="round" stroke-linejoin="round"/>
<path d="M268.163 83.9565C268.163 83.9565 267.248 87.401 264.078 87.4759" stroke="white" stroke-linecap="round" stroke-linejoin="round"/>
<path d="M270.635 82.7837C270.635 82.7837 274.088 83.6989 274.163 86.8688" stroke="white" stroke-linecap="round" stroke-linejoin="round"/>
<path d="M266.99 81.4772C266.99 81.4772 263.537 80.562 263.471 77.3921" stroke="white" stroke-linecap="round" stroke-linejoin="round"/>
<path d="M270.568 81.3027C270.568 81.3027 273.655 79.5056 275.943 81.7021" stroke="white" stroke-linecap="round" stroke-linejoin="round"/>
<path d="M267.065 82.9584C267.065 82.9584 263.978 84.7472 261.682 82.5591" stroke="white" stroke-linecap="round" stroke-linejoin="round"/>
<path d="M269.644 83.8818C269.644 83.8818 271.432 86.9685 269.244 89.2565" stroke="white" stroke-linecap="round" stroke-linejoin="round"/>
<path d="M267.989 80.3791C267.989 80.3791 266.192 77.2924 268.38 74.9961" stroke="white" stroke-linecap="round" stroke-linejoin="round"/>
<path d="M265.227 73.0409C265.227 73.0409 270.335 70.0124 274.953 73.382C280.586 77.492 278.897 84.3726 277.449 86.569" stroke="white" stroke-linecap="round" stroke-linejoin="round"/>
</g>
<path d="M316.564 101.037C323.571 101.037 329.252 95.3568 329.252 88.3495C329.252 81.3422 323.571 75.6616 316.564 75.6616C309.556 75.6616 303.875 81.3422 303.875 88.3495C303.875 95.3568 309.556 101.037 316.564 101.037Z" fill="#75A9C8" stroke="#263238" stroke-linecap="round" stroke-linejoin="round"/>
<path d="M308.11 85.1794C309.225 80.0626 314.267 76.8178 319.384 77.9327C324.501 79.0476 327.746 84.0895 326.631 89.2062C325.516 94.323 320.474 97.5677 315.357 96.4529C310.24 95.338 306.995 90.2961 308.11 85.1794Z" fill="#263238"/>
<g opacity="0.5">
<path d="M316.912 86.5024C316.912 86.5024 317.744 83.3825 320.606 83.3159" stroke="white" stroke-linecap="round" stroke-linejoin="round"/>
<path d="M315.731 89.8057C315.731 89.8057 314.899 92.9256 312.037 92.9922" stroke="white" stroke-linecap="round" stroke-linejoin="round"/>
<path d="M317.969 88.7407C317.969 88.7407 321.089 89.5727 321.155 92.4431" stroke="white" stroke-linecap="round" stroke-linejoin="round"/>
<path d="M314.673 87.5676C314.673 87.5676 311.545 86.7356 311.486 83.8735" stroke="white" stroke-linecap="round" stroke-linejoin="round"/>
<path d="M317.902 87.4262C317.902 87.4262 320.698 85.8121 322.77 87.7923" stroke="white" stroke-linecap="round" stroke-linejoin="round"/>
<path d="M314.74 88.9071C314.74 88.9071 311.945 90.5212 309.873 88.541" stroke="white" stroke-linecap="round" stroke-linejoin="round"/>
<path d="M317.071 89.7388C317.071 89.7388 318.693 92.5343 316.713 94.6059" stroke="white" stroke-linecap="round" stroke-linejoin="round"/>
<path d="M315.573 86.5942C315.573 86.5942 313.951 83.807 315.931 81.7271" stroke="white" stroke-linecap="round" stroke-linejoin="round"/>
<path d="M313.076 79.9381C313.076 79.9381 317.694 77.1925 321.871 80.2459C326.963 83.965 325.432 90.1883 324.109 92.1684" stroke="white" stroke-linecap="round" stroke-linejoin="round"/>
</g>
<path d="M151.547 65.4944L158.336 64.729" stroke="#263238" stroke-linecap="round" stroke-linejoin="round"/>
<path d="M142.486 66.6261L148.161 65.9355" stroke="#263238" stroke-linecap="round" stroke-linejoin="round"/>
<path d="M35.3867 82.6251C69.5001 77.0591 104.445 72.0671 138.509 67.0835" stroke="#263238" stroke-linecap="round" stroke-linejoin="round"/>
<path d="M27.3984 83.8735L31.4255 83.2661" stroke="#263238" stroke-linecap="round" stroke-linejoin="round"/>
<path d="M19.8604 86.777C19.5192 86.2861 19.1698 85.8035 18.8203 85.3127L23.0304 84.6055" stroke="#263238" stroke-linecap="round" stroke-linejoin="round"/>
<path d="M126.718 89.9987C130.936 83.4953 129.084 74.8036 122.58 70.5851C116.077 66.3666 107.385 68.2189 103.166 74.7222C98.9473 81.2256 100.8 89.9173 107.303 94.1358C113.807 98.3543 122.499 96.502 126.718 89.9987Z" fill="#75A9C8" stroke="#263238" stroke-linecap="round" stroke-linejoin="round"/>
<path d="M118.378 90.6072C123.648 88.221 125.986 82.0145 123.599 76.7445C121.213 71.4744 115.006 69.1366 109.736 71.5227C104.466 73.9089 102.128 80.1155 104.514 85.3855C106.9 90.6555 113.107 92.9934 118.378 90.6072Z" fill="#263238"/>
<g opacity="0.5">
<path d="M114.546 80.304C114.546 80.304 113.631 76.8512 110.461 76.7847" stroke="white" stroke-linecap="round" stroke-linejoin="round"/>
<path d="M115.852 83.9565C115.852 83.9565 116.767 87.401 119.937 87.4759" stroke="white" stroke-linecap="round" stroke-linejoin="round"/>
<path d="M113.381 82.7837C113.381 82.7837 109.928 83.6989 109.854 86.8688" stroke="white" stroke-linecap="round" stroke-linejoin="round"/>
<path d="M117.025 81.4772C117.025 81.4772 120.478 80.562 120.545 77.3921" stroke="white" stroke-linecap="round" stroke-linejoin="round"/>
<path d="M113.447 81.3027C113.447 81.3027 110.36 79.5056 108.072 81.7021" stroke="white" stroke-linecap="round" stroke-linejoin="round"/>
<path d="M116.949 82.9584C116.949 82.9584 120.036 84.7472 122.332 82.5591" stroke="white" stroke-linecap="round" stroke-linejoin="round"/>
<path d="M114.37 83.8818C114.37 83.8818 112.581 86.9685 114.77 89.2565" stroke="white" stroke-linecap="round" stroke-linejoin="round"/>
<path d="M116.026 80.3791C116.026 80.3791 117.823 77.2924 115.635 74.9961" stroke="white" stroke-linecap="round" stroke-linejoin="round"/>
<path d="M118.789 73.0409C118.789 73.0409 113.68 70.0124 109.062 73.382C103.43 77.492 105.119 84.3726 106.566 86.569" stroke="white" stroke-linecap="round" stroke-linejoin="round"/>
</g>
<path d="M67.4522 101.037C74.4599 101.037 80.1407 95.3568 80.1407 88.3495C80.1407 81.3422 74.4599 75.6616 67.4522 75.6616C60.4445 75.6616 54.7637 81.3422 54.7637 88.3495C54.7637 95.3568 60.4445 101.037 67.4522 101.037Z" fill="#75A9C8" stroke="#263238" stroke-linecap="round" stroke-linejoin="round"/>
<path d="M64.3987 77.9746C69.4824 76.7266 74.616 79.8383 75.8641 84.9217C77.1121 90.0052 74.0003 95.1386 68.9166 96.3866C63.8329 97.6346 58.6992 94.5229 57.4512 89.4395C56.2031 84.356 59.3149 79.2226 64.3987 77.9746Z" fill="#263238"/>
<g opacity="0.5">
<path d="M67.1024 86.5024C67.1024 86.5024 66.2704 83.3825 63.4082 83.3159" stroke="white" stroke-linecap="round" stroke-linejoin="round"/>
<path d="M68.2832 89.8057C68.2832 89.8057 69.1152 92.9256 71.9774 92.9922" stroke="white" stroke-linecap="round" stroke-linejoin="round"/>
<path d="M66.0461 88.7407C66.0461 88.7407 62.9259 89.5727 62.8594 92.4431" stroke="white" stroke-linecap="round" stroke-linejoin="round"/>
<path d="M69.3398 87.5676C69.3398 87.5676 72.4683 86.7356 72.5265 83.8735" stroke="white" stroke-linecap="round" stroke-linejoin="round"/>
<path d="M66.1115 87.4262C66.1115 87.4262 63.3159 85.8121 61.2441 87.7923" stroke="white" stroke-linecap="round" stroke-linejoin="round"/>
<path d="M69.2734 88.9071C69.2734 88.9071 72.0691 90.5212 74.1408 88.541" stroke="white" stroke-linecap="round" stroke-linejoin="round"/>
<path d="M66.9448 89.7388C66.9448 89.7388 65.2807 92.5343 67.3025 94.6059" stroke="white" stroke-linecap="round" stroke-linejoin="round"/>
<path d="M68.4418 86.5942C68.4418 86.5942 70.1058 83.807 68.084 81.7271" stroke="white" stroke-linecap="round" stroke-linejoin="round"/>
<path d="M70.9381 79.9381C70.9381 79.9381 66.3203 77.1925 62.1435 80.2459C57.0514 83.965 58.5824 90.1883 59.9053 92.1684" stroke="white" stroke-linecap="round" stroke-linejoin="round"/>
</g>
<path d="M191.892 18.4287H192.117C193.332 18.4287 194.322 19.4188 194.322 20.6335V45.6598H189.688V20.6335C189.688 19.4188 190.678 18.4287 191.892 18.4287Z" fill="#75A9C8" stroke="#263238" stroke-linecap="round" stroke-linejoin="round"/>
<path d="M226.246 85.3125L192.008 88.5822L157.769 85.3125C157.769 85.3125 147.91 99.9056 148.143 103.866C148.376 107.826 152.07 112.294 192.008 112.294C231.945 112.294 235.673 107.818 235.872 103.866C236.072 99.914 226.246 85.3125 226.246 85.3125Z" fill="#75A9C8"/>
<mask id="mask8_207_4533" style="mask-type:luminance" maskUnits="userSpaceOnUse" x="148" y="85" width="88" height="28">
<path d="M226.246 85.3125L192.008 88.5822L157.769 85.3125C157.769 85.3125 147.91 99.9056 148.143 103.866C148.376 107.826 152.07 112.294 192.008 112.294C231.945 112.294 235.673 107.818 235.872 103.866C236.072 99.914 226.246 85.3125 226.246 85.3125Z" fill="white"/>
</mask>
<g mask="url(#mask8_207_4533)">
<path opacity="0.2" d="M232.469 108.226C227.843 110.505 217.034 112.261 192.007 112.261C169.084 112.261 158.093 110.788 152.851 108.783C147.676 106.42 159.033 102.127 159.033 102.127C159.033 102.127 156.87 98.8825 160.215 94.5894C163.56 90.2963 226.353 95.4214 226.353 95.4214C226.353 95.4214 226.911 98.1753 225.022 102.144C225.005 102.144 233.65 103.733 232.469 108.226Z" fill="black"/>
</g>
<path d="M226.246 85.3125L192.008 88.5822L157.769 85.3125C157.769 85.3125 147.91 99.9056 148.143 103.866C148.376 107.826 152.07 112.294 192.008 112.294C231.945 112.294 235.673 107.818 235.872 103.866C236.072 99.914 226.246 85.3125 226.246 85.3125Z" stroke="#263238" stroke-linecap="round" stroke-linejoin="round"/>
<path d="M192.008 38.9458C181.067 38.9375 170.816 44.2706 164.551 53.2394C148.818 75.853 147.911 112.311 192.008 112.311C236.106 112.311 235.216 75.8696 219.465 53.2394C213.2 44.2706 202.95 38.9375 192.008 38.9458Z" fill="#75A9C8"/>
<mask id="mask9_207_4533" style="mask-type:luminance" maskUnits="userSpaceOnUse" x="154" y="38" width="76" height="75">
<path d="M192.008 38.9458C181.067 38.9375 170.816 44.2706 164.551 53.2394C148.818 75.853 147.911 112.311 192.008 112.311C236.106 112.311 235.216 75.8696 219.465 53.2394C213.2 44.2706 202.95 38.9375 192.008 38.9458Z" fill="white"/>
</mask>
<g mask="url(#mask9_207_4533)">
<path opacity="0.2" d="M223.434 100.621C222.868 101.478 222.177 102.236 221.379 102.876C220.68 103.425 219.498 104.39 218.001 105.655C212.085 109.765 203.615 112.269 192.041 112.269C177.622 112.269 168.012 108.376 162.163 102.335C158.227 96.7943 156.081 91.4113 159.051 87.1599C162.263 82.5589 187.041 70.52 192.257 70.52C197.474 70.52 223.509 85.1714 225.714 86.8104C227.536 88.2581 226.579 95.9873 223.434 100.621Z" fill="black"/>
</g>
<path d="M192.008 38.9458C181.067 38.9375 170.816 44.2706 164.551 53.2394C148.818 75.853 147.911 112.311 192.008 112.311C236.106 112.311 235.216 75.8696 219.465 53.2394C213.2 44.2706 202.95 38.9375 192.008 38.9458Z" stroke="#263238" stroke-linecap="round" stroke-linejoin="round"/>
<path d="M173.503 52.9731C171.839 55.7436 170.508 58.7138 169.543 61.8005C172.297 60.3778 175.45 58.9967 177.863 58.5973C178.221 56.4674 178.695 54.0796 179.294 51.9414C177.256 52.216 175.301 52.5571 173.503 52.9731Z" fill="#263238"/>
<path d="M210.512 52.9731C208.715 52.5571 206.759 52.216 204.688 51.9414C205.278 54.0796 205.761 56.4674 206.119 58.5973C208.548 58.9967 211.702 60.3778 214.439 61.8005C213.482 58.7138 212.167 55.7519 210.512 52.9731Z" fill="#263238"/>
<path d="M203.54 51.7998C200.012 51.3921 196.459 51.1758 192.906 51.1592V59.321C196.018 59.1629 200.353 58.2894 205.004 58.489C204.488 55.81 204.006 53.547 203.54 51.7998Z" fill="#263238"/>
<path d="M215.354 62.2499L219.048 63.0154C217.809 59.8039 216.169 56.7671 214.156 53.9799C213.324 53.6887 212.359 53.4308 211.377 53.1479C213.033 56.0266 214.372 59.0801 215.354 62.2499Z" fill="#263238"/>
<path d="M172.638 53.1812C171.656 53.4307 170.724 53.6887 169.859 54.0131C169.859 54.0131 167.105 56.9917 164.967 63.0486L168.661 62.2831C169.643 59.1133 170.982 56.0598 172.638 53.1812Z" fill="#263238"/>
<path d="M191.484 51.1509C187.806 51.1675 184.129 51.3838 180.476 51.7998C180.01 53.547 179.494 55.8017 179.012 58.4558C183.846 58.2561 188.347 59.2046 191.492 59.2878V51.1509H191.484Z" fill="#263238"/>
<path d="M192.008 103.159C190.261 103.034 185.485 102.593 183.396 101.586L184.57 106.578C186.933 107.452 189.437 107.876 191.958 107.826L192.008 107.477L192.058 107.826C194.579 107.876 197.083 107.452 199.446 106.578L200.62 101.586C198.531 102.593 193.755 103.034 192.008 103.159Z" fill="#263238"/>
<path d="M192.715 103.733H191.301V114.807H192.715V103.733Z" fill="#757575" stroke="#263238" stroke-linecap="round" stroke-linejoin="round"/>
<path d="M192.008 117.994C193.281 117.994 194.313 116.962 194.313 115.689C194.313 114.416 193.281 113.384 192.008 113.384C190.735 113.384 189.703 114.416 189.703 115.689C189.703 116.962 190.735 117.994 192.008 117.994Z" fill="#757575" stroke="#263238" stroke-linecap="round" stroke-linejoin="round"/>
<path d="M189.288 109.232H185.835C185.169 109.232 184.629 109.773 184.629 110.439V121.396C184.629 122.062 185.169 122.603 185.835 122.603H189.288C189.955 122.603 190.495 122.062 190.495 121.396V110.439C190.495 109.773 189.955 109.232 189.288 109.232Z" fill="#263238"/>
<path d="M198.191 109.232H194.738C194.071 109.232 193.531 109.773 193.531 110.439V121.396C193.531 122.062 194.071 122.603 194.738 122.603H198.191C198.857 122.603 199.397 122.062 199.397 121.396V110.439C199.397 109.773 198.857 109.232 198.191 109.232Z" fill="#263238"/>
<path d="M213.276 109.382C213.276 109.382 223.909 108.184 227.637 105.846L226.805 108.342C221.746 109.782 216.537 110.614 211.287 110.838L213.276 109.382Z" fill="#263238"/>
<path d="M170.742 109.382C170.742 109.382 160.108 108.184 156.381 105.846L157.213 108.342C162.272 109.782 167.48 110.614 172.73 110.838L170.742 109.382Z" fill="#263238"/>
<path d="M225.006 116.346H223.816V108.401L225.006 108.126V116.346Z" fill="#757575" stroke="#263238" stroke-linecap="round" stroke-linejoin="round"/>
<path d="M217.942 116.346H216.752V109.415L217.942 109.266V116.346Z" fill="#757575" stroke="#263238" stroke-linecap="round" stroke-linejoin="round"/>
<path d="M226.337 117.086C226.337 118.151 225.48 119.017 224.415 119.025C223.35 119.025 222.485 118.168 222.477 117.103C222.477 116.038 223.334 115.173 224.399 115.165H224.407C225.472 115.165 226.329 116.022 226.337 117.086Z" fill="#757575" stroke="#263238" stroke-linecap="round" stroke-linejoin="round"/>
<path d="M219.275 117.086C219.275 118.151 218.418 119.017 217.353 119.025C216.288 119.025 215.422 118.168 215.414 117.103C215.414 116.038 216.271 115.173 217.336 115.165H217.353C218.409 115.165 219.266 116.03 219.275 117.086Z" fill="#757575" stroke="#263238" stroke-linecap="round" stroke-linejoin="round"/>
<path d="M222.395 111.695H219.358C218.843 111.695 218.426 112.113 218.426 112.627V121.937C218.426 122.452 218.843 122.869 219.358 122.869H222.395C222.909 122.869 223.326 122.452 223.326 121.937V112.627C223.326 112.113 222.909 111.695 222.395 111.695Z" fill="#263238"/>
<path d="M229.649 111.695H226.612C226.097 111.695 225.68 112.113 225.68 112.627V121.937C225.68 122.452 226.097 122.869 226.612 122.869H229.649C230.163 122.869 230.58 122.452 230.58 121.937V112.627C230.58 112.113 230.163 111.695 229.649 111.695Z" fill="#263238"/>
<path d="M215.147 111.695H212.11C211.595 111.695 211.178 112.113 211.178 112.627V121.937C211.178 122.452 211.595 122.869 212.11 122.869H215.147C215.661 122.869 216.078 122.452 216.078 121.937V112.627C216.078 112.113 215.661 111.695 215.147 111.695Z" fill="#263238"/>
<path d="M159.01 116.346H160.2V108.401L159.01 108.126V116.346Z" fill="#757575" stroke="#263238" stroke-linecap="round" stroke-linejoin="round"/>
<path d="M166.074 116.346H167.264V109.415L166.074 109.266V116.346Z" fill="#757575" stroke="#263238" stroke-linecap="round" stroke-linejoin="round"/>
<path d="M157.678 117.086C157.678 118.151 158.535 119.017 159.6 119.025C160.665 119.025 161.53 118.168 161.538 117.103C161.538 116.038 160.681 115.173 159.616 115.165C158.551 115.165 157.694 116.022 157.686 117.086H157.678Z" fill="#757575" stroke="#263238" stroke-linecap="round" stroke-linejoin="round"/>
<path d="M164.742 117.086C164.742 118.151 165.599 119.017 166.664 119.025C167.729 119.025 168.595 118.168 168.603 117.103C168.603 116.038 167.746 115.173 166.681 115.165H166.664C165.608 115.165 164.751 116.03 164.742 117.086Z" fill="#757575" stroke="#263238" stroke-linecap="round" stroke-linejoin="round"/>
<path d="M164.65 111.695H161.614C161.099 111.695 160.682 112.113 160.682 112.627V121.937C160.682 122.452 161.099 122.869 161.614 122.869H164.65C165.165 122.869 165.582 122.452 165.582 121.937V112.627C165.582 112.113 165.165 111.695 164.65 111.695Z" fill="#263238"/>
<path d="M157.404 111.695H154.367C153.853 111.695 153.436 112.113 153.436 112.627V121.937C153.436 122.452 153.853 122.869 154.367 122.869H157.404C157.919 122.869 158.336 122.452 158.336 121.937V112.627C158.336 112.113 157.919 111.695 157.404 111.695Z" fill="#263238"/>
<path d="M171.906 111.695H168.869C168.355 111.695 167.938 112.113 167.938 112.627V121.937C167.938 122.452 168.355 122.869 168.869 122.869H171.906C172.421 122.869 172.838 122.452 172.838 121.937V112.627C172.838 112.113 172.421 111.695 171.906 111.695Z" fill="#263238"/>
<path d="M192.906 27.9053V38.9458" stroke="#263238" stroke-linecap="round" stroke-linejoin="round"/>
<path d="M192.906 20.8667V24.0199" stroke="#263238" stroke-linecap="round" stroke-linejoin="round"/>
<path d="M248.379 200.144L245.8 201.068C244.909 201.392 243.927 200.926 243.603 200.036L222.236 140.282C222.236 140.282 222.702 139.234 224.857 138.46C225.864 138.028 226.979 137.944 228.044 138.211L249.419 197.956C249.752 198.813 249.327 199.778 248.47 200.111C248.437 200.119 248.412 200.136 248.379 200.144Z" fill="#263238"/>
<path d="M228.042 138.177L242.054 177.347C240.989 177.081 239.874 177.173 238.867 177.605C236.712 178.379 236.238 179.427 236.238 179.427L222.227 140.257C222.227 140.257 222.701 139.209 224.856 138.435C225.863 138.003 226.977 137.911 228.042 138.177Z" fill="#75A9C8" stroke="#263238" stroke-linecap="round" stroke-linejoin="round"/>
<path d="M237.078 168.87L237.952 171.216" stroke="white" stroke-linecap="round" stroke-linejoin="round"/>
<path d="M226.238 139.783C229.458 148.436 232.687 157.089 235.915 165.733" stroke="white" stroke-linecap="round" stroke-linejoin="round"/>
<path d="M244.842 203.472C244.842 203.472 242.778 196.816 241.048 195.768C239.042 194.586 237.611 192.365 238.027 190.876C238.784 188.213 237.095 186.974 238.676 186.241C238.676 186.241 241.655 189.661 242.054 188.887C244.842 183.396 243.103 180.326 243.103 180.326C246.697 178.57 246.647 180.925 248.619 181.915C250.591 182.905 249.992 182.622 251.248 184.552C252.08 185.809 251.914 186.857 252.912 187.672C253.911 188.488 253.462 191.708 253.295 193.496C253.129 195.285 252.746 197.856 252.746 197.856L254.069 201.142L244.842 203.472Z" fill="white" stroke="#263238" stroke-linecap="round" stroke-linejoin="round"/>
<path d="M219.598 249.298C219.598 249.298 236.938 239.838 240.399 238.549L243.91 237.268C243.91 237.268 245.45 233.54 246.989 233.108C246.989 233.108 244.351 221.46 244.351 217.965V205.344L243.586 202.016C243.586 202.016 248.744 197.082 253.462 199.054L255.767 203.555C258.429 204.429 260.543 206.5 261.466 209.146C263.222 213.755 268.954 230.778 270.028 238.391C271.101 246.003 219.557 282.436 219.557 282.436L219.598 249.298Z" fill="#999999"/>
<mask id="mask10_207_4533" style="mask-type:luminance" maskUnits="userSpaceOnUse" x="219" y="198" width="52" height="85">
<path d="M219.598 249.298C219.598 249.298 236.938 239.838 240.399 238.549L243.91 237.268C243.91 237.268 245.45 233.54 246.989 233.108C246.989 233.108 244.351 221.46 244.351 217.965V205.344L243.586 202.016C243.586 202.016 248.744 197.082 253.462 199.054L255.767 203.555C258.429 204.429 260.543 206.5 261.466 209.146C263.222 213.755 268.954 230.778 270.028 238.391C271.101 246.003 219.557 282.436 219.557 282.436L219.598 249.298Z" fill="white"/>
</mask>
<g mask="url(#mask10_207_4533)">
<path opacity="0.2" d="M251.083 258.142L250.434 259.157C236.289 270.705 219.648 282.453 219.648 282.453V249.298L220.48 248.857C221.604 248.915 222.71 249.065 223.809 249.298C231.106 251.228 232.129 267.768 232.129 267.768C238.802 265.605 250.7 258.367 251.083 258.142Z" fill="black"/>
</g>
<path d="M219.598 249.298C219.598 249.298 236.938 239.838 240.399 238.549L243.91 237.268C243.91 237.268 245.45 233.54 246.989 233.108C246.989 233.108 244.351 221.46 244.351 217.965V205.344L243.586 202.016C243.586 202.016 248.744 197.082 253.462 199.054L255.767 203.555C258.429 204.429 260.543 206.5 261.466 209.146C263.222 213.755 268.954 230.778 270.028 238.391C271.101 246.003 219.557 282.436 219.557 282.436L219.598 249.298Z" stroke="#263238" stroke-linecap="round" stroke-linejoin="round"/>
<path d="M230.68 255.313C230.68 255.313 232.452 265.53 224.656 277.212" stroke="#263238" stroke-linecap="round" stroke-linejoin="round"/>
<path d="M243.951 237.267C243.951 237.267 247.962 236.602 251.09 238.549" stroke="#263238" stroke-linecap="round" stroke-linejoin="round"/>
<path d="M247.029 233.099C247.029 233.099 251.248 231.435 251.747 227.999" stroke="#263238" stroke-linecap="round" stroke-linejoin="round"/>
<path d="M247.521 206.109C247.521 206.109 252.297 203.039 255.842 203.614" stroke="#263238" stroke-linecap="round" stroke-linejoin="round"/>
<path d="M135.638 200.144L138.217 201.068C139.107 201.392 140.089 200.926 140.414 200.036L161.78 140.282C161.78 140.282 161.314 139.234 159.159 138.46C158.153 138.028 157.038 137.944 155.973 138.211L134.598 197.956C134.265 198.813 134.689 199.778 135.546 200.111C135.58 200.119 135.605 200.136 135.638 200.144Z" fill="#263238"/>
<path d="M155.972 138.177L141.961 177.347C143.026 177.081 144.141 177.173 145.148 177.605C147.303 178.379 147.777 179.427 147.777 179.427L161.788 140.257C161.788 140.257 161.314 139.209 159.159 138.435C158.152 138.003 157.037 137.911 155.972 138.177Z" fill="#75A9C8" stroke="#263238" stroke-linecap="round" stroke-linejoin="round"/>
<path d="M146.936 168.87L146.062 171.216" stroke="white" stroke-linecap="round" stroke-linejoin="round"/>
<path d="M157.778 139.783C154.558 148.436 151.33 157.089 148.102 165.733" stroke="white" stroke-linecap="round" stroke-linejoin="round"/>
<path d="M139.173 203.472C139.173 203.472 141.236 196.816 142.967 195.768C144.972 194.586 146.403 192.365 145.987 190.876C145.23 188.213 146.919 186.974 145.338 186.241C145.338 186.241 142.359 189.661 141.96 188.887C139.173 183.396 140.912 180.326 140.912 180.326C137.317 178.57 137.367 180.925 135.395 181.915C133.423 182.905 134.022 182.622 132.766 184.552C131.934 185.809 132.1 186.857 131.102 187.672C130.103 188.488 130.553 191.708 130.719 193.496C130.886 195.285 131.268 197.856 131.268 197.856L129.945 201.142L139.173 203.472Z" fill="white" stroke="#263238" stroke-linecap="round" stroke-linejoin="round"/>
<path d="M164.417 249.298C164.417 249.298 147.078 239.838 143.575 238.549L140.064 237.268C140.064 237.268 138.524 233.54 136.985 233.108C136.985 233.108 139.623 221.46 139.623 217.965V205.344L140.388 202.016C140.388 202.016 135.23 197.082 130.512 199.054L128.207 203.555C125.545 204.429 123.431 206.5 122.508 209.146C120.752 213.755 115.02 230.778 113.946 238.391C112.873 246.003 164.417 282.436 164.417 282.436V249.298Z" fill="#999999"/>
<mask id="mask11_207_4533" style="mask-type:luminance" maskUnits="userSpaceOnUse" x="113" y="198" width="52" height="85">
<path d="M164.417 249.298C164.417 249.298 147.078 239.838 143.575 238.549L140.064 237.268C140.064 237.268 138.524 233.54 136.985 233.108C136.985 233.108 139.623 221.46 139.623 217.965V205.344L140.388 202.016C140.388 202.016 135.23 197.082 130.512 199.054L128.207 203.555C125.545 204.429 123.431 206.5 122.508 209.146C120.752 213.755 115.02 230.778 113.946 238.391C112.873 246.003 164.417 282.436 164.417 282.436V249.298Z" fill="white"/>
</mask>
<g mask="url(#mask11_207_4533)">
<path opacity="0.2" d="M164.06 249.107L164.418 249.298V282.47C164.418 282.47 142.086 266.679 127.109 253.716C151.579 269.075 150.698 264.366 150.698 264.366C152.894 253.284 157.603 249.298 157.603 249.298C157.603 249.298 160.066 249.215 164.06 249.107Z" fill="black"/>
</g>
<path d="M164.417 249.298C164.417 249.298 147.078 239.838 143.575 238.549L140.064 237.268C140.064 237.268 138.524 233.54 136.985 233.108C136.985 233.108 139.623 221.46 139.623 217.965V205.344L140.388 202.016C140.388 202.016 135.23 197.082 130.512 199.054L128.207 203.555C125.545 204.429 123.431 206.5 122.508 209.146C120.752 213.755 115.02 230.778 113.946 238.391C112.873 246.003 164.417 282.436 164.417 282.436V249.298Z" stroke="#263238" stroke-linecap="round" stroke-linejoin="round"/>
<path d="M131.602 203.522C131.602 203.522 137.601 203.422 139.622 205.344" stroke="#263238" stroke-linecap="round" stroke-linejoin="round"/>
<path d="M136.984 233.099C136.984 233.099 130.611 238.033 129.296 236.061C127.982 234.089 133.141 233.099 133.141 233.099" stroke="#263238" stroke-linecap="round" stroke-linejoin="round"/>
<path d="M140.064 237.268C140.064 237.268 140.489 242.809 143.293 245.587" stroke="#263238" stroke-linecap="round" stroke-linejoin="round"/>
<path d="M148.143 264.366C148.143 264.366 155.065 275.756 159.741 279.109" stroke="#263238" stroke-linecap="round" stroke-linejoin="round"/>
<path d="M181.856 239.68C182.913 243.899 181.939 248.366 179.219 251.753C179.219 251.753 190.501 257.452 201.434 251.753C201.434 251.753 198.106 244.506 200.286 240.779C200.327 240.779 193.488 236.61 181.856 239.68Z" fill="white" stroke="#263238" stroke-linecap="round" stroke-linejoin="round"/>
<path d="M208.539 222.317C208.539 222.317 205.336 207.341 192.165 206.193C178.994 205.045 174.393 216.177 172.662 225.329L191.508 227.201L208.539 222.317Z" fill="#75A9C8" stroke="#263238" stroke-linecap="round" stroke-linejoin="round"/>
<path d="M207.326 221.21C209.298 220.436 210.105 223.49 210.105 223.49C210.105 223.49 212.335 224.954 212.335 230.221C212.335 234.98 208.957 236.644 208.957 236.644C208.957 236.644 207.476 239.78 205.629 237.733C203.782 235.687 204.88 222.159 207.326 221.21Z" fill="#75A9C8" stroke="#263238" stroke-linecap="round" stroke-linejoin="round"/>
<path d="M210.104 223.49C210.104 223.49 211.16 229.921 209.363 234.081Z" fill="#75A9C8"/>
<path d="M210.104 223.49C210.104 223.49 211.16 229.921 209.363 234.081" stroke="#263238" stroke-linecap="round" stroke-linejoin="round"/>
<path d="M173.969 221.21C171.997 220.436 171.19 223.49 171.19 223.49C171.19 223.49 168.969 224.954 168.969 230.221C168.969 234.98 172.338 236.644 172.338 236.644C172.338 236.644 173.828 239.78 175.667 237.733C177.505 235.687 176.424 222.159 173.969 221.21Z" fill="#75A9C8" stroke="#263238" stroke-linecap="round" stroke-linejoin="round"/>
<path d="M171.207 223.49C171.207 223.49 170.15 229.921 171.948 234.081Z" fill="#75A9C8"/>
<path d="M171.207 223.49C171.207 223.49 170.15 229.921 171.948 234.081" stroke="#263238" stroke-linecap="round" stroke-linejoin="round"/>
<path d="M196.999 209.812C196.999 209.812 192.24 206.484 188.529 207.016C184.818 207.549 188.03 208.389 188.03 208.389C188.03 208.389 181.773 208.738 181.199 209.812C180.625 210.885 181.199 210.877 181.199 210.877C181.199 210.877 177.405 212.541 176.531 214.205C175.657 215.869 177.363 215.503 177.363 215.503C177.363 215.503 173.91 219.787 173.66 222.416C173.411 225.045 174.492 223.897 174.492 223.897C174.093 227.866 174.376 231.868 175.325 235.745C176.889 241.344 178.037 241.569 177.954 243.066C177.871 244.564 179.851 243.815 179.851 243.815C179.851 243.815 180.733 245.504 182.022 245.504C183.312 245.504 185.292 244.19 185.292 244.19C185.292 244.19 188.03 247.235 190.085 246.819C192.14 246.403 192.722 244.023 192.722 244.023C192.722 244.023 194.528 247.393 195.842 246.86C197.157 246.328 196.999 244.106 196.999 244.106C196.999 244.106 198.48 245.92 199.711 245.77C200.41 245.687 200.918 245.072 200.868 244.373C200.868 244.373 202.266 245.03 202.673 244.697C203.081 244.364 202.432 243.549 203.331 242.151C204.229 240.753 206.958 236.144 207.616 232.766C207.616 232.766 207.932 234.081 208.514 231.701C209.097 229.322 207.857 223.49 207.857 223.49C207.857 223.49 208.157 224.704 208.689 224.372C209.222 224.039 207.474 219.188 203.855 217.133C203.855 217.133 205.17 217.466 205.253 216.642C205.336 215.819 203.031 209.238 196.999 209.812Z" fill="#263238"/>
<path d="M173.619 252.626C173.619 252.626 179.036 249.773 191.2 249.298C203.364 248.824 209.363 252.626 209.363 252.626C204.238 255.813 198.414 257.693 192.39 258.109C182.955 258.55 173.619 252.626 173.619 252.626Z" fill="#999999" stroke="#263238" stroke-linecap="round" stroke-linejoin="round"/>
<path d="M156.538 243.133L174.66 251.328C174.66 251.328 178.612 253.234 189.636 253.716C200.661 254.199 210.437 249.298 210.437 249.298L226.246 244.207C226.246 244.207 231.138 268.426 223.933 294.758L226.67 332.498C226.67 332.498 187.931 339.736 152.428 332.498L156.147 296.073C156.147 296.073 151.82 261.753 156.538 243.133Z" fill="#75A9C8"/>
<mask id="mask12_207_4533" style="mask-type:luminance" maskUnits="userSpaceOnUse" x="152" y="243" width="76" height="93">
<path d="M156.538 243.133L174.66 251.328C174.66 251.328 178.612 253.234 189.636 253.716C200.661 254.199 210.437 249.298 210.437 249.298L226.246 244.207C226.246 244.207 231.138 268.426 223.933 294.758L226.67 332.498C226.67 332.498 187.931 339.736 152.428 332.498L156.147 296.073C156.147 296.073 151.82 261.753 156.538 243.133Z" fill="white"/>
</mask>
<g mask="url(#mask12_207_4533)">
<path opacity="0.6" d="M227.253 276.662C218.6 278.826 205.37 281.455 192.224 281.455C178.246 281.455 163.586 278.909 154.591 277.012C154.342 271.571 154.234 265.539 154.467 259.681C162.629 264.44 176.025 270.273 191.95 269.665C204.572 269.116 216.869 265.505 227.785 259.141C228.01 264.99 227.827 270.838 227.253 276.662Z" fill="white"/>
<path opacity="0.6" d="M226.229 326.432C213.257 329.053 187.739 332.206 153.01 327.073L154.324 314.169C177.838 318.537 202.017 317.763 225.205 311.914L226.229 326.432Z" fill="white"/>
</g>
<path d="M174.66 251.328C174.66 251.328 187.723 258.65 195.461 258.134C203.199 257.618 207.501 253.716 207.501 253.716" stroke="#263238" stroke-linecap="round" stroke-linejoin="round"/>
<path d="M223.758 280.989C223.758 280.989 224.69 289.933 223.941 294.758" stroke="#263238" stroke-linecap="round" stroke-linejoin="round"/>
<path d="M156.021 295.349C156.021 295.349 156.562 281.48 157.602 277.211" stroke="#263238" stroke-linecap="round" stroke-linejoin="round"/>
<path d="M162.711 298.752C162.711 298.752 189.003 316.224 210.411 299.908" stroke="#263238" stroke-linecap="round" stroke-linejoin="round"/>
<path d="M213.399 316.04C213.399 316.04 194.744 319.368 179.219 309.95" stroke="#263238" stroke-linecap="round" stroke-linejoin="round"/>
<path d="M152.436 332.498L156.155 296.073C156.155 296.073 151.82 261.753 156.537 243.133L174.659 251.328C174.659 251.328 178.611 253.234 189.636 253.716C200.66 254.199 210.437 249.298 210.437 249.298L226.245 244.207C226.245 244.207 231.138 268.426 223.932 294.758L226.67 332.498" stroke="#263238" stroke-linecap="round" stroke-linejoin="round"/>
<g opacity="0.4">
<path d="M198.09 217.516C195.985 214.255 192.432 212.216 188.555 212.033" stroke="white" stroke-linecap="round" stroke-linejoin="round"/>
<path d="M196.227 218.947C196.227 218.947 190.086 219.055 187.906 222.234" stroke="white" stroke-linecap="round" stroke-linejoin="round"/>
<path d="M197.326 220.586C197.326 220.586 194.83 224.871 195.462 227.999" stroke="white" stroke-linecap="round" stroke-linejoin="round"/>
<path d="M199.963 220.586C201.644 221.443 203.075 222.724 204.123 224.297" stroke="white" stroke-linecap="round" stroke-linejoin="round"/>
<path d="M200.395 217.516C200.395 217.516 200.395 214.263 203.032 214.779" stroke="white" stroke-linecap="round" stroke-linejoin="round"/>
</g>
</g>
<defs>
<clipPath id="clip0_207_4533">
<rect width="384" height="336" fill="white"/>
</clipPath>
</defs>
</svg>
