<svg width="369" height="342" viewBox="0 0 369 342" fill="none" xmlns="http://www.w3.org/2000/svg">
<g clip-path="url(#clip0_207_4057)">
<path d="M173.976 0.924164C273.363 -7.87795 273.523 47.8661 318.305 99.8026C363.087 151.731 372.67 175.278 355.788 235.148C338.905 295.01 282.025 341.944 211.651 315.355C141.277 288.765 100.966 314.303 56.5767 290.685C12.1874 267.075 -4.29434 221.455 28.1964 167.686C60.6871 113.918 51.4327 11.7735 173.976 0.924164Z" fill="#75A9C8"/>
<path opacity="0.7" d="M173.976 0.924164C273.363 -7.87795 273.523 47.8661 318.305 99.8026C363.087 151.731 372.67 175.278 355.788 235.148C338.905 295.01 282.025 341.944 211.651 315.355C141.277 288.765 100.966 314.303 56.5767 290.685C12.1874 267.075 -4.29434 221.455 28.1964 167.686C60.6871 113.918 51.4327 11.7735 173.976 0.924164Z" fill="white"/>
<path d="M240.136 24.7633L83.9668 42.041L108.126 257.87L264.296 240.592L240.136 24.7633Z" fill="white" stroke="#263238" stroke-linecap="round" stroke-linejoin="round"/>
<path d="M240.128 24.7648L83.959 42.0425L87.3017 71.9048L243.471 54.6271L240.128 24.7648Z" fill="#BFBFBF" stroke="#263238" stroke-linecap="round" stroke-linejoin="round"/>
<path d="M196.747 38.5222L129.329 45.9781C128.063 46.1215 127.15 47.2526 127.294 48.5112C127.439 49.7698 128.576 50.6779 129.842 50.5345L197.26 43.0786C198.525 42.9352 199.439 41.8041 199.295 40.5455C199.15 39.2869 198.013 38.3788 196.747 38.5222Z" fill="white"/>
<path d="M180.939 49.7457L147.23 53.4737C146.597 53.5454 146.14 54.1109 146.213 54.7402C146.285 55.3695 146.854 55.8236 147.487 55.7519L181.195 52.0239C181.828 51.9522 182.285 51.3867 182.213 50.7574C182.141 50.1281 181.572 49.674 180.939 49.7457Z" fill="white"/>
<path opacity="0.3" d="M206.13 75.5626L117.817 85.3286C117.344 85.3844 117.007 85.7986 117.055 86.2686C117.111 86.7385 117.528 87.0731 118.001 87.0253L206.315 77.2593C206.787 77.2036 207.124 76.7894 207.076 76.3194C207.028 75.8494 206.603 75.5149 206.13 75.5626Z" fill="black"/>
<path opacity="0.3" d="M206.811 81.6564L105.244 92.8881C104.772 92.9438 104.435 93.358 104.483 93.828C104.539 94.298 104.956 94.6325 105.429 94.5847L206.995 83.3531C207.468 83.2973 207.804 82.8831 207.756 82.4131C207.708 81.9432 207.284 81.6086 206.811 81.6564Z" fill="black"/>
<path opacity="0.3" d="M180.979 90.6818L105.918 98.9821C105.445 99.0378 105.109 99.452 105.157 99.922C105.213 100.392 105.63 100.727 106.102 100.679L181.164 92.3785C181.636 92.3227 181.973 91.9085 181.925 91.4385C181.869 90.9686 181.452 90.634 180.979 90.6818Z" fill="black"/>
<path opacity="0.3" d="M228.526 72.3275L219.567 73.3187C218.362 73.452 217.493 74.5313 217.628 75.7293L218.625 84.6357C218.759 85.8338 219.844 86.6969 221.049 86.5635L230.008 85.5724C231.213 85.4391 232.081 84.3598 231.947 83.1618L230.95 74.2553C230.816 73.0573 229.731 72.1942 228.526 72.3275Z" stroke="#263238" stroke-linecap="round" stroke-linejoin="round"/>
<path d="M221.162 79.1712L224.103 81.9353L227.989 76.0327" stroke="#75A9C8" stroke-width="3" stroke-linecap="round" stroke-linejoin="round"/>
<path opacity="0.3" d="M209.359 104.43L121.045 114.196C120.572 114.252 120.236 114.666 120.284 115.136C120.34 115.606 120.757 115.941 121.229 115.893L209.543 106.127C210.016 106.071 210.352 105.657 210.304 105.187C210.248 104.717 209.832 104.383 209.359 104.43Z" fill="black"/>
<path opacity="0.3" d="M210.039 110.524L108.473 121.756C108 121.811 107.664 122.226 107.712 122.696C107.76 123.166 108.184 123.5 108.657 123.452L210.224 112.221C210.696 112.165 211.033 111.751 210.985 111.281C210.929 110.811 210.512 110.476 210.039 110.524Z" fill="black"/>
<path opacity="0.3" d="M184.208 119.549L109.147 127.85C108.674 127.905 108.337 128.32 108.385 128.79C108.442 129.26 108.858 129.594 109.331 129.546L184.392 121.246C184.865 121.19 185.201 120.776 185.153 120.306C185.097 119.836 184.681 119.502 184.208 119.549Z" fill="black"/>
<path opacity="0.3" d="M231.756 101.181L222.797 102.172C221.592 102.305 220.724 103.385 220.858 104.583L221.855 113.489C221.989 114.687 223.075 115.55 224.28 115.417L233.239 114.426C234.444 114.293 235.312 113.213 235.178 112.015L234.181 103.109C234.047 101.911 232.961 101.048 231.756 101.181Z" stroke="#263238" stroke-linecap="round" stroke-linejoin="round"/>
<path d="M224.391 108.039L227.331 110.795L231.217 104.893" stroke="#75A9C8" stroke-width="3" stroke-linecap="round" stroke-linejoin="round"/>
<path opacity="0.3" d="M212.589 133.29L124.276 143.056C123.803 143.112 123.466 143.526 123.514 143.996C123.57 144.466 123.987 144.801 124.46 144.753L212.774 134.987C213.246 134.931 213.583 134.517 213.535 134.047C213.479 133.577 213.062 133.242 212.589 133.29Z" fill="black"/>
<path opacity="0.3" d="M213.27 139.392L111.703 150.623C111.231 150.679 110.894 151.093 110.942 151.563C110.99 152.033 111.415 152.368 111.888 152.32L213.454 141.088C213.927 141.033 214.263 140.618 214.215 140.148C214.159 139.679 213.743 139.344 213.27 139.392Z" fill="black"/>
<path opacity="0.3" d="M187.438 148.417L112.377 156.717C111.904 156.773 111.568 157.187 111.616 157.657C111.664 158.127 112.089 158.462 112.561 158.414L187.623 150.114C188.095 150.058 188.432 149.644 188.384 149.174C188.336 148.704 187.911 148.369 187.438 148.417Z" fill="black"/>
<path opacity="0.3" d="M234.988 130.05L226.03 131.041C224.825 131.175 223.956 132.254 224.09 133.452L225.087 142.358C225.222 143.556 226.307 144.42 227.512 144.286L236.471 143.295C237.676 143.162 238.544 142.082 238.41 140.884L237.413 131.978C237.279 130.78 236.193 129.917 234.988 130.05Z" stroke="#263238" stroke-linecap="round" stroke-linejoin="round"/>
<path d="M227.619 136.899L230.56 139.663L234.446 133.76" stroke="#75A9C8" stroke-width="3" stroke-linecap="round" stroke-linejoin="round"/>
<path opacity="0.3" d="M215.818 162.158L127.504 171.924C127.031 171.98 126.695 172.394 126.743 172.864C126.799 173.334 127.216 173.668 127.688 173.621L216.002 163.855C216.475 163.799 216.811 163.385 216.763 162.915C216.707 162.445 216.291 162.11 215.818 162.158Z" fill="black"/>
<path opacity="0.3" d="M216.498 168.252L114.932 179.483C114.459 179.539 114.123 179.953 114.171 180.423C114.227 180.893 114.643 181.228 115.116 181.18L216.683 169.948C217.155 169.893 217.492 169.478 217.444 169.008C217.388 168.538 216.971 168.204 216.498 168.252Z" fill="black"/>
<path opacity="0.3" d="M190.667 177.285L115.606 185.585C115.133 185.641 114.796 186.055 114.844 186.525C114.901 186.995 115.317 187.33 115.79 187.282L190.851 178.982C191.324 178.926 191.66 178.512 191.612 178.042C191.556 177.572 191.14 177.237 190.667 177.285Z" fill="black"/>
<path opacity="0.3" d="M238.221 158.919L229.262 159.91C228.057 160.044 227.189 161.123 227.323 162.321L228.32 171.228C228.454 172.426 229.54 173.289 230.745 173.155L239.703 172.164C240.908 172.031 241.777 170.952 241.643 169.754L240.646 160.847C240.511 159.649 239.426 158.786 238.221 158.919Z" stroke="#263238" stroke-linecap="round" stroke-linejoin="round"/>
<path d="M230.85 165.766L233.79 168.531L237.676 162.628" stroke="#75A9C8" stroke-width="3" stroke-linecap="round" stroke-linejoin="round"/>
<path opacity="0.3" d="M219.046 191.026L130.733 200.792C130.26 200.848 129.923 201.262 129.971 201.732C130.027 202.202 130.444 202.536 130.917 202.489L219.231 192.723C219.703 192.667 220.04 192.253 219.992 191.783C219.936 191.313 219.519 190.978 219.046 191.026Z" fill="black"/>
<path opacity="0.3" d="M219.727 197.12L118.16 208.351C117.688 208.407 117.351 208.821 117.399 209.291C117.455 209.761 117.872 210.096 118.345 210.048L219.911 198.816C220.384 198.761 220.72 198.346 220.672 197.877C220.616 197.407 220.2 197.072 219.727 197.12Z" fill="black"/>
<path opacity="0.3" d="M193.895 206.152L118.834 214.453C118.361 214.509 118.025 214.923 118.073 215.393C118.129 215.863 118.546 216.197 119.018 216.149L194.08 207.849C194.552 207.793 194.889 207.379 194.841 206.909C194.785 206.439 194.368 206.105 193.895 206.152Z" fill="black"/>
<path opacity="0.3" d="M241.451 187.789L232.493 188.78C231.287 188.913 230.419 189.993 230.553 191.191L231.55 200.097C231.684 201.295 232.77 202.158 233.975 202.025L242.934 201.034C244.139 200.9 245.007 199.821 244.873 198.623L243.876 189.717C243.742 188.519 242.656 187.656 241.451 187.789Z" stroke="#263238" stroke-linecap="round" stroke-linejoin="round"/>
<path d="M234.076 194.634L237.017 197.398L240.903 191.496" stroke="#75A9C8" stroke-width="3" stroke-linecap="round" stroke-linejoin="round"/>
<path opacity="0.3" d="M221.515 213.05L133.201 222.816C132.729 222.872 132.392 223.286 132.44 223.756C132.496 224.226 132.913 224.561 133.386 224.513L221.699 214.747C222.172 214.691 222.509 214.277 222.461 213.807C222.405 213.337 221.988 213.003 221.515 213.05Z" fill="black"/>
<path opacity="0.3" d="M222.196 219.144L120.629 230.376C120.156 230.432 119.82 230.846 119.868 231.316C119.924 231.786 120.341 232.12 120.813 232.073L222.38 220.841C222.853 220.785 223.189 220.371 223.141 219.901C223.085 219.431 222.668 219.096 222.196 219.144Z" fill="black"/>
<path opacity="0.3" d="M196.364 228.177L121.303 236.478C120.83 236.533 120.494 236.948 120.542 237.418C120.598 237.888 121.014 238.222 121.487 238.174L196.548 229.874C197.021 229.818 197.358 229.404 197.31 228.934C197.253 228.464 196.837 228.13 196.364 228.177Z" fill="black"/>
<path opacity="0.3" d="M243.912 209.807L234.953 210.798C233.748 210.931 232.88 212.01 233.014 213.208L234.011 222.115C234.145 223.313 235.231 224.176 236.436 224.043L245.395 223.051C246.6 222.918 247.468 221.839 247.334 220.641L246.337 211.734C246.203 210.536 245.117 209.673 243.912 209.807Z" stroke="#263238" stroke-linecap="round" stroke-linejoin="round"/>
<path d="M236.547 216.659L239.487 219.423L243.374 213.521" stroke="#75A9C8" stroke-width="3" stroke-linecap="round" stroke-linejoin="round"/>
<path d="M148.086 156.693C148.19 155.905 147.99 155.029 147.453 154.089L146.467 152.352L144.52 153.451L145.586 155.315C146.115 156.247 145.899 156.813 145.242 157.187C144.585 157.554 143.984 157.458 143.447 156.518L141.147 152.487C140.33 152.647 139.513 152.806 138.695 152.965L141.307 157.546C142.501 159.633 144.232 160.238 146.259 159.091C146.612 158.892 146.892 158.669 147.148 158.43C146.892 157.952 147.1 157.251 147.573 156.916C147.733 156.805 147.91 156.733 148.094 156.677L148.086 156.693Z" fill="#75A9C8"/>
<path d="M137.431 150.767L137.896 151.58C138.801 151.564 139.698 151.556 140.604 151.54L139.426 149.469C138.897 148.537 139.105 147.947 139.762 147.581C140.419 147.214 141.036 147.334 141.565 148.266L142.367 149.668L144.314 148.568L143.592 147.302C142.399 145.215 140.668 144.61 138.641 145.757C138.128 146.043 137.719 146.378 137.415 146.744C138.032 146.896 138.641 147.015 138.841 146.943C138.2 147.182 137.559 147.421 136.918 147.66C136.614 148.568 136.774 149.62 137.431 150.775V150.767Z" fill="#75A9C8"/>
<path d="M152.398 142.275C152.639 142.116 152.943 142.076 153.207 141.957C154.241 141.495 154.473 140.021 154.385 138.978L153.32 137.655L150.451 139.272L152.246 142.411C152.286 142.355 152.342 142.307 152.398 142.267V142.275Z" fill="#75A9C8"/>
<path d="M164.615 148.545L166.562 147.445L159.119 134.39L157.276 135.433C157.869 135.569 158.294 135.847 158.31 136.285C157.733 136.365 157.028 136.285 156.403 136.397L160.152 146.059L160.112 146.083L155.377 140.205C155.377 140.483 155.313 140.746 155.089 140.898C154.872 141.049 154.56 141.041 154.383 141.24C154.231 141.415 154.239 141.678 154.103 141.854C153.967 142.029 153.734 142.077 153.55 142.204C153.31 142.371 153.182 142.658 152.989 142.873C152.901 142.977 152.765 143.048 152.637 143.088L157.909 152.328L159.712 151.317L154.448 142.085L154.488 142.061L161.258 150.449L163.205 149.349L159.255 139.209L159.295 139.185L164.639 148.545H164.615Z" fill="#75A9C8"/>
<path d="M169.551 137.153C169.84 137.257 170.008 137.536 170.144 137.854C170.344 137.018 170.144 136.07 169.543 135.019L168.574 133.322C167.38 131.235 165.721 130.669 163.654 131.832L160.617 133.545L168.061 146.601L170 145.509C169.375 145.119 168.678 144.785 168.077 144.362C167.812 144.171 167.556 143.948 167.42 143.653C167.284 143.359 167.292 142.976 167.516 142.737C167.764 142.474 168.157 142.482 168.509 142.602L167.332 140.531L168.309 139.981C168.918 139.639 169.367 139.24 169.679 138.802C169.271 138.149 168.558 136.779 169.551 137.153ZM167.244 138.117L166.266 138.667L163.742 134.246L164.72 133.696C165.377 133.33 165.905 133.425 166.434 134.357L167.548 136.317C168.077 137.249 167.893 137.751 167.236 138.117H167.244Z" fill="#75A9C8"/>
<path d="M180.602 139.535L179.536 137.671L176.139 139.583L171.171 130.877C171.099 130.94 171.027 130.996 170.954 131.052C170.794 131.171 170.634 131.299 170.434 131.331C170.241 131.362 170.009 131.267 169.961 131.076C169.929 130.956 169.985 130.829 170.009 130.701C170.137 130.032 169.705 129.339 169.336 128.638L167.693 129.562L175.137 142.618L180.594 139.543L180.602 139.535Z" fill="#75A9C8"/>
<path d="M179.671 135.003C179.895 134.413 180.592 134.166 180.985 133.672C181.025 133.625 181.057 133.561 181.089 133.513L180.328 132.175L182.355 131.036C182.323 130.924 182.267 130.813 182.163 130.693C182.027 130.55 181.242 130.406 181.242 130.406C181.009 130.016 181.33 129.435 181.778 129.411C181.915 129.411 182.075 129.435 182.179 129.347C182.267 129.275 182.275 129.156 182.283 129.036L182.099 128.71L179.27 130.311L177.195 126.678L180.761 124.671L179.695 122.807L174.07 125.977L179.583 135.64C179.599 135.425 179.607 135.21 179.687 135.011L179.671 135.003Z" fill="#75A9C8"/>
<path d="M187.132 135.855L186.066 133.991L182.5 135.999L181.435 134.127C180.994 134.533 180.561 134.947 180.121 135.353C179.969 135.497 179.808 135.648 179.664 135.799L181.507 139.026L187.132 135.855Z" fill="#75A9C8"/>
<path d="M184.48 120.696C184.448 120.975 184.279 121.278 184.007 121.31C183.871 121.326 183.742 121.27 183.606 121.246C183.358 121.206 183.093 121.27 182.869 121.174C182.813 121.15 182.765 121.118 182.725 121.087L180.369 122.417L181.435 124.281L183.59 123.062L189.976 134.254L192.035 133.091L185.649 121.899L187.805 120.68L186.739 118.816L184.528 120.059C184.488 120.266 184.504 120.481 184.48 120.688V120.696Z" fill="#75A9C8"/>
<path d="M193.478 128.551L195.08 131.363L197.244 130.144C197.3 130.009 197.364 129.873 197.436 129.738C197.853 129.013 198.598 128.543 199.311 128.097C199.639 127.89 199.976 127.683 200.305 127.483L199.647 126.328L196.082 128.336L193.903 124.512L196.731 122.911L195.665 121.047L192.837 122.648L190.762 119.016L194.327 117.009L193.262 115.145L187.637 118.315L191.683 125.412C192.669 124.934 193.165 126.798 193.478 128.551Z" fill="#75A9C8"/>
<path d="M151.981 154.367C152.317 154.431 152.518 154.758 152.766 154.981C152.87 155.068 152.974 155.14 153.095 155.196C153.247 155.132 153.391 155.076 153.543 154.989C155.57 153.85 155.995 152.025 154.801 149.938L154.681 149.731C153.76 149.707 152.83 149.675 151.909 149.652L152.806 151.229C153.335 152.161 153.127 152.75 152.47 153.117C151.813 153.483 151.196 153.364 150.667 152.432L146.644 145.382C146.116 144.45 146.324 143.861 146.981 143.494C147.638 143.128 148.255 143.247 148.784 144.179L151.508 148.951C152.341 148.751 153.199 148.64 154.056 148.64L150.923 143.152C149.729 141.065 147.942 140.491 145.915 141.638C143.888 142.777 143.464 144.601 144.657 146.688L148.527 153.475C149.224 154.694 150.13 155.379 151.156 155.522C151.147 155.475 151.131 155.427 151.123 155.379C151.083 154.877 151.46 154.272 151.965 154.367H151.981Z" fill="#75A9C8"/>
<path d="M179.648 116.913L185.938 113.368C184.135 113.862 182.548 115.36 180.689 115.152C180.345 115.113 179.976 115.017 179.664 115.168C179.215 115.383 179.111 116.021 179.327 116.467C179.407 116.634 179.528 116.777 179.656 116.913H179.648Z" fill="#75A9C8"/>
<path d="M163.87 125.81C163.862 125.667 163.878 125.531 163.95 125.404C164.111 125.468 164.271 125.492 164.431 125.492L166.603 124.265C166.963 123.899 167.316 123.524 167.756 123.269C168.157 123.03 168.606 122.895 169.054 122.759C169.215 122.712 169.375 122.664 169.535 122.616L173.525 120.37C173.573 120.29 173.622 120.21 173.694 120.155C173.75 120.107 173.822 120.091 173.894 120.059C172.516 119.645 171.138 119.231 169.751 118.816L168.638 119.446C168.598 119.74 168.558 120.027 168.518 120.322C166.923 121.166 165.337 122.011 163.742 122.855C163.253 123.118 162.749 123.381 162.204 123.437C161.995 123.46 161.795 123.437 161.587 123.421L154.792 127.252C154.848 127.571 154.936 127.889 155.065 128.184C154.664 128.112 154.287 127.953 153.951 127.73L152.557 128.519C153.55 129.172 154.528 129.849 155.481 130.55L163.862 125.826L163.87 125.81Z" fill="#75A9C8"/>
<path d="M192.949 109.409C191.859 108.795 190.761 108.19 189.672 107.577L188.117 108.453C189.023 109.369 190.2 110.006 191.474 110.245L192.957 109.409H192.949Z" fill="#75A9C8"/>
<path d="M210.624 128.702L198.221 106.964C197.219 105.211 194.976 104.59 193.213 105.585L191.723 106.43C191.915 106.613 192.099 106.796 192.292 106.987C192.892 107.569 193.493 108.166 194.054 108.804L194.807 108.381C195.024 108.262 195.304 108.334 195.432 108.549L207.836 130.287C207.956 130.502 207.884 130.781 207.668 130.908L190.785 140.427C192.243 140.515 193.718 140.308 195.176 140.475C195.697 140.531 196.218 140.643 196.738 140.754L209.254 133.696C211.017 132.701 211.642 130.47 210.64 128.718L210.624 128.702Z" fill="#75A9C8"/>
<path d="M134.626 156.367L128.784 146.123C128.664 145.908 128.736 145.629 128.953 145.502L145.795 136.006C145.739 135.879 145.667 135.759 145.611 135.624C145.851 135.608 146.091 135.648 146.324 135.704L153.118 131.872C152.894 131.793 152.678 131.713 152.461 131.625C151.396 131.203 150.33 130.781 149.264 130.367L146.7 131.808C147.63 132.374 148.559 132.94 149.481 133.505C148.519 132.916 146.532 132.836 144.833 132.86L127.358 142.714C125.595 143.709 124.97 145.94 125.972 147.692L131.036 156.566C131.276 156.51 131.509 156.454 131.741 156.407C132.382 156.295 133.031 156.303 133.68 156.311C133.993 156.311 134.305 156.319 134.618 156.359L134.626 156.367Z" fill="#75A9C8"/>
<path d="M155.394 160.365C155.683 160.612 156.003 160.835 156.356 160.979C156.716 161.13 157.197 161.52 156.917 161.799C155.619 162.389 154.024 161.951 152.742 162.58C152.045 162.922 151.372 163.576 150.627 163.377C151.524 163.91 152.334 164.603 153.023 165.392L184.84 147.453C184.864 147.326 184.888 147.198 184.904 147.071C184.977 146.649 185.065 146.202 185.361 145.892C185.754 145.478 186.395 145.446 186.972 145.438C187.38 145.438 187.813 145.446 188.206 145.557L192.164 143.327C191.627 142.387 190.978 141.527 190.241 140.73L155.394 160.381V160.365Z" fill="#75A9C8"/>
<path d="M150.25 165.631C149.585 165.416 148.72 164.97 148.167 164.436L141.797 168.029C141.58 168.148 141.3 168.077 141.18 167.861L135.603 158.088C135.042 157.96 134.481 157.785 133.92 157.896C133.279 158.024 132.711 158.773 133.063 159.322C133.728 159.322 134.385 159.721 134.682 160.31C134.329 160.581 133.953 160.804 133.56 160.987L138.383 169.439C139.385 171.191 141.629 171.812 143.391 170.817L151.716 166.125C151.716 166.125 151.652 166.085 151.612 166.069C151.179 165.87 150.699 165.782 150.25 165.631Z" fill="#75A9C8"/>
<g opacity="0.2">
<path d="M148.086 156.693C148.19 155.905 147.99 155.029 147.453 154.089L146.467 152.352L144.52 153.451L145.586 155.315C146.115 156.247 145.899 156.813 145.242 157.187C144.585 157.554 143.984 157.458 143.447 156.518L141.147 152.487C140.33 152.647 139.513 152.806 138.695 152.965L141.307 157.546C142.501 159.633 144.232 160.238 146.259 159.091C146.612 158.892 146.892 158.669 147.148 158.43C146.892 157.952 147.1 157.251 147.573 156.916C147.733 156.805 147.91 156.733 148.094 156.677L148.086 156.693Z" fill="black"/>
<path d="M137.431 150.767L137.896 151.58C138.801 151.564 139.698 151.556 140.604 151.54L139.426 149.469C138.897 148.537 139.105 147.947 139.762 147.581C140.419 147.214 141.036 147.334 141.565 148.266L142.367 149.668L144.314 148.568L143.592 147.302C142.399 145.215 140.668 144.61 138.641 145.757C138.128 146.043 137.719 146.378 137.415 146.744C138.032 146.896 138.641 147.015 138.841 146.943C138.2 147.182 137.559 147.421 136.918 147.66C136.614 148.568 136.774 149.62 137.431 150.775V150.767Z" fill="black"/>
<path d="M152.398 142.275C152.639 142.116 152.943 142.076 153.207 141.957C154.241 141.495 154.473 140.021 154.385 138.978L153.32 137.655L150.451 139.272L152.246 142.411C152.286 142.355 152.342 142.307 152.398 142.267V142.275Z" fill="black"/>
<path d="M164.615 148.545L166.562 147.445L159.119 134.39L157.276 135.433C157.869 135.569 158.294 135.847 158.31 136.285C157.733 136.365 157.028 136.285 156.403 136.397L160.152 146.059L160.112 146.083L155.377 140.205C155.377 140.483 155.313 140.746 155.089 140.898C154.872 141.049 154.56 141.041 154.383 141.24C154.231 141.415 154.239 141.678 154.103 141.854C153.967 142.029 153.734 142.077 153.55 142.204C153.31 142.371 153.182 142.658 152.989 142.873C152.901 142.977 152.765 143.048 152.637 143.088L157.909 152.328L159.712 151.317L154.448 142.085L154.488 142.061L161.258 150.449L163.205 149.349L159.255 139.209L159.295 139.185L164.639 148.545H164.615Z" fill="black"/>
<path d="M169.551 137.153C169.84 137.257 170.008 137.536 170.144 137.854C170.344 137.018 170.144 136.07 169.543 135.019L168.574 133.322C167.38 131.235 165.721 130.669 163.654 131.832L160.617 133.545L168.061 146.601L170 145.509C169.375 145.119 168.678 144.785 168.077 144.362C167.812 144.171 167.556 143.948 167.42 143.653C167.284 143.359 167.292 142.976 167.516 142.737C167.764 142.474 168.157 142.482 168.509 142.602L167.332 140.531L168.309 139.981C168.918 139.639 169.367 139.24 169.679 138.802C169.271 138.149 168.558 136.779 169.551 137.153ZM167.244 138.117L166.266 138.667L163.742 134.246L164.72 133.696C165.377 133.33 165.905 133.425 166.434 134.357L167.548 136.317C168.077 137.249 167.893 137.751 167.236 138.117H167.244Z" fill="black"/>
<path d="M180.602 139.535L179.536 137.671L176.139 139.583L171.171 130.877C171.099 130.94 171.027 130.996 170.954 131.052C170.794 131.171 170.634 131.299 170.434 131.331C170.241 131.362 170.009 131.267 169.961 131.076C169.929 130.956 169.985 130.829 170.009 130.701C170.137 130.032 169.705 129.339 169.336 128.638L167.693 129.562L175.137 142.618L180.594 139.543L180.602 139.535Z" fill="black"/>
<path d="M179.671 135.003C179.895 134.413 180.592 134.166 180.985 133.672C181.025 133.625 181.057 133.561 181.089 133.513L180.328 132.175L182.355 131.036C182.323 130.924 182.267 130.813 182.163 130.693C182.027 130.55 181.242 130.406 181.242 130.406C181.009 130.016 181.33 129.435 181.778 129.411C181.915 129.411 182.075 129.435 182.179 129.347C182.267 129.275 182.275 129.156 182.283 129.036L182.099 128.71L179.27 130.311L177.195 126.678L180.761 124.671L179.695 122.807L174.07 125.977L179.583 135.64C179.599 135.425 179.607 135.21 179.687 135.011L179.671 135.003Z" fill="black"/>
<path d="M187.132 135.855L186.066 133.991L182.5 135.999L181.435 134.127C180.994 134.533 180.561 134.947 180.121 135.353C179.969 135.497 179.808 135.648 179.664 135.799L181.507 139.026L187.132 135.855Z" fill="black"/>
<path d="M184.48 120.696C184.448 120.975 184.279 121.278 184.007 121.31C183.871 121.326 183.742 121.27 183.606 121.246C183.358 121.206 183.093 121.27 182.869 121.174C182.813 121.15 182.765 121.118 182.725 121.087L180.369 122.417L181.435 124.281L183.59 123.062L189.976 134.254L192.035 133.091L185.649 121.899L187.805 120.68L186.739 118.816L184.528 120.059C184.488 120.266 184.504 120.481 184.48 120.688V120.696Z" fill="black"/>
<path d="M193.478 128.551L195.08 131.363L197.244 130.144C197.3 130.009 197.364 129.873 197.436 129.738C197.853 129.013 198.598 128.543 199.311 128.097C199.639 127.89 199.976 127.683 200.305 127.483L199.647 126.328L196.082 128.336L193.903 124.512L196.731 122.911L195.665 121.047L192.837 122.648L190.762 119.016L194.327 117.009L193.262 115.145L187.637 118.315L191.683 125.412C192.669 124.934 193.165 126.798 193.478 128.551Z" fill="black"/>
<path d="M151.981 154.367C152.317 154.431 152.518 154.758 152.766 154.981C152.87 155.068 152.974 155.14 153.095 155.196C153.247 155.132 153.391 155.076 153.543 154.989C155.57 153.85 155.995 152.025 154.801 149.938L154.681 149.731C153.76 149.707 152.83 149.675 151.909 149.652L152.806 151.229C153.335 152.161 153.127 152.75 152.47 153.117C151.813 153.483 151.196 153.364 150.667 152.432L146.644 145.382C146.116 144.45 146.324 143.861 146.981 143.494C147.638 143.128 148.255 143.247 148.784 144.179L151.508 148.951C152.341 148.751 153.199 148.64 154.056 148.64L150.923 143.152C149.729 141.065 147.942 140.491 145.915 141.638C143.888 142.777 143.464 144.601 144.657 146.688L148.527 153.475C149.224 154.694 150.13 155.379 151.156 155.522C151.147 155.475 151.131 155.427 151.123 155.379C151.083 154.877 151.46 154.272 151.965 154.367H151.981Z" fill="black"/>
<path d="M179.648 116.913L185.938 113.368C184.135 113.862 182.548 115.36 180.689 115.152C180.345 115.113 179.976 115.017 179.664 115.168C179.215 115.383 179.111 116.021 179.327 116.467C179.407 116.634 179.528 116.777 179.656 116.913H179.648Z" fill="black"/>
<path d="M163.87 125.81C163.862 125.667 163.878 125.531 163.95 125.404C164.111 125.468 164.271 125.492 164.431 125.492L166.603 124.265C166.963 123.899 167.316 123.524 167.756 123.269C168.157 123.03 168.606 122.895 169.054 122.759C169.215 122.712 169.375 122.664 169.535 122.616L173.525 120.37C173.573 120.29 173.622 120.21 173.694 120.155C173.75 120.107 173.822 120.091 173.894 120.059C172.516 119.645 171.138 119.231 169.751 118.816L168.638 119.446C168.598 119.74 168.558 120.027 168.518 120.322C166.923 121.166 165.337 122.011 163.742 122.855C163.253 123.118 162.749 123.381 162.204 123.437C161.995 123.46 161.795 123.437 161.587 123.421L154.792 127.252C154.848 127.571 154.936 127.889 155.065 128.184C154.664 128.112 154.287 127.953 153.951 127.73L152.557 128.519C153.55 129.172 154.528 129.849 155.481 130.55L163.862 125.826L163.87 125.81Z" fill="black"/>
<path d="M192.949 109.409C191.859 108.795 190.761 108.19 189.672 107.577L188.117 108.453C189.023 109.369 190.2 110.006 191.474 110.245L192.957 109.409H192.949Z" fill="black"/>
<path d="M210.624 128.702L198.221 106.964C197.219 105.211 194.976 104.59 193.213 105.585L191.723 106.43C191.915 106.613 192.099 106.796 192.292 106.987C192.892 107.569 193.493 108.166 194.054 108.804L194.807 108.381C195.024 108.262 195.304 108.334 195.432 108.549L207.836 130.287C207.956 130.502 207.884 130.781 207.668 130.908L190.785 140.427C192.243 140.515 193.718 140.308 195.176 140.475C195.697 140.531 196.218 140.643 196.738 140.754L209.254 133.696C211.017 132.701 211.642 130.47 210.64 128.718L210.624 128.702Z" fill="black"/>
<path d="M134.626 156.367L128.784 146.123C128.664 145.908 128.736 145.629 128.953 145.502L145.795 136.006C145.739 135.879 145.667 135.759 145.611 135.624C145.851 135.608 146.091 135.648 146.324 135.704L153.118 131.872C152.894 131.793 152.678 131.713 152.461 131.625C151.396 131.203 150.33 130.781 149.264 130.367L146.7 131.808C147.63 132.374 148.559 132.94 149.481 133.505C148.519 132.916 146.532 132.836 144.833 132.86L127.358 142.714C125.595 143.709 124.97 145.94 125.972 147.692L131.036 156.566C131.276 156.51 131.509 156.454 131.741 156.407C132.382 156.295 133.031 156.303 133.68 156.311C133.993 156.311 134.305 156.319 134.618 156.359L134.626 156.367Z" fill="black"/>
<path d="M155.394 160.365C155.683 160.612 156.003 160.835 156.356 160.979C156.716 161.13 157.197 161.52 156.917 161.799C155.619 162.389 154.024 161.951 152.742 162.58C152.045 162.922 151.372 163.576 150.627 163.377C151.524 163.91 152.334 164.603 153.023 165.392L184.84 147.453C184.864 147.326 184.888 147.198 184.904 147.071C184.977 146.649 185.065 146.202 185.361 145.892C185.754 145.478 186.395 145.446 186.972 145.438C187.38 145.438 187.813 145.446 188.206 145.557L192.164 143.327C191.627 142.387 190.978 141.527 190.241 140.73L155.394 160.381V160.365Z" fill="black"/>
<path d="M150.25 165.631C149.585 165.416 148.72 164.97 148.167 164.436L141.797 168.029C141.58 168.148 141.3 168.077 141.18 167.861L135.603 158.088C135.042 157.96 134.481 157.785 133.92 157.896C133.279 158.024 132.711 158.773 133.063 159.322C133.728 159.322 134.385 159.721 134.682 160.31C134.329 160.581 133.953 160.804 133.56 160.987L138.383 169.439C139.385 171.191 141.629 171.812 143.391 170.817L151.716 166.125C151.716 166.125 151.652 166.085 151.612 166.069C151.179 165.87 150.699 165.782 150.25 165.631Z" fill="black"/>
</g>
<path opacity="0.3" d="M114.161 137.186C119.049 140.762 123.135 157.92 123.504 173.613C123.881 189.305 131.476 215.823 132.43 220.172C133.383 224.522 133.007 230.775 138.68 222.06C144.352 213.346 160.946 198.219 167.861 203.245C174.776 208.272 163.126 225.175 156.82 234.272C150.514 243.369 149.873 259.388 142.325 269.416C134.778 279.445 127.935 294.588 120.531 294.357C113.128 294.126 64.1152 330.29 64.1152 330.29L65.0767 280.783L109.113 209.1L114.153 137.194L114.161 137.186Z" fill="black"/>
<path d="M171.892 205.675C171.644 207.228 163.014 218.595 157.942 227.102C152.87 235.61 148.119 250.418 146.845 252.625C145.579 254.831 130.051 268.381 125.756 274.06C121.461 279.732 113.882 282.249 106.278 287.61C101.39 291.051 86.1583 308.807 75.8942 321.058C70.1893 327.869 66.0148 332.983 66.0148 332.983L0.400391 315.968C0.400391 315.968 5.83287 311.515 12.98 305.509C12.988 305.509 13.0041 305.501 13.0281 305.477C13.0441 305.461 13.0682 305.445 13.1002 305.421C24.8626 295.536 41.2161 281.54 45.7352 276.259C53.0185 267.752 63.1624 257.667 63.1624 257.667C62.5454 245.854 63.8034 234.662 62.6896 230.408C62.1127 228.186 61.0791 215.544 60.3099 211.657C58.3629 201.724 49.8936 191.432 48.9402 187.377C47.9947 183.323 36.7852 166.013 42.2417 162.819C43.3795 162.15 44.4932 161.943 45.5749 162.094C52.9464 163.106 59.0199 180.806 63.1864 185.314C64.5085 186.74 66.2792 189.329 68.042 192.101C71.3431 197.303 74.5802 203.15 74.5802 203.15C75.8462 198.107 66.6558 180.145 64.1158 163.13C61.5839 146.115 54.2925 136.978 64.1158 135.927C64.9812 135.831 65.7905 135.911 66.5516 136.134C73.4664 138.141 76.4631 152.424 80.5976 166.284C80.9822 167.559 84.1311 176.711 86.5829 183.769C86.5829 183.769 86.5856 183.774 86.5909 183.785C88.1854 188.405 89.4754 192.125 89.4754 192.125C89.7879 183.458 87.0957 175.421 86.623 167.543C86.4307 164.396 87.4403 151.787 86.1743 139.185C85.1006 128.551 85.5894 124.241 89.7719 123.405C90.5411 123.245 91.4465 123.214 92.4881 123.277C99.7395 123.731 102.311 142.889 102.311 150.369C102.311 154.71 103.057 163.186 103.682 169.542C104.138 174.138 104.531 177.627 104.531 177.627C104.531 177.627 105.797 167.073 104.851 144.307C104.635 139.32 104.964 135.752 106.935 134.31C108.016 133.529 109.579 133.378 111.822 133.983C118.16 135.688 120.219 159.035 120.219 167.861C120.219 176.687 125.291 191.806 126.245 203.723C127.198 215.632 131.349 230.249 131.349 230.249C131.349 230.249 133.696 231.197 135.275 230.886C136.861 230.568 147.798 214.501 147.798 214.501C152.894 203.5 162.814 200.178 168.214 201.397C170.706 201.955 172.245 203.484 171.892 205.675Z" fill="white"/>
<path opacity="0.4" d="M171.892 205.675C171.644 207.228 163.015 218.595 157.943 227.102C152.871 235.61 148.119 250.418 146.845 252.624C145.579 254.831 130.051 268.381 125.756 274.06C121.462 279.732 113.882 282.249 106.278 287.61C101.39 291.051 86.1586 308.807 75.8945 321.058C77.0243 316.613 79.5562 310.934 86.1746 305.477C97.6645 295.99 98.3536 288.55 104.531 282.249C110.709 275.948 121.59 277.836 125.5 270.276C129.418 262.709 143.047 255.779 145.9 249.159C148.752 242.54 143.047 241.138 148.119 233.172C153.191 225.214 158.111 223.271 157.39 220.148C156.677 217.018 154.537 212.294 158.936 208.351C161.684 205.898 164.913 202.815 168.215 201.397C170.707 201.955 172.245 203.484 171.892 205.675Z" fill="#75A9C8"/>
<path opacity="0.4" d="M89.6832 243.066C87.5759 242.014 89.2665 239.919 87.7842 238.175C86.3019 236.438 82.9206 247.694 82.1354 247.742C81.3421 247.797 79.1227 242.014 78.2253 241.441C77.3199 240.859 76.799 243.281 75.5251 247.742C74.2591 252.211 69.6118 254.417 66.8956 257.667C64.1874 260.925 47.8418 278.155 43.8276 284.663C39.8774 291.075 15.0226 304.051 13.0996 305.421C24.862 295.536 41.2155 281.54 45.7346 276.259C53.0179 267.752 63.1618 257.667 63.1618 257.667C62.5448 245.854 63.8028 234.662 62.689 230.408C62.1121 228.186 61.0785 215.544 60.3093 211.657C58.3623 201.724 49.893 191.432 48.9396 187.378C47.9941 183.323 36.7846 166.013 42.2411 162.819C43.3789 162.15 44.4926 161.943 45.5743 162.094C44.3324 162.971 43.1225 164.229 44.2522 166.053C46.2634 169.287 48.4748 172.689 48.4748 176.265C48.4748 179.842 54.6044 184.876 56.9841 188.182C59.3638 191.496 57.1444 190.341 58.7308 194.913C60.3093 199.493 62.2163 198.53 63.1618 203.15C64.1152 207.778 69.3955 210.717 68.5542 216.476C67.7048 222.236 71.0861 230.249 71.0861 230.249C71.0861 230.249 73.8344 222.482 72.8329 218.277C71.8313 214.079 72.9931 208.821 72.0637 207.403C71.2304 206.129 69.067 197.478 68.0414 192.101C71.3425 197.303 74.5796 203.15 74.5796 203.15C75.8456 198.107 66.6552 180.145 64.1152 163.13C61.5833 146.115 54.2919 136.978 64.1152 135.927C64.9806 135.831 65.7899 135.911 66.551 136.134C70.7416 143.917 67.825 149.708 66.8956 153.053C65.878 156.733 71.9355 166.181 72.8329 172.689C73.6662 178.767 75.2847 178.137 75.501 178.026C75.3167 178.193 73.7543 179.778 74.6837 184.287C75.6693 189.082 82.7123 200.417 82.7123 203.588C82.7123 206.758 82.1354 211.976 82.1354 213.521C82.1354 215.066 87.7842 225.406 88.4172 228.114C89.0502 230.823 88.1528 222.897 89.6832 220.172C91.2216 217.44 92.0228 207.833 92.2231 208.351C94.8112 215.098 91.7985 244.117 89.6832 243.066Z" fill="#75A9C8"/>
<path opacity="0.4" d="M94.2261 171.884C92.4313 174.585 92.4793 195.662 89.3945 195.733C87.9122 195.765 87.1911 190.436 86.5902 183.785C88.1846 188.405 89.4747 192.125 89.4747 192.125C89.7871 183.458 87.0949 175.421 86.6222 167.543C86.4299 164.396 87.4395 151.787 86.1735 139.185C85.0998 128.551 85.5886 124.241 89.7711 123.405C90.6525 126.241 92.8159 129.586 93.3687 132.693C94.1219 136.978 92.6476 140.523 91.3816 141.057C90.1076 141.598 89.8993 144.355 91.4858 144.761C93.0643 145.167 91.4457 165.281 92.2229 167.893C92.9921 170.498 96.0289 169.184 94.2261 171.884Z" fill="#75A9C8"/>
<path opacity="0.4" d="M110.692 148.29C107.399 149.732 107.222 152.313 106.237 156.017C105.251 159.721 107.647 165.129 106.237 173.629C104.827 182.128 109.971 187.609 106.237 197.12C102.503 206.631 104.258 189.186 103.633 181.188C103.376 177.914 103.473 173.565 103.681 169.542C104.138 174.139 104.53 177.628 104.53 177.628C104.53 177.628 105.796 167.073 104.851 144.307C104.634 139.32 104.963 135.752 106.934 134.31C110.315 137.329 113.496 147.063 110.692 148.29Z" fill="#75A9C8"/>
<path d="M66.0148 332.983C66.0148 332.983 98.6658 292.963 106.27 287.602C113.874 282.241 121.453 279.732 125.748 274.052C130.043 268.373 145.571 254.831 146.845 252.625C148.111 250.418 152.87 235.61 157.942 227.102C163.014 218.595 171.644 207.228 171.892 205.675C172.998 198.744 155.25 198.426 147.798 214.501C147.798 214.501 136.861 230.575 135.275 230.886C133.688 231.197 131.349 230.257 131.349 230.257C131.349 230.257 127.19 215.64 126.245 203.723C125.291 191.806 120.219 176.679 120.219 167.861C120.219 159.043 118.16 135.696 111.822 133.983C105.484 132.279 104.523 136.596 104.851 144.307C105.805 167.073 104.531 177.627 104.531 177.627C104.531 177.627 102.311 157.848 102.311 150.369C102.311 142.889 99.7395 123.731 92.4881 123.277C85.8297 122.855 84.9083 126.575 86.1743 139.185C87.4403 151.795 86.4387 164.404 86.623 167.543C87.0957 175.421 89.7959 183.458 89.4754 192.125C89.4754 192.125 81.2306 168.403 80.5976 166.284C76.0064 150.902 72.8174 135.003 64.1158 135.927C54.2925 136.978 61.5839 146.115 64.1158 163.13C66.6478 180.145 75.8462 198.107 74.5722 203.149C74.5722 203.149 66.9683 189.425 63.1784 185.314C58.4029 180.145 51.1196 157.61 42.2417 162.811C36.7772 166.013 47.9867 183.315 48.9402 187.369C49.8936 191.424 58.3629 201.724 60.3099 211.657C61.0711 215.544 62.1047 228.186 62.6896 230.408C63.7953 234.662 62.5454 245.854 63.1624 257.667C63.1624 257.667 53.0185 267.751 45.7271 276.259C38.4358 284.766 0.400391 315.968 0.400391 315.968" stroke="#263238" stroke-linecap="round" stroke-linejoin="round"/>
<path d="M131.35 230.249C131.35 230.249 133.761 235.132 131.35 241.441" stroke="#263238" stroke-linecap="round" stroke-linejoin="round"/>
<path d="M134.018 230.918C134.018 230.918 137.175 233.085 135.909 236.868" stroke="#263238" stroke-linecap="round" stroke-linejoin="round"/>
<path d="M104.531 177.627C104.531 177.627 107.063 195.431 105.957 198.745" stroke="#263238" stroke-linecap="round" stroke-linejoin="round"/>
<path d="M89.4668 192.125C89.4668 192.125 89.9395 194.801 89.4668 197.327" stroke="#263238" stroke-linecap="round" stroke-linejoin="round"/>
<path d="M74.5723 203.149C74.5723 203.149 75.045 205.826 74.5723 206.455" stroke="#263238" stroke-linecap="round" stroke-linejoin="round"/>
<path d="M154.93 218.276C154.93 218.276 157.798 219.822 158.736 222.06" stroke="#263238" stroke-linecap="round" stroke-linejoin="round"/>
<path d="M89.5801 144.299C89.5801 144.299 92.4886 145.159 94.8603 142.873" stroke="#263238" stroke-linecap="round" stroke-linejoin="round"/>
<path d="M90.582 169.9C90.582 169.9 96.2869 171.788 98.3461 169.9" stroke="#263238" stroke-linecap="round" stroke-linejoin="round"/>
<path d="M109.123 175.421C109.123 175.421 112.929 174.003 115.461 174.791" stroke="#263238" stroke-linecap="round" stroke-linejoin="round"/>
<path d="M72.834 180.463C72.834 180.463 75.8467 176.52 78.2264 177.627" stroke="#263238" stroke-linecap="round" stroke-linejoin="round"/>
<path d="M60.4698 192.125C60.4698 192.125 57.7776 193.384 56.9844 194.722" stroke="#263238" stroke-linecap="round" stroke-linejoin="round"/>
<path d="M63.1621 257.667C63.1621 257.667 64.4281 256.249 64.9088 255.301C65.3896 254.353 64.7486 244.269 64.9088 237.809" stroke="#263238" stroke-linecap="round" stroke-linejoin="round"/>
<path d="M96.4137 297.344C92.6719 301.502 81.23 309.03 76.6309 313.602" stroke="#263238" stroke-linecap="round" stroke-linejoin="round"/>
<path d="M111.501 203.149C109.602 208.51 111.661 215.281 111.501 218.276C111.341 221.271 110.692 234.98 110.692 234.98" stroke="#263238" stroke-linecap="round" stroke-linejoin="round"/>
<path d="M94.2264 203.149C91.6945 207.403 92.4797 213.075 93.273 215.91C94.0662 218.746 93.3611 230.249 93.3611 230.249" stroke="#263238" stroke-linecap="round" stroke-linejoin="round"/>
<path d="M66.9689 216.699C66.4962 220.953 68.5554 224.737 68.5554 224.737" stroke="#263238" stroke-linecap="round" stroke-linejoin="round"/>
<path d="M82.6566 208.351C81.2304 213.553 83.1293 215.911 83.2896 216.699" stroke="#263238" stroke-linecap="round" stroke-linejoin="round"/>
<path opacity="0.3" d="M211.386 173.987L208.686 158.406C208.181 155.483 210.224 152.735 213.181 152.352L219.23 151.58C219.23 151.58 217.211 147.509 223.71 135.624C230.208 123.74 261.448 92.259 285.133 145.183C308.818 198.107 330.46 305.955 330.46 305.955C330.46 305.955 266.528 231.962 264.493 228.17C262.458 224.378 242.996 226.641 238.501 216.476C234.006 206.304 224.567 177.285 224.567 177.285L217.251 178.273C214.455 178.655 211.859 176.759 211.378 173.995L211.386 173.987Z" fill="black"/>
<path d="M267.738 138.253L255.47 140.467L238.42 143.55L216.089 147.589C214.286 147.915 212.563 146.728 212.235 144.936L207.331 118.132C207.011 116.339 208.205 114.627 209.999 114.3L222.988 111.95L241.881 108.541L261.648 104.964C263.451 104.638 265.174 105.825 265.502 107.617L270.406 134.421C270.734 136.214 269.54 137.926 267.738 138.253Z" fill="#75A9C8"/>
<mask id="mask0_207_4057" style="mask-type:luminance" maskUnits="userSpaceOnUse" x="207" y="104" width="64" height="44">
<path d="M267.738 138.253L255.47 140.467L238.42 143.55L216.089 147.589C214.286 147.915 212.563 146.728 212.235 144.936L207.331 118.132C207.011 116.339 208.205 114.627 209.999 114.3L222.988 111.95L241.881 108.541L261.648 104.964C263.451 104.638 265.174 105.825 265.502 107.617L270.406 134.421C270.734 136.214 269.54 137.926 267.738 138.253Z" fill="white"/>
</mask>
<g mask="url(#mask0_207_4057)">
<path opacity="0.3" d="M259.061 120.458L255.471 140.468L238.421 143.55C233.485 141.392 225.344 137.632 223.718 135.624C221.779 133.243 222.051 119.151 222.989 111.95L241.882 108.541C248.54 113.066 259.061 120.458 259.061 120.458Z" fill="black"/>
<path opacity="0.3" d="M219.478 146.976L216.089 147.589C214.286 147.916 212.563 146.729 212.235 144.937L207.331 118.132C207.011 116.34 208.205 114.627 209.999 114.3L213.381 113.687C211.586 114.022 210.392 115.726 210.721 117.519L215.624 144.323C215.953 146.115 217.675 147.302 219.478 146.976Z" fill="black"/>
</g>
<path d="M267.738 138.253L255.47 140.467L238.42 143.55L216.089 147.589C214.286 147.915 212.563 146.728 212.235 144.936L207.331 118.132C207.011 116.339 208.205 114.627 209.999 114.3L222.988 111.95L241.881 108.541L261.648 104.964C263.451 104.638 265.174 105.825 265.502 107.617L270.406 134.421C270.734 136.214 269.54 137.926 267.738 138.253Z" stroke="#263238" stroke-linecap="round" stroke-linejoin="round"/>
<path d="M213.385 113.7L265.037 104.368C266.834 104.043 268.566 105.228 268.894 107.023L273.793 133.827C274.12 135.614 272.928 137.335 271.123 137.661L219.471 146.993C217.673 147.318 215.942 146.133 215.614 144.338L210.714 117.534C210.388 115.747 211.58 114.026 213.385 113.7Z" stroke="#263238" stroke-linecap="round" stroke-linejoin="round"/>
<path d="M262.655 106.735L214.18 115.492C213.309 115.65 212.732 116.479 212.89 117.345L217.718 143.757C217.876 144.622 218.711 145.197 219.581 145.039L268.056 136.281C268.927 136.124 269.505 135.295 269.346 134.429L264.518 108.017C264.36 107.151 263.526 106.577 262.655 106.735Z" stroke="#263238" stroke-linecap="round" stroke-linejoin="round"/>
<path d="M271.127 137.64L267.762 138.245C269.549 137.911 270.735 136.206 270.406 134.422L265.502 107.617C265.174 105.825 263.451 104.638 261.648 104.964L265.038 104.351C266.841 104.032 268.563 105.219 268.892 107.004L273.795 133.808C274.116 135.601 272.922 137.313 271.127 137.64Z" stroke="#263238" stroke-linecap="round" stroke-linejoin="round"/>
<path d="M368.608 223.502L335.404 311.985C335.404 311.985 321.526 285.73 308.706 261.371C298.466 241.919 288.899 223.677 287.609 220.993C284.717 214.947 274.869 202.281 274.869 202.281C274.869 202.281 264.733 196.514 260.094 186.469C255.463 176.417 250.351 140.491 250.351 140.491C250.351 140.491 237.026 135.505 233.845 133.306C230.656 131.116 227.764 110.954 227.764 108.652C227.764 106.35 230.945 101.738 230.945 101.738C230.945 101.738 230.232 98.3606 234.302 94.9512C235.384 94.0431 236.81 93.1271 238.685 92.2827C238.709 92.2668 238.741 92.2588 238.765 92.2429C238.765 92.2429 238.236 84.6197 242.226 82.3973C242.411 82.2937 242.611 82.1981 242.819 82.1185C246.377 80.7563 258.027 78.9959 258.027 78.9959C258.027 78.9959 260.783 76.5345 263.676 75.7539C265.743 75.1883 277.089 77.809 283.427 79.3623C285.975 79.9837 287.713 80.4297 287.713 80.4297C287.713 80.4297 298.434 80.9156 300.461 82.1185C302.088 83.0823 303.722 84.7551 304.307 85.3764C304.307 85.3844 304.315 85.3844 304.315 85.3844C304.435 85.5278 304.515 85.6154 304.515 85.6154C304.515 85.6154 314.074 87.5909 316.102 91.0719C318.129 94.545 318.994 111.823 317.552 123.046C316.102 134.278 318.698 153.316 318.698 153.316C318.698 153.316 321.686 168.029 324.002 173.613C326.318 179.197 368.608 223.502 368.608 223.502Z" fill="white"/>
<path opacity="0.4" d="M308.706 261.371C298.466 241.919 288.899 223.677 287.609 220.993C284.717 214.947 274.869 202.281 274.869 202.281C274.869 202.281 264.733 196.514 260.094 186.47C255.463 176.417 250.351 140.491 250.351 140.491C250.351 140.491 237.026 135.505 233.845 133.306C230.656 131.116 227.764 110.955 227.764 108.652C227.764 106.35 230.945 101.738 230.945 101.738C230.945 101.738 230.232 98.3607 234.302 94.9514C234.31 95.8595 234.318 97.3889 234.27 99.7946C234.174 104.359 239.582 131.88 240.92 131.044C242.258 130.2 244.326 128.192 243.781 126.416C243.781 126.416 241.161 115.734 238.685 92.2829C238.709 92.267 238.741 92.259 238.765 92.2431C238.765 92.2431 238.236 84.6199 242.226 82.3975C241.513 84.3172 240.952 86.2369 240.92 87.5672C240.832 91.2792 245.271 123.086 247.01 123.891C248.756 124.687 253.155 120.458 253.155 120.458C253.155 120.458 251.649 111.432 252.186 107.585C252.186 107.585 265.591 115.71 265.991 124.934C266.031 125.946 268.603 140.404 268.603 140.404C268.603 140.404 257.073 162.23 268.844 182.144C268.844 182.144 262.858 178.575 261.432 172.904C261.432 172.904 259.694 189.584 272.057 198.418C272.057 198.418 280.927 189.759 289.644 188.66C289.644 188.66 289.805 189.234 283.939 193.83C278.074 198.426 277.281 200.473 277.281 200.473C277.281 200.473 283.627 194.117 288.699 193.83C288.699 193.83 283.467 199.844 283.627 201.103C283.779 202.361 298.586 227.517 303.971 245.065C306.23 252.426 307.728 257.715 308.706 261.371Z" fill="#75A9C8"/>
<path opacity="0.4" d="M267.145 94.4257C267.145 94.4257 271.415 97.5721 272.681 94.4257C273.947 91.2792 274.059 89.0727 274.059 89.0727C274.059 89.0727 275.694 88.316 277.28 92.2431C278.867 96.1622 294.507 97.1739 298.177 99.1892C301.847 101.205 303.305 99.1892 303.305 99.1892C303.305 99.1892 306.286 101.451 304.507 105.108C302.728 108.764 307.768 109.083 309.723 106.406C311.67 103.73 310.164 114.109 305.332 115.137C305.332 115.137 305.476 119.677 302.368 122.792H305.004C305.004 122.792 297.985 128.32 296.118 128.622C294.251 128.925 303.073 132.024 301.43 132.685C299.796 133.338 295.164 133.282 295.164 133.282C295.164 133.282 298.161 135.346 298.185 136.708C298.209 138.07 296.767 139.097 296.118 137.958C295.469 136.819 290.293 120.505 287.721 114.475C285.149 108.445 274.46 103.706 267.153 94.4177L267.145 94.4257Z" fill="#75A9C8"/>
<path opacity="0.4" d="M304.307 85.3764C295.317 82.9309 283.258 79.4499 283.258 79.4499C283.258 79.4499 283.314 79.4181 283.426 79.3623C285.974 79.9836 287.713 80.4297 287.713 80.4297C287.713 80.4297 298.434 80.9156 300.461 82.1184C302.087 83.0823 303.722 84.7551 304.307 85.3764Z" fill="#75A9C8"/>
<path d="M291.624 99.4361C283.804 97.8509 278.211 104.486 278.211 104.486C278.211 104.486 285.991 111.48 287.714 114.483C289.444 117.502 292.297 127.603 292.297 127.603C295.574 128.129 301.623 124.775 303.066 115.845C304.508 106.916 299.444 101.013 291.624 99.4361Z" fill="#75A9C8"/>
<path d="M335.396 311.985C335.396 311.985 290.502 227.039 287.609 220.993C284.717 214.947 274.861 202.281 274.861 202.281C274.861 202.281 264.726 196.522 260.086 186.469C255.455 176.417 250.343 140.491 250.343 140.491C250.343 140.491 237.018 135.505 233.837 133.314C230.656 131.124 227.756 110.962 227.756 108.66C227.756 106.358 230.945 101.746 230.945 101.746C230.945 101.746 229.783 96.2816 238.765 92.251C238.765 92.251 238.188 83.8949 242.819 82.1186C246.377 80.7565 258.027 78.996 258.027 78.996C258.027 78.996 260.775 76.5426 263.676 75.754C266.568 74.9654 287.713 80.4378 287.713 80.4378C287.713 80.4378 298.426 80.9237 300.461 82.1186C302.489 83.3135 304.516 85.6235 304.516 85.6235C304.516 85.6235 314.075 87.599 316.102 91.0721C318.129 94.5451 318.994 111.823 317.552 123.054C316.11 134.286 318.698 153.324 318.698 153.324C318.698 153.324 321.686 168.029 324.002 173.621C326.318 179.205 368.608 223.51 368.608 223.51" stroke="#263238" stroke-linecap="round" stroke-linejoin="round"/>
<path d="M297.417 139.32C297.417 139.32 295.39 138.89 292.786 129.387C290.182 119.884 289.493 115.439 284.1 109.807C280.27 105.8 271.505 99.3241 267.154 94.4331C262.811 89.5422 258.028 85.6231 254.262 88.6102C251.257 90.992 249.31 97.2132 251.946 106.78C255.335 119.079 265.992 124.934 265.992 124.934L268.604 140.411C268.604 140.411 257.266 162.986 270.054 184.294" stroke="#263238" stroke-linecap="round" stroke-linejoin="round"/>
<path d="M278.211 104.486C278.211 104.486 283.804 97.8588 291.624 99.436C299.444 101.021 304.516 106.924 303.066 115.845C301.615 124.767 295.574 128.129 292.297 127.603" stroke="#263238" stroke-linecap="round" stroke-linejoin="round"/>
<path d="M258.026 78.9956C258.026 78.9956 256.688 81.9668 255.334 88.0447" stroke="#263238" stroke-linecap="round" stroke-linejoin="round"/>
<path d="M253.268 110.189C253.268 110.189 253.941 120.027 255.327 123.046C256.713 126.065 259.037 128.519 260.046 132.406C261.064 136.293 261.208 142.339 261.496 143.207C261.785 144.068 263.468 144.307 263.468 144.307C265.847 144.362 266.833 143.12 268.219 141.224" stroke="#263238" stroke-linecap="round" stroke-linejoin="round"/>
<path d="M238.766 92.2427C238.766 92.2427 240.937 113.256 242.676 122.186C244.414 131.115 247.451 132.406 252.523 135.289C257.595 138.165 260.343 144.076 260.776 144.936C261.209 145.796 262.867 145.916 262.867 145.916C264.398 145.948 266.849 144.546 267.539 142.881" stroke="#263238" stroke-linecap="round" stroke-linejoin="round"/>
<path d="M230.944 101.738C230.4 102.566 235.039 123.906 237.459 130.104C239.878 136.293 240.159 137.297 246.553 139.025C252.955 140.754 257.818 143.693 259.549 142.666" stroke="#263238" stroke-linecap="round" stroke-linejoin="round"/>
<path d="M275.406 89.9326C275.406 89.9326 278.731 97.8505 276.536 103.052" stroke="#263238" stroke-linecap="round" stroke-linejoin="round"/>
<path d="M287.713 80.4297C287.713 80.4297 296.254 83.8868 304.515 85.6154" stroke="#263238" stroke-linecap="round" stroke-linejoin="round"/>
<path d="M309.725 107.784C309.725 107.784 307.177 112.42 303.307 113.415" stroke="#263238" stroke-linecap="round" stroke-linejoin="round"/>
<path d="M303.315 102.742C303.315 102.742 302.401 105.1 301.432 105.793" stroke="#263238" stroke-linecap="round" stroke-linejoin="round"/>
<path d="M306.518 121.756C306.518 121.756 300.725 126.113 295.156 127.244" stroke="#263238" stroke-linecap="round" stroke-linejoin="round"/>
<path d="M292.777 129.379C292.777 129.379 295.149 132.406 301.423 132.693" stroke="#263238" stroke-linecap="round" stroke-linejoin="round"/>
<path d="M274.061 116.172C274.061 116.172 279.733 110.763 282.97 111.504" stroke="#263238" stroke-linecap="round" stroke-linejoin="round"/>
<path d="M285.133 117.279C285.133 117.279 280.846 120.489 280.053 120.457" stroke="#263238" stroke-linecap="round" stroke-linejoin="round"/>
<path d="M240.92 134.135C240.92 134.135 242.346 134.398 243.452 132.693" stroke="#263238" stroke-linecap="round" stroke-linejoin="round"/>
<path d="M245.992 126.416C245.992 126.416 249.438 124.289 251.689 123.883" stroke="#263238" stroke-linecap="round" stroke-linejoin="round"/>
<path d="M276.344 198.266C277.057 197.637 283.707 192.276 287.834 190.388" stroke="#263238" stroke-linecap="round" stroke-linejoin="round"/>
<path d="M284.972 195.733C284.5 195.59 280.718 199.525 278.723 201.102" stroke="#263238" stroke-linecap="round" stroke-linejoin="round"/>
<path d="M286.881 207.403C286.881 207.403 299.557 231.277 302.409 240.851" stroke="#263238" stroke-linecap="round" stroke-linejoin="round"/>
<path d="M323.994 173.612C325.076 179.483 328.561 183.808 330.46 186.15" stroke="#263238" stroke-linecap="round" stroke-linejoin="round"/>
<path opacity="0.4" d="M284.02 101.738C282.169 102.861 284.116 106.565 285.141 108.453C286.159 110.341 290.758 113.336 291.712 116.172C292.665 119.008 298.683 118.928 300.509 116.172C302.328 113.416 302.112 107.912 297.112 103.722C292.112 99.5397 286.64 100.137 284.028 101.73L284.02 101.738Z" fill="white"/>
</g>
<defs>
<clipPath id="clip0_207_4057">
<rect width="369" height="342" fill="white"/>
</clipPath>
</defs>
</svg>
