<svg width="348" height="336" viewBox="0 0 348 336" fill="none" xmlns="http://www.w3.org/2000/svg">
<g clip-path="url(#clip0_210_5223)">
<path d="M144.725 334.687C144.725 334.687 206.245 345.819 257.186 303.41C308.127 261.008 325.176 190.763 340.479 134.223C355.789 77.6822 332.167 26.6721 284.505 9.52637C236.842 -7.6194 213.726 33.1364 153.218 44.9652C92.7174 56.7939 74.8075 50.749 30.4789 93.7202C-13.8496 136.691 -8.48532 219.936 42.0371 273.81C92.5594 327.684 144.717 334.687 144.717 334.687H144.725Z" fill="#75A9C8"/>
<path opacity="0.7" d="M144.725 334.687C144.725 334.687 206.245 345.819 257.186 303.41C308.127 261.008 325.176 190.763 340.479 134.223C355.789 77.6822 332.167 26.6721 284.505 9.52637C236.842 -7.6194 213.726 33.1364 153.218 44.9652C92.7174 56.7939 74.8075 50.749 30.4789 93.7202C-13.8496 136.691 -8.48532 219.936 42.0371 273.81C92.5594 327.684 144.717 334.687 144.717 334.687H144.725Z" fill="white"/>
<path d="M4.58221 215.861C6.74689 216.811 12.0559 216.692 12.0638 216.692C12.1191 216.692 10.9261 213.211 10.8234 213.005C9.6621 210.568 5.98056 206.541 2.98635 206.944C0.829571 207.237 -0.371274 209.397 0.118544 211.43C0.616263 213.511 2.74144 215.054 4.59011 215.861H4.58221Z" fill="#263238"/>
<path d="M6.41498 231.25C8.66656 231.583 13.3988 230.206 13.7781 230.095C14.5286 232.746 15.5082 235.412 16.6459 238.055C17.2937 239.566 17.9968 241.069 18.7236 242.565C18.2891 241.932 17.902 241.37 17.8388 241.291C16.0691 239.249 11.4633 236.338 8.68236 237.517C6.67569 238.371 6.09106 240.769 7.0944 242.604C8.12144 244.479 10.5863 245.405 12.5772 245.698C14.5997 245.991 18.6604 244.899 19.7349 244.598C20.0193 245.168 20.2958 245.745 20.5802 246.315C21.9549 249.053 23.3295 251.775 24.6015 254.481C25.0518 255.438 25.4547 256.395 25.8655 257.353C25.4784 256.791 25.1545 256.316 25.0992 256.253C23.3295 254.211 18.7236 251.3 15.9427 252.479C13.9361 253.333 13.3514 255.731 14.3548 257.566C15.3818 259.441 17.8467 260.367 19.8376 260.66C21.7731 260.945 25.5258 259.972 26.7977 259.616C27.1848 260.605 27.5799 261.601 27.9196 262.583C28.1329 263.255 28.3857 263.888 28.5595 264.577C28.7491 265.257 28.9387 265.929 29.1204 266.594C29.4285 267.884 29.7603 269.221 30.029 270.487C30.2265 271.365 30.3924 272.212 30.5662 273.058C30.1317 272.101 29.2389 270.25 29.1441 270.099C27.7063 267.813 23.5902 264.236 20.6592 264.98C18.5498 265.518 17.6018 267.805 18.3207 269.767C19.0554 271.777 21.3465 273.066 23.2742 273.652C25.3994 274.301 30.0922 273.707 30.6847 273.628C30.9691 275.036 31.2298 276.405 31.451 277.703C32.241 282.197 32.7309 285.971 33.039 288.614C33.0943 289.081 33.1417 289.5 33.1812 289.896H24.0879L25.194 311.448H45.1343L46.2404 289.896H37.7633C37.8265 289.761 37.8818 289.642 37.9529 289.508C39.1143 287.079 40.7259 283.597 42.4719 279.325C43.0249 277.98 43.5938 276.524 44.1547 275.036C44.7235 275.155 49.3768 276.105 51.5414 275.614C53.5086 275.171 55.8866 274.055 56.7714 272.109C57.6326 270.202 56.8583 267.852 54.7964 267.156C51.9286 266.191 47.5597 269.45 45.9559 271.626C45.8611 271.753 44.9921 273.264 44.4549 274.221C44.684 273.612 44.9131 273.019 45.1343 272.386C45.5925 271.136 46.0112 269.878 46.4695 268.525C46.667 267.86 46.8645 267.195 47.0699 266.523C47.2832 265.858 47.4254 265.13 47.6071 264.426C47.9942 262.788 48.3102 261.111 48.5946 259.41C49.6849 259.805 53.5876 261.166 55.6101 261.024C57.6247 260.881 60.1449 260.146 61.3062 258.35C62.4438 256.593 62.0409 254.156 60.1054 253.159C57.4193 251.775 52.6001 254.33 50.6882 256.237C50.5697 256.356 49.3531 257.875 48.6973 258.729C48.8553 257.709 49.0213 256.688 49.1556 255.644C49.5269 252.645 49.8113 249.591 50.1036 246.552C50.1905 245.619 50.2932 244.693 50.3959 243.767C50.783 243.91 55.381 245.627 57.6484 245.468C59.6629 245.326 62.1831 244.59 63.3445 242.794C64.4821 241.038 64.0792 238.601 62.1436 237.604C59.4575 236.219 54.6384 238.775 52.7265 240.682C52.5843 240.824 50.8304 243.016 50.4117 243.601C50.625 241.56 50.862 239.519 51.1701 237.525C51.5967 234.771 52.1656 232.089 52.9082 229.533C53.0899 229.605 57.8854 231.416 60.2002 231.25C62.2147 231.108 64.7349 230.372 65.8963 228.576C67.0339 226.819 66.631 224.382 64.6954 223.386C62.0093 222.001 57.1902 224.557 55.2783 226.463C55.1282 226.614 53.2479 228.972 52.9319 229.43C52.9793 229.28 53.003 229.114 53.0504 228.964C53.8799 226.242 55.0255 223.718 56.2105 221.4C56.8978 220.054 57.6326 218.804 58.3673 217.602C59.2284 218.029 63.1707 219.952 65.2722 220.031C67.2867 220.11 69.878 219.651 71.229 218.005C72.5562 216.391 72.414 213.915 70.6049 212.712C68.0847 211.035 63.0206 213.052 60.9112 214.737C60.7927 214.832 59.734 215.893 58.9677 216.676C59.3074 216.138 59.655 215.584 59.9948 215.07C61.2588 213.163 62.5307 211.493 63.6763 210.03C64.332 209.199 64.9403 208.463 65.5171 207.783C66.5757 207.767 70.8577 207.632 72.7221 206.754C74.5471 205.9 76.6328 204.293 77.0752 202.205C77.5097 200.155 76.2457 198.027 74.081 197.797C71.0789 197.473 67.5079 201.595 66.4098 204.064C66.315 204.278 65.2169 207.783 65.2722 207.783C65.2722 207.783 65.3275 207.783 65.3354 207.783C64.7665 208.431 64.1661 209.128 63.5183 209.911C62.3411 211.359 61.0297 213.005 59.7182 214.888C58.4068 216.771 57.0242 218.852 55.776 221.178C54.5199 223.504 53.3111 226.02 52.4105 228.766C52.4026 228.797 52.3947 228.829 52.3868 228.861C52.4026 227.975 52.3631 225.49 52.3394 225.3C51.9918 222.618 49.7481 217.641 46.7776 217.095C44.6366 216.7 42.8195 218.377 42.6536 220.466C42.4798 222.594 44.0204 224.731 45.5214 226.076C47.22 227.595 51.9207 229.059 52.2999 229.177C51.4624 231.804 50.8146 234.565 50.309 237.398C50.0167 239.02 49.7797 240.658 49.5585 242.304C49.5506 241.536 49.5348 240.848 49.519 240.753C49.1714 238.071 46.9277 233.094 43.9572 232.548C41.8162 232.152 39.9991 233.83 39.8332 235.918C39.6594 238.047 41.2 240.183 42.701 241.528C44.2258 242.889 48.2154 244.226 49.2741 244.567C49.1951 245.199 49.1082 245.832 49.0371 246.465C48.6736 249.504 48.326 252.534 47.8915 255.501C47.7414 256.546 47.5518 257.566 47.3701 258.595C47.3622 257.914 47.3464 257.337 47.3306 257.25C46.983 254.568 44.7393 249.591 41.7688 249.045C39.6278 248.649 37.8107 250.327 37.6448 252.415C37.471 254.544 39.0116 256.68 40.5126 258.025C41.9663 259.331 45.6399 260.589 46.8961 261C46.6749 262.045 46.4537 263.089 46.193 264.094C46.0033 264.774 45.8611 265.439 45.632 266.111C45.4187 266.784 45.2054 267.449 44.9921 268.097C44.5418 269.348 44.0757 270.637 43.6017 271.848C43.2777 272.694 42.9538 273.486 42.6299 274.293C42.7958 273.256 43.0723 271.215 43.0723 271.041C43.1118 269.245 42.4798 266.325 41.2079 264.276C41.2079 264.007 41.2079 263.746 41.1605 263.485C40.8286 261.42 38.8931 259.885 36.7837 260.446C33.8606 261.222 32.0119 266.357 31.8697 269.063C31.8618 269.221 31.9645 270.962 32.0514 272.054C31.9013 271.421 31.767 270.795 31.609 270.147C31.3009 268.849 30.9612 267.567 30.5978 266.191C30.4003 265.534 30.1949 264.861 29.9894 264.189C29.7998 263.516 29.5154 262.828 29.2863 262.14C28.7096 260.557 28.046 258.983 27.3429 257.408C28.4726 257.139 32.478 256.118 34.0818 254.884C35.6777 253.658 37.3762 251.648 37.3604 249.504C37.3446 247.415 35.6619 245.603 33.4972 245.832C30.4951 246.157 27.888 250.952 27.3429 253.602C27.3113 253.768 27.1295 255.707 27.0505 256.783C26.6239 255.841 26.1973 254.9 25.7312 253.958C24.3881 251.252 22.9424 248.546 21.5124 245.848C21.0779 245.018 20.6513 244.195 20.2168 243.364C20.6197 243.269 25.3994 242.161 27.2006 240.777C28.7965 239.55 30.4951 237.54 30.4793 235.396C30.4635 233.307 28.7807 231.496 26.616 231.725C23.6139 232.049 21.0068 236.844 20.4617 239.495C20.4222 239.693 20.1694 242.494 20.1378 243.206C19.1898 241.378 18.2654 239.55 17.428 237.715C16.2666 235.183 15.2633 232.627 14.4812 230.087C14.6708 230.048 19.6638 228.908 21.5045 227.492C23.1004 226.266 24.799 224.256 24.7832 222.112C24.7674 220.023 23.0846 218.211 20.9199 218.44C17.9178 218.765 15.3107 223.56 14.7656 226.21C14.7261 226.416 14.4496 229.43 14.4417 229.976C14.3943 229.826 14.3311 229.676 14.2837 229.525C13.4778 226.796 13.0433 224.058 12.751 221.471C12.5851 219.967 12.5061 218.519 12.4587 217.111C13.4146 216.992 17.7598 216.415 19.5532 215.323C21.2754 214.279 23.1873 212.467 23.4006 210.338C23.6139 208.257 22.1366 206.271 19.964 206.271C16.9382 206.271 13.8255 210.742 12.988 213.313C12.9406 213.456 12.6404 214.927 12.435 216.003C12.4271 215.37 12.4034 214.714 12.4034 214.104C12.4034 211.818 12.5535 209.721 12.6957 207.862C12.7826 206.809 12.8853 205.86 12.9959 204.966C13.8729 204.365 17.3648 201.896 18.4392 200.124C19.49 198.399 20.3432 195.914 19.5611 193.92C18.7947 191.974 16.5748 190.89 14.6392 191.895C11.9531 193.287 11.25 198.699 11.6924 201.366C11.7319 201.595 12.7431 205.132 12.7905 205.1C12.7905 205.1 12.83 205.069 12.8458 205.061C12.7273 205.915 12.6088 206.833 12.5061 207.838C12.3244 209.697 12.1348 211.794 12.0795 214.089C12.0163 216.383 12.0163 218.883 12.2533 221.51C12.4903 224.145 12.8695 226.906 13.6279 229.699C13.6358 229.731 13.6516 229.763 13.6595 229.794C13.1855 229.043 11.7872 227.001 11.6608 226.851C9.89111 224.81 5.28524 221.898 2.50433 223.077C0.497659 223.931 -0.0869632 226.329 0.916374 228.164C1.94341 230.04 4.4083 230.965 6.39918 231.258L6.41498 231.25ZM36.3887 270.922C37.9371 272.599 41.9031 274.562 42.4166 274.815C41.8794 276.144 41.3422 277.434 40.8129 278.636C38.9958 282.822 37.3288 286.24 36.128 288.614C35.8831 289.089 35.6698 289.516 35.4644 289.903H35.2668C35.2115 289.445 35.1404 288.938 35.0614 288.369C34.698 285.702 34.1213 281.904 33.2207 277.378C32.9442 275.946 32.6123 274.427 32.2647 272.868C32.6202 272.726 34.619 271.919 36.3966 270.922H36.3887Z" fill="#263238"/>
<path d="M58.2416 217.024C58.289 217.056 59.2055 213.495 59.2371 213.258C59.6084 210.583 58.7551 205.187 56.0374 203.874C54.0782 202.924 51.8819 204.064 51.1709 206.034C50.444 208.044 51.3684 210.504 52.4586 212.198C53.7464 214.184 58.2337 217.016 58.2416 217.024Z" fill="#263238"/>
<path d="M80.1943 207.15C78.1165 207.498 76.1414 206.09 75.7938 204.009L69.916 168.942L77.4529 167.676L83.3307 202.743C83.6783 204.824 82.28 206.802 80.1943 207.15Z" fill="white" stroke="#263238" stroke-linecap="round" stroke-linejoin="round"/>
<path d="M80.1064 183.492L72.2852 183.049L75.8008 204.009C76.1484 206.09 78.1235 207.498 80.2012 207.15C82.279 206.802 83.6853 204.824 83.3377 202.743L80.1143 183.492H80.1064Z" fill="#75A9C8" stroke="#263238" stroke-linecap="round" stroke-linejoin="round"/>
<path d="M78.6089 166.34L68.4102 168.055L69.6017 175.163L79.8005 173.448L78.6089 166.34Z" fill="white" stroke="#263238" stroke-linecap="round" stroke-linejoin="round"/>
<path d="M93.3022 245.809C93.3022 245.809 68.4716 219.421 64.0949 215.339C59.7181 211.256 58.296 208.099 58.4461 206.256C58.5963 204.412 64.1265 198.794 66.9706 199.032C69.8147 199.269 85.6627 209.373 89.7708 214.611C93.8869 219.849 95.8066 225.071 96.731 228.188C97.6474 231.306 97.6079 231.804 97.6079 231.804L103.968 238.411L93.3022 245.793V245.809Z" fill="#999999" stroke="#263238" stroke-linecap="round" stroke-linejoin="round"/>
<path d="M59.5688 209.777C59.5688 209.777 57.254 205.876 58.4785 203.866C59.7031 201.849 72.4146 185.708 74.5319 185.621C76.6571 185.534 74.0737 191.143 71.0558 195.653C68.0379 200.163 64.7119 205.18 64.6487 205.971C64.5855 206.762 64.4748 208.075 64.4748 208.075" fill="#999999"/>
<path d="M59.5688 209.777C59.5688 209.777 57.254 205.876 58.4785 203.866C59.7031 201.849 72.4146 185.708 74.5319 185.621C76.6571 185.534 74.0737 191.143 71.0558 195.653C68.0379 200.163 64.7119 205.18 64.6487 205.971C64.5855 206.762 64.4748 208.075 64.4748 208.075" stroke="#263238" stroke-linecap="round" stroke-linejoin="round"/>
<path d="M64.4282 211.319C64.4282 211.319 64.2465 205.393 65.8266 202.656C67.4066 199.918 77.2899 186.396 78.3801 185.478C79.4704 184.552 82.4409 185.312 80.3631 190.036C78.2853 194.759 72.6366 205.931 72.526 207.276C72.4154 208.613 71.2146 216.953 71.2146 216.953" fill="#999999"/>
<path d="M64.4282 211.319C64.4282 211.319 64.2465 205.393 65.8266 202.656C67.4066 199.918 77.2899 186.396 78.3801 185.478C79.4704 184.552 82.4409 185.312 80.3631 190.036C78.2853 194.759 72.6366 205.931 72.526 207.276C72.4154 208.613 71.2146 216.953 71.2146 216.953" stroke="#263238" stroke-linecap="round" stroke-linejoin="round"/>
<path d="M71.3555 215.11C71.3555 215.11 72.2798 206.074 72.7933 205.947C73.3068 205.821 82.25 187.496 82.25 187.496C82.25 187.496 85.3311 184.885 84.3989 192.061C83.4666 199.238 79.2953 208.851 79.2953 208.851L78.7659 221.297" fill="#999999"/>
<path d="M71.3555 215.11C71.3555 215.11 72.2798 206.074 72.7933 205.947C73.3068 205.821 82.25 187.496 82.25 187.496C82.25 187.496 85.3311 184.885 84.3989 192.061C83.4666 199.238 79.2953 208.851 79.2953 208.851L78.7659 221.297" stroke="#263238" stroke-linecap="round" stroke-linejoin="round"/>
<path d="M78.9473 217.087C78.9473 217.087 81.586 205.662 82.3365 204.713C83.087 203.763 85.228 194.324 86.5789 194.261C87.9299 194.205 88.5698 196.619 87.4164 200.408C86.255 204.191 84.8883 208.471 84.8883 208.471L85.7099 216.81" fill="#999999"/>
<path d="M78.9473 217.087C78.9473 217.087 81.586 205.662 82.3365 204.713C83.087 203.763 85.228 194.324 86.5789 194.261C87.9299 194.205 88.5698 196.619 87.4164 200.408C86.255 204.191 84.8883 208.471 84.8883 208.471L85.7099 216.81" stroke="#263238" stroke-linecap="round" stroke-linejoin="round"/>
<path d="M152.523 309.114C158.369 307.998 179.344 283.787 179.344 283.787L177.52 311.86H311.406C309.77 298.266 300.843 181.846 299.942 179.441C298.987 176.885 243.384 153.291 243.384 153.291L218.214 154.248C218.214 154.248 186.676 174.986 178.389 179.773C170.109 184.56 167.241 186.475 167.241 188.39C167.241 190.304 148.881 264.624 148.881 264.624L103.304 232.318L87.0059 247.605L146.471 308.924C146.471 308.924 146.685 310.222 152.531 309.114H152.523Z" fill="#75A9C8" stroke="#263238" stroke-linecap="round" stroke-linejoin="round"/>
<path d="M179.4 272.172L179.661 217.744" stroke="#263238" stroke-linecap="round" stroke-linejoin="round"/>
<path d="M179.344 283.787L179.375 276.999" stroke="#263238" stroke-linecap="round" stroke-linejoin="round"/>
<path d="M179.028 231.147L172.977 211.367" stroke="#263238" stroke-linecap="round" stroke-linejoin="round"/>
<path d="M148.881 264.632C148.881 264.632 152.547 270.716 152.989 279.008" stroke="#263238" stroke-linecap="round" stroke-linejoin="round"/>
<path d="M152.99 282.418C152.99 282.418 152.848 284.112 152.848 287.53" stroke="#263238" stroke-linecap="round" stroke-linejoin="round"/>
<path d="M211.776 165.84L204.137 193.533L213.878 199.863L203.607 212.261L217.038 268.438L250.219 210.417L240.209 198.81L254.959 195.115L251.539 160.832C248.331 151.503 243.875 149.762 239.159 151.598C233.984 153.616 215.197 153.442 211.768 165.84H211.776Z" fill="#75A9C8" stroke="#263238" stroke-linecap="round" stroke-linejoin="round"/>
<path d="M214.145 169.266C214.145 169.266 219.935 207.506 219.935 221.748C219.935 235.99 219.675 238.893 219.675 238.893C219.675 238.893 235.215 198.011 239.686 177.969C244.166 157.928 238.896 140.252 238.896 140.252C238.896 140.252 227.306 164.78 214.145 169.266Z" fill="white" stroke="#263238" stroke-linecap="round" stroke-linejoin="round"/>
<path d="M238.896 140.259C238.896 140.259 227.306 164.787 214.145 169.273C214.145 169.273 214.445 171.243 214.903 174.448C218.253 174.116 226.24 173.166 231.17 171.188C235.594 169.416 238.786 155.324 240.326 146.898C239.639 142.744 238.896 140.267 238.896 140.267V140.259Z" fill="#263238" stroke="#263238" stroke-linecap="round" stroke-linejoin="round"/>
<path d="M237.048 188.073C228.563 191.665 221.477 190.621 216.887 189.007C218.38 200.598 219.936 214.389 219.936 221.748C219.936 235.99 219.676 238.893 219.676 238.893C219.676 238.893 230.941 209.246 237.048 188.073Z" fill="#263238" stroke="#263238" stroke-linecap="round" stroke-linejoin="round"/>
<path d="M180.767 120.155C180.767 120.155 174.423 123.66 170.489 112.053C166.555 100.446 178.8 78.5445 191.48 73.9396C204.168 69.3426 219.692 69.1211 231.503 78.9797C243.314 88.8383 242.437 112.931 242.437 112.931C242.437 112.931 253.805 112.274 260.371 126.295C266.928 140.315 254.682 152.136 246.371 151.922C238.06 151.701 233.683 144.034 232.814 137.245C231.937 130.457 216.635 113.588 208.979 111.618C201.324 109.647 195.857 116.658 189.734 117.971C183.611 119.285 180.767 120.163 180.767 120.163V120.155Z" fill="#263238"/>
<mask id="mask0_210_5223" style="mask-type:luminance" maskUnits="userSpaceOnUse" x="169" y="70" width="94" height="82">
<path d="M180.767 120.155C180.767 120.155 174.423 123.66 170.489 112.053C166.555 100.446 178.8 78.5445 191.48 73.9396C204.168 69.3426 219.692 69.1211 231.503 78.9797C243.314 88.8383 242.437 112.931 242.437 112.931C242.437 112.931 253.805 112.274 260.371 126.295C266.928 140.315 254.682 152.136 246.371 151.922C238.06 151.701 233.683 144.034 232.814 137.245C231.937 130.457 216.635 113.588 208.979 111.618C201.324 109.647 195.857 116.658 189.734 117.971C183.611 119.285 180.767 120.163 180.767 120.163V120.155Z" fill="white"/>
</mask>
<g mask="url(#mask0_210_5223)">
<path d="M197.104 92.0586C197.104 92.0586 205.035 97.2094 219.39 99.5673C233.745 101.925 241.89 105.359 246.82 109.869" stroke="#616161" stroke-linecap="round" stroke-linejoin="round"/>
<path d="M200.32 83.6875C200.32 83.6875 212.747 90.128 226.889 89.4792C241.031 88.8383 250.029 99.7809 250.029 99.7809" stroke="#616161" stroke-linecap="round" stroke-linejoin="round"/>
<path d="M205.889 75.3164C205.889 75.3164 215.527 79.1776 226.888 79.1776C238.248 79.1776 245.098 86.4726 245.098 86.4726" stroke="#616161" stroke-linecap="round" stroke-linejoin="round"/>
<path d="M188.746 93.7754C188.746 93.7754 186.431 95.6664 178.46 103.863C170.489 112.053 172.89 118.667 172.89 118.667" stroke="#616161" stroke-linecap="round" stroke-linejoin="round"/>
<path d="M188.746 88.8379C188.746 88.8379 181.035 93.5615 173.743 98.7123C166.459 103.863 166.673 110.517 166.673 110.517" stroke="#616161" stroke-linecap="round" stroke-linejoin="round"/>
<path d="M191.747 79.6123C191.747 79.6123 185.53 81.5429 178.894 87.3346C172.249 93.1264 168.607 96.9875 168.607 96.9875" stroke="#616161" stroke-linecap="round" stroke-linejoin="round"/>
<path d="M183.389 77.2467C183.389 77.2467 187.892 73.8128 192.387 72.5232C196.89 71.2335 200.959 73.3777 200.959 73.3777C200.959 73.3777 191.534 86.0372 192.174 97.2013" stroke="#616161" stroke-linecap="round" stroke-linejoin="round"/>
</g>
<path d="M180.767 120.155C180.767 120.155 174.423 123.66 170.489 112.053C166.555 100.446 178.8 78.5445 191.48 73.9396C204.168 69.3426 219.692 69.1211 231.503 78.9797C243.314 88.8383 242.437 112.931 242.437 112.931C242.437 112.931 253.805 112.274 260.371 126.295C266.928 140.315 254.682 152.136 246.371 151.922C238.06 151.701 233.683 144.034 232.814 137.245C231.937 130.457 216.635 113.588 208.979 111.618C201.324 109.647 195.857 116.658 189.734 117.971C183.611 119.285 180.767 120.163 180.767 120.163V120.155Z" stroke="#263238" stroke-linecap="round" stroke-linejoin="round"/>
<path d="M179.242 118.185C179.242 118.185 185.144 136.802 187.988 145.561C190.832 154.32 198.701 166.37 205.922 169.875C213.135 173.38 225.822 168.783 227.568 167.249C229.314 165.714 238.281 149.509 239.814 146.004C241.347 142.499 240.248 133.519 240.248 133.519C240.248 133.519 244.404 127.608 244.183 122.133C243.962 116.658 240.904 114.031 239.15 115.123C237.404 116.215 236.306 117.75 236.306 117.75C236.306 117.75 234.774 114.901 228.872 111.396C222.97 107.891 218.499 111.855 208.876 109.015C199.254 106.166 193.234 103.009 193.234 103.009C193.234 103.009 186.882 115.123 179.227 118.193L179.242 118.185Z" fill="white" stroke="#263238" stroke-linecap="round" stroke-linejoin="round"/>
<path d="M242.24 120.25C242.24 120.25 242.019 117.362 240.02 119.142C238.021 120.922 239.799 123.81 239.799 123.81C239.799 123.81 242.903 123.146 241.355 125.591" stroke="#263238" stroke-linecap="round" stroke-linejoin="round"/>
<path d="M188.383 132.427V136.343C188.383 136.343 192.293 138.139 196.686 135.362" stroke="#263238" stroke-linecap="round" stroke-linejoin="round"/>
<path d="M210.369 128.344L210.535 132.91C210.535 132.91 215.583 133.891 219.984 130.14" stroke="#263238" stroke-linecap="round" stroke-linejoin="round"/>
<path d="M186.432 128.186C186.432 128.186 189.852 125.741 197.832 127.861" stroke="#263238" stroke-width="2" stroke-linecap="round" stroke-linejoin="round"/>
<path d="M204.342 126.39C204.342 126.39 207.597 122.639 217.211 121.5" stroke="#263238" stroke-width="2" stroke-linecap="round" stroke-linejoin="round"/>
<path d="M207.888 140.086C202.2 138.772 202.642 138.551 198.7 141.834C194.766 145.118 187.766 144.683 187.766 144.683L187.711 144.715C187.806 145.007 187.893 145.284 187.987 145.561C190.832 154.32 198.7 166.37 205.921 169.875C213.134 173.38 225.822 168.783 227.568 167.249C228.089 166.79 229.251 165.025 230.665 162.691C230.831 162.24 230.965 161.789 231.068 161.33C231.723 158.26 233.035 151.472 235.658 146.875C238.281 142.278 240.248 133.511 240.248 133.511C240.248 133.511 233.904 150.158 231.281 149.501C228.658 148.845 228.437 143.805 228.437 140.956C228.437 138.108 234.338 131.541 236.527 124.966C238.715 118.391 236.306 117.734 236.306 117.734C234.994 130.441 228.65 137.886 228.65 137.886C219.683 142.705 213.561 141.391 207.872 140.078L207.888 140.086Z" fill="#999999" stroke="#263238" stroke-linecap="round" stroke-linejoin="round"/>
<path d="M176.611 126.287C174.904 126.184 181.857 138.994 183.824 140.964C185.791 142.934 193.225 143.813 196.946 142.056C200.667 140.307 199.135 134.389 202.192 134.168C205.257 133.946 207.003 139.421 209.847 140.521C212.691 141.613 222.314 139.429 227.347 137.238C232.379 135.046 232.592 129.349 232.592 129.349L230.625 117.307C230.625 117.307 206.79 128.036 176.611 126.287Z" stroke="#263238" stroke-linecap="round" stroke-linejoin="round"/>
<path d="M176.611 126.287C176.611 126.287 203.946 129.135 238.723 114.023" stroke="#263238" stroke-width="3" stroke-linecap="round" stroke-linejoin="round"/>
<path d="M224.51 120.376L227.354 133.076" stroke="#263238" stroke-linecap="round" stroke-linejoin="round"/>
<path d="M193.716 265.21L182.205 304.597L182.41 308.284L185.01 305.791L196.734 266.096C196.994 265.21 196.441 264.292 195.541 264.11C194.743 263.944 193.945 264.426 193.716 265.21Z" fill="white" stroke="#263238" stroke-linecap="round" stroke-linejoin="round"/>
<path d="M234.71 290.078C234.71 290.078 215.883 285.132 211.688 283.059C207.493 280.986 198.005 275.685 196.243 278.47C194.489 281.263 179.763 295.371 180.569 297.088C181.375 298.805 190.255 306.646 192.214 307.255C194.173 307.864 197.8 310.206 202.358 308.608C206.916 307.01 208.907 306.203 208.907 306.203C208.907 306.203 217.053 308.363 219.312 308.41C221.572 308.458 228.698 305.783 228.698 305.783L234.078 305.332L234.694 290.062L234.71 290.078Z" fill="#999999" stroke="#263238" stroke-linecap="round" stroke-linejoin="round"/>
<path d="M184.172 300.569L199.498 284.776" stroke="#263238" stroke-linecap="round" stroke-linejoin="round"/>
<path d="M187.758 304.612L201.623 290.766" stroke="#263238" stroke-linecap="round" stroke-linejoin="round"/>
<path d="M193.904 307.856L205.146 297.634" stroke="#263238" stroke-linecap="round" stroke-linejoin="round"/>
<path d="M282.444 191.262C282.444 191.262 268.689 208.194 268.555 214.255C268.421 220.315 280.255 276.421 280.255 276.421L230.033 285.203L231.416 309.17C231.416 309.17 311.09 308.695 314.282 308.442C317.474 308.196 324.141 309.296 324.837 306.756C325.532 304.217 302.258 183.587 301.649 181.973C301.049 180.367 298.56 177.439 294.089 177.977" fill="#75A9C8"/>
<path d="M282.444 191.262C282.444 191.262 268.689 208.194 268.555 214.255C268.421 220.315 280.255 276.421 280.255 276.421L230.033 285.203L231.416 309.17C231.416 309.17 311.09 308.695 314.282 308.442C317.474 308.196 324.141 309.296 324.837 306.756C325.532 304.217 302.258 183.587 301.649 181.973C301.049 180.367 298.56 177.439 294.089 177.977" stroke="#263238" stroke-linecap="round" stroke-linejoin="round"/>
<path d="M280.256 276.421L299.114 273.644" stroke="#263238" stroke-linecap="round" stroke-linejoin="round"/>
<path d="M281.527 276.453L295.369 270.052" stroke="#263238" stroke-linecap="round" stroke-linejoin="round"/>
<path d="M302.178 273.873C302.178 273.873 307.842 273.019 310.671 273.304" stroke="#263238" stroke-linecap="round" stroke-linejoin="round"/>
<path d="M265.671 219.556H243.053V252.89H265.671V219.556Z" fill="white" stroke="#263238" stroke-linecap="round" stroke-linejoin="round"/>
<path d="M256.792 212.119H251.941V224.09H256.792V212.119Z" fill="#263238" stroke="#263238" stroke-linecap="round" stroke-linejoin="round"/>
<path d="M3.68164 311.789H347.605" stroke="#263238" stroke-linecap="round" stroke-linejoin="round"/>
<path d="M66.0802 270.439H73.7197V305.997C73.7197 308.109 72.0054 309.826 69.896 309.826C67.7866 309.826 66.0723 308.109 66.0723 305.997V270.439H66.0802Z" fill="white" stroke="#263238" stroke-linecap="round" stroke-linejoin="round"/>
<path d="M66.0801 284.966V305.997C66.0801 308.11 67.7944 309.826 69.9038 309.826C72.0132 309.826 73.7276 308.11 73.7276 305.997V284.966H66.088H66.0801Z" fill="#75A9C8" stroke="#263238" stroke-linecap="round" stroke-linejoin="round"/>
<path d="M75.07 269.308H64.7285V276.508H75.07V269.308Z" fill="white" stroke="#263238" stroke-linecap="round" stroke-linejoin="round"/>
<path d="M84.7632 309.819C82.6538 309.819 80.9395 308.102 80.9395 305.989V270.432H88.579V305.989C88.579 308.102 86.8647 309.819 84.7553 309.819H84.7632Z" fill="white" stroke="#263238" stroke-linecap="round" stroke-linejoin="round"/>
<path d="M80.9473 284.966V305.997C80.9473 308.11 82.6616 309.826 84.771 309.826C86.8804 309.826 88.5947 308.11 88.5947 305.997V284.966H80.9552H80.9473Z" fill="#75A9C8" stroke="#263238" stroke-linecap="round" stroke-linejoin="round"/>
<path d="M89.9372 269.308H79.5957V276.508H89.9372V269.308Z" fill="white" stroke="#263238" stroke-linecap="round" stroke-linejoin="round"/>
<path d="M99.6323 309.819C97.523 309.819 95.8086 308.102 95.8086 305.989V270.432H103.448V305.989C103.448 308.102 101.734 309.819 99.6244 309.819H99.6323Z" fill="white" stroke="#263238" stroke-linecap="round" stroke-linejoin="round"/>
<path d="M95.8086 284.966V305.997C95.8086 308.11 97.523 309.826 99.6323 309.826C101.742 309.826 103.456 308.11 103.456 305.997V284.966H95.8165H95.8086Z" fill="#75A9C8" stroke="#263238" stroke-linecap="round" stroke-linejoin="round"/>
<path d="M104.799 269.308H94.457V276.508H104.799V269.308Z" fill="white" stroke="#263238" stroke-linecap="round" stroke-linejoin="round"/>
<path d="M114.494 309.819C112.384 309.819 110.67 308.102 110.67 305.989V270.432H118.31V305.989C118.31 308.102 116.595 309.819 114.486 309.819H114.494Z" fill="white" stroke="#263238" stroke-linecap="round" stroke-linejoin="round"/>
<path d="M110.678 284.966V305.997C110.678 308.11 112.392 309.826 114.501 309.826C116.611 309.826 118.325 308.11 118.325 305.997V284.966H110.686H110.678Z" fill="#75A9C8" stroke="#263238" stroke-linecap="round" stroke-linejoin="round"/>
<path d="M119.668 269.308H109.326V276.508H119.668V269.308Z" fill="white" stroke="#263238" stroke-linecap="round" stroke-linejoin="round"/>
<path d="M126.129 280.401H59.5613V282.664H126.129V306.29H56.3301V311.789H130.648V310.499V306.29V282.664V280.401H126.129Z" fill="white" stroke="#263238" stroke-linecap="round" stroke-linejoin="round"/>
<path d="M144.189 311.789H226.589V308.877C226.589 308.877 213.34 309.201 203.971 307.255C198.496 306.124 192.657 305.641 187.072 305.435C183.288 305.293 179.251 305.91 176.391 308.394C173.554 306.432 170.173 305.965 166.808 305.965C159.373 305.965 148.068 307.587 139.986 308.877C131.904 310.175 125.766 310.175 125.766 310.175V311.797H144.181L144.189 311.789Z" fill="#263238" stroke="#263238" stroke-linecap="round" stroke-linejoin="round"/>
<path d="M288.898 150.846L287.555 149.533C287.476 149.454 287.397 149.375 287.318 149.303C286.686 148.742 285.857 148.401 284.94 148.401C282.957 148.401 281.346 150.015 281.346 152.001C281.346 152.714 281.559 153.378 281.915 153.94L281.946 153.979C282.175 154.32 282.46 154.62 282.784 154.874L283.977 156.14L284.506 155.57C284.648 155.586 284.798 155.601 284.94 155.601C286.923 155.601 288.535 153.987 288.535 152.001C288.535 151.772 288.511 151.543 288.472 151.321L288.906 150.854L288.898 150.846Z" fill="#5E5E5E" stroke="#263238" stroke-linecap="round" stroke-linejoin="round"/>
<path d="M286.505 157.16C288.49 157.16 290.099 155.548 290.099 153.56C290.099 151.572 288.49 149.96 286.505 149.96C284.52 149.96 282.91 151.572 282.91 153.56C282.91 155.548 284.52 157.16 286.505 157.16Z" fill="#263238" stroke="#263238" stroke-linecap="round" stroke-linejoin="round"/>
<path d="M293.197 153.979L291.395 152.223C291.293 152.112 291.19 152.009 291.079 151.914H291.071V151.906C290.218 151.155 289.112 150.696 287.888 150.696C285.225 150.696 283.068 152.856 283.068 155.522C283.068 156.48 283.353 157.374 283.835 158.125H283.827L283.866 158.173C284.167 158.632 284.554 159.035 284.988 159.368L286.584 161.069L287.295 160.309C287.485 160.333 287.682 160.349 287.88 160.349C290.542 160.349 292.699 158.189 292.699 155.522C292.699 155.214 292.667 154.905 292.612 154.612L293.197 153.987V153.979Z" fill="#5E5E5E" stroke="#263238" stroke-linecap="round" stroke-linejoin="round"/>
<path d="M289.981 162.445C292.643 162.445 294.8 160.285 294.8 157.619C294.8 154.953 292.643 152.792 289.981 152.792C287.32 152.792 285.162 154.953 285.162 157.619C285.162 160.285 287.32 162.445 289.981 162.445Z" fill="#263238" stroke="#263238" stroke-linecap="round" stroke-linejoin="round"/>
<path d="M302.896 150.846L301.553 149.533C301.474 149.454 301.403 149.375 301.316 149.303C300.684 148.742 299.855 148.401 298.938 148.401C296.955 148.401 295.344 150.015 295.344 152.001C295.344 152.714 295.557 153.378 295.913 153.94L295.944 153.979C296.173 154.32 296.458 154.62 296.782 154.874L297.975 156.14L298.504 155.57C298.646 155.586 298.796 155.601 298.938 155.601C300.921 155.601 302.533 153.987 302.533 152.001C302.533 151.772 302.509 151.543 302.47 151.321L302.904 150.854L302.896 150.846Z" fill="#5E5E5E" stroke="#263238" stroke-linecap="round" stroke-linejoin="round"/>
<path d="M300.495 157.16C302.48 157.16 304.09 155.548 304.09 153.56C304.09 151.572 302.48 149.96 300.495 149.96C298.51 149.96 296.9 151.572 296.9 153.56C296.9 155.548 298.51 157.16 300.495 157.16Z" fill="#263238" stroke="#263238" stroke-linecap="round" stroke-linejoin="round"/>
<path d="M307.195 153.979L305.393 152.223C305.291 152.112 305.188 152.009 305.077 151.914H305.069V151.906C304.216 151.155 303.11 150.696 301.886 150.696C299.223 150.696 297.066 152.856 297.066 155.522C297.066 156.48 297.351 157.374 297.833 158.125H297.825L297.864 158.173C298.165 158.632 298.552 159.035 298.986 159.368L300.582 161.069L301.293 160.309C301.483 160.333 301.68 160.349 301.878 160.349C304.54 160.349 306.697 158.189 306.697 155.522C306.697 155.214 306.665 154.905 306.61 154.612L307.195 153.987V153.979Z" fill="#5E5E5E" stroke="#263238" stroke-linecap="round" stroke-linejoin="round"/>
<path d="M308.791 157.619C308.791 160.285 306.634 162.445 303.972 162.445C301.309 162.445 299.152 160.285 299.152 157.619C299.152 154.953 301.309 152.792 303.972 152.792C306.634 152.792 308.791 154.953 308.791 157.619Z" fill="#263238" stroke="#263238" stroke-linecap="round" stroke-linejoin="round"/>
<path d="M312.867 159.304C312.615 158.853 312.291 158.458 311.919 158.11L311.801 157.959H311.769C310.9 157.223 309.771 156.772 308.53 156.772H289.009C286.251 156.772 284.016 159.012 284.016 161.773C284.016 163.11 284.545 164.321 285.398 165.223L285.335 165.239L293.662 174.448L320.736 167.96L312.875 159.304H312.867Z" fill="#5E5E5E" stroke="#263238" stroke-linecap="round" stroke-linejoin="round"/>
<path d="M317.624 176.925H298.102C295.345 176.925 293.109 174.686 293.109 171.924C293.109 169.163 295.345 166.924 298.102 166.924H317.624C320.381 166.924 322.617 169.163 322.617 171.924C322.617 174.686 320.381 176.925 317.624 176.925Z" fill="#263238" stroke="#263238" stroke-linecap="round" stroke-linejoin="round"/>
<path d="M324.788 173.111H297.248L299.697 179.536L297.248 193.319H324.788C330.224 193.153 334.585 188.698 334.585 183.215C334.585 177.732 330.224 173.27 324.788 173.111Z" fill="#263238" stroke="#263238" stroke-linecap="round" stroke-linejoin="round"/>
<path d="M297.24 173.111V193.327C302.676 193.161 307.037 188.706 307.037 183.223C307.037 177.74 302.676 173.277 297.24 173.119V173.111Z" fill="#5E5E5E" stroke="#263238" stroke-linecap="round" stroke-linejoin="round"/>
<path d="M307.346 195.629C307.346 195.629 297.25 197.006 289.594 202.83C281.947 208.653 280.414 214.326 279.798 217.538C279.182 220.751 279.189 224.28 279.189 224.28V276.991H289.594V223.053C289.594 223.053 288.678 216.003 292.652 210.18C296.625 204.357 307.338 201.904 307.338 201.904V195.622L307.346 195.629Z" fill="#263238" stroke="#263238" stroke-linecap="round" stroke-linejoin="round"/>
<path d="M298.315 195.629C298.315 195.629 288.218 197.006 280.563 202.83C272.915 208.653 271.383 214.326 270.767 217.538C270.158 220.759 270.158 224.28 270.158 224.28V276.991H280.563V223.053C280.563 223.053 279.646 216.003 283.62 210.18C287.594 204.357 298.307 201.904 298.307 201.904V195.622L298.315 195.629Z" fill="white" stroke="#263238" stroke-linecap="round" stroke-linejoin="round"/>
<path d="M281.708 256.855C282.379 252.728 279.583 248.837 275.461 248.165C271.34 247.492 267.455 250.294 266.784 254.421C266.112 258.549 268.909 262.439 273.031 263.112C277.152 263.784 281.037 260.983 281.708 256.855Z" fill="#263238" stroke="#263238" stroke-linecap="round" stroke-linejoin="round"/>
<path d="M308.989 220.917H305.932V222.911H308.989V220.917Z" fill="#263238" stroke="#263238" stroke-linecap="round" stroke-linejoin="round"/>
<path d="M311.051 202.837H303.861V221.225H311.051V202.837Z" fill="#263238" stroke="#263238" stroke-linecap="round" stroke-linejoin="round"/>
<path d="M328.421 218.394L325.596 219.565L326.357 221.407L329.182 220.236L328.421 218.394Z" fill="#263238" stroke="#263238" stroke-linecap="round" stroke-linejoin="round"/>
<path d="M323.418 200.904L316.775 203.659L323.799 220.648L330.441 217.894L323.418 200.904Z" fill="#263238" stroke="#263238" stroke-linecap="round" stroke-linejoin="round"/>
<path d="M326.313 193.327H297.24V205.441H326.313V193.327Z" fill="#5E5E5E" stroke="#263238" stroke-linecap="round" stroke-linejoin="round"/>
<path d="M326.313 193.327H303.568V205.441H326.313V193.327Z" fill="#263238" stroke="#263238" stroke-linecap="round" stroke-linejoin="round"/>
<path d="M320.348 251.031H319.203V241.148H316.446V251.031H315.529V257.234H316.446V273.557H319.203V257.234H320.348V251.031Z" fill="#263238" stroke="#263238" stroke-linecap="round" stroke-linejoin="round"/>
<path d="M341.308 304.129H289.135V283.922C289.135 277.813 294.08 272.868 300.171 272.868H310.094C327.333 272.868 341.308 286.865 341.308 304.129Z" fill="#263238" stroke="#263238" stroke-linecap="round" stroke-linejoin="round"/>
<path d="M326.929 304.129H274.756V283.922C274.756 277.813 279.701 272.868 285.793 272.868H295.715C312.954 272.868 326.929 286.865 326.929 304.129Z" fill="#5E5E5E" stroke="#263238" stroke-linecap="round" stroke-linejoin="round"/>
<path d="M313.767 240.072H292.35V274.395H313.767V240.072Z" fill="#263238" stroke="#263238" stroke-linecap="round" stroke-linejoin="round"/>
<path d="M313.767 251.276H292.35V263.192H313.767V251.276Z" fill="#5E5E5E" stroke="#263238" stroke-linecap="round" stroke-linejoin="round"/>
<path d="M320.957 304.129H268.783V283.922C268.783 277.813 273.729 272.868 279.82 272.868H289.743C306.981 272.868 320.957 286.865 320.957 304.129Z" fill="#263238" stroke="#263238" stroke-linecap="round" stroke-linejoin="round"/>
<path d="M259.524 311.789C259.113 311.789 258.766 311.48 258.718 311.069L258.07 305.047H260.978L260.33 311.069C260.282 311.48 259.935 311.789 259.524 311.789Z" fill="#263238" stroke="#263238" stroke-linecap="round" stroke-linejoin="round"/>
<path d="M293.344 311.789C292.933 311.789 292.586 311.48 292.538 311.069L291.891 305.047H294.798L294.15 311.069C294.103 311.48 293.755 311.789 293.344 311.789Z" fill="#263238" stroke="#263238" stroke-linecap="round" stroke-linejoin="round"/>
<path d="M305.922 311.789C305.512 311.789 305.164 311.48 305.117 311.069L304.469 305.047H307.376L306.728 311.069C306.681 311.48 306.333 311.789 305.922 311.789Z" fill="#263238" stroke="#263238" stroke-linecap="round" stroke-linejoin="round"/>
<path d="M340.202 311.789C339.791 311.789 339.443 311.48 339.396 311.069L338.748 305.047H341.655L341.008 311.069C340.96 311.48 340.613 311.789 340.202 311.789Z" fill="#263238" stroke="#263238" stroke-linecap="round" stroke-linejoin="round"/>
<path d="M306.58 304.129H254.406V283.922C254.406 277.813 259.352 272.868 265.443 272.868H275.366C292.604 272.868 306.58 286.865 306.58 304.129Z" fill="#5E5E5E" stroke="#263238" stroke-linecap="round" stroke-linejoin="round"/>
<path d="M343.386 302.753H253.102C252.216 302.753 251.498 303.472 251.498 304.359V304.367C251.498 305.254 252.216 305.973 253.102 305.973H343.386C344.272 305.973 344.99 305.254 344.99 304.367V304.359C344.99 303.472 344.272 302.753 343.386 302.753Z" fill="white" stroke="#263238" stroke-linecap="round" stroke-linejoin="round"/>
<path d="M345.899 236.702H278.73V242.375H345.899V236.702Z" fill="white" stroke="#263238" stroke-linecap="round" stroke-linejoin="round"/>
<path d="M345.906 236.702H301.814V242.375H345.906V236.702Z" fill="#263238" stroke="#263238" stroke-linecap="round" stroke-linejoin="round"/>
</g>
<defs>
<clipPath id="clip0_210_5223">
<rect width="348" height="336" fill="white"/>
</clipPath>
</defs>
</svg>
