<svg width="440" height="278" viewBox="0 0 440 278" fill="none" xmlns="http://www.w3.org/2000/svg">
<g clip-path="url(#clip0_207_4766)">
<path d="M434.269 116.024C432.636 91.1593 417.538 67.4403 395.355 49.3647C382.378 38.7878 366.916 29.6128 350.174 22.5675C332.799 15.2538 313.9 7.05712 293.29 6.18019C288.202 5.96543 283.012 6.23388 278.055 7.37926C259.072 11.7759 297.628 25.1506 302.68 27.1252C248.966 12.45 193.382 -2.42809 135.515 0.333959C124.355 0.864891 112.814 2.16538 103.192 6.69919C93.563 11.233 86.3356 19.7339 88.1707 27.9663C89.6841 34.773 96.6494 42.2598 90.6792 47.7361C88.9751 49.2991 86.4965 50.2595 84.0655 51.0947C71.571 55.3899 57.9862 57.794 46.2067 63.163C27.9684 71.4849 15.9387 86.3093 10.7431 101.754C5.54747 117.193 6.55442 133.282 9.56334 148.804C15.2237 178.029 28.3498 206.855 53.2791 229.142C88.8917 260.974 145.626 276.359 201.831 277.887C269.838 279.736 342.63 260.825 385.703 219.764C392.09 213.674 397.899 206.956 399.985 199.446C402.07 191.935 399.77 183.476 392.102 178.739C390.034 177.463 387.389 176.12 387.514 174.062C387.687 171.282 392.418 170.244 396.034 169.582C419.748 165.251 432.499 144.754 434.149 126.535C434.465 123.021 434.501 119.513 434.274 116.03L434.269 116.024Z" fill="#75A9C8"/>
<path opacity="0.7" d="M434.269 116.024C432.636 91.1593 417.538 67.4403 395.355 49.3647C382.378 38.7878 366.916 29.6128 350.174 22.5675C332.799 15.2538 313.9 7.05712 293.29 6.18019C288.202 5.96543 283.012 6.23388 278.055 7.37926C259.072 11.7759 297.628 25.1506 302.68 27.1252C248.966 12.45 193.382 -2.42809 135.515 0.333959C124.355 0.864891 112.814 2.16538 103.192 6.69919C93.563 11.233 86.3356 19.7339 88.1707 27.9663C89.6841 34.773 96.6494 42.2598 90.6792 47.7361C88.9751 49.2991 86.4965 50.2595 84.0655 51.0947C71.571 55.3899 57.9862 57.794 46.2067 63.163C27.9684 71.4849 15.9387 86.3093 10.7431 101.754C5.54747 117.193 6.55442 133.282 9.56334 148.804C15.2237 178.029 28.3498 206.855 53.2791 229.142C88.8917 260.974 145.626 276.359 201.831 277.887C269.838 279.736 342.63 260.825 385.703 219.764C392.09 213.674 397.899 206.956 399.985 199.446C402.07 191.935 399.77 183.476 392.102 178.739C390.034 177.463 387.389 176.12 387.514 174.062C387.687 171.282 392.418 170.244 396.034 169.582C419.748 165.251 432.499 144.754 434.149 126.535C434.465 123.021 434.501 119.513 434.274 116.03L434.269 116.024Z" fill="white"/>
<path d="M339.473 54.9667V18.8633" stroke="#263238" stroke-miterlimit="10"/>
<path d="M289.311 34.7612V258.254" stroke="#263238" stroke-miterlimit="10"/>
<path d="M289.311 16.6143V28.4081" stroke="#263238" stroke-miterlimit="10"/>
<path d="M339.473 231.594V59.0112" stroke="#263238" stroke-miterlimit="10"/>
<path d="M408.41 179.915V117.712H368.906V231.595H408.41V184.538" stroke="#263238" stroke-miterlimit="10"/>
<path d="M374.584 146.484V121.703H402.403V173.985H374.584V150.69" stroke="#263238" stroke-miterlimit="10"/>
<path d="M378.815 177.219H371.344V179.712H378.815V177.219Z" stroke="#263238" stroke-miterlimit="10"/>
<path d="M387.549 251.353H300.666V257.927H387.549V251.353Z" stroke="#263238" stroke-miterlimit="10"/>
<path d="M398.887 244.784H312.004V251.358H398.887V244.784Z" stroke="#263238" stroke-miterlimit="10"/>
<path d="M410.227 238.222H323.344V244.796H410.227V238.222Z" stroke="#263238" stroke-miterlimit="10"/>
<path d="M421.565 231.66H334.682V238.234H421.565V231.66Z" stroke="#263238" stroke-miterlimit="10"/>
<path d="M429.555 257.962L429.406 231.66H421.565V238.234L410.226 238.222V244.796L398.887 244.784V251.364L387.549 251.352L387.698 257.962H429.555Z" stroke="#263238" stroke-miterlimit="10"/>
<path d="M430.216 200.174H418.168L417.948 200.329L383.688 223.976V257.873C383.688 257.956 383.699 258.028 383.723 258.105H385.445C385.463 258.034 385.481 257.956 385.481 257.873V224.919L401.771 213.674V244.39C401.771 244.546 401.813 244.689 401.884 244.814H403.451C403.523 244.689 403.564 244.546 403.564 244.39V212.582C403.564 212.534 403.558 212.493 403.552 212.451L417.572 202.775V231.248C417.572 231.427 417.626 231.594 417.715 231.737H419.211C419.3 231.594 419.354 231.427 419.354 231.248V201.963H430.228C430.722 201.963 431.121 201.564 431.121 201.069C431.121 200.574 430.722 200.174 430.228 200.174H430.216Z" fill="#263238"/>
<path d="M303.763 258.099C303.781 258.028 303.799 257.95 303.799 257.867V224.913L320.089 213.668V244.39C320.089 244.546 320.131 244.689 320.202 244.814H321.769C321.841 244.689 321.883 244.546 321.883 244.39V212.582C321.883 212.534 321.877 212.493 321.871 212.451L335.884 202.775V231.248C335.884 231.427 335.938 231.594 336.027 231.737H337.523C337.612 231.594 337.666 231.427 337.666 231.248V201.963H348.54C349.034 201.963 349.434 201.564 349.434 201.069C349.434 200.574 349.034 200.174 348.54 200.174H336.492L336.272 200.329L302.012 223.976V257.873C302.012 257.956 302.024 258.028 302.047 258.105H303.769L303.763 258.099Z" fill="#263238"/>
<path d="M19.1562 154.275V217.253H148.117V92.4961" stroke="#263238" stroke-miterlimit="10"/>
<path d="M148.117 83.8399V38.2632H19.1562V145.613" stroke="#263238" stroke-miterlimit="10"/>
<path d="M412.366 107.314H364.414C363.515 107.314 362.787 108.044 362.787 108.943V109.915C362.787 110.815 363.515 111.544 364.414 111.544H412.366C413.264 111.544 413.992 110.815 413.992 109.915V108.943C413.992 108.044 413.264 107.314 412.366 107.314Z" stroke="#263238" stroke-miterlimit="10"/>
<path d="M10.4336 217.265H179.327V257.21" stroke="#263238" stroke-miterlimit="10"/>
<path d="M25.2637 217.367V257.706" stroke="#263238" stroke-miterlimit="10"/>
<path d="M40.75 168.449C40.75 168.449 45.1115 168.24 47.2862 170.429" stroke="#263238" stroke-width="6" stroke-linecap="round" stroke-linejoin="round"/>
<path d="M84.2734 247.797C84.2734 246.025 84.4998 244.36 84.8931 242.899V237.333H89.6061C92.5495 237.333 94.9387 242.016 94.9387 247.791C94.9387 253.565 92.5495 258.248 89.6061 258.248H84.8931V252.682C84.4998 251.221 84.2734 249.556 84.2734 247.785V247.797Z" fill="#263238" stroke="#263238" stroke-miterlimit="10"/>
<path d="M84.8932 258.254C87.8383 258.254 90.2258 253.572 90.2258 247.796C90.2258 242.021 87.8383 237.339 84.8932 237.339C81.9481 237.339 79.5605 242.021 79.5605 247.796C79.5605 253.572 81.9481 258.254 84.8932 258.254Z" fill="#263238" stroke="#263238" stroke-miterlimit="10"/>
<path d="M84.4574 255.057C86.2903 255.057 87.7762 251.83 87.7762 247.85C87.7762 243.87 86.2903 240.644 84.4574 240.644C82.6245 240.644 81.1387 243.87 81.1387 247.85C81.1387 251.83 82.6245 255.057 84.4574 255.057Z" fill="#828282" stroke="#263238" stroke-miterlimit="10"/>
<path d="M47.2852 170.429C48.0121 171.157 48.4947 172.153 48.4947 173.507V248.798C48.4947 250.761 50.0855 252.354 52.0458 252.354H99.706" stroke="#263238" stroke-width="4" stroke-linecap="round" stroke-linejoin="round"/>
<path d="M77.5898 168.449C77.5898 168.449 81.9513 168.24 84.1261 170.429" stroke="#263238" stroke-width="6" stroke-linecap="round" stroke-linejoin="round"/>
<path d="M84.125 170.429C84.8519 171.157 85.3345 172.153 85.3345 173.507V252.05" stroke="#263238" stroke-width="4" stroke-linecap="round" stroke-linejoin="round"/>
<path d="M48.918 188.421H85.6507" stroke="#263238" stroke-width="4" stroke-linecap="round" stroke-linejoin="round"/>
<path d="M67.8184 188.266V251.901" stroke="#263238" stroke-width="4" stroke-linecap="round" stroke-linejoin="round"/>
<path d="M43.1504 242.887L48.5784 232.232" stroke="#263238" stroke-width="4" stroke-linecap="round" stroke-linejoin="round"/>
<path d="M48.4715 247.778H43.3652" stroke="#263238" stroke-width="4" stroke-linecap="round" stroke-linejoin="round"/>
<path d="M34.4395 247.797C34.4395 246.025 34.6659 244.36 35.0591 242.899V237.333H39.7721C42.7155 237.333 45.1047 242.016 45.1047 247.791C45.1047 253.565 42.7155 258.248 39.7721 258.248H35.0591V252.682C34.6659 251.221 34.4395 249.556 34.4395 247.785V247.797Z" fill="#263238" stroke="#263238" stroke-miterlimit="10"/>
<path d="M35.0592 258.254C38.0043 258.254 40.3919 253.572 40.3919 247.796C40.3919 242.021 38.0043 237.339 35.0592 237.339C32.1141 237.339 29.7266 242.021 29.7266 247.796C29.7266 253.572 32.1141 258.254 35.0592 258.254Z" fill="#263238" stroke="#263238" stroke-miterlimit="10"/>
<path d="M31.3047 247.85C31.3047 251.829 32.7883 255.057 34.6234 255.057C36.4586 255.057 37.9422 251.829 37.9422 247.85C37.9422 243.871 36.4586 240.644 34.6234 240.644C32.7883 240.644 31.3047 243.871 31.3047 247.85Z" fill="white" stroke="#263238" stroke-miterlimit="10"/>
<path d="M274.259 240.716L310.443 242.016L360.218 241.533L379.327 240.59C379.327 240.59 383.241 230.079 381.722 224.442C380.202 218.804 378.254 216.418 373.922 216.418C369.591 216.418 362.179 219.95 361.875 222.521C361.571 225.092 359.414 228.021 359.414 228.021H307.839C307.839 228.021 305.891 216.848 298.956 212.946C292.02 209.039 282.922 209.259 278.155 212.946C273.389 216.633 274.253 240.71 274.253 240.71L274.259 240.716Z" fill="#263238" stroke="#263238" stroke-miterlimit="10"/>
<path d="M370.98 240.388C370.98 237.369 370.599 234.524 369.919 232.03V222.527H361.876C356.847 222.527 352.771 230.527 352.771 240.394C352.771 250.261 356.847 258.26 361.876 258.26H369.919V248.757C370.593 246.264 370.98 243.418 370.98 240.4V240.388Z" fill="#263238" stroke="#263238" stroke-miterlimit="10"/>
<path d="M369.925 258.254C374.953 258.254 379.029 250.255 379.029 240.387C379.029 230.52 374.953 222.521 369.925 222.521C364.896 222.521 360.82 230.52 360.82 240.387C360.82 250.255 364.896 258.254 369.925 258.254Z" fill="#616161" stroke="#263238" stroke-miterlimit="10"/>
<path d="M370.662 252.796C373.795 252.796 376.335 247.286 376.335 240.489C376.335 233.692 373.795 228.182 370.662 228.182C367.53 228.182 364.99 233.692 364.99 240.489C364.99 247.286 367.53 252.796 370.662 252.796Z" fill="#E0E0E0" stroke="#263238" stroke-miterlimit="10"/>
<path d="M298.931 222.526H290.887C285.859 222.526 281.783 230.526 281.783 240.393C281.783 250.26 285.859 258.26 290.887 258.26H298.931C303.96 258.26 308.035 250.26 308.035 240.393C308.035 230.526 303.96 222.526 298.931 222.526Z" fill="#263238" stroke="#263238" stroke-miterlimit="10"/>
<path d="M207.782 222.526H199.03C193.56 222.526 189.127 230.526 189.127 240.393C189.127 250.26 193.56 258.26 199.03 258.26H207.782C213.252 258.26 217.685 250.26 217.685 240.393C217.685 230.526 213.252 222.526 207.782 222.526Z" fill="#263238" stroke="#263238" stroke-miterlimit="10"/>
<path d="M292.8 237.488C292.8 233.974 292.354 230.67 291.573 227.77V216.722H282.219C276.374 216.722 271.637 226.016 271.637 237.488C271.637 248.96 276.374 258.254 282.219 258.254H291.573V247.206C292.36 244.307 292.8 241.002 292.8 237.488Z" fill="#263238" stroke="#263238" stroke-miterlimit="10"/>
<path d="M291.572 258.254C297.416 258.254 302.154 248.957 302.154 237.488C302.154 226.019 297.416 216.722 291.572 216.722C285.728 216.722 280.99 226.019 280.99 237.488C280.99 248.957 285.728 258.254 291.572 258.254Z" fill="#616161" stroke="#263238" stroke-miterlimit="10"/>
<path d="M292.432 251.913C296.071 251.913 299.021 245.508 299.021 237.608C299.021 229.707 296.071 223.302 292.432 223.302C288.792 223.302 285.842 229.707 285.842 237.608C285.842 245.508 288.792 251.913 292.432 251.913Z" fill="#E0E0E0" stroke="#263238" stroke-miterlimit="10"/>
<path d="M380.541 210.005C378.855 204.726 343.225 131.063 340.484 128.11C337.743 125.157 286.728 109.325 286.728 109.325C286.728 109.325 263.33 102.357 255.739 101.939C248.149 101.516 183.007 107.004 181.744 107.428C180.481 107.851 172.044 134.022 169.726 145.422C167.408 156.822 166.354 180.04 166.354 202.834C166.354 225.629 169.517 242.302 173.098 242.302C176.679 242.302 270.284 245.047 271.761 245.047C273.239 245.047 275.342 243.358 279.138 238.294C282.933 233.229 286.097 218.029 290.309 216.132C294.528 214.235 299.163 215.285 301.481 220.564C303.799 225.844 303.167 242.302 303.167 242.302C303.167 242.302 337.469 242.112 360.212 241.533C361.052 239.254 363.34 233.157 366.182 226.213C369.793 217.396 375.888 218.303 378.599 220.564C381.042 222.604 380.732 233.634 379.326 240.59C379.659 240.531 379.862 240.465 379.91 240.399C380.964 238.92 382.019 234.911 382.859 229.638C383.705 224.358 382.227 215.285 380.541 210.005Z" fill="white" stroke="#263238" stroke-miterlimit="10"/>
<path d="M303.174 242.302C303.174 242.302 337.476 242.111 360.219 241.533C361.059 239.254 363.347 233.157 366.189 226.213C369.8 217.396 375.895 218.303 378.606 220.564C381.049 222.604 380.739 233.634 379.333 240.59C379.667 240.53 379.869 240.465 379.917 240.399C380.971 238.92 382.026 234.911 382.866 229.637C383.712 224.358 382.235 215.284 380.548 210.005C378.862 204.725 343.232 131.063 340.491 128.11C337.75 125.157 286.735 109.324 286.735 109.324C286.735 109.324 263.337 102.357 255.747 101.939C255.705 101.939 255.651 101.939 255.604 101.939L255.89 103.275C255.89 103.275 262.193 115.463 260.984 244.754C267.359 244.933 271.464 245.046 271.762 245.046C273.24 245.046 275.343 243.358 279.139 238.293C282.934 233.229 286.098 218.028 290.31 216.131C294.529 214.234 299.164 215.284 301.482 220.564C303.8 225.843 303.168 242.302 303.168 242.302H303.174Z" fill="#E0E0E0" stroke="#263238" stroke-miterlimit="10"/>
<path d="M379.815 223.016C380.857 227.18 380.428 235.138 379.326 240.59C379.66 240.531 379.862 240.465 379.91 240.399C380.965 238.92 382.019 234.911 382.859 229.638C383.414 226.172 382.967 221.065 382.115 216.478C382.007 218.762 381.471 221.393 379.815 223.022V223.016Z" fill="#263238" stroke="#263238" stroke-miterlimit="10"/>
<path d="M289.72 216.496H166.766C167.731 231.988 170.287 242.297 173.105 242.297C176.686 242.297 270.29 245.041 271.768 245.041C273.246 245.041 275.349 243.352 279.144 238.288C282.755 233.462 285.8 219.46 289.72 216.496Z" fill="#263238" stroke="#263238" stroke-miterlimit="10"/>
<path d="M209.492 105.978V106.276C209.492 107.29 210.362 108.096 211.375 108.006L223.393 107.004C224.293 106.926 224.984 106.175 224.984 105.274V104.976C224.984 103.956 224.114 103.156 223.101 103.246L211.083 104.248C210.183 104.325 209.492 105.077 209.492 105.978Z" stroke="#263238" stroke-miterlimit="10"/>
<path d="M255.889 103.27C255.889 103.27 258.653 161.052 258.653 168.867C258.653 176.681 259.464 234.786 259.464 234.786L290.351 235.114C290.351 235.114 292.955 216.883 292.955 197.841C292.955 178.799 290.03 133.222 288.403 119.878C286.776 106.533 284.661 96.439 284.661 96.439L255.889 103.275V103.27Z" fill="white" stroke="#263238" stroke-miterlimit="10"/>
<path d="M261.741 181.072L284.501 180.094C284.501 180.094 285.639 197.507 284.501 209.88C283.363 222.252 282.875 225.342 282.225 225.993C281.576 226.643 261.741 225.993 261.741 225.993C261.741 225.993 260.442 224.692 260.442 222.574C260.442 220.457 259.953 184.001 259.953 182.862C259.953 181.722 260.603 181.561 261.741 181.072Z" fill="#263238" stroke="#263238" stroke-miterlimit="10"/>
<path d="M258.814 113.363L259.464 120.689L282.064 117.271C282.064 117.271 281.903 115.32 280.437 112.224C278.971 109.128 277.023 108.155 277.023 108.155L260.441 111.902" stroke="#263238" stroke-miterlimit="10"/>
<path d="M279.947 99.5293C279.947 99.5293 283.689 109.456 286.615 136.313C289.54 163.17 290.678 217.856 288.402 228.928C288.402 228.928 288.402 230.717 286.615 232.018C284.827 233.318 261.578 232.829 261.578 232.829" stroke="#263238" stroke-miterlimit="10"/>
<path d="M280.92 123.94C280.92 123.94 281.897 121.011 284.006 142.332C286.121 163.653 286.282 171.629 285.305 172.279C284.328 172.929 263.521 174.069 263.521 174.069" stroke="#263238" stroke-miterlimit="10"/>
<path d="M274.58 123.779C274.58 123.779 261.574 125.246 260.602 126.386C259.625 127.525 261.74 136.802 262.229 151.942C262.718 167.077 262.718 170.662 262.718 170.662" stroke="#263238" stroke-miterlimit="10"/>
<path d="M280.597 128.176L264.343 130.783C264.343 130.783 262.716 131.272 263.044 133.062C263.371 134.851 265.481 157.968 264.992 169.845" stroke="#263238" stroke-miterlimit="10"/>
<path d="M159.656 150.815V208.448" stroke="#263238" stroke-miterlimit="10"/>
<path d="M162.159 144.241L162.285 136.856C162.285 136.856 157.119 110.386 156.749 109.891C156.38 109.396 114.201 109.032 113.713 109.277C113.218 109.521 113.588 112.111 113.588 112.111C113.588 112.111 114.082 120.605 114.446 147.814C114.815 175.023 114.321 230.676 114.321 230.676L161.415 231.045C161.415 231.045 160.92 227.353 161.659 215.165C162.398 202.978 162.517 147.08 162.517 146.585V144.987L162.148 144.247L162.159 144.241Z" fill="white" stroke="#263238" stroke-miterlimit="10"/>
<path d="M115.947 111.168C115.947 111.168 151.977 111.711 152.948 111.926C153.919 112.14 154.569 114.091 154.896 115.177C155.218 116.263 159.764 136.086 160.092 139.009" stroke="#263238" stroke-miterlimit="10"/>
<path d="M159.657 216.138C159.657 216.138 159.871 223.29 159.114 224.806C158.358 226.321 157.494 226.756 156.302 226.971C155.11 227.186 115.512 226.536 115.512 226.536" stroke="#263238" stroke-miterlimit="10"/>
<path d="M118.759 182.886L118.217 222.425L156.844 222.968C156.844 222.968 157.708 183.751 157.601 183.214C157.494 182.671 157.494 182.128 155.331 181.913C153.168 181.699 120.922 181.371 120.386 181.371C119.849 181.371 118.979 182.021 118.765 182.886H118.759Z" fill="#263238" stroke="#263238" stroke-miterlimit="10"/>
<path d="M122 119.078C122 119.078 118.431 124.059 118.103 125.252C117.776 126.446 118.103 127.311 118.967 127.418C119.831 127.525 152.506 127.418 152.506 127.418C152.506 127.418 153.698 127.203 153.591 125.36" stroke="#263238" stroke-miterlimit="10"/>
<path d="M124.17 118.75H151C151 118.75 151.864 118.75 152.406 121.023" stroke="#263238" stroke-miterlimit="10"/>
<path d="M126.547 134.893C126.547 134.893 123.949 135.758 123.842 138.144C123.735 140.531 124.384 172.81 124.384 172.81" stroke="#263238" stroke-miterlimit="10"/>
<path d="M130.658 134.786C130.658 134.786 151 135.329 152.299 135.543C153.598 135.758 154.789 137.166 155.111 138.252C155.433 139.337 155.433 171.181 155.433 171.181" stroke="#263238" stroke-miterlimit="10"/>
<path d="M127.845 132.399C127.845 132.399 123.519 132.292 121.571 133.485C119.623 134.678 119.95 137.816 120.058 139.009C120.165 140.202 120.493 172.267 120.493 172.267C120.493 172.267 120.493 173.568 122.227 173.675C123.96 173.782 152.846 173.782 152.846 173.782C152.846 173.782 154.038 173.782 154.687 172.81" stroke="#263238" stroke-miterlimit="10"/>
<path d="M132.064 131.97C132.064 131.97 152.078 132.513 153.919 133.378C155.76 134.243 155.433 135.871 155.54 136.629" stroke="#263238" stroke-miterlimit="10"/>
<path d="M170.524 144.611H161.057V147.934H170.524V144.611Z" stroke="#263238" stroke-miterlimit="10"/>
<path d="M167.08 143.626H163.881V149.168H167.08V143.626Z" stroke="#263238" stroke-miterlimit="10"/>
<path d="M169.661 210.727H160.193V214.049H169.661V210.727Z" stroke="#263238" stroke-miterlimit="10"/>
<path d="M166.223 209.742H163.023V215.284H166.223V209.742Z" stroke="#263238" stroke-miterlimit="10"/>
<path d="M255.835 107.911L184.103 113.363C184.103 113.363 177.93 144.634 177.93 145.183C177.93 145.732 175.934 195.908 176.661 208.096C177.388 220.283 177.567 230.461 177.567 230.461L258.921 232.823L255.835 107.911Z" fill="white" stroke="#263238" stroke-miterlimit="10"/>
<path d="M255.835 107.911L184.103 113.363C184.103 113.363 177.93 144.634 177.93 145.183C177.93 145.732 175.934 195.908 176.661 208.096C177.388 220.283 177.567 230.461 177.567 230.461L258.921 232.823L255.835 107.911Z" fill="#263238" stroke="#263238" stroke-miterlimit="10"/>
<path d="M232.382 232.048V193.486H216.527V231.588L232.382 232.048Z" fill="#75A9C8" stroke="#263238" stroke-miterlimit="10"/>
<path d="M184.098 230.646L216.528 231.588V193.486H184.098V230.646Z" fill="#75A9C8" stroke="#263238" stroke-miterlimit="10"/>
<path d="M196.919 211.651H203.705V193.48H196.919V211.651Z" fill="white" stroke="#263238" stroke-miterlimit="10"/>
<path d="M249.705 232.549H258.916L258.785 227.168L257.951 193.486H219.008V231.66L249.705 232.549Z" fill="#75A9C8" stroke="#263238" stroke-miterlimit="10"/>
<path d="M249.705 232.549H251.439V193.486H219.008V231.66L249.705 232.549Z" fill="#75A9C8" stroke="#263238" stroke-miterlimit="10"/>
<path d="M233.558 203.628H222.678V210.972H233.558V203.628Z" fill="white" stroke="#263238" stroke-miterlimit="10"/>
<path d="M231.831 199.333H238.617V193.48H231.831V199.333Z" fill="white" stroke="#263238" stroke-miterlimit="10"/>
<path d="M306.594 225.312C306.594 225.312 306.82 232.316 307.047 234.13C307.273 235.937 308.852 236.844 310.884 236.391C312.915 235.937 356.256 237.071 356.256 237.071C356.256 237.071 358.288 236.617 358.514 234.13C358.74 231.642 359.42 228.027 359.42 228.027L306.6 225.312H306.594Z" fill="#263238" stroke="#263238" stroke-miterlimit="10"/>
<path d="M346.967 158.594C346.967 158.594 350.244 185.182 351.763 188.463C353.283 191.744 354.456 193.033 356.208 193.737C357.966 194.441 367.904 197.37 369.078 197.483C370.246 197.602 370.836 197.012 370.484 195.61C370.133 194.202 356.566 163.283 355.392 161.41C354.224 159.536 350.363 158.015 348.957 157.544C347.551 157.073 346.967 158.6 346.967 158.6V158.594Z" fill="#B2B2B2" stroke="#263238" stroke-miterlimit="10"/>
<path d="M353.777 160.055L359.908 194.184" stroke="#263238" stroke-miterlimit="10"/>
<path d="M368.262 182.838C368.262 182.838 368.613 195.371 368.846 196.427C369.078 197.483 370.013 197.949 371.187 197.835C372.355 197.716 376.216 197.251 376.687 196.075C377.157 194.906 376.454 186 375.048 183.894C373.642 181.788 370.836 181.084 369.668 180.965C368.5 180.845 368.262 182.838 368.262 182.838Z" fill="#B2B2B2" stroke="#263238" stroke-miterlimit="10"/>
<path d="M368.845 196.421C369.077 197.477 370.013 197.942 371.186 197.829C372.354 197.71 376.215 197.244 376.686 196.075C377.157 194.906 376.453 185.999 375.047 183.894C374.463 183.023 373.647 182.39 372.795 181.943L373.057 182.605L373.874 194.083H368.666C368.726 195.288 368.791 196.177 368.845 196.427V196.421Z" fill="#263238" stroke="#263238" stroke-miterlimit="10"/>
<path d="M295.268 198.682L373.422 207.708" stroke="#263238" stroke-miterlimit="10"/>
<path d="M296.018 201.504L364.591 208.836L370.037 208.46" stroke="#263238" stroke-miterlimit="10"/>
<path d="M364.025 213.728C364.025 213.728 361.398 224.072 360.266 226.518" stroke="#263238" stroke-miterlimit="10"/>
<path d="M296.393 206.581C296.393 206.581 302.029 209.587 305.032 220.498" stroke="#263238" stroke-miterlimit="10"/>
<path d="M293.574 144.509L343.546 155.981" stroke="#263238" stroke-miterlimit="10"/>
<path d="M294.326 141.312C294.326 141.312 346.366 153.159 350.685 155.42" stroke="#263238" stroke-miterlimit="10"/>
<path d="M352.044 203.365C351.43 203.186 350.936 202.542 350.936 201.928V194.143C350.936 193.528 351.43 193.176 352.044 193.355C352.657 193.534 353.152 194.178 353.152 194.793V202.578C353.152 203.192 352.657 203.544 352.044 203.365Z" fill="#263238" stroke="#263238" stroke-miterlimit="10"/>
<path d="M343.374 202.476C342.76 202.297 342.266 201.653 342.266 201.039V193.254C342.266 192.639 342.76 192.287 343.374 192.466C343.988 192.645 344.482 193.289 344.482 193.904V201.689C344.482 202.303 343.988 202.655 343.374 202.476Z" fill="#263238" stroke="#263238" stroke-miterlimit="10"/>
<path d="M191.986 193.749H233.879V163.318H191.986V193.749Z" fill="#75A9C8" stroke="#263238" stroke-miterlimit="10"/>
<path d="M191.987 193.749H217.25V163.318H191.987V193.749Z" fill="#75A9C8" stroke="#263238" stroke-miterlimit="10"/>
<path d="M201.979 177.469H207.264V163.318H201.979V177.469Z" fill="white" stroke="#263238" stroke-miterlimit="10"/>
<path d="M256.454 133.014H227.664V163.444H257.205L256.454 133.014Z" fill="#75A9C8" stroke="#263238" stroke-miterlimit="10"/>
<path d="M227.659 163.444H252.922V133.014H227.659V163.444Z" fill="#75A9C8" stroke="#263238" stroke-miterlimit="10"/>
<path d="M251.061 150.105H240.182V157.449H251.061V150.105Z" fill="white" stroke="#263238" stroke-miterlimit="10"/>
<path d="M237.651 147.164H242.936V133.014H237.651V147.164Z" fill="white" stroke="#263238" stroke-miterlimit="10"/>
<path d="M257.205 163.318H224.148V193.749H257.956L257.205 163.318Z" fill="#75A9C8" stroke="#263238" stroke-miterlimit="10"/>
<path d="M224.149 193.749H249.412V163.318H224.149V193.749Z" fill="#75A9C8" stroke="#263238" stroke-miterlimit="10"/>
<path d="M234.141 177.469H239.426V163.318H234.141V177.469Z" fill="white" stroke="#263238" stroke-miterlimit="10"/>
<path d="M186.338 159.321H225.162V131.116H186.338V159.321Z" fill="#75A9C8" stroke="#263238" stroke-miterlimit="10"/>
<path d="M186.338 159.321H209.748V131.116H186.338V159.321Z" fill="#75A9C8" stroke="#263238" stroke-miterlimit="10"/>
<path d="M195.596 144.234H200.494V131.116H195.596V144.234Z" fill="white" stroke="#263238" stroke-miterlimit="10"/>
<path d="M162.917 130.747C162.917 130.747 162.559 131.892 163.131 133.461C163.703 135.036 164.633 137.75 165.205 138.609C165.777 139.468 165.634 140.685 165.634 140.685L173.63 144.402C173.63 144.402 173.773 141.401 174.059 141.258C174.345 141.115 176.555 141.115 177.056 140.327C177.556 139.54 176.984 135.609 176.984 135.609C176.984 135.609 177.413 135.179 177.485 134.749C177.556 134.32 176.412 133.318 176.555 132.53C176.698 131.743 177.056 130.884 176.484 129.744C175.912 128.599 174.232 125.831 171.586 124.972C168.947 124.113 166.099 125.109 164.961 126.326C163.817 127.543 162.845 128.957 162.917 130.747Z" fill="white" stroke="#263238" stroke-miterlimit="10"/>
<path d="M174.779 131.57C174.982 131.283 175.351 130.383 175.351 129.768C175.351 129.154 174.535 129.07 173.183 129.607C172.104 130.031 165.592 132.321 163.125 133.449V133.461C163.673 134.976 164.555 137.547 165.127 138.502C165.347 138.77 165.532 138.961 165.645 139.027C166.301 139.397 168.1 138.657 168.756 137.672C169.292 136.861 169.53 134.469 169.596 133.652C169.608 133.479 169.614 133.371 169.614 133.371C169.858 132.715 170.841 132.673 171.538 133.043C172.235 133.413 172.891 133.455 173.337 133.288C173.79 133.127 173.909 132.632 173.909 132.345C173.909 132.059 174.565 131.856 174.767 131.57H174.779Z" fill="#263238" stroke="#263238" stroke-miterlimit="10"/>
<path d="M172.2 133.699C172.2 133.699 171.217 132.268 170.359 133.455C169.501 134.642 170.931 136.282 171.503 136.569C172.075 136.855 172.32 136.527 172.486 136.08" fill="white"/>
<path d="M172.2 133.699C172.2 133.699 171.217 132.268 170.359 133.455C169.501 134.642 170.931 136.282 171.503 136.569C172.075 136.855 172.32 136.527 172.486 136.08" stroke="#263238" stroke-miterlimit="10"/>
<path d="M171.586 124.978C168.947 124.119 166.099 125.115 164.961 126.332C163.817 127.549 162.845 128.963 162.917 130.752C162.917 130.752 162.559 131.898 163.131 133.467C163.292 133.908 163.483 134.445 163.686 135.006L163.733 135.018C163.733 135.018 166.146 135.549 168.81 134.242C171.473 132.936 175.763 130.556 176.174 129.774C176.216 129.691 176.299 129.625 176.401 129.577C175.757 128.348 174.113 125.801 171.592 124.984L171.586 124.978Z" fill="#75A9C8" stroke="#263238" stroke-miterlimit="10"/>
<path d="M174.529 131.206C174.529 131.206 177.723 131.289 179.439 130.43C181.155 129.571 180.869 127.973 180.541 127.847C180.213 127.722 175.673 128.301 175.673 128.301C175.673 128.301 176.043 130.102 174.529 131.212V131.206Z" fill="#75A9C8" stroke="#263238" stroke-miterlimit="10"/>
<path d="M176.151 133.109C176.151 133.479 176.038 133.783 175.895 133.783C175.752 133.783 175.639 133.479 175.639 133.109C175.639 132.739 175.752 132.435 175.895 132.435C176.038 132.435 176.151 132.739 176.151 133.109Z" fill="#263238"/>
<path d="M174.934 145.959C174.934 145.959 173.725 143.877 172.337 142.779C170.948 141.682 167.373 140.351 165.985 140.238C164.597 140.125 165.002 140.876 164.829 141.682C164.656 142.493 164.484 142.779 164.942 142.893C165.407 143.006 167.6 143.412 170.43 144.742C173.26 146.072 174.702 146.884 174.988 146.705C175.274 146.532 174.928 145.953 174.928 145.953L174.934 145.959Z" fill="#263238" stroke="#263238" stroke-miterlimit="10"/>
<path d="M169.828 250.164C169.828 250.164 171.842 253.475 172.974 254.12C174.1 254.764 176.281 255.492 176.442 256.703C176.603 257.914 175.149 257.83 174.428 257.83C173.707 257.83 168.947 257.991 168.136 257.669C167.332 257.347 165.395 255.891 163.215 254.68C161.04 253.469 159.104 253.308 159.104 251.292C159.104 249.276 160.957 248.87 161.278 248.548C161.6 248.226 169.828 250.164 169.828 250.164Z" fill="white" stroke="#263238" stroke-miterlimit="10"/>
<path d="M162.248 193.814C162.248 193.814 164.262 212.868 164.346 213.835C164.429 214.801 163.053 218.273 162.493 221.345C161.927 224.412 161.2 232.889 161.2 232.889L161.444 249.598C161.444 249.598 166.282 250.726 167.009 250.648C167.736 250.565 169.589 250.242 169.833 250.165C170.078 250.081 171.448 249.598 171.448 249.598C171.448 249.598 171.126 244.026 171.126 242.249C171.126 240.471 172.252 229.089 172.497 227.961C172.741 226.834 175.559 210.202 175.964 201.403C176.37 192.603 174.916 185.254 174.916 185.254L161.045 185.982L162.254 193.814H162.248Z" fill="#75A9C8" stroke="#263238" stroke-miterlimit="10"/>
<path d="M165.717 250.487C165.717 250.487 166.927 253.392 167.493 253.875C168.059 254.359 171.604 255.731 171.765 256.381C171.926 257.025 171.282 257.592 170.394 257.836C169.507 258.081 163.137 258.081 161.844 257.431C160.551 256.786 156.523 253.798 155.391 253.315C154.265 252.831 152.406 252.187 152.889 250.165C153.372 248.142 155.791 246.615 155.791 246.615L165.711 250.493L165.717 250.487Z" fill="white" stroke="#263238" stroke-miterlimit="10"/>
<path d="M159.909 184.526C159.909 184.526 159.104 188.481 160.314 191.548C161.523 194.614 164.908 198.73 165.474 199.541C166.04 200.347 165.313 209.713 164.908 213.346C164.502 216.979 163.859 223.117 163.859 223.356C163.859 223.594 160.391 232.477 158.937 236.593C157.484 240.71 155.064 246.603 155.064 246.603C155.064 246.603 158.288 249.025 159.903 249.509C161.517 249.992 165.706 250.475 165.706 250.475C165.706 250.475 166.111 248.536 166.51 247.731C166.915 246.926 166.427 246.603 166.915 244.42C167.404 242.237 172.802 230.616 174.816 227.305C176.83 223.994 178.04 217.939 178.85 214.95C179.654 211.962 179.654 199.774 179.815 195.574C179.976 191.375 178.606 186.614 178.606 186.614L178.2 185.081L159.897 184.514L159.909 184.526Z" fill="#75A9C8" stroke="#263238" stroke-miterlimit="10"/>
<path d="M173.207 208.34C173.076 209.516 172.915 210.744 172.719 212.015" stroke="#263238" stroke-miterlimit="10"/>
<path d="M172.163 186.321C172.163 186.321 171.615 187.24 171.794 188.708C171.978 190.175 173.259 190.724 173.992 191.643C174.725 192.561 173.259 192.925 172.89 194.029C172.521 195.132 173.623 196.045 173.623 196.785C173.623 197.292 173.802 200.549 173.48 205.19" stroke="#263238" stroke-miterlimit="10"/>
<path d="M159.342 181.621C159.342 181.621 158.698 184.77 159.258 185.093C159.824 185.415 177.645 185.176 178.206 185.093C178.766 185.009 179.093 184.932 179.171 184.204C179.254 183.476 178.849 181.537 178.849 181.537L159.336 181.621H159.342Z" fill="#263238" stroke="#263238" stroke-miterlimit="10"/>
<path d="M164.949 142.898C164.949 142.898 159.521 146.191 158.193 150.469C156.864 154.746 158.717 173.782 158.717 173.782C158.717 173.782 157.198 180.362 158.616 181.68C160.034 182.999 178.135 182.695 178.945 182.086C179.756 181.478 180.363 180.261 180.363 178.948C180.363 177.636 180.768 166.086 180.768 159.608C180.768 153.129 177.7 148.947 176.318 147.456C174.941 145.965 173.994 145.732 173.994 145.732C173.994 145.732 166.737 142.898 164.955 142.898H164.949Z" fill="#75A9C8" stroke="#263238" stroke-miterlimit="10"/>
<path d="M161.463 156.899C161.814 157.591 162.261 158.343 162.815 159.154" stroke="#263238" stroke-miterlimit="10"/>
<path d="M160.98 150.158C160.98 150.158 159.877 151.262 160.354 153.827" stroke="#263238" stroke-miterlimit="10"/>
<path d="M173.773 147.587C173.773 147.587 177.152 146.913 179.41 148.1C181.668 149.287 185.32 152.914 186.303 153.404C187.287 153.893 188.985 155.569 190.391 155.939C191.797 156.309 194.127 157.09 194.127 157.09C194.127 157.09 200.967 156.613 201.765 156.547C202.569 156.482 208.242 156.583 208.242 156.583C208.242 156.583 208.569 157.609 208.665 158.814C208.766 160.019 208.665 160.837 208.665 160.837C208.665 160.837 206.579 162.059 206.025 162.185C205.471 162.31 200.562 163.605 196.295 164.923C192.035 166.241 185.428 165.191 180.959 164.052C176.49 162.913 166.081 158.588 165.551 158.337" fill="#75A9C8"/>
<path d="M173.773 147.587C173.773 147.587 177.152 146.913 179.41 148.1C181.668 149.287 185.32 152.914 186.303 153.404C187.287 153.893 188.985 155.569 190.391 155.939C191.797 156.309 194.127 157.09 194.127 157.09C194.127 157.09 200.967 156.613 201.765 156.547C202.569 156.482 208.242 156.583 208.242 156.583C208.242 156.583 208.569 157.609 208.665 158.814C208.766 160.019 208.665 160.837 208.665 160.837C208.665 160.837 206.579 162.059 206.025 162.185C205.471 162.31 200.562 163.605 196.295 164.923C192.035 166.241 185.428 165.191 180.959 164.052C176.49 162.913 166.081 158.588 165.551 158.337" stroke="#263238" stroke-miterlimit="10"/>
<path d="M187.238 161.302C186.32 161.577 185.379 161.797 184.449 161.905" stroke="#263238" stroke-miterlimit="10"/>
<path d="M193.984 158.236C193.984 158.236 191.851 159.578 189.086 160.658" stroke="#263238" stroke-miterlimit="10"/>
<path d="M174.583 161.517C174.583 161.517 171.276 167.816 167.242 170.638" stroke="#263238" stroke-miterlimit="10"/>
<path d="M170.151 171.849C169.329 172.786 168.477 173.669 167.648 174.355" stroke="#263238" stroke-miterlimit="10"/>
<path d="M174.745 165.717C174.745 165.717 173.297 167.966 171.414 170.334" stroke="#263238" stroke-miterlimit="10"/>
<path d="M208.24 156.589C208.24 156.589 209.498 155.187 210.332 154.447C211.166 153.708 212.173 153.248 212.667 152.908C213.162 152.568 213.478 150.976 214.193 151.512C214.908 152.049 214.729 152.592 214.467 153.057C214.205 153.529 213.615 154.471 213.418 154.859L213.227 155.247C213.227 155.247 215.283 155.754 216.177 155.754C217.07 155.754 219.543 155.849 219.656 156.291C219.77 156.732 219.43 157.204 219.21 157.221C218.989 157.239 215.944 157.49 215.944 157.49C215.944 157.49 218.453 158.928 218.471 159.154C218.489 159.375 217.928 159.799 217.273 160.001C216.618 160.204 215.641 161.033 214.604 161.117C213.567 161.2 210.564 160.998 210.183 160.878C209.801 160.759 208.663 160.837 208.663 160.837L208.234 156.577L208.24 156.589Z" fill="white" stroke="#263238" stroke-miterlimit="10"/>
<path d="M214.859 158.713L217.278 160.007" stroke="#263238" stroke-miterlimit="10"/>
<path d="M213.918 159.983L215.467 160.675" stroke="#263238" stroke-miterlimit="10"/>
<path d="M105.83 258.057H159.609V218.989H105.83V258.057Z" fill="#75A9C8" stroke="#263238" stroke-miterlimit="10"/>
<path d="M105.831 258.057H138.262V218.989H105.831V258.057Z" fill="#75A9C8" stroke="#263238" stroke-miterlimit="10"/>
<path d="M118.653 237.16H125.439V218.989H118.653V237.16Z" fill="white" stroke="#263238" stroke-miterlimit="10"/>
<path d="M98.1616 212.254H54.5352V251.322H98.1616V212.254Z" fill="#75A9C8" stroke="#263238" stroke-miterlimit="10"/>
<path d="M98.1672 212.254H71.8555V251.322H98.1672V212.254Z" fill="#75A9C8" stroke="#263238" stroke-miterlimit="10"/>
<path d="M87.7593 212.254H82.2539V230.425H87.7593V212.254Z" fill="white" stroke="#263238" stroke-miterlimit="10"/>
<path d="M176.186 39.665H156.023V60.3118H176.186V39.665Z" fill="white" stroke="#263238" stroke-miterlimit="10"/>
<path d="M162.811 52.9206H165.742C165.742 54.5611 165.927 54.9906 166.618 54.9429C167.297 54.8952 167.315 53.9825 167.315 52.2584C167.315 51.0832 167.166 50.1049 166.403 50.1049C165.891 50.1049 165.593 50.4509 165.474 51.3636H162.822L163.138 43.4712H169.549V45.9409H165.539L165.373 48.4464C165.539 48.1959 166.237 47.9334 166.916 47.8499C168.936 47.5695 170.145 49.1742 170.145 52.2286C170.145 55.283 169.68 57.186 166.386 57.186C163.287 57.186 162.811 55.444 162.811 52.9266V52.9206Z" fill="#263238"/>
<path d="M440 257.962H0" stroke="#263238" stroke-miterlimit="10"/>
</g>
<defs>
<clipPath id="clip0_207_4766">
<rect width="440" height="278" fill="white"/>
</clipPath>
</defs>
</svg>
