<svg width="440" height="249" viewBox="0 0 440 249" fill="none" xmlns="http://www.w3.org/2000/svg">
<g clip-path="url(#clip0_209_4951)">
<path d="M398.026 68.9466C398.026 68.9466 371.324 10.7294 284.396 1.23185C197.467 -8.25818 179.66 39.8342 164.471 49.3242C149.282 58.8143 111.582 39.8342 58.1626 68.3119C4.7511 96.7895 24.1233 137.923 20.4621 153.11C16.7935 168.297 0.56048 181.588 0.0385432 192.974C-0.483393 204.368 4.7511 224.618 4.7511 224.618H436.256C436.256 224.618 447.255 183.484 431.544 160.069C415.833 136.654 405.364 136.654 404.312 122.736C403.268 108.811 405.886 87.2995 398.026 68.9466Z" fill="#75A9C8"/>
<path opacity="0.7" d="M398.026 68.9466C398.026 68.9466 371.324 10.7294 284.396 1.23185C197.467 -8.25818 179.66 39.8342 164.471 49.3242C149.282 58.8143 111.582 39.8342 58.1626 68.3119C4.7511 96.7895 24.1233 137.923 20.4621 153.11C16.7935 168.297 0.56048 181.588 0.0385432 192.974C-0.483393 204.368 4.7511 224.618 4.7511 224.618H436.256C436.256 224.618 447.255 183.484 431.544 160.069C415.833 136.654 405.364 136.654 404.312 122.736C403.268 108.811 405.886 87.2995 398.026 68.9466Z" fill="white"/>
<path d="M226.816 53.1322C227.648 52.2784 228.677 51.6664 229.797 51.2055C230.356 50.9864 230.947 50.8201 231.567 50.737C231.877 50.6841 232.187 50.6615 232.505 50.669L233.042 50.7295C233.223 50.7521 233.375 50.8353 233.541 50.8881C234.176 51.1375 234.691 51.5379 235.107 51.9837C235.546 52.4144 235.901 52.8904 236.264 53.3438C236.983 54.2656 237.679 55.1647 238.382 56.1243L237.732 56.2225C237.951 54.8851 238.534 53.6611 239.441 52.6562C240.334 51.6513 241.468 50.8579 242.709 50.3668C243.95 49.853 245.281 49.7246 246.567 49.6943C247.21 49.7094 247.853 49.7775 248.481 49.853C249.108 49.9815 249.729 50.125 250.326 50.2988L250.311 50.4499C249.683 50.5406 249.071 50.601 248.458 50.6464L246.665 50.9108C246.37 50.9713 246.083 51.0468 245.795 51.0997C245.5 51.145 245.22 51.213 244.948 51.3113C244.668 51.4019 244.388 51.4699 244.116 51.5531C243.851 51.6588 243.586 51.7797 243.322 51.8704C242.278 52.3086 241.279 52.8526 240.447 53.6233C239.638 54.3865 238.859 55.3234 238.428 56.3736L238.095 57.1821L237.777 56.4719C237.316 55.4594 236.673 54.4922 235.863 53.7064C235.061 52.9282 234.033 52.3464 233.14 52.1197C232.913 52.0593 232.701 52.0442 232.497 52.0215C232.248 52.0366 231.983 52.0215 231.726 52.0593C231.204 52.1122 230.674 52.1877 230.145 52.3162C229.078 52.5504 228.012 52.9055 226.907 53.2682L226.824 53.1398L226.816 53.1322Z" fill="#263238"/>
<path d="M204.131 72.951C204.532 72.3692 205.092 71.9763 205.712 71.6665C206.03 71.5154 206.37 71.4172 206.725 71.3567C206.907 71.3265 207.089 71.3114 207.285 71.3114C207.52 71.3265 207.754 71.3718 207.943 71.4625C208.73 71.8252 209.063 72.4901 209.441 73.019C209.819 73.563 210.22 74.039 210.659 74.5528L210.008 74.651C210.084 73.8501 210.356 73.1097 210.886 72.5052C211.393 71.9007 212.043 71.4021 212.777 71.1225C213.503 70.8203 214.282 70.79 215.016 70.8203C215.387 70.8505 215.742 70.9185 216.098 71.0016C216.446 71.1074 216.786 71.2358 217.119 71.3945L217.104 71.5456C216.748 71.659 216.415 71.7345 216.082 71.795C215.757 71.8856 215.432 71.9612 215.122 72.0367C214.509 72.2256 213.919 72.3919 213.39 72.6336C212.86 72.8603 212.338 73.1021 211.892 73.4799C211.468 73.8501 210.999 74.2959 210.712 74.8097L210.288 75.5653L210.061 74.9079C209.865 74.3337 209.524 73.7821 209.055 73.3892C208.594 72.9963 207.958 72.7621 207.55 72.7168C207.444 72.6941 207.361 72.7016 207.285 72.6941C207.164 72.6941 207.028 72.6941 206.899 72.7092C206.635 72.7243 206.355 72.7545 206.067 72.7999C205.492 72.8754 204.895 73.0114 204.222 73.1021L204.138 72.9737L204.131 72.951Z" fill="#263238"/>
<path d="M247.383 72.951C247.784 72.3692 248.343 71.9763 248.964 71.6665C249.281 71.5154 249.622 71.4172 249.977 71.3567C250.159 71.3265 250.34 71.3114 250.537 71.3114C250.772 71.3265 251.006 71.3718 251.195 71.4625C251.982 71.8252 252.315 72.4901 252.693 73.019C253.071 73.563 253.472 74.039 253.911 74.5528L253.26 74.651C253.336 73.8501 253.608 73.1097 254.138 72.5052C254.645 71.9007 255.295 71.4021 256.029 71.1225C256.755 70.8203 257.534 70.79 258.268 70.8203C258.631 70.8505 258.994 70.9185 259.35 71.0016C259.697 71.1074 260.038 71.2358 260.371 71.3945L260.356 71.5456C260 71.659 259.667 71.7345 259.334 71.795C259.009 71.8856 258.684 71.9612 258.374 72.0367C257.761 72.2256 257.171 72.3919 256.642 72.6336C256.112 72.8603 255.59 73.1021 255.144 73.4799C254.72 73.8501 254.251 74.2959 253.964 74.8097L253.54 75.5653L253.313 74.9079C253.117 74.3337 252.776 73.7821 252.307 73.3892C251.846 72.9963 251.21 72.7621 250.802 72.7168C250.696 72.6941 250.613 72.7016 250.537 72.6941C250.416 72.6941 250.28 72.6941 250.151 72.7092C249.887 72.7243 249.607 72.7545 249.319 72.7999C248.744 72.8754 248.147 73.0114 247.474 73.1021L247.39 72.9737L247.383 72.951Z" fill="#263238"/>
<path d="M336.672 37.0307C334.675 28.0621 324.327 21.3828 315.31 22.6597C313.064 22.977 310.878 23.8157 309.183 25.3722C306.884 27.4878 307.428 29.8906 306.286 32.5124C305.968 33.2378 305.356 33.8875 304.569 34.0236C302.322 34.4089 300.522 32.1724 298.245 32.1573C296.551 32.1422 294.38 33.0791 293.427 34.5449C292.542 35.9049 293.162 38.2926 291.573 39.1917C289.796 40.2042 287.64 38.2774 285.719 38.9726C283.336 39.8415 284.418 41.5718 283.548 42.6522C282.678 43.7327 280.946 43.302 278.563 43.0829C276.18 42.8638 274.229 45.6821 274.229 45.6821H349.455C349.455 45.6821 350.106 44.6016 347.284 40.2646C344.463 35.9276 340.567 38.965 338.828 38.965C337.088 38.965 336.657 37.0156 336.657 37.0156L336.672 37.0307Z" stroke="#263238" stroke-miterlimit="10"/>
<path d="M369.123 90.5031C368.071 85.7883 362.64 82.2824 357.897 82.9549C356.717 83.1211 355.568 83.5669 354.683 84.3829C353.472 85.4936 353.76 86.7554 353.162 88.1381C352.996 88.5235 352.67 88.8635 352.262 88.9315C351.082 89.1355 350.136 87.9568 348.941 87.9492C348.049 87.9492 346.906 88.4328 346.407 89.2035C345.946 89.9213 346.263 91.168 345.431 91.644C344.501 92.1729 343.366 91.1604 342.353 91.5306C341.097 91.984 341.672 92.8982 341.211 93.4649C340.757 94.0316 339.841 93.8049 338.593 93.6916C337.338 93.5783 336.316 95.0592 336.316 95.0592H375.84C375.84 95.0592 376.18 94.4925 374.698 92.2182C373.215 89.9439 371.165 91.5382 370.257 91.5382C369.35 91.5382 369.115 90.5182 369.115 90.5106L369.123 90.5031Z" stroke="#263238" stroke-miterlimit="10"/>
<path d="M215.764 98.4819C212.163 84.9571 193.494 74.8777 177.231 76.8044C173.177 77.288 169.228 78.5498 166.187 80.8921C162.035 84.0881 163.018 87.7074 160.96 91.6666C160.393 92.7622 159.274 93.7368 157.859 93.9409C153.812 94.5226 150.552 91.1528 146.46 91.1226C143.396 91.1074 139.478 92.5204 137.776 94.7267C136.187 96.7818 137.292 100.378 134.432 101.738C131.233 103.265 127.337 100.363 123.873 101.413C119.569 102.721 121.528 105.335 119.962 106.967C118.396 108.599 115.272 107.949 110.968 107.617C106.664 107.292 103.146 111.538 103.146 111.538H238.842C238.842 111.538 240.015 109.906 234.932 103.37C229.848 96.8347 222.806 101.413 219.682 101.413C216.558 101.413 215.771 98.4743 215.771 98.4743L215.764 98.4819Z" stroke="#263238" stroke-miterlimit="10"/>
<path d="M205.165 190.753H170.732V199.971H205.165V190.753Z" fill="white" stroke="#263238" stroke-miterlimit="10"/>
<path d="M205.166 190.753H181.535V199.971H205.166V190.753Z" fill="white" stroke="#263238" stroke-miterlimit="10"/>
<path d="M205.165 181.761H170.732V190.979H205.165V181.761Z" fill="white" stroke="#263238" stroke-miterlimit="10"/>
<path d="M205.166 181.761H181.535V190.979H205.166V181.761Z" fill="white" stroke="#263238" stroke-miterlimit="10"/>
<path d="M205.165 172.77H170.732V181.988H205.165V172.77Z" fill="white" stroke="#263238" stroke-miterlimit="10"/>
<path d="M205.166 172.77H181.535V181.988H205.166V172.77Z" fill="white" stroke="#263238" stroke-miterlimit="10"/>
<path d="M217.993 190.753H183.561V199.971H217.993V190.753Z" fill="white" stroke="#263238" stroke-miterlimit="10"/>
<path d="M217.994 190.753H194.363V199.971H217.994V190.753Z" fill="white" stroke="#263238" stroke-miterlimit="10"/>
<path d="M217.993 181.761H183.561V190.979H217.993V181.761Z" fill="white" stroke="#263238" stroke-miterlimit="10"/>
<path d="M217.994 181.761H194.363V190.979H217.994V181.761Z" fill="white" stroke="#263238" stroke-miterlimit="10"/>
<path d="M217.993 172.77H183.561V181.988H217.993V172.77Z" fill="white" stroke="#263238" stroke-miterlimit="10"/>
<path d="M217.994 172.77H194.363V181.988H217.994V172.77Z" fill="white" stroke="#263238" stroke-miterlimit="10"/>
<path d="M230.823 190.753H196.391V199.971H230.823V190.753Z" fill="#8C8C8C" stroke="#263238" stroke-miterlimit="10"/>
<path d="M230.816 190.753H207.186V199.971H230.816V190.753Z" fill="#8C8C8C" stroke="#263238" stroke-miterlimit="10"/>
<path d="M230.823 181.761H196.391V190.979H230.823V181.761Z" fill="white" stroke="#263238" stroke-miterlimit="10"/>
<path d="M230.816 181.761H207.186V190.979H230.816V181.761Z" fill="white" stroke="#263238" stroke-miterlimit="10"/>
<path d="M230.823 172.77H196.391V181.988H230.823V172.77Z" fill="#75A9C8" stroke="#263238" stroke-miterlimit="10"/>
<path d="M230.816 172.77H207.186V181.988H230.816V172.77Z" fill="#75A9C8" stroke="#263238" stroke-miterlimit="10"/>
<path d="M184.682 141.52H183.381V156.888H184.682V141.52Z" fill="white" stroke="#263238" stroke-miterlimit="10"/>
<path d="M185.838 152.12H182.223V158.913H185.838V152.12Z" fill="white" stroke="#263238" stroke-miterlimit="10"/>
<path d="M159.977 166.302L170.196 167.708V162.162H159.977V166.302Z" fill="white" stroke="#263238" stroke-miterlimit="10"/>
<path d="M200.324 158.188H170.195V162.162H200.324V158.188Z" fill="white" stroke="#263238" stroke-miterlimit="10"/>
<path d="M200.317 158.188H193.721V162.162H200.317V158.188Z" fill="white" stroke="#263238" stroke-miterlimit="10"/>
<path d="M198.35 162.162H167.109V201.535H198.35V162.162Z" fill="white" stroke="#263238" stroke-miterlimit="10"/>
<path d="M202.987 162.162H195.135V201.535H202.987V162.162Z" fill="white" stroke="#263238" stroke-miterlimit="10"/>
<path d="M208.569 166.302L198.35 167.708V162.162H208.569V166.302Z" fill="white" stroke="#263238" stroke-miterlimit="10"/>
<path d="M211.102 162.162H208.568V166.461H211.102V162.162Z" fill="white" stroke="#263238" stroke-miterlimit="10"/>
<path d="M211.103 166.461L203.629 167.859H198.35L208.569 166.461H211.103Z" fill="white" stroke="#263238" stroke-miterlimit="10"/>
<path d="M170.196 165.131H168.615V167.708H170.196V165.131Z" fill="#263238"/>
<path d="M172.821 165.131H171.24V167.708H172.821V165.131Z" fill="#263238"/>
<path d="M179.53 165.131H177.949V167.708H179.53V165.131Z" fill="#263238"/>
<path d="M182.147 165.131H180.566V167.708H182.147V165.131Z" fill="#263238"/>
<path d="M188.856 165.131H187.275V167.708H188.856V165.131Z" fill="#263238"/>
<path d="M191.474 165.131H189.893V167.708H191.474V165.131Z" fill="#263238"/>
<path d="M170.196 173.087H168.615V175.664H170.196V173.087Z" fill="#263238"/>
<path d="M172.821 173.087H171.24V175.664H172.821V173.087Z" fill="#263238"/>
<path d="M179.53 173.087H177.949V175.664H179.53V173.087Z" fill="#263238"/>
<path d="M182.147 173.087H180.566V175.664H182.147V173.087Z" fill="#263238"/>
<path d="M188.856 173.087H187.275V175.664H188.856V173.087Z" fill="#263238"/>
<path d="M191.474 173.087H189.893V175.664H191.474V173.087Z" fill="#263238"/>
<path d="M170.196 181.036H168.615V183.613H170.196V181.036Z" fill="#263238"/>
<path d="M172.821 181.036H171.24V183.613H172.821V181.036Z" fill="#263238"/>
<path d="M179.53 181.036H177.949V183.613H179.53V181.036Z" fill="#263238"/>
<path d="M182.147 181.036H180.566V183.613H182.147V181.036Z" fill="#263238"/>
<path d="M188.856 181.036H187.275V183.613H188.856V181.036Z" fill="#263238"/>
<path d="M191.474 181.036H189.893V183.613H191.474V181.036Z" fill="#263238"/>
<path d="M170.196 188.992H168.615V191.569H170.196V188.992Z" fill="#263238"/>
<path d="M172.821 188.992H171.24V191.569H172.821V188.992Z" fill="#263238"/>
<path d="M179.53 188.992H177.949V191.569H179.53V188.992Z" fill="#263238"/>
<path d="M182.147 188.992H180.566V191.569H182.147V188.992Z" fill="#263238"/>
<path d="M188.856 188.992H187.275V191.569H188.856V188.992Z" fill="#263238"/>
<path d="M191.474 188.992H189.893V191.569H191.474V188.992Z" fill="#263238"/>
<path d="M174.985 159.638H171.656V161.807H174.985V159.638Z" fill="#263238"/>
<path d="M179.258 159.638H175.93V161.807H179.258V159.638Z" fill="#263238"/>
<path d="M183.524 159.638H180.195V161.807H183.524V159.638Z" fill="#263238"/>
<path d="M187.799 159.638H184.471V161.807H187.799V159.638Z" fill="#263238"/>
<path d="M192.065 159.638H188.736V161.807H192.065V159.638Z" fill="#263238"/>
<path d="M153.116 190.753H118.684V199.971H153.116V190.753Z" fill="white" stroke="#263238" stroke-miterlimit="10"/>
<path d="M153.117 190.753H129.486V199.971H153.117V190.753Z" fill="white" stroke="#263238" stroke-miterlimit="10"/>
<path d="M153.116 181.761H118.684V190.979H153.116V181.761Z" fill="white" stroke="#263238" stroke-miterlimit="10"/>
<path d="M153.117 181.761H129.486V190.979H153.117V181.761Z" fill="white" stroke="#263238" stroke-miterlimit="10"/>
<path d="M153.116 172.77H118.684V181.988H153.116V172.77Z" fill="white" stroke="#263238" stroke-miterlimit="10"/>
<path d="M153.117 172.77H129.486V181.988H153.117V172.77Z" fill="white" stroke="#263238" stroke-miterlimit="10"/>
<path d="M165.944 190.753H131.512V199.971H165.944V190.753Z" fill="white" stroke="#263238" stroke-miterlimit="10"/>
<path d="M165.945 190.753H142.314V199.971H165.945V190.753Z" fill="#8C8C8C" stroke="#263238" stroke-miterlimit="10"/>
<path d="M165.944 181.761H131.512V190.979H165.944V181.761Z" fill="white" stroke="#263238" stroke-miterlimit="10"/>
<path d="M165.945 181.761H142.314V190.979H165.945V181.761Z" fill="white" stroke="#263238" stroke-miterlimit="10"/>
<path d="M165.944 172.77H131.512V181.988H165.944V172.77Z" fill="white" stroke="#263238" stroke-miterlimit="10"/>
<path d="M165.945 172.77H142.314V181.988H165.945V172.77Z" fill="#8C8C8C" stroke="#263238" stroke-miterlimit="10"/>
<path d="M178.774 190.753H144.342V199.971H178.774V190.753Z" fill="white" stroke="#263238" stroke-miterlimit="10"/>
<path d="M178.768 190.753H155.137V199.971H178.768V190.753Z" fill="white" stroke="#263238" stroke-miterlimit="10"/>
<path d="M178.774 181.761H144.342V190.979H178.774V181.761Z" fill="#C2C2C2" stroke="#263238" stroke-miterlimit="10"/>
<path d="M178.768 181.761H155.137V190.979H178.768V181.761Z" fill="#C2C2C2" stroke="#263238" stroke-miterlimit="10"/>
<path d="M178.774 172.77H144.342V181.988H178.774V172.77Z" fill="#8C8C8C" stroke="#263238" stroke-miterlimit="10"/>
<path d="M178.768 172.77H155.137V181.988H178.768V172.77Z" fill="#8C8C8C" stroke="#263238" stroke-miterlimit="10"/>
<path d="M82.4424 190.753H48.0098V199.971H82.4424V190.753Z" fill="white" stroke="#263238" stroke-miterlimit="10"/>
<path d="M82.4434 190.753H58.8125V199.971H82.4434V190.753Z" fill="white" stroke="#263238" stroke-miterlimit="10"/>
<path d="M82.4424 181.762H48.0098V190.98H82.4424V181.762Z" fill="white" stroke="#263238" stroke-miterlimit="10"/>
<path d="M82.4434 181.762H58.8125V190.98H82.4434V181.762Z" fill="white" stroke="#263238" stroke-miterlimit="10"/>
<path d="M82.4424 172.77H48.0098V181.988H82.4424V172.77Z" fill="#75A9C8" stroke="#263238" stroke-miterlimit="10"/>
<path d="M82.4434 172.77H58.8125V181.988H82.4434V172.77Z" fill="#75A9C8" stroke="#263238" stroke-miterlimit="10"/>
<path d="M112.237 190.753H77.8047V199.971H112.237V190.753Z" fill="white" stroke="#263238" stroke-miterlimit="10"/>
<path d="M112.238 190.753H88.6074V199.971H112.238V190.753Z" fill="white" stroke="#263238" stroke-miterlimit="10"/>
<path d="M112.237 181.761H77.8047V190.979H112.237V181.761Z" fill="white" stroke="#263238" stroke-miterlimit="10"/>
<path d="M112.238 181.761H88.6074V190.979H112.238V181.761Z" fill="white" stroke="#263238" stroke-miterlimit="10"/>
<path d="M112.237 172.77H77.8047V181.988H112.237V172.77Z" fill="white" stroke="#263238" stroke-miterlimit="10"/>
<path d="M112.238 172.77H88.6074V181.988H112.238V172.77Z" fill="white" stroke="#263238" stroke-miterlimit="10"/>
<path d="M125.065 190.753H90.6328V199.971H125.065V190.753Z" fill="white" stroke="#263238" stroke-miterlimit="10"/>
<path d="M125.059 190.753H101.428V199.971H125.059V190.753Z" fill="white" stroke="#263238" stroke-miterlimit="10"/>
<path d="M125.065 181.761H90.6328V190.979H125.065V181.761Z" fill="white" stroke="#263238" stroke-miterlimit="10"/>
<path d="M125.059 181.761H101.428V190.979H125.059V181.761Z" fill="white" stroke="#263238" stroke-miterlimit="10"/>
<path d="M125.065 172.77H90.6328V181.988H125.065V172.77Z" fill="white" stroke="#263238" stroke-miterlimit="10"/>
<path d="M125.059 172.77H101.428V181.988H125.059V172.77Z" fill="white" stroke="#263238" stroke-miterlimit="10"/>
<path d="M137.896 190.753H103.463V199.971H137.896V190.753Z" fill="#75A9C8" stroke="#263238" stroke-miterlimit="10"/>
<path d="M137.889 190.753H114.258V199.971H137.889V190.753Z" fill="#75A9C8" stroke="#263238" stroke-miterlimit="10"/>
<path d="M137.896 181.761H103.463V190.979H137.896V181.761Z" fill="white" stroke="#263238" stroke-miterlimit="10"/>
<path d="M137.889 181.761H114.258V190.979H137.889V181.761Z" fill="white" stroke="#263238" stroke-miterlimit="10"/>
<path d="M137.896 172.77H103.463V181.988H137.896V172.77Z" fill="#75A9C8" stroke="#263238" stroke-miterlimit="10"/>
<path d="M137.889 172.77H114.258V181.988H137.889V172.77Z" fill="#75A9C8" stroke="#263238" stroke-miterlimit="10"/>
<path d="M95.2706 190.753H60.8379V199.971H95.2706V190.753Z" fill="white" stroke="#263238" stroke-miterlimit="10"/>
<path d="M95.2715 190.753H71.6406V199.971H95.2715V190.753Z" fill="white" stroke="#263238" stroke-miterlimit="10"/>
<path d="M95.2706 181.762H60.8379V190.98H95.2706V181.762Z" fill="white" stroke="#263238" stroke-miterlimit="10"/>
<path d="M95.2715 181.762H71.6406V190.98H95.2715V181.762Z" fill="white" stroke="#263238" stroke-miterlimit="10"/>
<path d="M95.2706 172.77H60.8379V181.988H95.2706V172.77Z" fill="#75A9C8" stroke="#263238" stroke-miterlimit="10"/>
<path d="M95.2715 172.77H71.6406V181.988H95.2715V172.77Z" fill="#75A9C8" stroke="#263238" stroke-miterlimit="10"/>
<path d="M108.101 190.753H73.668V199.971H108.101V190.753Z" fill="white" stroke="#263238" stroke-miterlimit="10"/>
<path d="M108.102 190.753H84.4707V199.971H108.102V190.753Z" fill="white" stroke="#263238" stroke-miterlimit="10"/>
<path d="M108.101 181.762H73.668V190.98H108.101V181.762Z" fill="white" stroke="#263238" stroke-miterlimit="10"/>
<path d="M108.102 181.762H84.4707V190.98H108.102V181.762Z" fill="#C2C2C2" stroke="#263238" stroke-miterlimit="10"/>
<path d="M108.101 172.77H73.668V181.988H108.101V172.77Z" fill="white" stroke="#263238" stroke-miterlimit="10"/>
<path d="M108.102 172.77H84.4707V181.988H108.102V172.77Z" fill="white" stroke="#263238" stroke-miterlimit="10"/>
<path d="M90.998 193.004V183.114C90.998 183.114 92.1251 182.441 92.7983 184.466C93.4716 186.491 96.2855 195.369 96.2855 195.369L90.998 193.012V193.004Z" fill="white" stroke="#263238" stroke-miterlimit="10"/>
<path d="M90.9982 183.122H45.7637V192.324H90.9982V183.122Z" fill="white" stroke="#263238" stroke-miterlimit="10"/>
<path d="M235.324 198.936H103.433L96.1715 192.287H40.5059L55.937 215.249C55.937 215.249 57.1473 218.875 53.5164 219.782C52.2003 220.107 50.8916 220.356 49.7494 220.545C47.7449 220.87 46.2623 222.585 46.2623 224.618H211.852C211.852 224.618 231.996 222.2 235.324 198.936Z" fill="#263238" stroke="#263238" stroke-miterlimit="10"/>
<path d="M55.4072 218.717C55.0063 219.178 54.4163 219.563 53.5237 219.782C52.2075 220.107 50.8989 220.356 49.7567 220.545C47.7521 220.87 46.2695 222.585 46.2695 224.618H211.86C211.86 224.618 218.516 223.809 224.802 218.717H55.4072Z" fill="white" stroke="#263238" stroke-miterlimit="10"/>
<path d="M341.437 111.546H336.361V216.911H341.437V111.546Z" fill="#263238" stroke="#263238" stroke-miterlimit="10"/>
<path d="M357.261 186.869H318.123V192.657H357.261V186.869Z" fill="#263238" stroke="#263238" stroke-miterlimit="10"/>
<path d="M307.261 111.546H302.186V216.911H307.261V111.546Z" fill="#263238" stroke="#263238" stroke-miterlimit="10"/>
<path d="M330.621 111.546H325.545V216.911H330.621V111.546Z" fill="#263238" stroke="#263238" stroke-miterlimit="10"/>
<path d="M417.927 216.88H207.609V224.617H417.927V216.88Z" fill="#263238" stroke="#263238" stroke-miterlimit="10"/>
<path d="M265.953 99.6079H241.309V108.66H265.953V99.6079Z" fill="white" stroke="#263238" stroke-miterlimit="10"/>
<path d="M265.946 99.6079H255.076V108.66H265.946V99.6079Z" fill="white" stroke="#263238" stroke-miterlimit="10"/>
<path d="M303.275 99.6079H278.631V108.66H303.275V99.6079Z" fill="white" stroke="#263238" stroke-miterlimit="10"/>
<path d="M303.268 99.6079H292.398V108.66H303.268V99.6079Z" fill="white" stroke="#263238" stroke-miterlimit="10"/>
<path d="M324.651 186.869H285.514V192.657H324.651V186.869Z" fill="#75A9C8" stroke="#263238" stroke-miterlimit="10"/>
<path d="M287.693 111.546H282.617V216.911H287.693V111.546Z" fill="#75A9C8" stroke="#263238" stroke-miterlimit="10"/>
<path d="M310.521 111.546H305.445V216.911H310.521V111.546Z" fill="#75A9C8" stroke="#263238" stroke-miterlimit="10"/>
<path d="M326.83 111.546H321.754V216.911H326.83V111.546Z" fill="#75A9C8" stroke="#263238" stroke-miterlimit="10"/>
<path d="M343.857 111.546H338.781V216.911H343.857V111.546Z" fill="#75A9C8" stroke="#263238" stroke-miterlimit="10"/>
<path d="M360.166 111.546H355.09V216.911H360.166V111.546Z" fill="#263238" stroke="#263238" stroke-miterlimit="10"/>
<path d="M313.472 63.9746H310.061V110.359H313.472V63.9746Z" fill="#75A9C8" stroke="#263238" stroke-miterlimit="10"/>
<path d="M218.479 109.377L312.147 64.1333L298.199 111.546" stroke="#263238" stroke-width="2" stroke-miterlimit="10"/>
<path d="M422.851 108.652H228.26V111.546H422.851V108.652Z" fill="#75A9C8" stroke="#263238" stroke-miterlimit="10"/>
<path d="M422.852 108.652H414.879V111.546H422.852V108.652Z" fill="#263238" stroke="#263238" stroke-miterlimit="10"/>
<path d="M398.934 109.377L312.148 64.1333L319.213 111.546" stroke="#263238" stroke-width="2" stroke-miterlimit="10"/>
<path d="M409.084 108.652H214.492V111.546H409.084V108.652Z" fill="#75A9C8" stroke="#263238" stroke-miterlimit="10"/>
<path d="M409.084 108.652H401.111V111.546H409.084V108.652Z" fill="#263238" stroke="#263238" stroke-miterlimit="10"/>
<path d="M319.031 60.877H305.264V67.0273H319.031V60.877Z" fill="#75A9C8" stroke="#263238" stroke-miterlimit="10"/>
<path d="M325.196 59.0635H298.381V60.8769H325.196V59.0635Z" fill="#75A9C8" stroke="#263238" stroke-miterlimit="10"/>
<path d="M280.007 207.481H245.574V216.699H280.007V207.481Z" fill="white" stroke="#263238" stroke-miterlimit="10"/>
<path d="M280.008 207.481H256.377V216.699H280.008V207.481Z" fill="white" stroke="#263238" stroke-miterlimit="10"/>
<path d="M280.007 198.49H245.574V207.708H280.007V198.49Z" fill="#C2C2C2" stroke="#263238" stroke-miterlimit="10"/>
<path d="M280.008 198.49H256.377V207.708H280.008V198.49Z" fill="#C2C2C2" stroke="#263238" stroke-miterlimit="10"/>
<path d="M280.007 189.499H245.574V198.717H280.007V189.499Z" fill="white" stroke="#263238" stroke-miterlimit="10"/>
<path d="M280.008 189.499H256.377V198.717H280.008V189.499Z" fill="white" stroke="#263238" stroke-miterlimit="10"/>
<path d="M292.835 207.481H258.402V216.699H292.835V207.481Z" fill="#75A9C8" stroke="#263238" stroke-miterlimit="10"/>
<path d="M292.836 207.481H269.205V216.699H292.836V207.481Z" fill="#75A9C8" stroke="#263238" stroke-miterlimit="10"/>
<path d="M292.835 198.49H258.402V207.708H292.835V198.49Z" fill="white" stroke="#263238" stroke-miterlimit="10"/>
<path d="M292.836 198.49H269.205V207.708H292.836V198.49Z" fill="white" stroke="#263238" stroke-miterlimit="10"/>
<path d="M292.835 189.499H258.402V198.717H292.835V189.499Z" fill="#8C8C8C" stroke="#263238" stroke-miterlimit="10"/>
<path d="M292.836 189.499H269.205V198.717H292.836V189.499Z" fill="#8C8C8C" stroke="#263238" stroke-miterlimit="10"/>
<path d="M305.665 207.481H271.232V216.699H305.665V207.481Z" fill="#C2C2C2" stroke="#263238" stroke-miterlimit="10"/>
<path d="M305.666 207.481H282.035V216.699H305.666V207.481Z" fill="#C2C2C2" stroke="#263238" stroke-miterlimit="10"/>
<path d="M305.665 198.49H271.232V207.708H305.665V198.49Z" fill="#75A9C8" stroke="#263238" stroke-miterlimit="10"/>
<path d="M305.666 198.49H282.035V207.708H305.666V198.49Z" fill="#75A9C8" stroke="#263238" stroke-miterlimit="10"/>
<path d="M305.665 189.499H271.232V198.717H305.665V189.499Z" fill="white" stroke="#263238" stroke-miterlimit="10"/>
<path d="M305.666 189.499H282.035V198.717H305.666V189.499Z" fill="white" stroke="#263238" stroke-miterlimit="10"/>
<path d="M246.377 111.546H225.363V115.528H246.377V111.546Z" fill="#75A9C8" stroke="#263238" stroke-miterlimit="10"/>
<path d="M270.295 111.546H249.281V115.528H270.295V111.546Z" fill="#75A9C8" stroke="#263238" stroke-miterlimit="10"/>
<path d="M394.221 111.546H373.207V115.528H394.221V111.546Z" fill="#75A9C8" stroke="#263238" stroke-miterlimit="10"/>
<path d="M418.139 111.546H397.125V115.528H418.139V111.546Z" fill="#75A9C8" stroke="#263238" stroke-miterlimit="10"/>
<path d="M292.828 230.315H304.5" stroke="#263238" stroke-width="0.9" stroke-miterlimit="10"/>
<path d="M312.625 230.949H350.689" stroke="#263238" stroke-width="0.9" stroke-miterlimit="10"/>
<path d="M4.03125 224.618H437.481" stroke="#263238" stroke-width="0.9" stroke-miterlimit="10"/>
<path d="M36.5195 236.012H66.459" stroke="#263238" stroke-width="0.9" stroke-miterlimit="10"/>
<path d="M86.2559 230.949H164.925" stroke="#263238" stroke-width="0.9" stroke-miterlimit="10"/>
<path d="M126.354 236.012H148.177" stroke="#263238" stroke-width="0.9" stroke-miterlimit="10"/>
<path d="M80.6719 237.273H91.33" stroke="#263238" stroke-width="0.9" stroke-miterlimit="10"/>
<path d="M196.391 229.68H221.262" stroke="#263238" stroke-width="0.9" stroke-miterlimit="10"/>
<path d="M179.137 236.639H214.666" stroke="#263238" stroke-width="0.9" stroke-miterlimit="10"/>
<path d="M241.059 233.48H273.033" stroke="#263238" stroke-width="0.9" stroke-miterlimit="10"/>
<path d="M275.068 240.439H306.536" stroke="#263238" stroke-width="0.9" stroke-miterlimit="10"/>
<path d="M210.605 248.033H241.059" stroke="#263238" stroke-width="0.9" stroke-miterlimit="10"/>
<path d="M332.42 239.17H347.647" stroke="#263238" stroke-width="0.9" stroke-miterlimit="10"/>
<path d="M359.826 233.48H390.787" stroke="#263238" stroke-width="0.9" stroke-miterlimit="10"/>
<path d="M359.318 245.502H384.697" stroke="#263238" stroke-width="0.9" stroke-miterlimit="10"/>
<path d="M389.773 240.439H401.445" stroke="#263238" stroke-width="0.9" stroke-miterlimit="10"/>
<path d="M407.027 235.377H425.295" stroke="#263238" stroke-width="0.9" stroke-miterlimit="10"/>
<path d="M98.9473 243.605H112.139" stroke="#263238" stroke-width="0.9" stroke-miterlimit="10"/>
<path d="M29.4086 236.012H22.8125" stroke="#263238" stroke-width="0.9" stroke-miterlimit="10"/>
<path d="M64.4322 248.667H30.9375" stroke="#263238" stroke-width="0.9" stroke-miterlimit="10"/>
</g>
<defs>
<clipPath id="clip0_209_4951">
<rect width="440" height="249" fill="white"/>
</clipPath>
</defs>
</svg>
