<svg width="436" height="279" viewBox="0 0 436 279" fill="none" xmlns="http://www.w3.org/2000/svg">
<g clip-path="url(#clip0_210_5403)">
<path d="M433.345 118.236C431.724 93.5583 416.737 70.0177 394.718 52.0781C381.836 41.5807 366.489 32.4747 349.869 25.4824C332.623 18.2237 313.863 10.0887 293.405 9.21832C288.354 9.00517 283.203 9.27161 278.282 10.4084C259.439 14.7719 297.711 28.0461 302.726 30.0058C249.408 15.4469 194.233 0.680706 136.793 3.41606C125.715 3.943 114.259 5.23371 104.708 9.73342C95.1501 14.2331 87.976 22.6701 89.7976 30.8406C91.2999 37.5961 98.2138 45.0266 92.2876 50.4617C90.5961 52.013 88.1357 52.9662 85.7227 53.7951C73.3203 58.058 59.8355 60.444 48.1429 65.7726C30.039 74.0319 18.098 88.7448 12.9407 104.073C7.78335 119.396 8.78288 135.364 11.7696 150.77C17.3883 179.775 30.4176 208.384 55.1632 230.504C90.5133 262.096 146.83 277.366 202.62 278.881C270.126 280.717 342.382 261.948 385.137 221.196C391.477 215.151 397.243 208.485 399.313 201.03C401.383 193.576 399.1 185.181 391.489 180.48C389.436 179.213 386.81 177.881 386.935 175.838C387.106 173.079 391.802 172.049 395.392 171.392C418.931 167.093 431.588 146.75 433.226 128.668C433.54 125.181 433.575 121.699 433.35 118.242L433.345 118.236Z" fill="#75A9C8"/>
<path opacity="0.7" d="M433.345 118.236C431.724 93.5583 416.737 70.0177 394.718 52.0781C381.836 41.5807 366.489 32.4747 349.869 25.4824C332.623 18.2237 313.863 10.0887 293.405 9.21832C288.354 9.00517 283.203 9.27161 278.282 10.4084C259.439 14.7719 297.711 28.0461 302.726 30.0058C249.408 15.4469 194.233 0.680706 136.793 3.41606C125.715 3.943 114.259 5.23371 104.708 9.73342C95.1501 14.2331 87.976 22.6701 89.7976 30.8406C91.2999 37.5961 98.2138 45.0266 92.2876 50.4617C90.5961 52.013 88.1357 52.9662 85.7227 53.7951C73.3203 58.058 59.8355 60.444 48.1429 65.7726C30.039 74.0319 18.098 88.7448 12.9407 104.073C7.78335 119.396 8.78288 135.364 11.7696 150.77C17.3883 179.775 30.4176 208.384 55.1632 230.504C90.5133 262.096 146.83 277.366 202.62 278.881C270.126 280.717 342.382 261.948 385.137 221.196C391.477 215.151 397.243 208.485 399.313 201.03C401.383 193.576 399.1 185.181 391.489 180.48C389.436 179.213 386.81 177.881 386.935 175.838C387.106 173.079 391.802 172.049 395.392 171.392C418.931 167.093 431.588 146.75 433.226 128.668C433.54 125.181 433.575 121.699 433.35 118.242L433.345 118.236Z" fill="white"/>
<path opacity="0.3" d="M405.755 11.9005C405.755 11.9005 401.148 -0.78159 389.627 0.367021C378.105 1.52155 380.412 11.9005 373.498 13.6293C366.584 15.3582 364.284 8.44282 357.37 10.746C350.456 13.055 351.609 17.6672 348.729 19.3961C345.849 21.1249 344.695 15.3582 337.787 18.8218C330.873 22.2794 329.146 25.743 329.146 25.743H428.206C428.206 25.743 425.899 17.6732 420.718 14.7898C415.537 11.9064 410.351 14.2155 405.743 11.9064L405.755 11.9005Z" stroke="black" stroke-miterlimit="10"/>
<path opacity="0.3" d="M292.784 14.6775C291.755 13.002 290.779 11.2198 288.898 9.86993C285.149 7.18194 280.606 4.9084 275.863 5.34061C266.714 6.17542 267.548 12.0014 263.804 14.0854C260.06 16.1695 258.812 12.8362 255.068 13.671C251.324 14.5058 250.496 16.1695 248.829 17.0043C247.167 17.8392 244.671 12.0073 238.431 13.671C232.192 15.3347 228.868 22.8303 225.958 23.2447C223.048 23.6592 221.8 20.7462 218.89 21.9955C215.98 23.2447 213.898 25.7433 213.898 25.7433H320.363C320.363 25.7433 317.039 15.7551 310.805 15.3347C306.02 15.0091 299.893 21.4804 295.375 17.8747C294.263 16.9925 293.517 15.8616 292.79 14.6775H292.784Z" stroke="black" stroke-miterlimit="10"/>
<path opacity="0.3" d="M76.1597 19.1178C75.5446 18.1172 74.9591 17.0456 73.8353 16.2404C71.5879 14.63 68.8732 13.2682 66.0284 13.5287C60.5517 14.026 61.0485 17.5133 58.807 18.7626C56.5654 20.0118 55.8202 18.0166 53.5787 18.5139C51.3372 19.0113 50.8403 20.0118 49.8467 20.5092C48.8531 21.0065 47.3568 17.5192 43.6248 18.5139C39.8929 19.5086 37.8998 23.9965 36.155 24.2451C34.4103 24.4938 33.6651 22.7472 31.9203 23.4991C30.1756 24.251 28.9336 25.7431 28.9336 25.7431H92.6607C92.6607 25.7431 90.6676 19.7632 86.9415 19.5145C84.079 19.3191 80.4062 23.1912 77.7033 21.0361C77.0409 20.5092 76.5914 19.8283 76.1538 19.1237L76.1597 19.1178Z" stroke="black" stroke-miterlimit="10"/>
<g opacity="0.31">
<path d="M27.6914 55.8261V113.671H35.3919V185.53H44.2693V78.2596H60.8473V34.7959H87.4914V114.838H97.5517V82.9961H120.05V90.0062H139.289V184.654H146.99V167.419H168.003V184.364H178.07V63.452H212.113V179.106H221.877" stroke="black" stroke-miterlimit="10"/>
<path d="M22.5634 55.8264H27.6911V52.0312H22.0488" stroke="black" stroke-miterlimit="10"/>
<path d="M60.8464 78.2598H44.168V80.184H60.8464V78.2598Z" stroke="black" stroke-miterlimit="10"/>
<path d="M87.4906 34.7959H60.7695V36.6668H87.4906V34.7959Z" stroke="black" stroke-miterlimit="10"/>
<path d="M103.565 79.0234H99.6738V82.9903H103.565V79.0234Z" stroke="black" stroke-miterlimit="10"/>
<path d="M113.68 80.6875H111.734V82.9906H113.68V80.6875Z" stroke="black" stroke-miterlimit="10"/>
<path d="M139.353 90.0059H120.049V92.3327H139.353V90.0059Z" stroke="black" stroke-miterlimit="10"/>
<path d="M212.105 61.7168H178.068V63.4516H212.105V61.7168Z" stroke="black" stroke-miterlimit="10"/>
<path d="M200.301 58.2598H186.816V61.7174H200.301V58.2598Z" stroke="black" stroke-miterlimit="10"/>
<path d="M197.451 58.3896V55.1865H207.31V61.5868" stroke="black" stroke-miterlimit="10"/>
<path d="M132.494 89.0532V63.1917H163.692V84.6186H174.421V48.165H214.455V92.2504H217.01" stroke="black" stroke-miterlimit="10"/>
<path d="M110.031 76.2411V47.6738H88.8164" stroke="black" stroke-miterlimit="10"/>
<path d="M43.1452 83.3872H36.1603V63.4346H29.418" stroke="black" stroke-miterlimit="10"/>
<path d="M65.5425 40.2842H62.8633V45.4588H65.5425V40.2842Z" stroke="black" stroke-miterlimit="10"/>
<path d="M70.3628 40.2842H67.6836V45.4588H70.3628V40.2842Z" stroke="black" stroke-miterlimit="10"/>
<path d="M75.1831 40.2842H72.5039V45.4588H75.1831V40.2842Z" stroke="black" stroke-miterlimit="10"/>
<path d="M80.0034 40.2842H77.3242V45.4588H80.0034V40.2842Z" stroke="black" stroke-miterlimit="10"/>
<path d="M84.8237 40.2842H82.1445V45.4588H84.8237V40.2842Z" stroke="black" stroke-miterlimit="10"/>
<path d="M65.5425 49.0293H62.8633V54.204H65.5425V49.0293Z" stroke="black" stroke-miterlimit="10"/>
<path d="M70.3628 49.0293H67.6836V54.204H70.3628V49.0293Z" stroke="black" stroke-miterlimit="10"/>
<path d="M75.1831 49.0293H72.5039V54.204H75.1831V49.0293Z" stroke="black" stroke-miterlimit="10"/>
<path d="M80.0034 49.0293H77.3242V54.204H80.0034V49.0293Z" stroke="black" stroke-miterlimit="10"/>
<path d="M84.8237 49.0293H82.1445V54.204H84.8237V49.0293Z" stroke="black" stroke-miterlimit="10"/>
<path d="M65.5425 57.7744H62.8633V62.9491H65.5425V57.7744Z" stroke="black" stroke-miterlimit="10"/>
<path d="M70.3628 57.7744H67.6836V62.9491H70.3628V57.7744Z" stroke="black" stroke-miterlimit="10"/>
<path d="M75.1831 57.7744H72.5039V62.9491H75.1831V57.7744Z" stroke="black" stroke-miterlimit="10"/>
<path d="M80.0034 57.7744H77.3242V62.9491H80.0034V57.7744Z" stroke="black" stroke-miterlimit="10"/>
<path d="M84.8237 57.7744H82.1445V62.9491H84.8237V57.7744Z" stroke="black" stroke-miterlimit="10"/>
<path d="M65.5425 66.5127H62.8633V71.6874H65.5425V66.5127Z" stroke="black" stroke-miterlimit="10"/>
<path d="M70.3628 66.5127H67.6836V71.6874H70.3628V66.5127Z" stroke="black" stroke-miterlimit="10"/>
<path d="M75.1831 66.5127H72.5039V71.6874H75.1831V66.5127Z" stroke="black" stroke-miterlimit="10"/>
<path d="M80.0034 66.5127H77.3242V71.6874H80.0034V66.5127Z" stroke="black" stroke-miterlimit="10"/>
<path d="M84.8237 66.5127H82.1445V71.6874H84.8237V66.5127Z" stroke="black" stroke-miterlimit="10"/>
<path d="M65.5425 75.2578H62.8633V80.4325H65.5425V75.2578Z" stroke="black" stroke-miterlimit="10"/>
<path d="M70.3628 75.2578H67.6836V80.4325H70.3628V75.2578Z" stroke="black" stroke-miterlimit="10"/>
<path d="M75.1831 75.2578H72.5039V80.4325H75.1831V75.2578Z" stroke="black" stroke-miterlimit="10"/>
<path d="M80.0034 75.2578H77.3242V80.4325H80.0034V75.2578Z" stroke="black" stroke-miterlimit="10"/>
<path d="M84.8237 75.2578H82.1445V80.4325H84.8237V75.2578Z" stroke="black" stroke-miterlimit="10"/>
<path d="M65.5425 84.0029H62.8633V89.1776H65.5425V84.0029Z" stroke="black" stroke-miterlimit="10"/>
<path d="M70.3628 84.0029H67.6836V89.1776H70.3628V84.0029Z" stroke="black" stroke-miterlimit="10"/>
<path d="M75.1831 84.0029H72.5039V89.1776H75.1831V84.0029Z" stroke="black" stroke-miterlimit="10"/>
<path d="M80.0034 84.0029H77.3242V89.1776H80.0034V84.0029Z" stroke="black" stroke-miterlimit="10"/>
<path d="M84.8237 84.0029H82.1445V89.1776H84.8237V84.0029Z" stroke="black" stroke-miterlimit="10"/>
<path d="M49.1069 84.0029H46.4277V89.1776H49.1069V84.0029Z" stroke="black" stroke-miterlimit="10"/>
<path d="M53.9272 84.0029H51.248V89.1776H53.9272V84.0029Z" stroke="black" stroke-miterlimit="10"/>
<path d="M58.7476 84.0029H56.0684V89.1776H58.7476V84.0029Z" stroke="black" stroke-miterlimit="10"/>
<path d="M49.1069 92.499H46.4277V97.6737H49.1069V92.499Z" stroke="black" stroke-miterlimit="10"/>
<path d="M53.9272 92.499H51.248V97.6737H53.9272V92.499Z" stroke="black" stroke-miterlimit="10"/>
<path d="M58.7476 92.499H56.0684V97.6737H58.7476V92.499Z" stroke="black" stroke-miterlimit="10"/>
<path d="M49.1069 100.995H46.4277V106.17H49.1069V100.995Z" stroke="black" stroke-miterlimit="10"/>
<path d="M53.9272 100.995H51.248V106.17H53.9272V100.995Z" stroke="black" stroke-miterlimit="10"/>
<path d="M58.7476 100.995H56.0684V106.17H58.7476V100.995Z" stroke="black" stroke-miterlimit="10"/>
<path d="M49.1069 109.491H46.4277V114.666H49.1069V109.491Z" stroke="black" stroke-miterlimit="10"/>
<path d="M53.9272 109.491H51.248V114.666H53.9272V109.491Z" stroke="black" stroke-miterlimit="10"/>
<path d="M58.7476 109.491H56.0684V114.666H58.7476V109.491Z" stroke="black" stroke-miterlimit="10"/>
<path d="M49.1069 117.987H46.4277V123.162H49.1069V117.987Z" stroke="black" stroke-miterlimit="10"/>
<path d="M53.9272 117.987H51.248V123.162H53.9272V117.987Z" stroke="black" stroke-miterlimit="10"/>
<path d="M58.7476 117.987H56.0684V123.162H58.7476V117.987Z" stroke="black" stroke-miterlimit="10"/>
<path d="M49.1069 126.483H46.4277V131.658H49.1069V126.483Z" stroke="black" stroke-miterlimit="10"/>
<path d="M53.9272 126.483H51.248V131.658H53.9272V126.483Z" stroke="black" stroke-miterlimit="10"/>
<path d="M58.7476 126.483H56.0684V131.658H58.7476V126.483Z" stroke="black" stroke-miterlimit="10"/>
<path d="M49.1069 134.986H46.4277V140.161H49.1069V134.986Z" stroke="black" stroke-miterlimit="10"/>
<path d="M53.9272 134.986H51.248V140.161H53.9272V134.986Z" stroke="black" stroke-miterlimit="10"/>
<path d="M58.7476 134.986H56.0684V140.161H58.7476V134.986Z" stroke="black" stroke-miterlimit="10"/>
<path d="M49.1069 143.482H46.4277V148.657H49.1069V143.482Z" stroke="black" stroke-miterlimit="10"/>
<path d="M53.9272 143.482H51.248V148.657H53.9272V143.482Z" stroke="black" stroke-miterlimit="10"/>
<path d="M58.7476 143.482H56.0684V148.657H58.7476V143.482Z" stroke="black" stroke-miterlimit="10"/>
<path d="M49.1069 151.979H46.4277V157.153H49.1069V151.979Z" stroke="black" stroke-miterlimit="10"/>
<path d="M53.9272 151.979H51.248V157.153H53.9272V151.979Z" stroke="black" stroke-miterlimit="10"/>
<path d="M58.7476 151.979H56.0684V157.153H58.7476V151.979Z" stroke="black" stroke-miterlimit="10"/>
<path d="M49.1069 160.475H46.4277V165.649H49.1069V160.475Z" stroke="black" stroke-miterlimit="10"/>
<path d="M53.9272 160.475H51.248V165.649H53.9272V160.475Z" stroke="black" stroke-miterlimit="10"/>
<path d="M58.7476 160.475H56.0684V165.649H58.7476V160.475Z" stroke="black" stroke-miterlimit="10"/>
<path d="M49.1069 168.971H46.4277V174.145H49.1069V168.971Z" stroke="black" stroke-miterlimit="10"/>
<path d="M53.9272 168.971H51.248V174.145H53.9272V168.971Z" stroke="black" stroke-miterlimit="10"/>
<path d="M58.7476 168.971H56.0684V174.145H58.7476V168.971Z" stroke="black" stroke-miterlimit="10"/>
<path d="M92.0933 118.976H89.4141V124.15H92.0933V118.976Z" stroke="black" stroke-miterlimit="10"/>
<path d="M96.9136 118.976H94.2344V124.15H96.9136V118.976Z" stroke="black" stroke-miterlimit="10"/>
<path d="M92.0933 127.472H89.4141V132.646H92.0933V127.472Z" stroke="black" stroke-miterlimit="10"/>
<path d="M96.9136 127.472H94.2344V132.646H96.9136V127.472Z" stroke="black" stroke-miterlimit="10"/>
<path d="M92.0933 135.968H89.4141V141.142H92.0933V135.968Z" stroke="black" stroke-miterlimit="10"/>
<path d="M96.9136 135.968H94.2344V141.142H96.9136V135.968Z" stroke="black" stroke-miterlimit="10"/>
<path d="M92.0933 144.464H89.4141V149.639H92.0933V144.464Z" stroke="black" stroke-miterlimit="10"/>
<path d="M96.9136 144.464H94.2344V149.639H96.9136V144.464Z" stroke="black" stroke-miterlimit="10"/>
<path d="M92.0933 152.96H89.4141V158.135H92.0933V152.96Z" stroke="black" stroke-miterlimit="10"/>
<path d="M96.9136 152.96H94.2344V158.135H96.9136V152.96Z" stroke="black" stroke-miterlimit="10"/>
<path d="M92.0933 161.456H89.4141V166.631H92.0933V161.456Z" stroke="black" stroke-miterlimit="10"/>
<path d="M96.9136 161.456H94.2344V166.631H96.9136V161.456Z" stroke="black" stroke-miterlimit="10"/>
<path d="M92.0933 169.952H89.4141V175.127H92.0933V169.952Z" stroke="black" stroke-miterlimit="10"/>
<path d="M96.9136 169.952H94.2344V175.127H96.9136V169.952Z" stroke="black" stroke-miterlimit="10"/>
<path d="M65.5425 92.7471H62.8633V97.9217H65.5425V92.7471Z" stroke="black" stroke-miterlimit="10"/>
<path d="M70.3628 92.7471H67.6836V97.9217H70.3628V92.7471Z" stroke="black" stroke-miterlimit="10"/>
<path d="M75.1831 92.7471H72.5039V97.9217H75.1831V92.7471Z" stroke="black" stroke-miterlimit="10"/>
<path d="M80.0034 92.7471H77.3242V97.9217H80.0034V92.7471Z" stroke="black" stroke-miterlimit="10"/>
<path d="M84.8237 92.7471H82.1445V97.9217H84.8237V92.7471Z" stroke="black" stroke-miterlimit="10"/>
<path d="M65.5425 101.486H62.8633V106.661H65.5425V101.486Z" stroke="black" stroke-miterlimit="10"/>
<path d="M70.3628 101.486H67.6836V106.661H70.3628V101.486Z" stroke="black" stroke-miterlimit="10"/>
<path d="M75.1831 101.486H72.5039V106.661H75.1831V101.486Z" stroke="black" stroke-miterlimit="10"/>
<path d="M80.0034 101.486H77.3242V106.661H80.0034V101.486Z" stroke="black" stroke-miterlimit="10"/>
<path d="M84.8237 101.486H82.1445V106.661H84.8237V101.486Z" stroke="black" stroke-miterlimit="10"/>
<path d="M65.5425 110.231H62.8633V115.406H65.5425V110.231Z" stroke="black" stroke-miterlimit="10"/>
<path d="M70.3628 110.231H67.6836V115.406H70.3628V110.231Z" stroke="black" stroke-miterlimit="10"/>
<path d="M75.1831 110.231H72.5039V115.406H75.1831V110.231Z" stroke="black" stroke-miterlimit="10"/>
<path d="M80.0034 110.231H77.3242V115.406H80.0034V110.231Z" stroke="black" stroke-miterlimit="10"/>
<path d="M84.8237 110.231H82.1445V115.406H84.8237V110.231Z" stroke="black" stroke-miterlimit="10"/>
<path d="M65.5425 118.976H62.8633V124.15H65.5425V118.976Z" stroke="black" stroke-miterlimit="10"/>
<path d="M70.3628 118.976H67.6836V124.15H70.3628V118.976Z" stroke="black" stroke-miterlimit="10"/>
<path d="M75.1831 118.976H72.5039V124.15H75.1831V118.976Z" stroke="black" stroke-miterlimit="10"/>
<path d="M80.0034 118.976H77.3242V124.15H80.0034V118.976Z" stroke="black" stroke-miterlimit="10"/>
<path d="M84.8237 118.976H82.1445V124.15H84.8237V118.976Z" stroke="black" stroke-miterlimit="10"/>
<path d="M65.5425 127.715H62.8633V132.89H65.5425V127.715Z" stroke="black" stroke-miterlimit="10"/>
<path d="M70.3628 127.715H67.6836V132.89H70.3628V127.715Z" stroke="black" stroke-miterlimit="10"/>
<path d="M75.1831 127.715H72.5039V132.89H75.1831V127.715Z" stroke="black" stroke-miterlimit="10"/>
<path d="M80.0034 127.715H77.3242V132.89H80.0034V127.715Z" stroke="black" stroke-miterlimit="10"/>
<path d="M84.8237 127.715H82.1445V132.89H84.8237V127.715Z" stroke="black" stroke-miterlimit="10"/>
<path d="M65.5425 136.46H62.8633V141.635H65.5425V136.46Z" stroke="black" stroke-miterlimit="10"/>
<path d="M70.3628 136.46H67.6836V141.635H70.3628V136.46Z" stroke="black" stroke-miterlimit="10"/>
<path d="M75.1831 136.46H72.5039V141.635H75.1831V136.46Z" stroke="black" stroke-miterlimit="10"/>
<path d="M80.0034 136.46H77.3242V141.635H80.0034V136.46Z" stroke="black" stroke-miterlimit="10"/>
<path d="M84.8237 136.46H82.1445V141.635H84.8237V136.46Z" stroke="black" stroke-miterlimit="10"/>
<path d="M65.5425 145.205H62.8633V150.38H65.5425V145.205Z" stroke="black" stroke-miterlimit="10"/>
<path d="M70.3628 145.205H67.6836V150.38H70.3628V145.205Z" stroke="black" stroke-miterlimit="10"/>
<path d="M75.1831 145.205H72.5039V150.38H75.1831V145.205Z" stroke="black" stroke-miterlimit="10"/>
<path d="M80.0034 145.205H77.3242V150.38H80.0034V145.205Z" stroke="black" stroke-miterlimit="10"/>
<path d="M84.8237 145.205H82.1445V150.38H84.8237V145.205Z" stroke="black" stroke-miterlimit="10"/>
<path d="M65.5425 153.949H62.8633V159.124H65.5425V153.949Z" stroke="black" stroke-miterlimit="10"/>
<path d="M70.3628 153.949H67.6836V159.124H70.3628V153.949Z" stroke="black" stroke-miterlimit="10"/>
<path d="M75.1831 153.949H72.5039V159.124H75.1831V153.949Z" stroke="black" stroke-miterlimit="10"/>
<path d="M80.0034 153.949H77.3242V159.124H80.0034V153.949Z" stroke="black" stroke-miterlimit="10"/>
<path d="M84.8237 153.949H82.1445V159.124H84.8237V153.949Z" stroke="black" stroke-miterlimit="10"/>
<path d="M65.5425 162.688H62.8633V167.863H65.5425V162.688Z" stroke="black" stroke-miterlimit="10"/>
<path d="M70.3628 162.688H67.6836V167.863H70.3628V162.688Z" stroke="black" stroke-miterlimit="10"/>
<path d="M75.1831 162.688H72.5039V167.863H75.1831V162.688Z" stroke="black" stroke-miterlimit="10"/>
<path d="M80.0034 162.688H77.3242V167.863H80.0034V162.688Z" stroke="black" stroke-miterlimit="10"/>
<path d="M84.8237 162.688H82.1445V167.863H84.8237V162.688Z" stroke="black" stroke-miterlimit="10"/>
<path d="M65.5425 171.682H62.8633V176.856H65.5425V171.682Z" stroke="black" stroke-miterlimit="10"/>
<path d="M70.3628 171.682H67.6836V176.856H70.3628V171.682Z" stroke="black" stroke-miterlimit="10"/>
<path d="M75.1831 171.682H72.5039V176.856H75.1831V171.682Z" stroke="black" stroke-miterlimit="10"/>
<path d="M80.0034 171.682H77.3242V176.856H80.0034V171.682Z" stroke="black" stroke-miterlimit="10"/>
<path d="M84.8237 171.682H82.1445V176.856H84.8237V171.682Z" stroke="black" stroke-miterlimit="10"/>
<path d="M60.8477 80.1836V185.595" stroke="black" stroke-miterlimit="10"/>
<path d="M101.797 85.1094V184.115" stroke="black" stroke-miterlimit="10"/>
<path d="M107.037 85.1094V184.115" stroke="black" stroke-miterlimit="10"/>
<path d="M112.277 85.1094V184.115" stroke="black" stroke-miterlimit="10"/>
<path d="M117.518 85.1094V184.115" stroke="black" stroke-miterlimit="10"/>
<path d="M122.758 94.9619V184.115" stroke="black" stroke-miterlimit="10"/>
<path d="M127.998 94.9619V184.115" stroke="black" stroke-miterlimit="10"/>
<path d="M133.238 94.9619V184.115" stroke="black" stroke-miterlimit="10"/>
<path d="M18.7012 61.4688H25.9285" stroke="black" stroke-miterlimit="10"/>
<path d="M18.7012 67.8691H25.9285" stroke="black" stroke-miterlimit="10"/>
<path d="M18.7012 74.2754H25.9285" stroke="black" stroke-miterlimit="10"/>
<path d="M18.7012 80.6748H25.9285" stroke="black" stroke-miterlimit="10"/>
<path d="M18.7012 87.0811H25.9285" stroke="black" stroke-miterlimit="10"/>
<path d="M18.7012 93.4814H25.9285" stroke="black" stroke-miterlimit="10"/>
<path d="M18.7012 99.8877H25.9285" stroke="black" stroke-miterlimit="10"/>
<path d="M18.7012 106.288H25.9285" stroke="black" stroke-miterlimit="10"/>
<path d="M18.7012 112.694H25.9285" stroke="black" stroke-miterlimit="10"/>
<path d="M18.7012 119.095H25.9285" stroke="black" stroke-miterlimit="10"/>
<path d="M18.7012 125.501H25.9285" stroke="black" stroke-miterlimit="10"/>
<path d="M18.7012 131.907H25.9285" stroke="black" stroke-miterlimit="10"/>
<path d="M18.7012 138.307H25.9285" stroke="black" stroke-miterlimit="10"/>
<path d="M18.7012 144.713H25.9285" stroke="black" stroke-miterlimit="10"/>
<path d="M18.7012 151.113H25.9285" stroke="black" stroke-miterlimit="10"/>
<path d="M18.7012 157.52H25.9285" stroke="black" stroke-miterlimit="10"/>
<path d="M18.7012 163.92H25.9285" stroke="black" stroke-miterlimit="10"/>
<path d="M18.7012 170.326H25.9285" stroke="black" stroke-miterlimit="10"/>
<path d="M18.7012 176.727H25.9285" stroke="black" stroke-miterlimit="10"/>
<path d="M18.7012 183.133H25.9285" stroke="black" stroke-miterlimit="10"/>
<path d="M18.7012 189.533H25.9285" stroke="black" stroke-miterlimit="10"/>
<path d="M210.611 101.61H179.164V104.565H210.611V101.61Z" stroke="black" stroke-miterlimit="10"/>
<path d="M210.611 96.4482H179.164V99.4027H210.611V96.4482Z" stroke="black" stroke-miterlimit="10"/>
<path d="M210.611 91.2852H179.164V94.2396H210.611V91.2852Z" stroke="black" stroke-miterlimit="10"/>
<path d="M210.611 86.1221H179.164V89.0765H210.611V86.1221Z" stroke="black" stroke-miterlimit="10"/>
<path d="M210.611 80.959H179.164V83.9134H210.611V80.959Z" stroke="black" stroke-miterlimit="10"/>
<path d="M210.611 75.791H179.164V78.7454H210.611V75.791Z" stroke="black" stroke-miterlimit="10"/>
<path d="M210.611 70.6279H179.164V73.5823H210.611V70.6279Z" stroke="black" stroke-miterlimit="10"/>
<path d="M210.611 65.4648H179.164V68.4193H210.611V65.4648Z" stroke="black" stroke-miterlimit="10"/>
<path d="M210.611 106.785H179.164V109.74H210.611V106.785Z" stroke="black" stroke-miterlimit="10"/>
<path d="M210.611 111.954H179.164V114.909H210.611V111.954Z" stroke="black" stroke-miterlimit="10"/>
<path d="M210.611 117.129H179.164V120.083H210.611V117.129Z" stroke="black" stroke-miterlimit="10"/>
<path d="M210.611 122.298H179.164V125.252H210.611V122.298Z" stroke="black" stroke-miterlimit="10"/>
<path d="M210.611 127.473H179.164V130.427H210.611V127.473Z" stroke="black" stroke-miterlimit="10"/>
<path d="M210.611 132.641H179.164V135.595H210.611V132.641Z" stroke="black" stroke-miterlimit="10"/>
<path d="M210.611 137.815H179.164V140.77H210.611V137.815Z" stroke="black" stroke-miterlimit="10"/>
<path d="M210.611 142.984H179.164V145.939H210.611V142.984Z" stroke="black" stroke-miterlimit="10"/>
<path d="M210.611 148.159H179.164V151.114H210.611V148.159Z" stroke="black" stroke-miterlimit="10"/>
<path d="M210.611 153.334H179.164V156.288H210.611V153.334Z" stroke="black" stroke-miterlimit="10"/>
<path d="M210.611 158.503H179.164V161.457H210.611V158.503Z" stroke="black" stroke-miterlimit="10"/>
<path d="M210.611 163.677H179.164V166.631H210.611V163.677Z" stroke="black" stroke-miterlimit="10"/>
<path d="M210.611 168.846H179.164V171.8H210.611V168.846Z" stroke="black" stroke-miterlimit="10"/>
<path d="M210.611 174.021H179.164V176.975H210.611V174.021Z" stroke="black" stroke-miterlimit="10"/>
<path d="M210.611 179.189H179.164V182.144H210.611V179.189Z" stroke="black" stroke-miterlimit="10"/>
<path d="M210.611 184.364H179.164V187.319H210.611V184.364Z" stroke="black" stroke-miterlimit="10"/>
<path d="M165.685 159.242H149.965V167.371H165.685V159.242Z" stroke="black" stroke-miterlimit="10"/>
<path d="M161.948 144.956H153.709V159.243H161.948V144.956Z" stroke="black" stroke-miterlimit="10"/>
<path d="M87.4902 114.838V185.401" stroke="black" stroke-miterlimit="10"/>
<path d="M177.796 107.105H139.619" stroke="black" stroke-miterlimit="10"/>
<path d="M177.796 111.314H139.619" stroke="black" stroke-miterlimit="10"/>
<path d="M147.15 114.471H141.324V118.68H147.15V114.471Z" stroke="black" stroke-miterlimit="10"/>
<path d="M154.33 114.471H148.504V118.68H154.33V114.471Z" stroke="black" stroke-miterlimit="10"/>
<path d="M161.515 114.471H155.689V118.68H161.515V114.471Z" stroke="black" stroke-miterlimit="10"/>
<path d="M168.697 114.471H162.871V118.68H168.697V114.471Z" stroke="black" stroke-miterlimit="10"/>
<path d="M175.882 114.471H170.057V118.68H175.882V114.471Z" stroke="black" stroke-miterlimit="10"/>
<path d="M147.15 120.995H141.324V125.205H147.15V120.995Z" stroke="black" stroke-miterlimit="10"/>
<path d="M154.33 120.995H148.504V125.205H154.33V120.995Z" stroke="black" stroke-miterlimit="10"/>
<path d="M161.515 120.995H155.689V125.205H161.515V120.995Z" stroke="black" stroke-miterlimit="10"/>
<path d="M168.697 120.995H162.871V125.205H168.697V120.995Z" stroke="black" stroke-miterlimit="10"/>
<path d="M175.882 120.995H170.057V125.205H175.882V120.995Z" stroke="black" stroke-miterlimit="10"/>
<path d="M147.15 127.52H141.324V131.729H147.15V127.52Z" stroke="black" stroke-miterlimit="10"/>
<path d="M154.33 127.52H148.504V131.729H154.33V127.52Z" stroke="black" stroke-miterlimit="10"/>
<path d="M161.515 127.52H155.689V131.729H161.515V127.52Z" stroke="black" stroke-miterlimit="10"/>
<path d="M168.697 127.52H162.871V131.729H168.697V127.52Z" stroke="black" stroke-miterlimit="10"/>
<path d="M175.882 127.52H170.057V131.729H175.882V127.52Z" stroke="black" stroke-miterlimit="10"/>
<path d="M147.15 139.308H141.324V143.517H147.15V139.308Z" stroke="black" stroke-miterlimit="10"/>
<path d="M154.33 139.308H148.504V143.517H154.33V139.308Z" stroke="black" stroke-miterlimit="10"/>
<path d="M161.515 139.308H155.689V143.517H161.515V139.308Z" stroke="black" stroke-miterlimit="10"/>
<path d="M168.697 139.308H162.871V143.517H168.697V139.308Z" stroke="black" stroke-miterlimit="10"/>
<path d="M175.882 139.308H170.057V143.517H175.882V139.308Z" stroke="black" stroke-miterlimit="10"/>
<path d="M423.149 55.8261V113.671H415.454V185.53H406.571V112.073H389.999V34.7959H363.355V114.838H353.288V82.9961H330.796V90.0062H311.551V184.654H303.856V167.419H282.837V184.364H272.776V99.0648H238.733V179.106H228.963" stroke="black" stroke-miterlimit="10"/>
<path d="M428.282 55.8264H423.148V52.0312H428.797" stroke="black" stroke-miterlimit="10"/>
<path d="M389.993 113.997H406.672V112.073H389.993V113.997Z" stroke="black" stroke-miterlimit="10"/>
<path d="M363.355 36.667H390.076V34.7961H363.355V36.667Z" stroke="black" stroke-miterlimit="10"/>
<path d="M347.28 82.9961H351.172V79.0292H347.28V82.9961Z" stroke="black" stroke-miterlimit="10"/>
<path d="M337.166 82.9961H339.111V80.693H337.166V82.9961Z" stroke="black" stroke-miterlimit="10"/>
<path d="M311.487 92.333H330.791V90.0062H311.487V92.333Z" stroke="black" stroke-miterlimit="10"/>
<path d="M238.732 99.0645H272.77V97.3297H238.732V99.0645Z" stroke="black" stroke-miterlimit="10"/>
<path d="M250.545 97.3242H264.029V93.8665H250.545V97.3242Z" stroke="black" stroke-miterlimit="10"/>
<path d="M253.388 93.997V90.7998H243.535V97.2001" stroke="black" stroke-miterlimit="10"/>
<path d="M318.352 89.0532V63.1917H287.154V84.6186H276.426V48.165H241.98V92.2504H232.736" stroke="black" stroke-miterlimit="10"/>
<path d="M216.791 137.958V79.5566H232.736V135.371H236.663" stroke="black" stroke-miterlimit="10"/>
<path d="M340.814 76.2411V47.6738H362.023" stroke="black" stroke-miterlimit="10"/>
<path d="M421.422 63.4346H414.685V95.6312H407.695V77.2061H403.383V92.1498H400.225V70.5631H396.02V91.7354H391.602" stroke="black" stroke-miterlimit="10"/>
<path d="M385.303 45.459H387.982V40.2843H385.303V45.459Z" stroke="black" stroke-miterlimit="10"/>
<path d="M380.483 45.459H383.162V40.2843H380.483V45.459Z" stroke="black" stroke-miterlimit="10"/>
<path d="M375.657 45.459H378.336V40.2843H375.657V45.459Z" stroke="black" stroke-miterlimit="10"/>
<path d="M370.836 45.459H373.516V40.2843H370.836V45.459Z" stroke="black" stroke-miterlimit="10"/>
<path d="M366.022 45.459H368.701V40.2843H366.022V45.459Z" stroke="black" stroke-miterlimit="10"/>
<path d="M385.303 54.1982H387.982V49.0236H385.303V54.1982Z" stroke="black" stroke-miterlimit="10"/>
<path d="M380.483 54.1982H383.162V49.0236H380.483V54.1982Z" stroke="black" stroke-miterlimit="10"/>
<path d="M375.657 54.1982H378.336V49.0236H375.657V54.1982Z" stroke="black" stroke-miterlimit="10"/>
<path d="M370.836 54.1982H373.516V49.0236H370.836V54.1982Z" stroke="black" stroke-miterlimit="10"/>
<path d="M366.022 54.1982H368.701V49.0236H366.022V54.1982Z" stroke="black" stroke-miterlimit="10"/>
<path d="M385.303 62.9434H387.982V57.7687H385.303V62.9434Z" stroke="black" stroke-miterlimit="10"/>
<path d="M380.483 62.9434H383.162V57.7687H380.483V62.9434Z" stroke="black" stroke-miterlimit="10"/>
<path d="M375.657 62.9434H378.336V57.7687H375.657V62.9434Z" stroke="black" stroke-miterlimit="10"/>
<path d="M370.836 62.9434H373.516V57.7687H370.836V62.9434Z" stroke="black" stroke-miterlimit="10"/>
<path d="M366.022 62.9434H368.701V57.7687H366.022V62.9434Z" stroke="black" stroke-miterlimit="10"/>
<path d="M385.303 71.6875H387.982V66.5128H385.303V71.6875Z" stroke="black" stroke-miterlimit="10"/>
<path d="M380.483 71.6875H383.162V66.5128H380.483V71.6875Z" stroke="black" stroke-miterlimit="10"/>
<path d="M375.657 71.6875H378.336V66.5128H375.657V71.6875Z" stroke="black" stroke-miterlimit="10"/>
<path d="M370.836 71.6875H373.516V66.5128H370.836V71.6875Z" stroke="black" stroke-miterlimit="10"/>
<path d="M366.022 71.6875H368.701V66.5128H366.022V71.6875Z" stroke="black" stroke-miterlimit="10"/>
<path d="M385.303 80.4326H387.982V75.2579H385.303V80.4326Z" stroke="black" stroke-miterlimit="10"/>
<path d="M380.483 80.4326H383.162V75.2579H380.483V80.4326Z" stroke="black" stroke-miterlimit="10"/>
<path d="M375.657 80.4326H378.336V75.2579H375.657V80.4326Z" stroke="black" stroke-miterlimit="10"/>
<path d="M370.836 80.4326H373.516V75.2579H370.836V80.4326Z" stroke="black" stroke-miterlimit="10"/>
<path d="M366.022 80.4326H368.701V75.2579H366.022V80.4326Z" stroke="black" stroke-miterlimit="10"/>
<path d="M385.303 89.1719H387.982V83.9972H385.303V89.1719Z" stroke="black" stroke-miterlimit="10"/>
<path d="M380.483 89.1719H383.162V83.9972H380.483V89.1719Z" stroke="black" stroke-miterlimit="10"/>
<path d="M375.657 89.1719H378.336V83.9972H375.657V89.1719Z" stroke="black" stroke-miterlimit="10"/>
<path d="M370.836 89.1719H373.516V83.9972H370.836V89.1719Z" stroke="black" stroke-miterlimit="10"/>
<path d="M366.022 89.1719H368.701V83.9972H366.022V89.1719Z" stroke="black" stroke-miterlimit="10"/>
<path d="M401.739 123.162H404.418V117.987H401.739V123.162Z" stroke="black" stroke-miterlimit="10"/>
<path d="M396.918 123.162H399.598V117.987H396.918V123.162Z" stroke="black" stroke-miterlimit="10"/>
<path d="M392.092 123.162H394.771V117.987H392.092V123.162Z" stroke="black" stroke-miterlimit="10"/>
<path d="M401.739 131.658H404.418V126.484H401.739V131.658Z" stroke="black" stroke-miterlimit="10"/>
<path d="M396.918 131.658H399.598V126.484H396.918V131.658Z" stroke="black" stroke-miterlimit="10"/>
<path d="M392.092 131.658H394.771V126.484H392.092V131.658Z" stroke="black" stroke-miterlimit="10"/>
<path d="M401.739 140.154H404.418V134.98H401.739V140.154Z" stroke="black" stroke-miterlimit="10"/>
<path d="M396.918 140.154H399.598V134.98H396.918V140.154Z" stroke="black" stroke-miterlimit="10"/>
<path d="M392.092 140.154H394.771V134.98H392.092V140.154Z" stroke="black" stroke-miterlimit="10"/>
<path d="M401.739 148.65H404.418V143.476H401.739V148.65Z" stroke="black" stroke-miterlimit="10"/>
<path d="M396.918 148.65H399.598V143.476H396.918V148.65Z" stroke="black" stroke-miterlimit="10"/>
<path d="M392.092 148.65H394.771V143.476H392.092V148.65Z" stroke="black" stroke-miterlimit="10"/>
<path d="M401.739 157.146H404.418V151.972H401.739V157.146Z" stroke="black" stroke-miterlimit="10"/>
<path d="M396.918 157.146H399.598V151.972H396.918V157.146Z" stroke="black" stroke-miterlimit="10"/>
<path d="M392.092 157.146H394.771V151.972H392.092V157.146Z" stroke="black" stroke-miterlimit="10"/>
<path d="M401.739 165.643H404.418V160.468H401.739V165.643Z" stroke="black" stroke-miterlimit="10"/>
<path d="M396.918 165.643H399.598V160.468H396.918V165.643Z" stroke="black" stroke-miterlimit="10"/>
<path d="M392.092 165.643H394.771V160.468H392.092V165.643Z" stroke="black" stroke-miterlimit="10"/>
<path d="M401.739 174.146H404.418V168.971H401.739V174.146Z" stroke="black" stroke-miterlimit="10"/>
<path d="M396.918 174.146H399.598V168.971H396.918V174.146Z" stroke="black" stroke-miterlimit="10"/>
<path d="M392.092 174.146H394.771V168.971H392.092V174.146Z" stroke="black" stroke-miterlimit="10"/>
<path d="M385.303 97.916H387.982V92.7413H385.303V97.916Z" stroke="black" stroke-miterlimit="10"/>
<path d="M380.483 97.916H383.162V92.7413H380.483V97.916Z" stroke="black" stroke-miterlimit="10"/>
<path d="M375.657 97.916H378.336V92.7413H375.657V97.916Z" stroke="black" stroke-miterlimit="10"/>
<path d="M370.836 97.916H373.516V92.7413H370.836V97.916Z" stroke="black" stroke-miterlimit="10"/>
<path d="M366.022 97.916H368.701V92.7413H366.022V97.916Z" stroke="black" stroke-miterlimit="10"/>
<path d="M385.303 106.661H387.982V101.486H385.303V106.661Z" stroke="black" stroke-miterlimit="10"/>
<path d="M380.483 106.661H383.162V101.486H380.483V106.661Z" stroke="black" stroke-miterlimit="10"/>
<path d="M375.657 106.661H378.336V101.486H375.657V106.661Z" stroke="black" stroke-miterlimit="10"/>
<path d="M370.836 106.661H373.516V101.486H370.836V106.661Z" stroke="black" stroke-miterlimit="10"/>
<path d="M366.022 106.661H368.701V101.486H366.022V106.661Z" stroke="black" stroke-miterlimit="10"/>
<path d="M385.303 115.4H387.982V110.226H385.303V115.4Z" stroke="black" stroke-miterlimit="10"/>
<path d="M380.483 115.4H383.162V110.226H380.483V115.4Z" stroke="black" stroke-miterlimit="10"/>
<path d="M375.657 115.4H378.336V110.226H375.657V115.4Z" stroke="black" stroke-miterlimit="10"/>
<path d="M370.836 115.4H373.516V110.226H370.836V115.4Z" stroke="black" stroke-miterlimit="10"/>
<path d="M366.022 115.4H368.701V110.226H366.022V115.4Z" stroke="black" stroke-miterlimit="10"/>
<path d="M385.303 124.145H387.982V118.97H385.303V124.145Z" stroke="black" stroke-miterlimit="10"/>
<path d="M380.483 124.145H383.162V118.97H380.483V124.145Z" stroke="black" stroke-miterlimit="10"/>
<path d="M375.657 124.145H378.336V118.97H375.657V124.145Z" stroke="black" stroke-miterlimit="10"/>
<path d="M370.836 124.145H373.516V118.97H370.836V124.145Z" stroke="black" stroke-miterlimit="10"/>
<path d="M366.022 124.145H368.701V118.97H366.022V124.145Z" stroke="black" stroke-miterlimit="10"/>
<path d="M385.303 132.89H387.982V127.715H385.303V132.89Z" stroke="black" stroke-miterlimit="10"/>
<path d="M380.483 132.89H383.162V127.715H380.483V132.89Z" stroke="black" stroke-miterlimit="10"/>
<path d="M375.657 132.89H378.336V127.715H375.657V132.89Z" stroke="black" stroke-miterlimit="10"/>
<path d="M370.836 132.89H373.516V127.715H370.836V132.89Z" stroke="black" stroke-miterlimit="10"/>
<path d="M366.022 132.89H368.701V127.715H366.022V132.89Z" stroke="black" stroke-miterlimit="10"/>
<path d="M385.303 141.635H387.982V136.46H385.303V141.635Z" stroke="black" stroke-miterlimit="10"/>
<path d="M380.483 141.635H383.162V136.46H380.483V141.635Z" stroke="black" stroke-miterlimit="10"/>
<path d="M375.657 141.635H378.336V136.46H375.657V141.635Z" stroke="black" stroke-miterlimit="10"/>
<path d="M370.836 141.635H373.516V136.46H370.836V141.635Z" stroke="black" stroke-miterlimit="10"/>
<path d="M366.022 141.635H368.701V136.46H366.022V141.635Z" stroke="black" stroke-miterlimit="10"/>
<path d="M385.303 150.374H387.982V145.199H385.303V150.374Z" stroke="black" stroke-miterlimit="10"/>
<path d="M380.483 150.374H383.162V145.199H380.483V150.374Z" stroke="black" stroke-miterlimit="10"/>
<path d="M375.657 150.374H378.336V145.199H375.657V150.374Z" stroke="black" stroke-miterlimit="10"/>
<path d="M370.836 150.374H373.516V145.199H370.836V150.374Z" stroke="black" stroke-miterlimit="10"/>
<path d="M366.022 150.374H368.701V145.199H366.022V150.374Z" stroke="black" stroke-miterlimit="10"/>
<path d="M385.303 159.118H387.982V153.943H385.303V159.118Z" stroke="black" stroke-miterlimit="10"/>
<path d="M380.483 159.118H383.162V153.943H380.483V159.118Z" stroke="black" stroke-miterlimit="10"/>
<path d="M375.657 159.118H378.336V153.943H375.657V159.118Z" stroke="black" stroke-miterlimit="10"/>
<path d="M370.836 159.118H373.516V153.943H370.836V159.118Z" stroke="black" stroke-miterlimit="10"/>
<path d="M366.022 159.118H368.701V153.943H366.022V159.118Z" stroke="black" stroke-miterlimit="10"/>
<path d="M385.303 167.863H387.982V162.689H385.303V167.863Z" stroke="black" stroke-miterlimit="10"/>
<path d="M380.483 167.863H383.162V162.689H380.483V167.863Z" stroke="black" stroke-miterlimit="10"/>
<path d="M375.657 167.863H378.336V162.689H375.657V167.863Z" stroke="black" stroke-miterlimit="10"/>
<path d="M370.836 167.863H373.516V162.689H370.836V167.863Z" stroke="black" stroke-miterlimit="10"/>
<path d="M366.022 167.863H368.701V162.689H366.022V167.863Z" stroke="black" stroke-miterlimit="10"/>
<path d="M385.303 176.851H387.982V171.676H385.303V176.851Z" stroke="black" stroke-miterlimit="10"/>
<path d="M380.483 176.851H383.162V171.676H380.483V176.851Z" stroke="black" stroke-miterlimit="10"/>
<path d="M375.657 176.851H378.336V171.676H375.657V176.851Z" stroke="black" stroke-miterlimit="10"/>
<path d="M370.836 176.851H373.516V171.676H370.836V176.851Z" stroke="black" stroke-miterlimit="10"/>
<path d="M366.022 176.851H368.701V171.676H366.022V176.851Z" stroke="black" stroke-miterlimit="10"/>
<path d="M389.998 80.1836V185.595" stroke="black" stroke-miterlimit="10"/>
<path d="M349.047 85.1094V184.115" stroke="black" stroke-miterlimit="10"/>
<path d="M343.807 85.1094V184.115" stroke="black" stroke-miterlimit="10"/>
<path d="M338.568 85.1094V184.115" stroke="black" stroke-miterlimit="10"/>
<path d="M333.328 85.1094V184.115" stroke="black" stroke-miterlimit="10"/>
<path d="M328.088 94.9619V184.115" stroke="black" stroke-miterlimit="10"/>
<path d="M322.842 94.9619V184.115" stroke="black" stroke-miterlimit="10"/>
<path d="M317.602 94.9619V184.115" stroke="black" stroke-miterlimit="10"/>
<path d="M240.235 104.565H248.816V101.611H240.235V104.565Z" stroke="black" stroke-miterlimit="10"/>
<path d="M240.235 109.734H248.816V106.78H240.235V109.734Z" stroke="black" stroke-miterlimit="10"/>
<path d="M240.235 114.908H248.816V111.954H240.235V114.908Z" stroke="black" stroke-miterlimit="10"/>
<path d="M240.235 120.083H248.816V117.129H240.235V120.083Z" stroke="black" stroke-miterlimit="10"/>
<path d="M240.235 125.258H248.816V122.303H240.235V125.258Z" stroke="black" stroke-miterlimit="10"/>
<path d="M240.235 130.427H248.816V127.472H240.235V130.427Z" stroke="black" stroke-miterlimit="10"/>
<path d="M240.235 135.602H248.816V132.647H240.235V135.602Z" stroke="black" stroke-miterlimit="10"/>
<path d="M240.235 140.771H248.816V137.816H240.235V140.771Z" stroke="black" stroke-miterlimit="10"/>
<path d="M240.235 145.944H248.816V142.99H240.235V145.944Z" stroke="black" stroke-miterlimit="10"/>
<path d="M240.235 151.113H248.816V148.159H240.235V151.113Z" stroke="black" stroke-miterlimit="10"/>
<path d="M240.235 156.282H248.816V153.328H240.235V156.282Z" stroke="black" stroke-miterlimit="10"/>
<path d="M240.235 161.457H248.816V158.503H240.235V161.457Z" stroke="black" stroke-miterlimit="10"/>
<path d="M240.235 166.632H248.816V163.677H240.235V166.632Z" stroke="black" stroke-miterlimit="10"/>
<path d="M240.235 171.807H248.816V168.852H240.235V171.807Z" stroke="black" stroke-miterlimit="10"/>
<path d="M240.235 176.975H248.816V174.02H240.235V176.975Z" stroke="black" stroke-miterlimit="10"/>
<path d="M240.235 182.149H248.816V179.195H240.235V182.149Z" stroke="black" stroke-miterlimit="10"/>
<path d="M240.235 187.318H248.816V184.364H240.235V187.318Z" stroke="black" stroke-miterlimit="10"/>
<path d="M251.651 104.565H260.232V101.611H251.651V104.565Z" stroke="black" stroke-miterlimit="10"/>
<path d="M251.651 109.734H260.232V106.78H251.651V109.734Z" stroke="black" stroke-miterlimit="10"/>
<path d="M251.651 114.908H260.232V111.954H251.651V114.908Z" stroke="black" stroke-miterlimit="10"/>
<path d="M251.651 120.083H260.232V117.129H251.651V120.083Z" stroke="black" stroke-miterlimit="10"/>
<path d="M251.651 125.258H260.232V122.303H251.651V125.258Z" stroke="black" stroke-miterlimit="10"/>
<path d="M251.651 130.427H260.232V127.472H251.651V130.427Z" stroke="black" stroke-miterlimit="10"/>
<path d="M251.651 135.602H260.232V132.647H251.651V135.602Z" stroke="black" stroke-miterlimit="10"/>
<path d="M251.651 140.771H260.232V137.816H251.651V140.771Z" stroke="black" stroke-miterlimit="10"/>
<path d="M251.651 145.944H260.232V142.99H251.651V145.944Z" stroke="black" stroke-miterlimit="10"/>
<path d="M251.651 151.113H260.232V148.159H251.651V151.113Z" stroke="black" stroke-miterlimit="10"/>
<path d="M251.651 156.282H260.232V153.328H251.651V156.282Z" stroke="black" stroke-miterlimit="10"/>
<path d="M251.651 161.457H260.232V158.503H251.651V161.457Z" stroke="black" stroke-miterlimit="10"/>
<path d="M251.651 166.632H260.232V163.677H251.651V166.632Z" stroke="black" stroke-miterlimit="10"/>
<path d="M251.651 171.807H260.232V168.852H251.651V171.807Z" stroke="black" stroke-miterlimit="10"/>
<path d="M251.651 176.975H260.232V174.02H251.651V176.975Z" stroke="black" stroke-miterlimit="10"/>
<path d="M251.651 182.149H260.232V179.195H251.651V182.149Z" stroke="black" stroke-miterlimit="10"/>
<path d="M251.651 187.318H260.232V184.364H251.651V187.318Z" stroke="black" stroke-miterlimit="10"/>
<path d="M263.065 104.565H271.646V101.611H263.065V104.565Z" stroke="black" stroke-miterlimit="10"/>
<path d="M263.065 109.734H271.646V106.78H263.065V109.734Z" stroke="black" stroke-miterlimit="10"/>
<path d="M263.065 114.908H271.646V111.954H263.065V114.908Z" stroke="black" stroke-miterlimit="10"/>
<path d="M263.065 120.083H271.646V117.129H263.065V120.083Z" stroke="black" stroke-miterlimit="10"/>
<path d="M263.065 125.258H271.646V122.303H263.065V125.258Z" stroke="black" stroke-miterlimit="10"/>
<path d="M263.065 130.427H271.646V127.472H263.065V130.427Z" stroke="black" stroke-miterlimit="10"/>
<path d="M263.065 135.602H271.646V132.647H263.065V135.602Z" stroke="black" stroke-miterlimit="10"/>
<path d="M263.065 140.771H271.646V137.816H263.065V140.771Z" stroke="black" stroke-miterlimit="10"/>
<path d="M263.065 145.944H271.646V142.99H263.065V145.944Z" stroke="black" stroke-miterlimit="10"/>
<path d="M263.065 151.113H271.646V148.159H263.065V151.113Z" stroke="black" stroke-miterlimit="10"/>
<path d="M263.065 156.282H271.646V153.328H263.065V156.282Z" stroke="black" stroke-miterlimit="10"/>
<path d="M263.065 161.457H271.646V158.503H263.065V161.457Z" stroke="black" stroke-miterlimit="10"/>
<path d="M263.065 166.632H271.646V163.677H263.065V166.632Z" stroke="black" stroke-miterlimit="10"/>
<path d="M263.065 171.807H271.646V168.852H263.065V171.807Z" stroke="black" stroke-miterlimit="10"/>
<path d="M263.065 176.975H271.646V174.02H263.065V176.975Z" stroke="black" stroke-miterlimit="10"/>
<path d="M263.065 182.149H271.646V179.195H263.065V182.149Z" stroke="black" stroke-miterlimit="10"/>
<path d="M263.065 187.318H271.646V184.364H263.065V187.318Z" stroke="black" stroke-miterlimit="10"/>
<path d="M285.161 167.372H300.881V159.243H285.161V167.372Z" stroke="black" stroke-miterlimit="10"/>
<path d="M288.904 159.242H297.137V144.956H288.904V159.242Z" stroke="black" stroke-miterlimit="10"/>
<path d="M363.355 114.838V185.401" stroke="black" stroke-miterlimit="10"/>
<path d="M273.049 107.105H311.226" stroke="black" stroke-miterlimit="10"/>
<path d="M273.049 111.314H311.226" stroke="black" stroke-miterlimit="10"/>
<path d="M303.696 118.681H309.521V114.471H303.696V118.681Z" stroke="black" stroke-miterlimit="10"/>
<path d="M296.51 118.681H302.336V114.471H296.51V118.681Z" stroke="black" stroke-miterlimit="10"/>
<path d="M289.331 118.681H295.156V114.471H289.331V118.681Z" stroke="black" stroke-miterlimit="10"/>
<path d="M282.145 118.681H287.971V114.471H282.145V118.681Z" stroke="black" stroke-miterlimit="10"/>
<path d="M274.971 118.681H280.797V114.471H274.971V118.681Z" stroke="black" stroke-miterlimit="10"/>
<path d="M303.696 125.205H309.521V120.995H303.696V125.205Z" stroke="black" stroke-miterlimit="10"/>
<path d="M296.51 125.205H302.336V120.995H296.51V125.205Z" stroke="black" stroke-miterlimit="10"/>
<path d="M289.331 125.205H295.156V120.995H289.331V125.205Z" stroke="black" stroke-miterlimit="10"/>
<path d="M282.145 125.205H287.971V120.995H282.145V125.205Z" stroke="black" stroke-miterlimit="10"/>
<path d="M274.971 125.205H280.797V120.995H274.971V125.205Z" stroke="black" stroke-miterlimit="10"/>
<path d="M303.696 131.729H309.521V127.52H303.696V131.729Z" stroke="black" stroke-miterlimit="10"/>
<path d="M296.51 131.729H302.336V127.52H296.51V131.729Z" stroke="black" stroke-miterlimit="10"/>
<path d="M289.331 131.729H295.156V127.52H289.331V131.729Z" stroke="black" stroke-miterlimit="10"/>
<path d="M282.145 131.729H287.971V127.52H282.145V131.729Z" stroke="black" stroke-miterlimit="10"/>
<path d="M274.971 131.729H280.797V127.52H274.971V131.729Z" stroke="black" stroke-miterlimit="10"/>
<path d="M303.696 143.518H309.521V139.308H303.696V143.518Z" stroke="black" stroke-miterlimit="10"/>
<path d="M296.51 143.518H302.336V139.308H296.51V143.518Z" stroke="black" stroke-miterlimit="10"/>
<path d="M289.331 143.518H295.156V139.308H289.331V143.518Z" stroke="black" stroke-miterlimit="10"/>
<path d="M282.145 143.518H287.971V139.308H282.145V143.518Z" stroke="black" stroke-miterlimit="10"/>
<path d="M274.971 143.518H280.797V139.308H274.971V143.518Z" stroke="black" stroke-miterlimit="10"/>
<path d="M313.557 99.3135H351.905" stroke="black" stroke-miterlimit="10"/>
<path d="M313.557 106.702H351.905" stroke="black" stroke-miterlimit="10"/>
<path d="M313.557 114.098H351.905" stroke="black" stroke-miterlimit="10"/>
<path d="M313.557 121.486H351.905" stroke="black" stroke-miterlimit="10"/>
<path d="M313.557 128.881H351.905" stroke="black" stroke-miterlimit="10"/>
<path d="M313.557 136.271H351.905" stroke="black" stroke-miterlimit="10"/>
<path d="M313.557 143.665H351.905" stroke="black" stroke-miterlimit="10"/>
<path d="M313.557 151.055H351.905" stroke="black" stroke-miterlimit="10"/>
<path d="M313.557 158.449H351.905" stroke="black" stroke-miterlimit="10"/>
<path d="M313.557 165.838H351.905" stroke="black" stroke-miterlimit="10"/>
<path d="M313.557 173.233H351.905" stroke="black" stroke-miterlimit="10"/>
<path d="M313.557 180.628H351.905" stroke="black" stroke-miterlimit="10"/>
<path d="M332.996 92.2734H351.904" stroke="black" stroke-miterlimit="10"/>
</g>
<path d="M257.783 151.871H19.5293V252.238H257.783V151.871Z" fill="white" stroke="#263238" stroke-linecap="round" stroke-linejoin="round"/>
<path d="M257.084 154.517V252.232H420.811V154.517L338.915 133.209L257.084 154.517Z" fill="#EBEBEB" stroke="#263238" stroke-linecap="round" stroke-linejoin="round"/>
<path d="M257.783 151.871H19.5293V172.451H257.783V151.871Z" fill="#C7C7C7" stroke="#263238" stroke-linecap="round" stroke-linejoin="round"/>
<path d="M420.811 172.451V154.518L338.915 133.209L257.084 154.518V172.451H420.811Z" fill="#A1A1A1" stroke="#263238" stroke-linecap="round" stroke-linejoin="round"/>
<path d="M268.131 167.075V153.772L338.571 135.423L412.642 154.695V167.075H420.473V151.871L338.571 130.557L256.746 151.871V167.075H268.131Z" fill="#263238" stroke="#263238" stroke-linecap="round" stroke-linejoin="round"/>
<path d="M271.893 167.075V153.772L342.333 135.423L416.404 154.695V167.075H424.235V151.871L342.333 130.557L260.508 151.871V167.075H271.893Z" fill="#75A9C8" stroke="#263238" stroke-linecap="round" stroke-linejoin="round"/>
<path d="M260.662 151.871H15.4297V167.075H260.662V151.871Z" fill="#75A9C8" stroke="#263238" stroke-linecap="round" stroke-linejoin="round"/>
<path d="M97.1771 130.557L15.5059 151.871H260.662L342.333 130.557H97.1771Z" fill="#75A9C8" stroke="#263238" stroke-linecap="round" stroke-linejoin="round"/>
<path d="M297.946 193.499H265.984V216.234H297.946V193.499Z" fill="#263238" stroke="#263238" stroke-linecap="round" stroke-linejoin="round"/>
<path d="M337.24 193.499H305.279V216.234H337.24V193.499Z" fill="#263238" stroke="#263238" stroke-linecap="round" stroke-linejoin="round"/>
<path d="M376.162 193.499H344.201V216.234H376.162V193.499Z" fill="#263238" stroke="#263238" stroke-linecap="round" stroke-linejoin="round"/>
<path d="M415.457 193.499H383.496V216.234H415.457V193.499Z" fill="#263238" stroke="#263238" stroke-linecap="round" stroke-linejoin="round"/>
<path d="M242.843 193.499H204.305V252.232H242.843V193.499Z" fill="white" stroke="#263238" stroke-linecap="round" stroke-linejoin="round"/>
<path d="M242.842 193.499H206.848V252.232H242.842V193.499Z" fill="#263238" stroke="#263238" stroke-linecap="round" stroke-linejoin="round"/>
<path d="M133.491 193.499H94.9531V252.232H133.491V193.499Z" fill="white" stroke="#263238" stroke-linecap="round" stroke-linejoin="round"/>
<path d="M133.497 193.499H97.502V252.232H133.497V193.499Z" fill="#263238" stroke="#263238" stroke-linecap="round" stroke-linejoin="round"/>
<path d="M78.8192 193.499H40.2812V252.232H78.8192V193.499Z" fill="white" stroke="#263238" stroke-linecap="round" stroke-linejoin="round"/>
<path d="M78.819 193.499H42.8242V252.232H78.819V193.499Z" fill="#C7C7C7" stroke="#263238" stroke-linecap="round" stroke-linejoin="round"/>
<path d="M42.9844 196.459H78.4705" stroke="#263238" stroke-linecap="round" stroke-linejoin="round"/>
<path d="M42.9844 200.201H78.4705" stroke="#263238" stroke-linecap="round" stroke-linejoin="round"/>
<path d="M42.9844 203.938H78.4705" stroke="#263238" stroke-linecap="round" stroke-linejoin="round"/>
<path d="M42.9844 207.679H78.4705" stroke="#263238" stroke-linecap="round" stroke-linejoin="round"/>
<path d="M42.9844 211.421H78.4705" stroke="#263238" stroke-linecap="round" stroke-linejoin="round"/>
<path d="M42.9844 215.157H78.4705" stroke="#263238" stroke-linecap="round" stroke-linejoin="round"/>
<path d="M42.9844 218.898H78.4705" stroke="#263238" stroke-linecap="round" stroke-linejoin="round"/>
<path d="M42.9844 222.635H78.4705" stroke="#263238" stroke-linecap="round" stroke-linejoin="round"/>
<path d="M42.9844 226.377H78.4705" stroke="#263238" stroke-linecap="round" stroke-linejoin="round"/>
<path d="M42.9844 230.118H78.4705" stroke="#263238" stroke-linecap="round" stroke-linejoin="round"/>
<path d="M42.9844 233.854H78.4705" stroke="#263238" stroke-linecap="round" stroke-linejoin="round"/>
<path d="M42.9844 237.597H78.4705" stroke="#263238" stroke-linecap="round" stroke-linejoin="round"/>
<path d="M42.9844 241.332H78.4705" stroke="#263238" stroke-linecap="round" stroke-linejoin="round"/>
<path d="M42.9844 245.074H78.4705" stroke="#263238" stroke-linecap="round" stroke-linejoin="round"/>
<path d="M42.9844 248.815H78.4705" stroke="#263238" stroke-linecap="round" stroke-linejoin="round"/>
<path d="M187.378 193.499H148.84V252.232H187.378V193.499Z" fill="white" stroke="#263238" stroke-linecap="round" stroke-linejoin="round"/>
<path d="M187.378 193.499H151.383V252.232H187.378V193.499Z" fill="#C7C7C7" stroke="#263238" stroke-linecap="round" stroke-linejoin="round"/>
<path d="M151.543 196.459H187.029" stroke="#263238" stroke-linecap="round" stroke-linejoin="round"/>
<path d="M151.543 200.201H187.029" stroke="#263238" stroke-linecap="round" stroke-linejoin="round"/>
<path d="M151.543 203.938H187.029" stroke="#263238" stroke-linecap="round" stroke-linejoin="round"/>
<path d="M151.543 207.679H187.029" stroke="#263238" stroke-linecap="round" stroke-linejoin="round"/>
<path d="M151.543 211.421H187.029" stroke="#263238" stroke-linecap="round" stroke-linejoin="round"/>
<path d="M151.543 215.157H187.029" stroke="#263238" stroke-linecap="round" stroke-linejoin="round"/>
<path d="M151.543 218.898H187.029" stroke="#263238" stroke-linecap="round" stroke-linejoin="round"/>
<path d="M151.543 222.635H187.029" stroke="#263238" stroke-linecap="round" stroke-linejoin="round"/>
<path d="M151.543 226.377H187.029" stroke="#263238" stroke-linecap="round" stroke-linejoin="round"/>
<path d="M151.543 230.118H187.029" stroke="#263238" stroke-linecap="round" stroke-linejoin="round"/>
<path d="M151.543 233.854H187.029" stroke="#263238" stroke-linecap="round" stroke-linejoin="round"/>
<path d="M151.543 237.597H187.029" stroke="#263238" stroke-linecap="round" stroke-linejoin="round"/>
<path d="M151.543 241.332H187.029" stroke="#263238" stroke-linecap="round" stroke-linejoin="round"/>
<path d="M151.543 245.074H187.029" stroke="#263238" stroke-linecap="round" stroke-linejoin="round"/>
<path d="M151.543 248.815H187.029" stroke="#263238" stroke-linecap="round" stroke-linejoin="round"/>
<path d="M338.921 234.287H320.066V250.261H338.921V234.287Z" fill="white" stroke="#263238" stroke-linecap="round" stroke-linejoin="round"/>
<path d="M346.179 234.287H327.324V250.261H346.179V234.287Z" fill="white" stroke="#263238" stroke-linecap="round" stroke-linejoin="round"/>
<path d="M339.607 218.225H320.752V234.199H339.607V218.225Z" fill="white" stroke="#263238" stroke-linecap="round" stroke-linejoin="round"/>
<path d="M346.859 218.225H328.004V234.199H346.859V218.225Z" fill="white" stroke="#263238" stroke-linecap="round" stroke-linejoin="round"/>
<path d="M339.808 218.225H335.059V227.49H339.808V218.225Z" fill="white" stroke="#263238" stroke-linecap="round" stroke-linejoin="round"/>
<path d="M316.382 218.225H297.527V234.199H316.382V218.225Z" fill="white" stroke="#263238" stroke-linecap="round" stroke-linejoin="round"/>
<path d="M323.634 218.225H304.779V234.199H323.634V218.225Z" fill="white" stroke="#263238" stroke-linecap="round" stroke-linejoin="round"/>
<path d="M316.583 218.225H311.834V227.49H316.583V218.225Z" fill="white" stroke="#263238" stroke-linecap="round" stroke-linejoin="round"/>
<path d="M319.849 250.214H318.695V252.239H319.849V250.214Z" fill="white" stroke="#263238" stroke-linecap="round" stroke-linejoin="round"/>
<path d="M336.019 250.214H334.865V252.239H336.019V250.214Z" fill="white" stroke="#263238" stroke-linecap="round" stroke-linejoin="round"/>
<path d="M338.177 250.214H316.855V251.564H338.177V250.214Z" fill="white" stroke="#263238" stroke-linecap="round" stroke-linejoin="round"/>
<path d="M352.384 250.214H331.062V251.564H352.384V250.214Z" fill="white" stroke="#263238" stroke-linecap="round" stroke-linejoin="round"/>
<path d="M334.278 250.214H333.125V252.239H334.278V250.214Z" fill="white" stroke="#263238" stroke-linecap="round" stroke-linejoin="round"/>
<path d="M350.448 250.214H349.295V252.239H350.448V250.214Z" fill="white" stroke="#263238" stroke-linecap="round" stroke-linejoin="round"/>
<path d="M315.867 234.287H297.012V250.261H315.867V234.287Z" fill="white" stroke="#263238" stroke-linecap="round" stroke-linejoin="round"/>
<path d="M323.119 234.287H304.264V250.261H323.119V234.287Z" fill="white" stroke="#263238" stroke-linecap="round" stroke-linejoin="round"/>
<path d="M296.788 250.214H295.635V252.239H296.788V250.214Z" fill="white" stroke="#263238" stroke-linecap="round" stroke-linejoin="round"/>
<path d="M312.958 250.214H311.805V252.239H312.958V250.214Z" fill="white" stroke="#263238" stroke-linecap="round" stroke-linejoin="round"/>
<path d="M315.116 250.214H293.795V251.564H315.116V250.214Z" fill="white" stroke="#263238" stroke-linecap="round" stroke-linejoin="round"/>
<path d="M329.323 250.214H308.002V251.564H329.323V250.214Z" fill="white" stroke="#263238" stroke-linecap="round" stroke-linejoin="round"/>
<path d="M311.218 250.214H310.064V252.239H311.218V250.214Z" fill="white" stroke="#263238" stroke-linecap="round" stroke-linejoin="round"/>
<path d="M327.388 250.214H326.234V252.239H327.388V250.214Z" fill="white" stroke="#263238" stroke-linecap="round" stroke-linejoin="round"/>
<path d="M373.775 224.459H371.723V249.977H373.775V224.459Z" fill="#263238" stroke="#263238" stroke-linecap="round" stroke-linejoin="round"/>
<path d="M376.862 224.388H372.189V225.074H376.862V224.388Z" fill="#263238" stroke="#263238" stroke-linecap="round" stroke-linejoin="round"/>
<path d="M376.437 225.068H376.111V229.929H376.437V225.068Z" fill="#263238" stroke="#263238" stroke-linecap="round" stroke-linejoin="round"/>
<path d="M376.394 229.101H372.438V229.787H376.394V229.101Z" fill="#263238" stroke="#263238" stroke-linecap="round" stroke-linejoin="round"/>
<path d="M377.483 241.298L376.619 243.441L381.357 249.154H384.604L382.67 242.612L378.589 241.227L377.483 241.298Z" fill="#A6A6A6" stroke="#263238" stroke-linecap="round" stroke-linejoin="round"/>
<path d="M397.746 230.568H396.326V235.968H397.746V230.568Z" fill="#263238" stroke="#263238" stroke-linecap="round" stroke-linejoin="round"/>
<path d="M396.734 230.468C396.734 230.468 396.835 229.396 397.568 229.136C398.302 228.875 400.111 228.562 400.111 228.562L399.378 229.337L397.888 229.657C397.888 229.657 397.509 229.775 397.409 230.012C397.308 230.249 397.273 230.551 397.273 230.551L396.734 230.474V230.468Z" fill="#263238" stroke="#263238" stroke-linecap="round" stroke-linejoin="round"/>
<path d="M396.693 236.051V236.691H397.19V236.016L396.693 236.051Z" fill="#263238" stroke="#263238" stroke-linecap="round" stroke-linejoin="round"/>
<path d="M395.977 236.727H404.932C404.932 236.727 406.144 236.798 406.416 237.869C406.694 238.941 407.073 243.547 407.073 243.547L407.209 249.19H395.693V242.612H396.592L395.971 236.727H395.977Z" fill="#75A9C8" stroke="#263238" stroke-linecap="round" stroke-linejoin="round"/>
<path d="M395.705 249.189H407.214L407.09 244.038H395.705V249.189Z" fill="#263238" stroke="#263238" stroke-linecap="round" stroke-linejoin="round"/>
<path d="M405.245 244.79C404.24 243.268 403.033 243.097 403.033 243.097H399.555C397.497 243.434 396.326 245.583 395.699 247.348V249.183H406.079C406.097 248.656 406.138 246.146 405.245 244.79Z" fill="#A6A6A6" stroke="#263238" stroke-linecap="round" stroke-linejoin="round"/>
<path d="M381.841 242.694L378.316 241.208H374.549L374.59 241.569H378.358L382.007 243.091L384.053 249.669H396.077C396.077 249.669 396.118 244.737 399.567 243.091V242.007H382.096L381.853 242.688L381.841 242.694Z" fill="#75A9C8" stroke="#263238" stroke-linecap="round" stroke-linejoin="round"/>
<path d="M375.802 238.55L375.527 239.294L378.296 240.317L378.57 239.573L375.802 238.55Z" fill="#263238" stroke="#263238" stroke-linecap="round" stroke-linejoin="round"/>
<path d="M375.685 238.704L375.543 239.077L373.271 238.147L373.413 237.774L375.685 238.704Z" fill="white" stroke="#263238" stroke-linecap="round" stroke-linejoin="round"/>
<path d="M396.953 241.896L395.191 225.969H395.634L395.516 225.288H381.126L381.404 225.892H382.765C382.765 225.892 381.203 226.934 380.76 228.26C380.316 229.586 377.193 241.256 377.193 241.256H378.317L381.925 228.136C381.925 228.136 382.889 226.733 383.971 226.413C385.054 226.093 393.949 226.295 393.949 226.295L395.794 241.978L396.959 241.896H396.953Z" fill="#263238" stroke="#263238" stroke-linecap="round" stroke-linejoin="round"/>
<path d="M379.6 236.436C379.6 236.436 381.605 233.867 382.042 233.665C382.48 233.464 382.604 233.464 383.083 233.582C383.562 233.701 383.604 234.062 383.326 234.548C383.048 235.027 381.362 237.958 381.362 238.757C381.362 239.556 381.605 239.758 381.924 240.403C382.244 241.042 381.841 242.688 381.841 242.688L378.316 241.244L379.6 236.43V236.436Z" fill="#263238" stroke="#263238" stroke-linecap="round" stroke-linejoin="round"/>
<path d="M382.227 232.144L385.048 233.807" stroke="#263238" stroke-linecap="round" stroke-linejoin="round"/>
<path d="M382.883 232.665L382.924 233.47L383.326 233.672L383.604 233.109" fill="white"/>
<path d="M382.883 232.665L382.924 233.47L383.326 233.672L383.604 233.109" stroke="#263238" stroke-linecap="round" stroke-linejoin="round"/>
<path d="M383.326 233.672L383.586 233.891L384.409 233.506" fill="white"/>
<path d="M383.326 233.672L383.586 233.891L384.409 233.506" stroke="#263238" stroke-linecap="round" stroke-linejoin="round"/>
<path d="M384.852 233.488L385.047 233.168" stroke="#263238" stroke-linecap="round" stroke-linejoin="round"/>
<path d="M395.096 236.638C395.096 236.638 387.377 237.508 387.052 237.893C386.733 238.278 386.023 239.699 386.023 240.599V241.499H382.131L382.084 242.008L395.788 241.966L395.096 236.632V236.638Z" fill="#263238" stroke="#263238" stroke-linecap="round" stroke-linejoin="round"/>
<path d="M393.002 235.252L393.629 232.043C393.629 232.043 393.156 232.132 392.423 232.303C391.689 232.475 391.133 232.973 390.873 233.878C390.613 234.784 391.453 235.773 391.453 235.773C391.453 235.773 391.364 236.164 391.281 236.223C391.193 236.288 386.656 236.827 386.656 236.827L386.68 237.798L392.878 236.809C392.878 236.809 393.245 235.584 393.268 235.453C393.292 235.323 393.008 235.258 393.008 235.258L393.002 235.252ZM392.334 234.991C392.334 234.991 391.648 234.843 391.518 234.24C391.388 233.636 392.358 232.795 392.896 232.753L392.334 234.991Z" fill="#263238" stroke="#263238" stroke-linecap="round" stroke-linejoin="round"/>
<path d="M405.174 248.218C405.174 245.998 403.376 244.204 401.164 244.204C398.952 244.204 397.154 246.004 397.154 248.218C397.154 250.433 398.952 252.233 401.164 252.233C403.376 252.233 405.174 250.433 405.174 248.218Z" fill="#263238" stroke="#263238" stroke-linecap="round" stroke-linejoin="round"/>
<path d="M401.164 250.279C402.3 250.279 403.222 249.357 403.222 248.219C403.222 247.081 402.3 246.158 401.164 246.158C400.027 246.158 399.105 247.081 399.105 248.219C399.105 249.357 400.027 250.279 401.164 250.279Z" fill="white" stroke="#263238" stroke-linecap="round" stroke-linejoin="round"/>
<path d="M380.429 250.821C382.314 248.934 382.314 245.875 380.429 243.988C378.544 242.101 375.489 242.101 373.604 243.988C371.719 245.875 371.719 248.934 373.604 250.821C375.489 252.707 378.544 252.707 380.429 250.821Z" fill="#263238" stroke="#263238" stroke-linecap="round" stroke-linejoin="round"/>
<path d="M379.493 247.407C379.493 246.039 378.387 244.926 377.015 244.926C375.643 244.926 374.537 246.033 374.537 247.407C374.537 248.78 375.643 249.887 377.015 249.887C378.387 249.887 379.493 248.78 379.493 247.407Z" fill="white" stroke="#263238" stroke-linecap="round" stroke-linejoin="round"/>
<path d="M375.135 224.891V226.531C375.135 226.952 374.946 227.348 374.614 227.615C374.366 227.81 374.064 227.917 373.751 227.917H372.189V224.643L375.141 224.897L375.135 224.891Z" fill="#263238" stroke="#263238" stroke-linecap="round" stroke-linejoin="round"/>
<path d="M370.532 234.826H369.562V248.396H370.532V234.826Z" fill="#263238" stroke="#263238" stroke-linecap="round" stroke-linejoin="round"/>
<path d="M371.538 241.984H370.604V248.029H371.538V241.984Z" fill="#263238" stroke="#263238" stroke-linecap="round" stroke-linejoin="round"/>
<path d="M358.562 247.929H369.563V248.396H361.614L358.562 247.929Z" fill="#263238" stroke="#263238" stroke-linecap="round" stroke-linejoin="round"/>
<path d="M126.698 239.189H51.4259C51.0355 239.189 50.7221 239.503 50.7221 239.894V241.303C50.7221 241.694 50.4086 242.008 50.0183 242.008C49.6279 242.008 49.3145 242.321 49.3145 242.712V246.744C49.3145 247.135 49.6279 247.449 50.0183 247.449H83.4521C83.8424 247.449 84.1559 247.135 84.1559 246.744V245.536C84.1559 245.146 84.4693 244.832 84.8597 244.832H126.698C127.088 244.832 127.402 244.518 127.402 244.127V239.894C127.402 239.503 127.088 239.189 126.698 239.189Z" fill="#263238" stroke="#263238" stroke-linecap="round" stroke-linejoin="round"/>
<path d="M56.4281 203.203H30.334V239.426H56.4281V203.203Z" fill="white" stroke="#263238" stroke-linecap="round" stroke-linejoin="round"/>
<path d="M56.4281 203.203H30.334V204.956H56.4281V203.203Z" fill="#C7C7C7" stroke="#263238" stroke-linecap="round" stroke-linejoin="round"/>
<path d="M132.973 203.203H55.8672V239.426H132.973V203.203Z" fill="#EBEBEB" stroke="#263238" stroke-linecap="round" stroke-linejoin="round"/>
<path d="M132.973 236.785H55.8672V239.426H132.973V236.785Z" fill="#C7C7C7" stroke="#263238" stroke-linecap="round" stroke-linejoin="round"/>
<path d="M19.2098 227.815L23.0245 230.835V232.22L19.127 228.484L19.2098 227.815ZM19.2098 228.283L22.5277 231.273V230.794L19.2098 228.141V228.289V228.283Z" fill="#263238" stroke="#263238" stroke-width="0.75" stroke-miterlimit="10"/>
<path d="M56.8242 240.64C55.9015 240.64 55.1504 243.233 55.1504 246.436C55.1504 249.639 55.9015 252.232 56.8242 252.232H59.3969V240.64H56.8242Z" fill="#263238" stroke="#263238" stroke-linecap="round" stroke-linejoin="round"/>
<path d="M59.3964 252.232C60.3208 252.232 61.0702 249.637 61.0702 246.436C61.0702 243.235 60.3208 240.64 59.3964 240.64C58.472 240.64 57.7227 243.235 57.7227 246.436C57.7227 249.637 58.472 252.232 59.3964 252.232Z" fill="#919191" stroke="#263238" stroke-linecap="round" stroke-linejoin="round"/>
<path d="M59.3964 250.041C59.9713 250.041 60.4373 248.427 60.4373 246.436C60.4373 244.444 59.9713 242.83 59.3964 242.83C58.8215 242.83 58.3555 244.444 58.3555 246.436C58.3555 248.427 58.8215 250.041 59.3964 250.041Z" fill="white" stroke="#263238" stroke-linecap="round" stroke-linejoin="round"/>
<path d="M53.1113 240.64C52.1886 240.64 51.4375 243.233 51.4375 246.436C51.4375 249.639 52.1886 252.232 53.1113 252.232H55.684V240.64H53.1113Z" fill="#263238" stroke="#263238" stroke-linecap="round" stroke-linejoin="round"/>
<path d="M55.6777 252.232C56.6021 252.232 57.3514 249.637 57.3514 246.436C57.3514 243.235 56.6021 240.64 55.6777 240.64C54.7533 240.64 54.0039 243.235 54.0039 246.436C54.0039 249.637 54.7533 252.232 55.6777 252.232Z" fill="#919191" stroke="#263238" stroke-linecap="round" stroke-linejoin="round"/>
<path d="M55.6776 250.041C56.2525 250.041 56.7186 248.427 56.7186 246.436C56.7186 244.444 56.2525 242.83 55.6776 242.83C55.1028 242.83 54.6367 244.444 54.6367 246.436C54.6367 248.427 55.1028 250.041 55.6776 250.041Z" fill="white" stroke="#263238" stroke-linecap="round" stroke-linejoin="round"/>
<path d="M118.109 240.64C117.187 240.64 116.436 243.233 116.436 246.436C116.436 249.639 117.187 252.232 118.109 252.232H120.682V240.64H118.109Z" fill="#263238" stroke="#263238" stroke-linecap="round" stroke-linejoin="round"/>
<path d="M120.682 252.232C121.606 252.232 122.355 249.637 122.355 246.436C122.355 243.235 121.606 240.64 120.682 240.64C119.757 240.64 119.008 243.235 119.008 246.436C119.008 249.637 119.757 252.232 120.682 252.232Z" fill="#919191" stroke="#263238" stroke-linecap="round" stroke-linejoin="round"/>
<path d="M120.682 250.041C121.256 250.041 121.722 248.427 121.722 246.436C121.722 244.444 121.256 242.83 120.682 242.83C120.107 242.83 119.641 244.444 119.641 246.436C119.641 248.427 120.107 250.041 120.682 250.041Z" fill="white" stroke="#263238" stroke-linecap="round" stroke-linejoin="round"/>
<path d="M114.394 240.64C113.472 240.64 112.721 243.233 112.721 246.436C112.721 249.639 113.472 252.232 114.394 252.232H116.967V240.64H114.394Z" fill="#263238" stroke="#263238" stroke-linecap="round" stroke-linejoin="round"/>
<path d="M116.961 252.232C117.885 252.232 118.635 249.637 118.635 246.436C118.635 243.235 117.885 240.64 116.961 240.64C116.036 240.64 115.287 243.235 115.287 246.436C115.287 249.637 116.036 252.232 116.961 252.232Z" fill="#919191" stroke="#263238" stroke-linecap="round" stroke-linejoin="round"/>
<path d="M116.961 250.041C117.536 250.041 118.002 248.427 118.002 246.436C118.002 244.444 117.536 242.83 116.961 242.83C116.386 242.83 115.92 244.444 115.92 246.436C115.92 248.427 116.386 250.041 116.961 250.041Z" fill="white" stroke="#263238" stroke-linecap="round" stroke-linejoin="round"/>
<path d="M52.5483 240.112C52.5483 240.112 53.5538 240.598 53.5124 241.889C53.471 243.179 52.9091 247.211 52.3472 247.655C51.7854 248.099 50.981 248.141 50.981 248.141H46.5098L46.7286 240.189L52.5483 240.118V240.112Z" fill="#75A9C8" stroke="#263238" stroke-linecap="round" stroke-linejoin="round"/>
<path d="M45.907 238.502C45.907 238.502 46.4689 238.461 46.67 240.841C46.8711 243.221 46.4275 244.95 46.4275 244.95C46.4275 244.95 45.4635 241.682 44.6946 241.244L43.9316 240.8C43.9316 240.8 45.0199 238.218 45.907 238.502Z" fill="#263238" stroke="#263238" stroke-linecap="round" stroke-linejoin="round"/>
<path d="M42.3827 240.64C41.4601 240.64 40.709 243.233 40.709 246.436C40.709 249.639 41.4601 252.232 42.3827 252.232H44.9555V240.64H42.3827Z" fill="#263238" stroke="#263238" stroke-linecap="round" stroke-linejoin="round"/>
<path d="M44.955 252.232C45.8794 252.232 46.6288 249.637 46.6288 246.436C46.6288 243.235 45.8794 240.64 44.955 240.64C44.0306 240.64 43.2812 243.235 43.2812 246.436C43.2812 249.637 44.0306 252.232 44.955 252.232Z" fill="#919191" stroke="#263238" stroke-linecap="round" stroke-linejoin="round"/>
<path d="M44.955 250.041C45.5299 250.041 45.9959 248.427 45.9959 246.436C45.9959 244.444 45.5299 242.83 44.955 242.83C44.3801 242.83 43.9141 244.444 43.9141 246.436C43.9141 248.427 44.3801 250.041 44.955 250.041Z" fill="white" stroke="#263238" stroke-linecap="round" stroke-linejoin="round"/>
<path d="M19.1738 240.64C18.2511 240.64 17.5 243.233 17.5 246.436C17.5 249.639 18.2511 252.232 19.1738 252.232H21.7465V240.64H19.1738Z" fill="#263238" stroke="#263238" stroke-linecap="round" stroke-linejoin="round"/>
<path d="M21.746 252.232C22.6704 252.232 23.4198 249.637 23.4198 246.436C23.4198 243.235 22.6704 240.64 21.746 240.64C20.8216 240.64 20.0723 243.235 20.0723 246.436C20.0723 249.637 20.8216 252.232 21.746 252.232Z" fill="#263238" stroke="#263238" stroke-linecap="round" stroke-linejoin="round"/>
<path d="M21.746 250.041C22.3209 250.041 22.7869 248.427 22.7869 246.436C22.7869 244.444 22.3209 242.83 21.746 242.83C21.1711 242.83 20.7051 244.444 20.7051 246.436C20.7051 248.427 21.1711 250.041 21.746 250.041Z" fill="#263238" stroke="#263238" stroke-linecap="round" stroke-linejoin="round"/>
<path d="M31.1855 240.64C30.2628 240.64 29.5117 243.233 29.5117 246.436C29.5117 249.639 30.2628 252.232 31.1855 252.232H33.7582V240.64H31.1855Z" fill="#263238" stroke="#263238" stroke-linecap="round" stroke-linejoin="round"/>
<path d="M33.7577 252.232C34.6821 252.232 35.4315 249.637 35.4315 246.436C35.4315 243.235 34.6821 240.64 33.7577 240.64C32.8334 240.64 32.084 243.235 32.084 246.436C32.084 249.637 32.8334 252.232 33.7577 252.232Z" fill="#263238" stroke="#263238" stroke-linecap="round" stroke-linejoin="round"/>
<path d="M33.7577 250.041C34.3326 250.041 34.7986 248.427 34.7986 246.436C34.7986 244.444 34.3326 242.83 33.7577 242.83C33.1828 242.83 32.7168 244.444 32.7168 246.436C32.7168 248.427 33.1828 250.041 33.7577 250.041Z" fill="#263238" stroke="#263238" stroke-linecap="round" stroke-linejoin="round"/>
<path d="M36.1835 240.64C35.2609 240.64 34.5098 243.233 34.5098 246.436C34.5098 249.639 35.2609 252.232 36.1835 252.232H38.7563V240.64H36.1835Z" fill="#263238" stroke="#263238" stroke-linecap="round" stroke-linejoin="round"/>
<path d="M38.7558 252.232C39.6802 252.232 40.4296 249.637 40.4296 246.436C40.4296 243.235 39.6802 240.64 38.7558 240.64C37.8314 240.64 37.082 243.235 37.082 246.436C37.082 249.637 37.8314 252.232 38.7558 252.232Z" fill="#263238" stroke="#263238" stroke-linecap="round" stroke-linejoin="round"/>
<path d="M38.7558 250.041C39.3307 250.041 39.7967 248.427 39.7967 246.436C39.7967 244.444 39.3307 242.83 38.7558 242.83C38.1809 242.83 37.7148 244.444 37.7148 246.436C37.7148 248.427 38.1809 250.041 38.7558 250.041Z" fill="#263238" stroke="#263238" stroke-linecap="round" stroke-linejoin="round"/>
<path d="M92.1933 240.64C91.2707 240.64 90.5195 243.233 90.5195 246.436C90.5195 249.639 91.2707 252.232 92.1933 252.232H94.766V240.64H92.1933Z" fill="#263238" stroke="#263238" stroke-linecap="round" stroke-linejoin="round"/>
<path d="M94.7656 252.232C95.69 252.232 96.4393 249.637 96.4393 246.436C96.4393 243.235 95.69 240.64 94.7656 240.64C93.8412 240.64 93.0918 243.235 93.0918 246.436C93.0918 249.637 93.8412 252.232 94.7656 252.232Z" fill="#263238" stroke="#263238" stroke-linecap="round" stroke-linejoin="round"/>
<path d="M94.7655 250.041C95.3404 250.041 95.8065 248.427 95.8065 246.436C95.8065 244.444 95.3404 242.83 94.7655 242.83C94.1906 242.83 93.7246 244.444 93.7246 246.436C93.7246 248.427 94.1906 250.041 94.7655 250.041Z" fill="#263238" stroke="#263238" stroke-linecap="round" stroke-linejoin="round"/>
<path d="M97.1913 240.64C96.2687 240.64 95.5176 243.233 95.5176 246.436C95.5176 249.639 96.2687 252.232 97.1913 252.232H99.7641V240.64H97.1913Z" fill="#263238" stroke="#263238" stroke-linecap="round" stroke-linejoin="round"/>
<path d="M99.7636 252.232C100.688 252.232 101.437 249.637 101.437 246.436C101.437 243.235 100.688 240.64 99.7636 240.64C98.8392 240.64 98.0898 243.235 98.0898 246.436C98.0898 249.637 98.8392 252.232 99.7636 252.232Z" fill="#263238" stroke="#263238" stroke-linecap="round" stroke-linejoin="round"/>
<path d="M99.7636 250.041C100.338 250.041 100.805 248.427 100.805 246.436C100.805 244.444 100.338 242.83 99.7636 242.83C99.1887 242.83 98.7227 244.444 98.7227 246.436C98.7227 248.427 99.1887 250.041 99.7636 250.041Z" fill="#263238" stroke="#263238" stroke-linecap="round" stroke-linejoin="round"/>
<path d="M43.9255 248.603H17.1512C17.1512 248.603 16.8733 241.238 17.5002 238.852C18.1271 236.466 19.1148 236.394 19.6708 236.258C20.2267 236.122 21.1434 236.187 21.1434 236.187C21.1434 236.187 21.3564 230.645 22.6871 228.68L23.385 220.965C23.385 220.965 23.8049 218.508 25.2066 217.105C25.2066 217.105 25.3485 213.037 26.3954 210.722C27.4422 208.407 28.3589 207.916 28.3589 207.916H52.2588V215.21C52.2588 215.21 53.3826 215.702 53.3826 216.471V240.184H46.723L46.7585 243.772C46.7585 243.772 46.6934 240.355 45.966 239.497C45.2385 238.632 44.4105 241.652 44.2804 242.978C44.1503 244.304 43.9255 248.603 43.9255 248.603Z" fill="#75A9C8" stroke="#263238" stroke-linecap="round" stroke-linejoin="round"/>
<path d="M42.8496 217.732C43.3642 217.608 43.7604 217.519 43.9911 217.466" stroke="#263238" stroke-linecap="round" stroke-linejoin="round"/>
<path d="M25.5371 217.738C25.8683 218.407 26.4538 218.916 27.1576 219.165C28.3819 219.597 30.4815 220.107 32.9064 219.769C35.7689 219.366 39.8321 218.443 42.2215 217.88" stroke="#263238" stroke-linecap="round" stroke-linejoin="round"/>
<path d="M21.3926 236.88C21.3926 236.88 21.2329 241.782 22.0905 243.399Z" fill="white"/>
<path d="M21.3926 236.88C21.3926 236.88 21.2329 241.782 22.0905 243.399" stroke="#263238" stroke-linecap="round" stroke-linejoin="round"/>
<path d="M44.2385 243.505C38.679 243.227 30.1919 244.559 29.3284 244.695C25.3422 243.511 18.582 243.079 17.1212 242.996C17.1212 243.203 17.1094 243.411 17.1094 243.618C18.6057 243.701 25.3244 244.139 29.222 245.311L29.2929 245.335L29.3639 245.323C29.4585 245.305 38.4424 243.837 44.203 244.127C44.2208 243.902 44.2326 243.695 44.2503 243.505H44.2385Z" fill="white" stroke="#263238" stroke-linecap="round" stroke-linejoin="round"/>
<path d="M17.7371 239.965C17.7371 239.965 17.4887 242.363 17.5596 242.511C17.6306 242.659 21.3507 243.209 21.398 242.961C21.4454 242.712 21.3212 241.712 20.9722 241.161C20.6233 240.61 18.4054 239.586 17.7311 239.965H17.7371Z" fill="white" stroke="#263238" stroke-linecap="round" stroke-linejoin="round"/>
<path d="M42.7777 240.183C42.7777 240.183 42.6653 242.457 42.5529 242.593C42.4406 242.729 37.301 242.96 37.2419 242.723C37.1886 242.486 37.4193 241.557 37.9338 241.065C38.4484 240.574 41.8728 239.781 42.7777 240.189V240.183Z" fill="white" stroke="#263238" stroke-linecap="round" stroke-linejoin="round"/>
<path d="M25.8379 243.469L29.0376 244.114L28.7478 235.269L25.8379 234.955V243.469Z" fill="#263238"/>
<path d="M25.4363 234.914L23.041 234.653L23.2953 242.948L25.4363 243.386V234.914Z" fill="#263238"/>
<path d="M32.8188 243.469L29.6191 244.114L29.9089 235.269L32.8188 234.955V243.469Z" fill="#263238"/>
<path d="M33.2207 234.914L35.616 234.653L35.3617 242.948L33.2207 243.386V234.914Z" fill="#263238"/>
<path d="M47.4797 211.853C45.6285 214.796 45.7054 217.217 45.7054 217.217C45.7054 217.217 45.7468 216.856 46.2673 217.377L46.7937 217.904C46.7937 217.904 45.5872 218.549 45.1436 220C44.7 221.451 44.0553 229.674 44.0553 229.674C44.0553 229.674 37.4904 233.505 37.171 234.192C36.8517 234.879 37.0882 240.764 37.0882 240.764C37.0882 240.764 38.7383 237.62 39.5072 237.058C40.2702 236.495 42.6891 235.69 44.2978 236.531C45.9065 237.377 46.6695 239.011 46.7286 240.19H53.3882V216.477C53.3882 215.708 52.2645 215.216 52.2645 215.216V207.922C52.2645 207.922 49.3309 208.922 47.4738 211.865L47.4797 211.853Z" fill="#75A9C8" stroke="#263238" stroke-linecap="round" stroke-linejoin="round"/>
<path d="M49.8763 230.438C49.2198 230.438 48.6875 229.905 48.6875 229.248V225.459C48.6875 224.801 49.2198 224.269 49.8763 224.269C50.5328 224.269 51.0651 224.801 51.0651 225.459V229.248C51.0651 229.905 50.5328 230.438 49.8763 230.438Z" fill="#E5E5E5" stroke="#263238" stroke-linecap="round" stroke-linejoin="round"/>
<path d="M18.8548 230.438C18.1983 230.438 17.666 229.905 17.666 229.248V225.459C17.666 224.801 18.1983 224.269 18.8548 224.269C19.5113 224.269 20.0436 224.801 20.0436 225.459V229.248C20.0436 229.905 19.5113 230.438 18.8548 230.438Z" fill="white" stroke="#263238" stroke-linecap="round" stroke-linejoin="round"/>
<path d="M45.1798 222.534L44.5352 229.752C44.5352 229.752 46.6288 229.592 46.7471 229.266C46.8654 228.947 46.7885 228.337 46.7885 228.337V222.57C46.7885 222.57 45.8245 222.209 45.1798 222.529V222.534Z" fill="#263238" stroke="#263238" stroke-linecap="round" stroke-linejoin="round"/>
<path d="M47.1434 220.143C47.1257 223.375 47.0843 230.563 47.1139 232.576C47.1553 235.199 47.1553 236.365 47.1553 236.365" fill="white"/>
<path d="M47.1434 220.143C47.1257 223.375 47.0843 230.563 47.1139 232.576C47.1553 235.199 47.1553 236.365 47.1553 236.365" stroke="#263238" stroke-linecap="round" stroke-linejoin="round"/>
<path d="M47.1543 218.544C47.1543 218.544 47.1543 218.828 47.1543 219.32Z" fill="white"/>
<path d="M47.1543 218.544C47.1543 218.544 47.1543 218.828 47.1543 219.32" stroke="#263238" stroke-linecap="round" stroke-linejoin="round"/>
<path d="M47.1126 237.046C47.1126 237.046 46.9116 238.698 46.5508 239.467Z" fill="white"/>
<path d="M47.1126 237.046C47.1126 237.046 46.9116 238.698 46.5508 239.467" stroke="#263238" stroke-linecap="round" stroke-linejoin="round"/>
<path d="M47.2734 216.773C47.2734 216.773 47.717 215.364 48.8053 215.038C49.8935 214.719 51.7861 215.121 51.7861 215.121" stroke="#263238" stroke-linecap="round" stroke-linejoin="round"/>
<path d="M44.3388 221.527H23.7923L23.2305 228.549H43.7769L44.3388 221.527Z" fill="#263238" stroke="#263238" stroke-linecap="round" stroke-linejoin="round"/>
<path d="M48.6038 227.815L44.7891 230.835V232.22L48.6866 228.484L48.6038 227.815ZM48.6038 228.283L45.2859 231.273V230.794L48.6038 228.141V228.289V228.283Z" fill="#263238" stroke="#263238" stroke-width="0.75" stroke-miterlimit="10"/>
<path d="M210.876 239.189H135.604C135.213 239.189 134.9 239.503 134.9 239.894V241.303C134.9 241.694 134.586 242.008 134.196 242.008C133.806 242.008 133.492 242.321 133.492 242.712V246.744C133.492 247.135 133.806 247.449 134.196 247.449H167.63C168.02 247.449 168.334 247.135 168.334 246.744V245.536C168.334 245.146 168.647 244.832 169.037 244.832H210.876C211.266 244.832 211.579 244.518 211.579 244.127V239.894C211.579 239.503 211.266 239.189 210.876 239.189Z" fill="#263238" stroke="#263238" stroke-linecap="round" stroke-linejoin="round"/>
<path d="M140.614 203.203H114.52V239.426H140.614V203.203Z" fill="white" stroke="#263238" stroke-linecap="round" stroke-linejoin="round"/>
<path d="M140.614 203.203H114.52V204.956H140.614V203.203Z" fill="#C7C7C7" stroke="#263238" stroke-linecap="round" stroke-linejoin="round"/>
<path d="M217.158 203.203H140.053V239.426H217.158V203.203Z" fill="#EBEBEB" stroke="#263238" stroke-linecap="round" stroke-linejoin="round"/>
<path d="M217.158 236.785H140.053V239.426H217.158V236.785Z" fill="#C7C7C7" stroke="#263238" stroke-linecap="round" stroke-linejoin="round"/>
<path d="M103.395 227.815L107.21 230.835V232.22L103.312 228.484L103.395 227.815ZM103.395 228.283L106.713 231.273V230.794L103.395 228.141V228.289V228.283Z" fill="#263238" stroke="#263238" stroke-width="0.75" stroke-miterlimit="10"/>
<path d="M141.01 240.64C140.087 240.64 139.336 243.233 139.336 246.436C139.336 249.639 140.087 252.232 141.01 252.232H143.582V240.64H141.01Z" fill="#263238" stroke="#263238" stroke-linecap="round" stroke-linejoin="round"/>
<path d="M143.582 252.232C144.506 252.232 145.256 249.637 145.256 246.436C145.256 243.235 144.506 240.64 143.582 240.64C142.658 240.64 141.908 243.235 141.908 246.436C141.908 249.637 142.658 252.232 143.582 252.232Z" fill="#919191" stroke="#263238" stroke-linecap="round" stroke-linejoin="round"/>
<path d="M143.582 250.041C144.157 250.041 144.623 248.427 144.623 246.436C144.623 244.444 144.157 242.83 143.582 242.83C143.007 242.83 142.541 244.444 142.541 246.436C142.541 248.427 143.007 250.041 143.582 250.041Z" fill="white" stroke="#263238" stroke-linecap="round" stroke-linejoin="round"/>
<path d="M137.291 240.64C136.368 240.64 135.617 243.233 135.617 246.436C135.617 249.639 136.368 252.232 137.291 252.232H139.864V240.64H137.291Z" fill="#263238" stroke="#263238" stroke-linecap="round" stroke-linejoin="round"/>
<path d="M139.863 252.232C140.788 252.232 141.537 249.637 141.537 246.436C141.537 243.235 140.788 240.64 139.863 240.64C138.939 240.64 138.189 243.235 138.189 246.436C138.189 249.637 138.939 252.232 139.863 252.232Z" fill="#919191" stroke="#263238" stroke-linecap="round" stroke-linejoin="round"/>
<path d="M139.863 250.041C140.438 250.041 140.904 248.427 140.904 246.436C140.904 244.444 140.438 242.83 139.863 242.83C139.288 242.83 138.822 244.444 138.822 246.436C138.822 248.427 139.288 250.041 139.863 250.041Z" fill="white" stroke="#263238" stroke-linecap="round" stroke-linejoin="round"/>
<path d="M202.295 240.64C201.372 240.64 200.621 243.233 200.621 246.436C200.621 249.639 201.372 252.232 202.295 252.232H204.868V240.64H202.295Z" fill="#263238" stroke="#263238" stroke-linecap="round" stroke-linejoin="round"/>
<path d="M204.867 252.232C205.792 252.232 206.541 249.637 206.541 246.436C206.541 243.235 205.792 240.64 204.867 240.64C203.943 240.64 203.193 243.235 203.193 246.436C203.193 249.637 203.943 252.232 204.867 252.232Z" fill="#919191" stroke="#263238" stroke-linecap="round" stroke-linejoin="round"/>
<path d="M204.867 250.041C205.442 250.041 205.908 248.427 205.908 246.436C205.908 244.444 205.442 242.83 204.867 242.83C204.292 242.83 203.826 244.444 203.826 246.436C203.826 248.427 204.292 250.041 204.867 250.041Z" fill="white" stroke="#263238" stroke-linecap="round" stroke-linejoin="round"/>
<path d="M198.574 240.64C197.652 240.64 196.9 243.233 196.9 246.436C196.9 249.639 197.652 252.232 198.574 252.232H201.147V240.64H198.574Z" fill="#263238" stroke="#263238" stroke-linecap="round" stroke-linejoin="round"/>
<path d="M201.146 252.232C202.071 252.232 202.82 249.637 202.82 246.436C202.82 243.235 202.071 240.64 201.146 240.64C200.222 240.64 199.473 243.235 199.473 246.436C199.473 249.637 200.222 252.232 201.146 252.232Z" fill="#919191" stroke="#263238" stroke-linecap="round" stroke-linejoin="round"/>
<path d="M201.146 250.041C201.721 250.041 202.187 248.427 202.187 246.436C202.187 244.444 201.721 242.83 201.146 242.83C200.572 242.83 200.105 244.444 200.105 246.436C200.105 248.427 200.572 250.041 201.146 250.041Z" fill="white" stroke="#263238" stroke-linecap="round" stroke-linejoin="round"/>
<path d="M136.734 240.112C136.734 240.112 137.739 240.598 137.698 241.889C137.657 243.179 137.095 247.211 136.533 247.655C135.971 248.099 135.167 248.141 135.167 248.141H130.695L130.914 240.189L136.734 240.118V240.112Z" fill="#75A9C8" stroke="#263238" stroke-linecap="round" stroke-linejoin="round"/>
<path d="M130.093 238.502C130.093 238.502 130.654 238.461 130.856 240.841C131.057 243.221 130.613 244.95 130.613 244.95C130.613 244.95 129.649 241.682 128.88 241.244L128.117 240.8C128.117 240.8 129.205 238.218 130.093 238.502Z" fill="#263238" stroke="#263238" stroke-linecap="round" stroke-linejoin="round"/>
<path d="M126.568 240.64C125.646 240.64 124.895 243.233 124.895 246.436C124.895 249.639 125.646 252.232 126.568 252.232H129.141V240.64H126.568Z" fill="#263238" stroke="#263238" stroke-linecap="round" stroke-linejoin="round"/>
<path d="M129.135 252.232C130.059 252.232 130.808 249.637 130.808 246.436C130.808 243.235 130.059 240.64 129.135 240.64C128.21 240.64 127.461 243.235 127.461 246.436C127.461 249.637 128.21 252.232 129.135 252.232Z" fill="#919191" stroke="#263238" stroke-linecap="round" stroke-linejoin="round"/>
<path d="M129.135 250.041C129.71 250.041 130.176 248.427 130.176 246.436C130.176 244.444 129.71 242.83 129.135 242.83C128.56 242.83 128.094 244.444 128.094 246.436C128.094 248.427 128.56 250.041 129.135 250.041Z" fill="white" stroke="#263238" stroke-linecap="round" stroke-linejoin="round"/>
<path d="M103.359 240.64C102.437 240.64 101.686 243.233 101.686 246.436C101.686 249.639 102.437 252.232 103.359 252.232H105.932V240.64H103.359Z" fill="#263238" stroke="#263238" stroke-linecap="round" stroke-linejoin="round"/>
<path d="M105.932 252.232C106.856 252.232 107.605 249.637 107.605 246.436C107.605 243.235 106.856 240.64 105.932 240.64C105.007 240.64 104.258 243.235 104.258 246.436C104.258 249.637 105.007 252.232 105.932 252.232Z" fill="#263238" stroke="#263238" stroke-linecap="round" stroke-linejoin="round"/>
<path d="M105.932 250.041C106.506 250.041 106.972 248.427 106.972 246.436C106.972 244.444 106.506 242.83 105.932 242.83C105.357 242.83 104.891 244.444 104.891 246.436C104.891 248.427 105.357 250.041 105.932 250.041Z" fill="#263238" stroke="#263238" stroke-linecap="round" stroke-linejoin="round"/>
<path d="M115.371 240.64C114.448 240.64 113.697 243.233 113.697 246.436C113.697 249.639 114.448 252.232 115.371 252.232H117.944V240.64H115.371Z" fill="#263238" stroke="#263238" stroke-linecap="round" stroke-linejoin="round"/>
<path d="M117.943 252.232C118.868 252.232 119.617 249.637 119.617 246.436C119.617 243.235 118.868 240.64 117.943 240.64C117.019 240.64 116.27 243.235 116.27 246.436C116.27 249.637 117.019 252.232 117.943 252.232Z" fill="#263238" stroke="#263238" stroke-linecap="round" stroke-linejoin="round"/>
<path d="M116.902 246.436C116.902 248.431 117.37 250.041 117.943 250.041C118.517 250.041 118.984 248.425 118.984 246.436C118.984 244.446 118.517 242.83 117.943 242.83C117.37 242.83 116.902 244.446 116.902 246.436Z" fill="#263238" stroke="#263238" stroke-linecap="round" stroke-linejoin="round"/>
<path d="M120.369 240.64C119.446 240.64 118.695 243.233 118.695 246.436C118.695 249.639 119.446 252.232 120.369 252.232H122.942V240.64H120.369Z" fill="#263238" stroke="#263238" stroke-linecap="round" stroke-linejoin="round"/>
<path d="M122.941 252.232C123.866 252.232 124.615 249.637 124.615 246.436C124.615 243.235 123.866 240.64 122.941 240.64C122.017 240.64 121.268 243.235 121.268 246.436C121.268 249.637 122.017 252.232 122.941 252.232Z" fill="#263238" stroke="#263238" stroke-linecap="round" stroke-linejoin="round"/>
<path d="M122.941 250.041C123.516 250.041 123.982 248.427 123.982 246.436C123.982 244.444 123.516 242.83 122.941 242.83C122.366 242.83 121.9 244.444 121.9 246.436C121.9 248.427 122.366 250.041 122.941 250.041Z" fill="#263238" stroke="#263238" stroke-linecap="round" stroke-linejoin="round"/>
<path d="M176.379 240.64C175.456 240.64 174.705 243.233 174.705 246.436C174.705 249.639 175.456 252.232 176.379 252.232H178.952V240.64H176.379Z" fill="#263238" stroke="#263238" stroke-linecap="round" stroke-linejoin="round"/>
<path d="M178.951 252.232C179.876 252.232 180.625 249.637 180.625 246.436C180.625 243.235 179.876 240.64 178.951 240.64C178.027 240.64 177.277 243.235 177.277 246.436C177.277 249.637 178.027 252.232 178.951 252.232Z" fill="#263238" stroke="#263238" stroke-linecap="round" stroke-linejoin="round"/>
<path d="M178.951 250.041C179.526 250.041 179.992 248.427 179.992 246.436C179.992 244.444 179.526 242.83 178.951 242.83C178.376 242.83 177.91 244.444 177.91 246.436C177.91 248.427 178.376 250.041 178.951 250.041Z" fill="#263238" stroke="#263238" stroke-linecap="round" stroke-linejoin="round"/>
<path d="M181.377 240.64C180.454 240.64 179.703 243.233 179.703 246.436C179.703 249.639 180.454 252.232 181.377 252.232H183.95V240.64H181.377Z" fill="#263238" stroke="#263238" stroke-linecap="round" stroke-linejoin="round"/>
<path d="M183.949 252.232C184.874 252.232 185.623 249.637 185.623 246.436C185.623 243.235 184.874 240.64 183.949 240.64C183.025 240.64 182.275 243.235 182.275 246.436C182.275 249.637 183.025 252.232 183.949 252.232Z" fill="#263238" stroke="#263238" stroke-linecap="round" stroke-linejoin="round"/>
<path d="M182.908 246.436C182.908 248.431 183.375 250.041 183.949 250.041C184.523 250.041 184.99 248.425 184.99 246.436C184.99 244.446 184.523 242.83 183.949 242.83C183.375 242.83 182.908 244.446 182.908 246.436Z" fill="#263238" stroke="#263238" stroke-linecap="round" stroke-linejoin="round"/>
<path d="M128.111 248.603H101.337C101.337 248.603 101.059 241.238 101.686 238.852C102.319 236.466 103.3 236.394 103.856 236.258C104.412 236.122 105.329 236.187 105.329 236.187C105.329 236.187 105.542 230.645 106.873 228.68L107.576 220.965C107.576 220.965 107.996 218.508 109.398 217.105C109.398 217.105 109.54 213.037 110.587 210.722C111.634 208.407 112.55 207.916 112.55 207.916H136.45V215.21C136.45 215.21 137.574 215.702 137.574 216.471V240.184H130.914L130.95 243.772C130.95 243.772 130.885 240.355 130.157 239.497C129.43 238.638 128.602 241.652 128.472 242.978C128.342 244.304 128.117 248.603 128.117 248.603H128.111Z" fill="#75A9C8" stroke="#263238" stroke-linecap="round" stroke-linejoin="round"/>
<path d="M127.029 217.732C127.544 217.608 127.94 217.519 128.171 217.466" stroke="#263238" stroke-linecap="round" stroke-linejoin="round"/>
<path d="M109.723 217.738C110.054 218.407 110.639 218.916 111.343 219.165C112.567 219.597 114.667 220.107 117.092 219.769C119.954 219.366 124.018 218.443 126.407 217.88" stroke="#263238" stroke-linecap="round" stroke-linejoin="round"/>
<path d="M105.572 236.88C105.572 236.88 105.413 241.782 106.27 243.399Z" fill="white"/>
<path d="M105.572 236.88C105.572 236.88 105.413 241.782 106.27 243.399" stroke="#263238" stroke-linecap="round" stroke-linejoin="round"/>
<path d="M128.418 243.505C122.859 243.227 114.372 244.559 113.508 244.695C109.522 243.511 102.762 243.079 101.301 242.996C101.301 243.203 101.289 243.411 101.289 243.618C102.785 243.701 109.504 244.139 113.402 245.311L113.473 245.335L113.544 245.323C113.638 245.305 122.622 243.837 128.383 244.127C128.4 243.902 128.412 243.695 128.43 243.505H128.418Z" fill="white" stroke="#263238" stroke-linecap="round" stroke-linejoin="round"/>
<path d="M101.923 239.965C101.923 239.965 101.674 242.363 101.745 242.511C101.822 242.659 105.536 243.209 105.584 242.961C105.631 242.712 105.507 241.712 105.158 241.161C104.809 240.61 102.591 239.586 101.917 239.965H101.923Z" fill="white" stroke="#263238" stroke-linecap="round" stroke-linejoin="round"/>
<path d="M126.963 240.183C126.963 240.183 126.851 242.457 126.738 242.593C126.626 242.729 121.487 242.96 121.427 242.723C121.374 242.486 121.605 241.557 122.119 241.065C122.634 240.574 126.058 239.781 126.963 240.189V240.183Z" fill="white" stroke="#263238" stroke-linecap="round" stroke-linejoin="round"/>
<path d="M110.023 243.469L113.223 244.114L112.927 235.269L110.023 234.955V243.469Z" fill="#263238"/>
<path d="M109.622 234.914L107.221 234.653L107.475 242.948L109.622 243.386V234.914Z" fill="#263238"/>
<path d="M117.004 243.469L113.805 244.114L114.094 235.269L117.004 234.955V243.469Z" fill="#263238"/>
<path d="M117.406 234.914L119.802 234.653L119.547 242.948L117.406 243.386V234.914Z" fill="#263238"/>
<path d="M131.659 211.853C129.808 214.796 129.885 217.217 129.885 217.217C129.885 217.217 129.927 216.856 130.447 217.377L130.973 217.904C130.973 217.904 129.767 218.549 129.323 220C128.88 221.451 128.235 229.674 128.235 229.674C128.235 229.674 121.67 233.505 121.351 234.192C121.031 234.879 121.268 240.764 121.268 240.764C121.268 240.764 122.918 237.62 123.687 237.058C124.45 236.495 126.869 235.69 128.478 236.531C130.086 237.371 130.849 239.011 130.908 240.19H137.568V216.477C137.568 215.708 136.444 215.216 136.444 215.216V207.922C136.444 207.922 133.511 208.922 131.654 211.865L131.659 211.853Z" fill="#75A9C8" stroke="#263238" stroke-linecap="round" stroke-linejoin="round"/>
<path d="M134.054 230.438C133.398 230.438 132.865 229.905 132.865 229.248V225.459C132.865 224.801 133.398 224.269 134.054 224.269C134.711 224.269 135.243 224.801 135.243 225.459V229.248C135.243 229.905 134.711 230.438 134.054 230.438Z" fill="#E5E5E5" stroke="#263238" stroke-linecap="round" stroke-linejoin="round"/>
<path d="M103.04 224.269C103.697 224.269 104.229 224.801 104.229 225.459V229.248C104.229 229.905 103.697 230.438 103.04 230.438C102.384 230.438 101.852 229.905 101.852 229.248V225.459C101.852 224.801 102.384 224.269 103.04 224.269Z" fill="white" stroke="#263238" stroke-linecap="round" stroke-linejoin="round"/>
<path d="M129.365 222.534L128.721 229.752C128.721 229.752 130.814 229.592 130.933 229.266C131.051 228.941 130.974 228.337 130.974 228.337V222.57C130.974 222.57 130.01 222.209 129.365 222.529V222.534Z" fill="#263238" stroke="#263238" stroke-linecap="round" stroke-linejoin="round"/>
<path d="M131.329 220.143C131.311 223.375 131.27 230.563 131.299 232.576C131.341 235.199 131.341 236.365 131.341 236.365" fill="white"/>
<path d="M131.329 220.143C131.311 223.375 131.27 230.563 131.299 232.576C131.341 235.199 131.341 236.365 131.341 236.365" stroke="#263238" stroke-linecap="round" stroke-linejoin="round"/>
<path d="M131.34 218.544C131.34 218.544 131.34 218.828 131.34 219.32Z" fill="white"/>
<path d="M131.34 218.544C131.34 218.544 131.34 218.828 131.34 219.32" stroke="#263238" stroke-linecap="round" stroke-linejoin="round"/>
<path d="M131.298 237.046C131.298 237.046 131.097 238.698 130.736 239.467Z" fill="white"/>
<path d="M131.298 237.046C131.298 237.046 131.097 238.698 130.736 239.467" stroke="#263238" stroke-linecap="round" stroke-linejoin="round"/>
<path d="M131.459 216.773C131.459 216.773 131.903 215.364 132.991 215.038C134.079 214.719 135.972 215.121 135.972 215.121" stroke="#263238" stroke-linecap="round" stroke-linejoin="round"/>
<path d="M128.524 221.527H107.978L107.416 228.549H127.962L128.524 221.527Z" fill="#263238" stroke="#263238" stroke-linecap="round" stroke-linejoin="round"/>
<path d="M132.784 227.815L128.969 230.835V232.22L132.866 228.484L132.784 227.815ZM132.784 228.283L129.466 231.273V230.794L132.784 228.141V228.289V228.283Z" fill="#263238" stroke="#263238" stroke-width="0.75" stroke-miterlimit="10"/>
<path d="M0.294922 252.232H435.704" stroke="#263238" stroke-linecap="round" stroke-linejoin="round"/>
</g>
<defs>
<clipPath id="clip0_210_5403">
<rect width="436" height="279" fill="white"/>
</clipPath>
</defs>
</svg>
